<svg version="1.1" xmlns="http://www.w3.org/2000/svg" xmlns:xlink="http://www.w3.org/1999/xlink" width="2374" height="3136"><defs/><g><g/><g/><g/><g/><g/><g/><g/><g/><g/><g/><g/><g/><g/><g/><g/><g/><g/><g/><g/><g/><g/><g/><g/><g/><g/><g/><g/><g/><g/><g/><g/><g/><g/><g/><g/><g/><g/><g/><g/><g/><g/><g/><g/><g/><g><rect fill="white" stroke="none" x="0" y="0" width="2374" height="3136"/></g><g><text fill="black" stroke="none" font-family="sans-serif" font-size="16.5pt" font-style="normal" font-weight="normal" text-decoration="normal" x="1096.921111458867" y="24.50280495" text-anchor="start" dominant-baseline="alphabetic">Get Improvements</text></g><g/><g><path fill="none" stroke="black" paint-order="fill stroke markers" d=" M 130.6816264 128.80307802049998 L 130.6816264 3136.1140055504984" stroke-miterlimit="10" stroke-width="1.3612669416666667" stroke-dasharray="12.565541,5.445067766666667"/><path fill="none" stroke="black" paint-order="fill stroke markers" d=" M 321.6679010434244 128.80307802049998 L 321.6679010434244 3136.1140055504984" stroke-miterlimit="10" stroke-width="1.3612669416666667" stroke-dasharray="12.565541,5.445067766666667"/><path fill="none" stroke="black" paint-order="fill stroke markers" d=" M 502.15771691132807 128.80307802049998 L 502.15771691132807 3136.1140055504984" stroke-miterlimit="10" stroke-width="1.3612669416666667" stroke-dasharray="12.565541,5.445067766666667"/><path fill="none" stroke="black" paint-order="fill stroke markers" d=" M 716.8637040438801 128.80307802049998 L 716.8637040438801 3136.1140055504984" stroke-miterlimit="10" stroke-width="1.3612669416666667" stroke-dasharray="12.565541,5.445067766666667"/><path fill="none" stroke="black" paint-order="fill stroke markers" d=" M 936.4301037740885 128.80307802049998 L 936.4301037740885 3136.1140055504984" stroke-miterlimit="10" stroke-width="1.3612669416666667" stroke-dasharray="12.565541,5.445067766666667"/><path fill="none" stroke="black" paint-order="fill stroke markers" d=" M 1387.3993965707032 128.80307802049998 L 1387.3993965707032 3136.1140055504984" stroke-miterlimit="10" stroke-width="1.3612669416666667" stroke-dasharray="12.565541,5.445067766666667"/><path fill="none" stroke="black" paint-order="fill stroke markers" d=" M 1694.7919530646095 128.80307802049998 L 1694.7919530646095 3136.1140055504984" stroke-miterlimit="10" stroke-width="1.3612669416666667" stroke-dasharray="12.565541,5.445067766666667"/><path fill="none" stroke="black" paint-order="fill stroke markers" d=" M 1868.7842584859636 128.80307802049998 L 1868.7842584859636 3136.1140055504984" stroke-miterlimit="10" stroke-width="1.3612669416666667" stroke-dasharray="12.565541,5.445067766666667"/><path fill="none" stroke="black" paint-order="fill stroke markers" d=" M 2260.447948255234 128.80307802049998 L 2260.447948255234 3136.1140055504984" stroke-miterlimit="10" stroke-width="1.3612669416666667" stroke-dasharray="12.565541,5.445067766666667"/></g><g><g><path fill="white" stroke="black" paint-order="fill stroke markers" d=" M 139.992692281 59.70516806150002 A 9.311065881 9.311065881 0 1 1 139.99268762546745 59.69585699717086 M 130.6816264 69.01623394250002 L 130.6816264 88.94518196850002 M 118.920280024 76.20372339450002 L 142.442972776 76.20372339450002 M 130.6816264 88.94518196850002 L 118.920280024 107.56731373050002 M 130.6816264 88.94518196850002 L 142.442972776 107.56731373050002" stroke-miterlimit="10" stroke-width="2.7769845610000004" stroke-dasharray=""/></g><g><g/><text fill="black" stroke="none" font-family="sans-serif" font-size="11pt" font-style="normal" font-weight="normal" text-decoration="normal" x="119.68663891220703" y="123.90251703050001" text-anchor="start" dominant-baseline="alphabetic">ME</text></g><path fill="none" stroke="none"/><g><path fill="white" stroke="black" paint-order="fill stroke markers" d=" M 292.94921797513143 84.69802911050002 L 350.38658411171735 84.69802911050002 L 350.38658411171735 128.8030780205 L 292.94921797513143 128.8030780205 L 292.94921797513143 84.69802911050002 Z" stroke-miterlimit="10" stroke-width="2.613632528" stroke-dasharray=""/></g><g><g/><text fill="black" stroke="none" font-family="sans-serif" font-size="11pt" font-style="normal" font-weight="normal" text-decoration="normal" x="310.67291355563145" y="112.46787472049999" text-anchor="start" dominant-baseline="alphabetic">MS</text></g><path fill="none" stroke="none"/><g><path fill="white" stroke="black" paint-order="fill stroke markers" d=" M 456.4526446828788 84.69802911050002 L 547.8627891397773 84.69802911050002 L 547.8627891397773 128.8030780205 L 456.4526446828788 128.8030780205 L 456.4526446828788 84.69802911050002 Z" stroke-miterlimit="10" stroke-width="2.613632528" stroke-dasharray=""/></g><g><g/><text fill="black" stroke="none" font-family="sans-serif" font-size="11pt" font-style="normal" font-weight="normal" text-decoration="normal" x="474.17634026337885" y="112.46787472049999" text-anchor="start" dominant-baseline="alphabetic">WebApp</text></g><path fill="none" stroke="none"/><g><path fill="white" stroke="black" paint-order="fill stroke markers" d=" M 662.6117568154309 84.69802911050002 L 771.1156512723294 84.69802911050002 L 771.1156512723294 128.8030780205 L 662.6117568154309 128.8030780205 L 662.6117568154309 84.69802911050002 Z" stroke-miterlimit="10" stroke-width="2.613632528" stroke-dasharray=""/></g><g><g/><text fill="black" stroke="none" font-family="sans-serif" font-size="11pt" font-style="normal" font-weight="normal" text-decoration="normal" x="680.3354523959309" y="112.46787472049999" text-anchor="start" dominant-baseline="alphabetic">WebServer</text></g><path fill="none" stroke="none"/><g><path fill="white" stroke="black" paint-order="fill stroke markers" d=" M 896.705698659897 84.69802911050002 L 976.1545088882799 84.69802911050002 L 976.1545088882799 128.8030780205 L 896.705698659897 128.8030780205 L 896.705698659897 84.69802911050002 Z" stroke-miterlimit="10" stroke-width="2.613632528" stroke-dasharray=""/></g><g><g/><text fill="black" stroke="none" font-family="sans-serif" font-size="11pt" font-style="normal" font-weight="normal" text-decoration="normal" x="914.4293942403971" y="112.46787472049999" text-anchor="start" dominant-baseline="alphabetic">Router</text></g><path fill="none" stroke="none"/><g><path fill="white" stroke="black" paint-order="fill stroke markers" d=" M 1297.9720724501642 84.69802911050002 L 1476.8267206912424 84.69802911050002 L 1476.8267206912424 128.8030780205 L 1297.9720724501642 128.8030780205 L 1297.9720724501642 84.69802911050002 Z" stroke-miterlimit="10" stroke-width="2.613632528" stroke-dasharray=""/></g><g><g/><text fill="black" stroke="none" font-family="sans-serif" font-size="11pt" font-style="normal" font-weight="normal" text-decoration="normal" x="1315.695768030664" y="112.46787472049999" text-anchor="start" dominant-baseline="alphabetic">ImprovementManager</text></g><path fill="none" stroke="none"/><g><path fill="white" stroke="black" paint-order="fill stroke markers" d=" M 1661.1842242809846 84.69802911050002 L 1728.3996818482346 84.69802911050002 L 1728.3996818482346 128.8030780205 L 1661.1842242809846 128.8030780205 L 1661.1842242809846 84.69802911050002 Z" stroke-miterlimit="10" stroke-width="2.613632528" stroke-dasharray=""/></g><g><g/><text fill="black" stroke="none" font-family="sans-serif" font-size="11pt" font-style="normal" font-weight="normal" text-decoration="normal" x="1678.9079198614845" y="112.46787472049999" text-anchor="start" dominant-baseline="alphabetic">MAS</text></g><path fill="none" stroke="none"/><g><path fill="white" stroke="black" paint-order="fill stroke markers" d=" M 1810.7313011256786 84.69802911050002 L 1926.837215846249 84.69802911050002 L 1926.837215846249 128.8030780205 L 1810.7313011256786 128.8030780205 L 1810.7313011256786 84.69802911050002 Z" stroke-miterlimit="10" stroke-width="2.613632528" stroke-dasharray=""/></g><g><g/><text fill="black" stroke="none" font-family="sans-serif" font-size="11pt" font-style="normal" font-weight="normal" text-decoration="normal" x="1828.4549967061785" y="112.46787472049999" text-anchor="start" dominant-baseline="alphabetic">ReportMiner</text></g><path fill="none" stroke="none"/><g><path fill="white" stroke="black" paint-order="fill stroke markers" d=" M 2221.546731922781 84.69802911050002 L 2299.349164587687 84.69802911050002 L 2299.349164587687 128.8030780205 L 2221.546731922781 128.8030780205 L 2221.546731922781 84.69802911050002 Z" stroke-miterlimit="10" stroke-width="2.613632528" stroke-dasharray=""/></g><g><g/><text fill="black" stroke="none" font-family="sans-serif" font-size="11pt" font-style="normal" font-weight="normal" text-decoration="normal" x="2239.270427503281" y="112.46787472049999" text-anchor="start" dominant-baseline="alphabetic">DBMS</text></g></g><g><path fill="white" stroke="black" paint-order="fill stroke markers" d=" M 122.51402475 136.97067967049998 L 138.84922805 136.97067967049998 L 138.84922805 3054.4379890504983 L 122.51402475 3054.4379890504983 L 122.51402475 136.97067967049998" stroke-miterlimit="10" stroke-width="1.3612669416666667" stroke-dasharray=""/><path fill="white" stroke="black" paint-order="fill stroke markers" d=" M 493.99011526132807 182.70924891049998 L 510.32531856132806 182.70924891049998 L 510.32531856132806 1773.7580503305 L 493.99011526132807 1773.7580503305 L 493.99011526132807 182.70924891049998" stroke-miterlimit="10" stroke-width="1.3612669416666667" stroke-dasharray=""/><path fill="white" stroke="black" paint-order="fill stroke markers" d=" M 708.6961023938801 228.44781815049998 L 725.0313056938802 228.44781815049998 L 725.0313056938802 1636.5423426104999 L 708.6961023938801 1636.5423426104999 L 708.6961023938801 228.44781815049998" stroke-miterlimit="10" stroke-width="1.3612669416666667" stroke-dasharray=""/><path fill="white" stroke="black" paint-order="fill stroke markers" d=" M 928.2625021240884 274.1863873905 L 944.5977054240885 274.1863873905 L 944.5977054240885 1590.8037733704998 L 928.2625021240884 1590.8037733704998 L 928.2625021240884 274.1863873905" stroke-miterlimit="10" stroke-width="1.3612669416666667" stroke-dasharray=""/><path fill="white" stroke="black" paint-order="fill stroke markers" d=" M 1379.2317949207031 319.9249566305 L 1395.5669982207032 319.9249566305 L 1395.5669982207032 1545.0652041304998 L 1379.2317949207031 1545.0652041304998 L 1379.2317949207031 319.9249566305" stroke-miterlimit="10" stroke-width="1.3612669416666667" stroke-dasharray=""/><path fill="white" stroke="black" paint-order="fill stroke markers" d=" M 1686.6243514146095 365.6635258705 L 1702.9595547146096 365.6635258705 L 1702.9595547146096 411.4020951105 L 1686.6243514146095 411.4020951105 L 1686.6243514146095 365.6635258705" stroke-miterlimit="10" stroke-width="1.3612669416666667" stroke-dasharray=""/><path fill="white" stroke="black" paint-order="fill stroke markers" d=" M 1860.6166568359636 457.1406643505 L 1876.9518601359637 457.1406643505 L 1876.9518601359637 682.5664698905 L 1860.6166568359636 682.5664698905 L 1860.6166568359636 457.1406643505" stroke-miterlimit="10" stroke-width="1.3612669416666667" stroke-dasharray=""/><path fill="white" stroke="black" paint-order="fill stroke markers" d=" M 2252.280346605234 502.8792335905 L 2268.6155499052343 502.8792335905 L 2268.6155499052343 636.8279006505 L 2252.280346605234 636.8279006505 L 2252.280346605234 502.8792335905" stroke-miterlimit="10" stroke-width="1.3612669416666667" stroke-dasharray=""/><path fill="white" stroke="black" paint-order="fill stroke markers" d=" M 1387.3993965707032 744.6402424304999 L 1403.7345998707033 744.6402424304999 L 1403.7345998707033 785.4782506805 L 1387.3993965707032 785.4782506805 L 1387.3993965707032 744.6402424304999" stroke-miterlimit="10" stroke-width="1.3612669416666667" stroke-dasharray=""/><path fill="white" stroke="black" paint-order="fill stroke markers" d=" M 2252.280346605234 970.0660479704999 L 2268.6155499052343 970.0660479704999 L 2268.6155499052343 1015.8046172104998 L 2252.280346605234 1015.8046172104998 L 2252.280346605234 970.0660479704999" stroke-miterlimit="10" stroke-width="1.3612669416666667" stroke-dasharray=""/><path fill="white" stroke="black" paint-order="fill stroke markers" d=" M 1387.3993965707032 1121.9834386604998 L 1403.7345998707033 1121.9834386604998 L 1403.7345998707033 1162.8214469104998 L 1387.3993965707032 1162.8214469104998 L 1387.3993965707032 1121.9834386604998" stroke-miterlimit="10" stroke-width="1.3612669416666667" stroke-dasharray=""/><path fill="white" stroke="black" paint-order="fill stroke markers" d=" M 1387.3993965707032 1293.5030733104998 L 1403.7345998707033 1293.5030733104998 L 1403.7345998707033 1334.3410815604998 L 1387.3993965707032 1334.3410815604998 L 1387.3993965707032 1293.5030733104998" stroke-miterlimit="10" stroke-width="1.3612669416666667" stroke-dasharray=""/><path fill="white" stroke="black" paint-order="fill stroke markers" d=" M 2252.280346605234 1453.5880656504996 L 2268.6155499052343 1453.5880656504996 L 2268.6155499052343 1499.3266348904997 L 2252.280346605234 1499.3266348904997 L 2252.280346605234 1453.5880656504996" stroke-miterlimit="10" stroke-width="1.3612669416666667" stroke-dasharray=""/><path fill="white" stroke="black" paint-order="fill stroke markers" d=" M 313.5002993934244 1682.2809118505 L 329.8355026934244 1682.2809118505 L 329.8355026934244 1728.0194810905 L 313.5002993934244 1728.0194810905 L 313.5002993934244 1682.2809118505" stroke-miterlimit="10" stroke-width="1.3612669416666667" stroke-dasharray=""/><path fill="white" stroke="black" paint-order="fill stroke markers" d=" M 493.99011526132807 1907.7067173905002 L 510.32531856132806 1907.7067173905002 L 510.32531856132806 2319.3538405504996 L 493.99011526132807 2319.3538405504996 L 493.99011526132807 1907.7067173905002" stroke-miterlimit="10" stroke-width="1.3612669416666667" stroke-dasharray=""/><path fill="white" stroke="black" paint-order="fill stroke markers" d=" M 708.6961023938801 1953.4452866305003 L 725.0313056938802 1953.4452866305003 L 725.0313056938802 2273.6152713105 L 708.6961023938801 2273.6152713105 L 708.6961023938801 1953.4452866305003" stroke-miterlimit="10" stroke-width="1.3612669416666667" stroke-dasharray=""/><path fill="white" stroke="black" paint-order="fill stroke markers" d=" M 928.2625021240884 1999.1838558705003 L 944.5977054240885 1999.1838558705003 L 944.5977054240885 2227.8767020705 L 928.2625021240884 2227.8767020705 L 928.2625021240884 1999.1838558705003" stroke-miterlimit="10" stroke-width="1.3612669416666667" stroke-dasharray=""/><path fill="white" stroke="black" paint-order="fill stroke markers" d=" M 1379.2317949207031 2044.9224251105004 L 1395.5669982207032 2044.9224251105004 L 1395.5669982207032 2182.1381328305 L 1379.2317949207031 2182.1381328305 L 1379.2317949207031 2044.9224251105004" stroke-miterlimit="10" stroke-width="1.3612669416666667" stroke-dasharray=""/><path fill="white" stroke="black" paint-order="fill stroke markers" d=" M 2252.280346605234 2090.6609943505005 L 2268.6155499052343 2090.6609943505005 L 2268.6155499052343 2136.3995635905003 L 2252.280346605234 2136.3995635905003 L 2252.280346605234 2090.6609943505005" stroke-miterlimit="10" stroke-width="1.3612669416666667" stroke-dasharray=""/><path fill="white" stroke="black" paint-order="fill stroke markers" d=" M 130.6816264 2425.5326620004994 L 147.0168297 2425.5326620004994 L 147.0168297 2466.370670250499 L 130.6816264 2466.370670250499 L 130.6816264 2425.5326620004994" stroke-miterlimit="10" stroke-width="1.3612669416666667" stroke-dasharray=""/><path fill="white" stroke="black" paint-order="fill stroke markers" d=" M 130.6816264 2597.052296650499 L 147.0168297 2597.052296650499 L 147.0168297 2637.890304900499 L 130.6816264 2637.890304900499 L 130.6816264 2597.052296650499" stroke-miterlimit="10" stroke-width="1.3612669416666667" stroke-dasharray=""/><path fill="white" stroke="black" paint-order="fill stroke markers" d=" M 493.99011526132807 2735.9015247004995 L 510.32531856132806 2735.9015247004995 L 510.32531856132806 3054.4379890504983 L 493.99011526132807 3054.4379890504983 L 493.99011526132807 2735.9015247004995" stroke-miterlimit="10" stroke-width="1.3612669416666667" stroke-dasharray=""/><path fill="white" stroke="black" paint-order="fill stroke markers" d=" M 708.6961023938801 2735.9015247004995 L 725.0313056938802 2735.9015247004995 L 725.0313056938802 3008.6994198104985 L 708.6961023938801 3008.6994198104985 L 708.6961023938801 2735.9015247004995" stroke-miterlimit="10" stroke-width="1.3612669416666667" stroke-dasharray=""/><path fill="white" stroke="black" paint-order="fill stroke markers" d=" M 928.2625021240884 2735.9015247004995 L 944.5977054240885 2735.9015247004995 L 944.5977054240885 2962.9608505704987 L 928.2625021240884 2962.9608505704987 L 928.2625021240884 2735.9015247004995" stroke-miterlimit="10" stroke-width="1.3612669416666667" stroke-dasharray=""/><path fill="white" stroke="black" paint-order="fill stroke markers" d=" M 1860.6166568359636 2735.9015247004995 L 1876.9518601359637 2735.9015247004995 L 1876.9518601359637 2871.483712090499 L 1860.6166568359636 2871.483712090499 L 1860.6166568359636 2735.9015247004995" stroke-miterlimit="10" stroke-width="1.3612669416666667" stroke-dasharray=""/><path fill="white" stroke="black" paint-order="fill stroke markers" d=" M 1379.2317949207031 2735.9015247004995 L 1395.5669982207032 2735.9015247004995 L 1395.5669982207032 2917.222281330499 L 1379.2317949207031 2917.222281330499 L 1379.2317949207031 2735.9015247004995" stroke-miterlimit="10" stroke-width="1.3612669416666667" stroke-dasharray=""/><path fill="white" stroke="black" paint-order="fill stroke markers" d=" M 2252.280346605234 2735.9015247004995 L 2268.6155499052343 2735.9015247004995 L 2268.6155499052343 2825.745142850499 L 2252.280346605234 2825.745142850499 L 2252.280346605234 2735.9015247004995" stroke-miterlimit="10" stroke-width="1.3612669416666667" stroke-dasharray=""/><g><g><rect fill="white" stroke="none" x="257.3409197861523" y="161.4734846205" width="118.15750373902344" height="21.23576429"/></g><text fill="black" stroke="none" font-family="sans-serif" font-size="11pt" font-style="normal" font-weight="normal" text-decoration="normal" x="259.7912002811523" y="176.17516759049997" text-anchor="start" dominant-baseline="alphabetic">getImprovements</text></g><g><path fill="none" stroke="black" paint-order="fill stroke markers" d=" M 138.84922805 182.70924891049998 L 491.26758137799476 182.70924891049998" stroke-miterlimit="10" stroke-width="1.3612669416666667" stroke-dasharray=""/><g transform="translate(493.99011526132807,182.70924891049998) translate(-493.99011526132807,-182.70924891049998)"><path fill="black" stroke="none" paint-order="stroke fill markers" d=" M 480.3774458446614 175.90291420216664 L 493.99011526132807 182.70924891049998 L 480.3774458446614 189.51558361883332 Z"/></g></g><g><g><rect fill="white" stroke="none" x="529.6553091329947" y="207.2120538605" width="159.71080268921875" height="21.23576429"/></g><text fill="black" stroke="none" font-family="sans-serif" font-size="11pt" font-style="normal" font-weight="normal" text-decoration="normal" x="532.1055896279947" y="221.91373683049997" text-anchor="start" dominant-baseline="alphabetic">handleRequest(xmlFile)</text></g><g><path fill="none" stroke="black" paint-order="fill stroke markers" d=" M 510.32531856132806 228.44781815049998 L 705.9735685105468 228.44781815049998" stroke-miterlimit="10" stroke-width="1.3612669416666667" stroke-dasharray=""/><g transform="translate(708.6961023938801,228.44781815049998) translate(-708.6961023938801,-228.44781815049998)"><path fill="black" stroke="none" paint-order="stroke fill markers" d=" M 695.0834329772134 221.64148344216665 L 708.6961023938801 228.44781815049998 L 695.0834329772134 235.25415285883332 Z"/></g></g><g><g><rect fill="white" stroke="none" x="744.3612962655468" y="252.9506231005" width="164.571215286875" height="21.23576429"/></g><text fill="black" stroke="none" font-family="sans-serif" font-size="11pt" font-style="normal" font-weight="normal" text-decoration="normal" x="746.8115767605468" y="267.6523060705" text-anchor="start" dominant-baseline="alphabetic">forwardRequest(xmlFile)</text></g><g><path fill="none" stroke="black" paint-order="fill stroke markers" d=" M 725.0313056938802 274.1863873905 L 925.5399682407551 274.1863873905" stroke-miterlimit="10" stroke-width="1.3612669416666667" stroke-dasharray=""/><g transform="translate(928.2625021240884,274.1863873905) translate(-928.2625021240884,-274.1863873905)"><path fill="black" stroke="none" paint-order="stroke fill markers" d=" M 914.6498327074218 267.38005268216665 L 928.2625021240884 274.1863873905 L 914.6498327074218 280.9927220988333 Z"/></g></g><g><g><rect fill="white" stroke="none" x="1003.4337384762239" y="298.6891923405" width="316.9620233923437" height="21.23576429"/></g><text fill="black" stroke="none" font-family="sans-serif" font-size="11pt" font-style="normal" font-weight="normal" text-decoration="normal" x="1005.8840189712239" y="313.39087531049995" text-anchor="start" dominant-baseline="alphabetic">getNotDoneImprovements(token,municipalityID)</text></g><g><path fill="none" stroke="black" paint-order="fill stroke markers" d=" M 944.5977054240885 319.9249566305 L 1376.5092610373697 319.9249566305" stroke-miterlimit="10" stroke-width="1.3612669416666667" stroke-dasharray=""/><g transform="translate(1379.2317949207031,319.9249566305) translate(-1379.2317949207031,-319.9249566305)"><path fill="black" stroke="none" paint-order="stroke fill markers" d=" M 1365.6191255040364 313.11862192216665 L 1379.2317949207031 319.9249566305 L 1365.6191255040364 326.73129133883333 Z"/></g></g><g><g><rect fill="white" stroke="none" x="1490.5745401356446" y="344.4277615805" width="101.04226936402344" height="21.23576429"/></g><text fill="black" stroke="none" font-family="sans-serif" font-size="11pt" font-style="normal" font-weight="normal" text-decoration="normal" x="1493.0248206306446" y="359.12944455049995" text-anchor="start" dominant-baseline="alphabetic">GET accidents</text></g><g><path fill="none" stroke="black" paint-order="fill stroke markers" d=" M 1395.5669982207032 365.6635258705 L 1683.901817531276 365.6635258705" stroke-miterlimit="10" stroke-width="1.3612669416666667" stroke-dasharray=""/><g transform="translate(1686.6243514146095,365.6635258705) translate(-1686.6243514146095,-365.6635258705)"><path fill="black" stroke="none" paint-order="stroke fill markers" d=" M 1673.0116819979428 358.85719116216666 L 1686.6243514146095 365.6635258705 L 1673.0116819979428 372.46986057883333 Z"/></g></g><g><g><rect fill="white" stroke="none" x="1420.8752222035157" y="390.1663308205" width="240.44090522828125" height="21.23576429"/></g><text fill="black" stroke="none" font-family="sans-serif" font-size="11pt" font-style="normal" font-weight="normal" text-decoration="normal" x="1423.3255026985157" y="404.86801379049996" text-anchor="start" dominant-baseline="alphabetic">List&lt;Accident&gt;: accidents happened</text></g><g><path fill="none" stroke="black" paint-order="fill stroke markers" d=" M 1686.6243514146095 411.4020951105 L 1398.2895321040367 411.4020951105" stroke-miterlimit="10" stroke-width="1.3612669416666667" stroke-dasharray="6.53408132"/><g transform="translate(1395.5669982207032,411.4020951105) translate(-1395.5669982207032,-411.4020951105)"><path fill="black" stroke="none" paint-order="stroke fill markers" d=" M 1409.17966763737 404.59576040216666 L 1395.5669982207032 411.4020951105 L 1409.17966763737 418.20842981883334 Z"/></g></g><g><g><rect fill="white" stroke="none" x="1489.7647159786459" y="435.9049000605" width="276.654223099375" height="21.23576429"/></g><text fill="black" stroke="none" font-family="sans-serif" font-size="11pt" font-style="normal" font-weight="normal" text-decoration="normal" x="1492.214996473646" y="450.60658303049996" text-anchor="start" dominant-baseline="alphabetic">getReports(requestType=All,requestField)</text></g><g><path fill="none" stroke="black" paint-order="fill stroke markers" d=" M 1395.5669982207032 457.1406643505 L 1857.8941229526301 457.1406643505" stroke-miterlimit="10" stroke-width="1.3612669416666667" stroke-dasharray=""/><g transform="translate(1860.6166568359636,457.1406643505) translate(-1860.6166568359636,-457.1406643505)"><path fill="black" stroke="none" paint-order="stroke fill markers" d=" M 1847.003987419297 450.33432964216667 L 1860.6166568359636 457.1406643505 L 1847.003987419297 463.94699905883334 Z"/></g></g><g><g><rect fill="white" stroke="none" x="1896.2818507076302" y="481.6434693005" width="336.6685053259375" height="21.23576429"/></g><text fill="black" stroke="none" font-family="sans-serif" font-size="11pt" font-style="normal" font-weight="normal" text-decoration="normal" x="1898.7321312026302" y="496.34515227049997" text-anchor="start" dominant-baseline="alphabetic">retrieveValidReports(requestType=All,requestField)</text></g><g><path fill="none" stroke="black" paint-order="fill stroke markers" d=" M 1876.9518601359637 502.8792335905 L 2249.557812721901 502.8792335905" stroke-miterlimit="10" stroke-width="1.3612669416666667" stroke-dasharray=""/><g transform="translate(2252.280346605234,502.8792335905) translate(-2252.280346605234,-502.8792335905)"><path fill="black" stroke="none" paint-order="stroke fill markers" d=" M 2238.6676771885677 496.07289888216667 L 2252.280346605234 502.8792335905 L 2238.6676771885677 509.68556829883335 Z"/></g></g><g><g><rect fill="white" stroke="none" x="1966.8294352413216" y="615.5921363605" width="195.5733362585547" height="21.23576429"/></g><text fill="black" stroke="none" font-family="sans-serif" font-size="11pt" font-style="normal" font-weight="normal" text-decoration="normal" x="1969.2797157363216" y="630.2938193305" text-anchor="start" dominant-baseline="alphabetic">List&lt;Report&gt;: all valid reports</text></g><g><path fill="none" stroke="black" paint-order="fill stroke markers" d=" M 2252.280346605234 636.8279006505 L 1879.674394019297 636.8279006505" stroke-miterlimit="10" stroke-width="1.3612669416666667" stroke-dasharray="6.53408132"/><g transform="translate(1876.9518601359637,636.8279006505) translate(-1876.9518601359637,-636.8279006505)"><path fill="black" stroke="none" paint-order="stroke fill markers" d=" M 1890.5645295526303 630.0215659421667 L 1876.9518601359637 636.8279006505 L 1890.5645295526303 643.6342353588334 Z"/></g></g><g><g><rect fill="white" stroke="none" x="1530.305159399056" y="661.3307056005" width="195.5733362585547" height="21.23576429"/></g><text fill="black" stroke="none" font-family="sans-serif" font-size="11pt" font-style="normal" font-weight="normal" text-decoration="normal" x="1532.755439894056" y="676.0323885705" text-anchor="start" dominant-baseline="alphabetic">List&lt;Report&gt;: all valid reports</text></g><g><path fill="none" stroke="black" paint-order="fill stroke markers" d=" M 1860.6166568359636 682.5664698905 L 1398.2895321040367 682.5664698905" stroke-miterlimit="10" stroke-width="1.3612669416666667" stroke-dasharray="6.53408132"/><g transform="translate(1395.5669982207032,682.5664698905) translate(-1395.5669982207032,-682.5664698905)"><path fill="black" stroke="none" paint-order="stroke fill markers" d=" M 1409.17966763737 675.7601351821667 L 1395.5669982207032 682.5664698905 L 1409.17966763737 689.3728045988333 Z"/></g></g><g><g><rect fill="white" stroke="none" x="1423.06459044237" y="707.0692748404999" width="152.38081611695313" height="21.23576429"/></g><text fill="black" stroke="none" font-family="sans-serif" font-size="11pt" font-style="normal" font-weight="normal" text-decoration="normal" x="1425.51487093737" y="721.7709578104999" text-anchor="start" dominant-baseline="alphabetic">updateImprovements()</text></g><g><path fill="none" stroke="black" paint-order="fill stroke markers" d=" M 1395.5669982207032 728.3050391305 L 1469.0754130707032 728.3050391305 L 1469.0754130707032 744.6402424304999 L 1406.4571337540367 744.6402424304999" stroke-miterlimit="10" stroke-width="1.3612669416666667" stroke-dasharray=""/><g transform="translate(1403.7345998707033,744.6402424304999) translate(-1403.7345998707033,-744.6402424304999)"><path fill="black" stroke="none" paint-order="stroke fill markers" d=" M 1417.34726928737 737.8339077221666 L 1403.7345998707033 744.6402424304999 L 1417.34726928737 751.4465771388333 Z"/></g></g><path fill="white" stroke="black" paint-order="fill stroke markers" d=" M 1395.5669982207032 845.1017427255 L 1403.7345998707033 845.1017427255 M 1403.7345998707033 809.9810556305 L 1655.5874651446095 809.9810556305 L 1670.2891481146096 824.6827386005 L 1670.2891481146096 880.2224298205 L 1403.7345998707033 880.2224298205 L 1403.7345998707033 809.9810556305 M 1655.5874651446095 809.9810556305 L 1655.5874651446095 824.6827386005 L 1670.2891481146096 824.6827386005" stroke-miterlimit="10" stroke-width="1.3612669416666667" stroke-dasharray=""/><g><text fill="black" stroke="none" font-family="sans-serif" font-size="11pt" font-style="normal" font-weight="normal" text-decoration="normal" x="1426.6038844907032" y="832.8503402504999" text-anchor="start" dominant-baseline="alphabetic">Now that new improvements have</text><text fill="black" stroke="none" font-family="sans-serif" font-size="11pt" font-style="normal" font-weight="normal" text-decoration="normal" x="1426.6038844907032" y="849.1855435504999" text-anchor="start" dominant-baseline="alphabetic">been found, the improvements </text><text fill="black" stroke="none" font-family="sans-serif" font-size="11pt" font-style="normal" font-weight="normal" text-decoration="normal" x="1426.6038844907032" y="865.5207468504999" text-anchor="start" dominant-baseline="alphabetic">database must be updated</text></g><g><g><rect fill="white" stroke="none" x="1704.5586122548827" y="948.8302836804999" width="238.73012031617188" height="21.23576429"/></g><text fill="black" stroke="none" font-family="sans-serif" font-size="11pt" font-style="normal" font-weight="normal" text-decoration="normal" x="1707.0088927498828" y="963.5319666504998" text-anchor="start" dominant-baseline="alphabetic">addNewImprovement(improvement)</text></g><g><path fill="none" stroke="black" paint-order="fill stroke markers" d=" M 1395.5669982207032 970.0660479704999 L 2249.557812721901 970.0660479704999" stroke-miterlimit="10" stroke-width="1.3612669416666667" stroke-dasharray=""/><g transform="translate(2252.280346605234,970.0660479704999) translate(-2252.280346605234,-970.0660479704999)"><path fill="black" stroke="none" paint-order="stroke fill markers" d=" M 2238.6676771885677 963.2597132621665 L 2252.280346605234 970.0660479704999 L 2238.6676771885677 976.8723826788332 Z"/></g></g><g><g><rect fill="white" stroke="none" x="1801.0904344594726" y="994.5688529204998" width="45.66647590699219" height="21.23576429"/></g><text fill="black" stroke="none" font-family="sans-serif" font-size="11pt" font-style="normal" font-weight="normal" text-decoration="normal" x="1803.5407149544726" y="1009.2705358904998" text-anchor="start" dominant-baseline="alphabetic">added</text></g><g><path fill="none" stroke="black" paint-order="fill stroke markers" d=" M 2252.280346605234 1015.8046172104998 L 1398.2895321040367 1015.8046172104998" stroke-miterlimit="10" stroke-width="1.3612669416666667" stroke-dasharray="6.53408132"/><g transform="translate(1395.5669982207032,1015.8046172104998) translate(-1395.5669982207032,-1015.8046172104998)"><path fill="black" stroke="none" paint-order="stroke fill markers" d=" M 1409.17966763737 1008.9982825021665 L 1395.5669982207032 1015.8046172104998 L 1409.17966763737 1022.6109519188332 Z"/></g></g><g><g><rect fill="white" stroke="none" x="1423.06459044237" y="1084.4124710704998" width="118.85183967652344" height="21.23576429"/></g><text fill="black" stroke="none" font-family="sans-serif" font-size="11pt" font-style="normal" font-weight="normal" text-decoration="normal" x="1425.51487093737" y="1099.1141540405" text-anchor="start" dominant-baseline="alphabetic">notFinished=True</text></g><g><path fill="none" stroke="black" paint-order="fill stroke markers" d=" M 1395.5669982207032 1105.6482353604997 L 1469.0754130707032 1105.6482353604997 L 1469.0754130707032 1121.9834386604998 L 1406.4571337540367 1121.9834386604998" stroke-miterlimit="10" stroke-width="1.3612669416666667" stroke-dasharray=""/><g transform="translate(1403.7345998707033,1121.9834386604998) translate(-1403.7345998707033,-1121.9834386604998)"><path fill="black" stroke="none" paint-order="stroke fill markers" d=" M 1417.34726928737 1115.1771039521666 L 1403.7345998707033 1121.9834386604998 L 1417.34726928737 1128.789773368833 Z"/></g></g><g><g><rect fill="white" stroke="none" x="1423.06459044237" y="1255.9321057204997" width="125.10095466675781" height="21.23576429"/></g><text fill="black" stroke="none" font-family="sans-serif" font-size="11pt" font-style="normal" font-weight="normal" text-decoration="normal" x="1425.51487093737" y="1270.6337886904998" text-anchor="start" dominant-baseline="alphabetic">notFinished=False</text></g><g><path fill="none" stroke="black" paint-order="fill stroke markers" d=" M 1395.5669982207032 1277.1678700104997 L 1469.0754130707032 1277.1678700104997 L 1469.0754130707032 1293.5030733104998 L 1406.4571337540367 1293.5030733104998" stroke-miterlimit="10" stroke-width="1.3612669416666667" stroke-dasharray=""/><g transform="translate(1403.7345998707033,1293.5030733104998) translate(-1403.7345998707033,-1293.5030733104998)"><path fill="black" stroke="none" paint-order="stroke fill markers" d=" M 1417.34726928737 1286.6967386021665 L 1403.7345998707033 1293.5030733104998 L 1417.34726928737 1300.309408018833 Z"/></g></g><g><g><rect fill="white" stroke="none" x="1700.088344005371" y="1432.3523013604997" width="247.67065681519531" height="21.23576429"/></g><text fill="black" stroke="none" font-family="sans-serif" font-size="11pt" font-style="normal" font-weight="normal" text-decoration="normal" x="1702.538624500371" y="1447.0539843304998" text-anchor="start" dominant-baseline="alphabetic">retrieveImprovements(municipalityID)</text></g><g><path fill="none" stroke="black" paint-order="fill stroke markers" d=" M 1395.5669982207032 1453.5880656504996 L 2249.557812721901 1453.5880656504996" stroke-miterlimit="10" stroke-width="1.3612669416666667" stroke-dasharray=""/><g transform="translate(2252.280346605234,1453.5880656504996) translate(-2252.280346605234,-1453.5880656504996)"><path fill="black" stroke="none" paint-order="stroke fill markers" d=" M 2238.6676771885677 1446.7817309421664 L 2252.280346605234 1453.5880656504996 L 2238.6676771885677 1460.3944003588329 Z"/></g></g><g><g><rect fill="white" stroke="none" x="1668.6889070546874" y="1478.0908706004998" width="310.4695307165625" height="21.23576429"/></g><text fill="black" stroke="none" font-family="sans-serif" font-size="11pt" font-style="normal" font-weight="normal" text-decoration="normal" x="1671.1391875496874" y="1492.7925535704999" text-anchor="start" dominant-baseline="alphabetic">List&lt;Improvement&gt;: all not done improvements</text></g><g><path fill="none" stroke="black" paint-order="fill stroke markers" d=" M 2252.280346605234 1499.3266348904997 L 1398.2895321040367 1499.3266348904997" stroke-miterlimit="10" stroke-width="1.3612669416666667" stroke-dasharray="6.53408132"/><g transform="translate(1395.5669982207032,1499.3266348904997) translate(-1395.5669982207032,-1499.3266348904997)"><path fill="black" stroke="none" paint-order="stroke fill markers" d=" M 1409.17966763737 1492.5203001821665 L 1395.5669982207032 1499.3266348904997 L 1409.17966763737 1506.132969598833 Z"/></g></g><g><g><rect fill="white" stroke="none" x="1006.6799848141145" y="1523.8294398404998" width="310.4695307165625" height="21.23576429"/></g><text fill="black" stroke="none" font-family="sans-serif" font-size="11pt" font-style="normal" font-weight="normal" text-decoration="normal" x="1009.1302653091145" y="1538.5311228105" text-anchor="start" dominant-baseline="alphabetic">List&lt;Improvement&gt;: all not done improvements</text></g><g><path fill="none" stroke="black" paint-order="fill stroke markers" d=" M 1379.2317949207031 1545.0652041304998 L 947.3202393074218 1545.0652041304998" stroke-miterlimit="10" stroke-width="1.3612669416666667" stroke-dasharray="6.53408132"/><g transform="translate(944.5977054240885,1545.0652041304998) translate(-944.5977054240885,-1545.0652041304998)"><path fill="black" stroke="none" paint-order="stroke fill markers" d=" M 958.2103748407552 1538.2588694221665 L 944.5977054240885 1545.0652041304998 L 958.2103748407552 1551.871538838833 Z"/></g></g><g><g><rect fill="white" stroke="none" x="765.5352312020702" y="1569.5680090805" width="122.22334541382813" height="21.23576429"/></g><text fill="black" stroke="none" font-family="sans-serif" font-size="11pt" font-style="normal" font-weight="normal" text-decoration="normal" x="767.9855116970703" y="1584.2696920505" text-anchor="start" dominant-baseline="alphabetic">XmlFile: response</text></g><g><path fill="none" stroke="black" paint-order="fill stroke markers" d=" M 928.2625021240884 1590.8037733704998 L 727.7538395772135 1590.8037733704998" stroke-miterlimit="10" stroke-width="1.3612669416666667" stroke-dasharray="6.53408132"/><g transform="translate(725.0313056938802,1590.8037733704998) translate(-725.0313056938802,-1590.8037733704998)"><path fill="black" stroke="none" paint-order="stroke fill markers" d=" M 738.6439751105469 1583.9974386621666 L 725.0313056938802 1590.8037733704998 L 738.6439751105469 1597.610108078833 Z"/></g></g><g><g><rect fill="white" stroke="none" x="548.39903777069" y="1615.3065783205" width="122.22334541382813" height="21.23576429"/></g><text fill="black" stroke="none" font-family="sans-serif" font-size="11pt" font-style="normal" font-weight="normal" text-decoration="normal" x="550.84931826569" y="1630.0082612905" text-anchor="start" dominant-baseline="alphabetic">XmlFile: response</text></g><g><path fill="none" stroke="black" paint-order="fill stroke markers" d=" M 708.6961023938801 1636.5423426104999 L 513.0478524446614 1636.5423426104999" stroke-miterlimit="10" stroke-width="1.3612669416666667" stroke-dasharray="6.53408132"/><g transform="translate(510.32531856132806,1636.5423426104999) translate(-510.32531856132806,-1636.5423426104999)"><path fill="black" stroke="none" paint-order="stroke fill markers" d=" M 523.9379879779947 1629.7360079021666 L 510.32531856132806 1636.5423426104999 L 523.9379879779947 1643.348677318833 Z"/></g></g><g><g><rect fill="white" stroke="none" x="349.1654932650911" y="1661.0451475605" width="125.49463142457031" height="21.23576429"/></g><text fill="black" stroke="none" font-family="sans-serif" font-size="11pt" font-style="normal" font-weight="normal" text-decoration="normal" x="351.6157737600911" y="1675.7468305305001" text-anchor="start" dominant-baseline="alphabetic">fetchMap(position)</text></g><g><path fill="none" stroke="black" paint-order="fill stroke markers" d=" M 493.99011526132807 1682.2809118505 L 332.55803657675773 1682.2809118505" stroke-miterlimit="10" stroke-width="1.3612669416666667" stroke-dasharray=""/><g transform="translate(329.8355026934244,1682.2809118505) translate(-329.8355026934244,-1682.2809118505)"><path fill="black" stroke="none" paint-order="stroke fill markers" d=" M 343.4481721100911 1675.4745771421667 L 329.8355026934244 1682.2809118505 L 343.4481721100911 1689.0872465588332 Z"/></g></g><g><g><rect fill="white" stroke="none" x="395.20340372651685" y="1706.7837168005" width="33.41881050171875" height="21.23576429"/></g><text fill="black" stroke="none" font-family="sans-serif" font-size="11pt" font-style="normal" font-weight="normal" text-decoration="normal" x="397.65368422151687" y="1721.4853997705002" text-anchor="start" dominant-baseline="alphabetic">map</text></g><g><path fill="none" stroke="black" paint-order="fill stroke markers" d=" M 329.8355026934244 1728.0194810905 L 491.26758137799476 1728.0194810905" stroke-miterlimit="10" stroke-width="1.3612669416666667" stroke-dasharray="6.53408132"/><g transform="translate(493.99011526132807,1728.0194810905) translate(-493.99011526132807,-1728.0194810905)"><path fill="black" stroke="none" paint-order="stroke fill markers" d=" M 480.3774458446614 1721.2131463821668 L 493.99011526132807 1728.0194810905 L 480.3774458446614 1734.8258157988332 Z"/></g></g><g><g><rect fill="white" stroke="none" x="271.607200914082" y="1752.5222860405001" width="89.62494148316406" height="21.23576429"/></g><text fill="black" stroke="none" font-family="sans-serif" font-size="11pt" font-style="normal" font-weight="normal" text-decoration="normal" x="274.057481409082" y="1767.2239690105002" text-anchor="start" dominant-baseline="alphabetic">Improvments</text></g><g><path fill="none" stroke="black" paint-order="fill stroke markers" d=" M 493.99011526132807 1773.7580503305 L 141.57176193333333 1773.7580503305" stroke-miterlimit="10" stroke-width="1.3612669416666667" stroke-dasharray="6.53408132"/><g transform="translate(138.84922805,1773.7580503305) translate(-138.84922805,-1773.7580503305)"><path fill="black" stroke="none" paint-order="stroke fill markers" d=" M 152.46189746666667 1766.9517156221668 L 138.84922805 1773.7580503305 L 152.46189746666667 1780.5643850388333 Z"/></g></g><g><g><rect fill="white" stroke="none" x="240.63727598732422" y="1886.4709531005003" width="151.5647913366797" height="21.23576429"/></g><text fill="black" stroke="none" font-family="sans-serif" font-size="11pt" font-style="normal" font-weight="normal" text-decoration="normal" x="243.0875564823242" y="1901.1726360705004" text-anchor="start" dominant-baseline="alphabetic">setImprovementStatus</text></g><g><path fill="none" stroke="black" paint-order="fill stroke markers" d=" M 138.84922805 1907.7067173905002 L 491.26758137799476 1907.7067173905002" stroke-miterlimit="10" stroke-width="1.3612669416666667" stroke-dasharray=""/><g transform="translate(493.99011526132807,1907.7067173905002) translate(-493.99011526132807,-1907.7067173905002)"><path fill="black" stroke="none" paint-order="stroke fill markers" d=" M 480.3774458446614 1900.900382682167 L 493.99011526132807 1907.7067173905002 L 480.3774458446614 1914.5130520988334 Z"/></g></g><g><g><rect fill="white" stroke="none" x="529.6553091329947" y="1932.2095223405004" width="159.71080268921875" height="21.23576429"/></g><text fill="black" stroke="none" font-family="sans-serif" font-size="11pt" font-style="normal" font-weight="normal" text-decoration="normal" x="532.1055896279947" y="1946.9112053105005" text-anchor="start" dominant-baseline="alphabetic">handleRequest(xmlFile)</text></g><g><path fill="none" stroke="black" paint-order="fill stroke markers" d=" M 510.32531856132806 1953.4452866305003 L 705.9735685105468 1953.4452866305003" stroke-miterlimit="10" stroke-width="1.3612669416666667" stroke-dasharray=""/><g transform="translate(708.6961023938801,1953.4452866305003) translate(-708.6961023938801,-1953.4452866305003)"><path fill="black" stroke="none" paint-order="stroke fill markers" d=" M 695.0834329772134 1946.638951922167 L 708.6961023938801 1953.4452866305003 L 695.0834329772134 1960.2516213388335 Z"/></g></g><g><g><rect fill="white" stroke="none" x="744.3612962655468" y="1977.9480915805004" width="164.571215286875" height="21.23576429"/></g><text fill="black" stroke="none" font-family="sans-serif" font-size="11pt" font-style="normal" font-weight="normal" text-decoration="normal" x="746.8115767605468" y="1992.6497745505005" text-anchor="start" dominant-baseline="alphabetic">forwardRequest(xmlFile)</text></g><g><path fill="none" stroke="black" paint-order="fill stroke markers" d=" M 725.0313056938802 1999.1838558705003 L 925.5399682407551 1999.1838558705003" stroke-miterlimit="10" stroke-width="1.3612669416666667" stroke-dasharray=""/><g transform="translate(928.2625021240884,1999.1838558705003) translate(-928.2625021240884,-1999.1838558705003)"><path fill="black" stroke="none" paint-order="stroke fill markers" d=" M 914.6498327074218 1992.377521162167 L 928.2625021240884 1999.1838558705003 L 914.6498327074218 2005.9901905788336 Z"/></g></g><g><g><rect fill="white" stroke="none" x="963.9276959957551" y="2023.6866608205005" width="395.9741083532812" height="21.23576429"/></g><text fill="black" stroke="none" font-family="sans-serif" font-size="11pt" font-style="normal" font-weight="normal" text-decoration="normal" x="966.3779764907551" y="2038.3883437905006" text-anchor="start" dominant-baseline="alphabetic">setImprovementStatus(token,municipalityID,improvementID)</text></g><g><path fill="none" stroke="black" paint-order="fill stroke markers" d=" M 944.5977054240885 2044.9224251105004 L 1376.5092610373697 2044.9224251105004" stroke-miterlimit="10" stroke-width="1.3612669416666667" stroke-dasharray=""/><g transform="translate(1379.2317949207031,2044.9224251105004) translate(-1379.2317949207031,-2044.9224251105004)"><path fill="black" stroke="none" paint-order="stroke fill markers" d=" M 1365.6191255040364 2038.1160904021672 L 1379.2317949207031 2044.9224251105004 L 1365.6191255040364 2051.7287598188336 Z"/></g></g><g><g><rect fill="white" stroke="none" x="1680.9222749746093" y="2069.4252300605003" width="286.0027948767187" height="21.23576429"/></g><text fill="black" stroke="none" font-family="sans-serif" font-size="11pt" font-style="normal" font-weight="normal" text-decoration="normal" x="1683.3725554696093" y="2084.1269130305004" text-anchor="start" dominant-baseline="alphabetic">updateImprovementStatus(improvementID)</text></g><g><path fill="none" stroke="black" paint-order="fill stroke markers" d=" M 1395.5669982207032 2090.6609943505005 L 2249.557812721901 2090.6609943505005" stroke-miterlimit="10" stroke-width="1.3612669416666667" stroke-dasharray=""/><g transform="translate(2252.280346605234,2090.6609943505005) translate(-2252.280346605234,-2090.6609943505005)"><path fill="black" stroke="none" paint-order="stroke fill markers" d=" M 2238.6676771885677 2083.854659642167 L 2252.280346605234 2090.6609943505005 L 2238.6676771885677 2097.467329058834 Z"/></g></g><g><g><rect fill="white" stroke="none" x="1790.1026109731445" y="2115.1637993005" width="67.64212287964844" height="21.23576429"/></g><text fill="black" stroke="none" font-family="sans-serif" font-size="11pt" font-style="normal" font-weight="normal" text-decoration="normal" x="1792.5528914681445" y="2129.8654822705003" text-anchor="start" dominant-baseline="alphabetic">status set</text></g><g><path fill="none" stroke="black" paint-order="fill stroke markers" d=" M 2252.280346605234 2136.3995635905003 L 1398.2895321040367 2136.3995635905003" stroke-miterlimit="10" stroke-width="1.3612669416666667" stroke-dasharray="6.53408132"/><g transform="translate(1395.5669982207032,2136.3995635905003) translate(-1395.5669982207032,-2136.3995635905003)"><path fill="black" stroke="none" paint-order="stroke fill markers" d=" M 1409.17966763737 2129.593228882167 L 1395.5669982207032 2136.3995635905003 L 1409.17966763737 2143.2058982988337 Z"/></g></g><g><g><rect fill="white" stroke="none" x="1128.0936887325715" y="2160.9023685405" width="67.64212287964844" height="21.23576429"/></g><text fill="black" stroke="none" font-family="sans-serif" font-size="11pt" font-style="normal" font-weight="normal" text-decoration="normal" x="1130.5439692275716" y="2175.6040515105" text-anchor="start" dominant-baseline="alphabetic">status set</text></g><g><path fill="none" stroke="black" paint-order="fill stroke markers" d=" M 1379.2317949207031 2182.1381328305 L 947.3202393074218 2182.1381328305" stroke-miterlimit="10" stroke-width="1.3612669416666667" stroke-dasharray="6.53408132"/><g transform="translate(944.5977054240885,2182.1381328305) translate(-944.5977054240885,-2182.1381328305)"><path fill="black" stroke="none" paint-order="stroke fill markers" d=" M 958.2103748407552 2175.3317981221667 L 944.5977054240885 2182.1381328305 L 958.2103748407552 2188.9444675388336 Z"/></g></g><g><g><rect fill="white" stroke="none" x="765.5352312020702" y="2206.6409377805" width="122.22334541382813" height="21.23576429"/></g><text fill="black" stroke="none" font-family="sans-serif" font-size="11pt" font-style="normal" font-weight="normal" text-decoration="normal" x="767.9855116970703" y="2221.3426207505" text-anchor="start" dominant-baseline="alphabetic">XmlFile: response</text></g><g><path fill="none" stroke="black" paint-order="fill stroke markers" d=" M 928.2625021240884 2227.8767020705 L 727.7538395772135 2227.8767020705" stroke-miterlimit="10" stroke-width="1.3612669416666667" stroke-dasharray="6.53408132"/><g transform="translate(725.0313056938802,2227.8767020705) translate(-725.0313056938802,-2227.8767020705)"><path fill="black" stroke="none" paint-order="stroke fill markers" d=" M 738.6439751105469 2221.0703673621665 L 725.0313056938802 2227.8767020705 L 738.6439751105469 2234.6830367788334 Z"/></g></g><g><g><rect fill="white" stroke="none" x="548.39903777069" y="2252.3795070204997" width="122.22334541382813" height="21.23576429"/></g><text fill="black" stroke="none" font-family="sans-serif" font-size="11pt" font-style="normal" font-weight="normal" text-decoration="normal" x="550.84931826569" y="2267.0811899904998" text-anchor="start" dominant-baseline="alphabetic">XmlFile: response</text></g><g><path fill="none" stroke="black" paint-order="fill stroke markers" d=" M 708.6961023938801 2273.6152713105 L 513.0478524446614 2273.6152713105" stroke-miterlimit="10" stroke-width="1.3612669416666667" stroke-dasharray="6.53408132"/><g transform="translate(510.32531856132806,2273.6152713105) translate(-510.32531856132806,-2273.6152713105)"><path fill="black" stroke="none" paint-order="stroke fill markers" d=" M 523.9379879779947 2266.8089366021663 L 510.32531856132806 2273.6152713105 L 523.9379879779947 2280.4216060188332 Z"/></g></g><g><g><rect fill="white" stroke="none" x="282.5986102158398" y="2298.1180762604995" width="67.64212287964844" height="21.23576429"/></g><text fill="black" stroke="none" font-family="sans-serif" font-size="11pt" font-style="normal" font-weight="normal" text-decoration="normal" x="285.0488907108398" y="2312.8197592304996" text-anchor="start" dominant-baseline="alphabetic">status set</text></g><g><path fill="none" stroke="black" paint-order="fill stroke markers" d=" M 493.99011526132807 2319.3538405504996 L 141.57176193333333 2319.3538405504996" stroke-miterlimit="10" stroke-width="1.3612669416666667" stroke-dasharray="6.53408132"/><g transform="translate(138.84922805,2319.3538405504996) translate(-138.84922805,-2319.3538405504996)"><path fill="black" stroke="none" paint-order="stroke fill markers" d=" M 152.46189746666667 2312.547505842166 L 138.84922805 2319.3538405504996 L 152.46189746666667 2326.160175258833 Z"/></g></g><g><g><rect fill="white" stroke="none" x="166.34682027166667" y="2387.9616944104996" width="118.85183967652344" height="21.23576429"/></g><text fill="black" stroke="none" font-family="sans-serif" font-size="11pt" font-style="normal" font-weight="normal" text-decoration="normal" x="168.79710076666666" y="2402.6633773804997" text-anchor="start" dominant-baseline="alphabetic">notFinished=True</text></g><g><path fill="none" stroke="black" paint-order="fill stroke markers" d=" M 138.84922805 2409.1974587004993 L 212.35764289999997 2409.1974587004993 L 212.35764289999997 2425.5326620004994 L 149.73936358333333 2425.5326620004994" stroke-miterlimit="10" stroke-width="1.3612669416666667" stroke-dasharray=""/><g transform="translate(147.0168297,2425.5326620004994) translate(-147.0168297,-2425.5326620004994)"><path fill="black" stroke="none" paint-order="stroke fill markers" d=" M 160.62949911666666 2418.726327292166 L 147.0168297 2425.5326620004994 L 160.62949911666666 2432.338996708833 Z"/></g></g><g><g><rect fill="white" stroke="none" x="166.34682027166667" y="2559.4813290604993" width="125.10095466675781" height="21.23576429"/></g><text fill="black" stroke="none" font-family="sans-serif" font-size="11pt" font-style="normal" font-weight="normal" text-decoration="normal" x="168.79710076666666" y="2574.1830120304994" text-anchor="start" dominant-baseline="alphabetic">notFinished=False</text></g><g><path fill="none" stroke="black" paint-order="fill stroke markers" d=" M 138.84922805 2580.717093350499 L 212.35764289999997 2580.717093350499 L 212.35764289999997 2597.052296650499 L 149.73936358333333 2597.052296650499" stroke-miterlimit="10" stroke-width="1.3612669416666667" stroke-dasharray=""/><g transform="translate(147.0168297,2597.052296650499) translate(-147.0168297,-2597.052296650499)"><path fill="black" stroke="none" paint-order="stroke fill markers" d=" M 160.62949911666666 2590.2459619421656 L 147.0168297 2597.052296650499 L 160.62949911666666 2603.8586313588326 Z"/></g></g><g><g><rect fill="white" stroke="none" x="1971.2961329341927" y="2804.509378560499" width="186.6399408728125" height="21.23576429"/></g><text fill="black" stroke="none" font-family="sans-serif" font-size="11pt" font-style="normal" font-weight="normal" text-decoration="normal" x="1973.7464134291927" y="2819.211061530499" text-anchor="start" dominant-baseline="alphabetic">NotEnoughReportException</text></g><g><path fill="none" stroke="black" paint-order="fill stroke markers" d=" M 2252.280346605234 2825.745142850499 L 1879.674394019297 2825.745142850499" stroke-miterlimit="10" stroke-width="1.3612669416666667" stroke-dasharray="6.53408132"/><g transform="translate(1876.9518601359637,2825.745142850499) translate(-1876.9518601359637,-2825.745142850499)"><path fill="black" stroke="none" paint-order="stroke fill markers" d=" M 1890.5645295526303 2818.9388081421657 L 1876.9518601359637 2825.745142850499 L 1890.5645295526303 2832.5514775588326 Z"/></g></g><g><g><rect fill="white" stroke="none" x="1534.7718570919271" y="2850.247947800499" width="186.6399408728125" height="21.23576429"/></g><text fill="black" stroke="none" font-family="sans-serif" font-size="11pt" font-style="normal" font-weight="normal" text-decoration="normal" x="1537.2221375869271" y="2864.949630770499" text-anchor="start" dominant-baseline="alphabetic">NotEnoughReportException</text></g><g><path fill="none" stroke="black" paint-order="fill stroke markers" d=" M 1860.6166568359636 2871.483712090499 L 1398.2895321040367 2871.483712090499" stroke-miterlimit="10" stroke-width="1.3612669416666667" stroke-dasharray="6.53408132"/><g transform="translate(1395.5669982207032,2871.483712090499) translate(-1395.5669982207032,-2871.483712090499)"><path fill="black" stroke="none" paint-order="stroke fill markers" d=" M 1409.17966763737 2864.6773773821656 L 1395.5669982207032 2871.483712090499 L 1409.17966763737 2878.2900467988325 Z"/></g></g><g><g><rect fill="white" stroke="none" x="1068.5947797359895" y="2895.9865170404987" width="186.6399408728125" height="21.23576429"/></g><text fill="black" stroke="none" font-family="sans-serif" font-size="11pt" font-style="normal" font-weight="normal" text-decoration="normal" x="1071.0450602309895" y="2910.688200010499" text-anchor="start" dominant-baseline="alphabetic">NotEnoughReportException</text></g><g><path fill="none" stroke="black" paint-order="fill stroke markers" d=" M 1379.2317949207031 2917.222281330499 L 947.3202393074218 2917.222281330499" stroke-miterlimit="10" stroke-width="1.3612669416666667" stroke-dasharray="6.53408132"/><g transform="translate(944.5977054240885,2917.222281330499) translate(-944.5977054240885,-2917.222281330499)"><path fill="black" stroke="none" paint-order="stroke fill markers" d=" M 958.2103748407552 2910.4159466221654 L 944.5977054240885 2917.222281330499 L 958.2103748407552 2924.0286160388323 Z"/></g></g><g><g><rect fill="white" stroke="none" x="765.5352312020702" y="2941.7250862804985" width="122.22334541382813" height="21.23576429"/></g><text fill="black" stroke="none" font-family="sans-serif" font-size="11pt" font-style="normal" font-weight="normal" text-decoration="normal" x="767.9855116970703" y="2956.4267692504986" text-anchor="start" dominant-baseline="alphabetic">XmlFile: response</text></g><g><path fill="none" stroke="black" paint-order="fill stroke markers" d=" M 928.2625021240884 2962.9608505704987 L 727.7538395772135 2962.9608505704987" stroke-miterlimit="10" stroke-width="1.3612669416666667" stroke-dasharray="6.53408132"/><g transform="translate(725.0313056938802,2962.9608505704987) translate(-725.0313056938802,-2962.9608505704987)"><path fill="black" stroke="none" paint-order="stroke fill markers" d=" M 738.6439751105469 2956.154515862165 L 725.0313056938802 2962.9608505704987 L 738.6439751105469 2969.767185278832 Z"/></g></g><g><g><rect fill="white" stroke="none" x="548.39903777069" y="2987.4636555204984" width="122.22334541382813" height="21.23576429"/></g><text fill="black" stroke="none" font-family="sans-serif" font-size="11pt" font-style="normal" font-weight="normal" text-decoration="normal" x="550.84931826569" y="3002.1653384904985" text-anchor="start" dominant-baseline="alphabetic">XmlFile: response</text></g><g><path fill="none" stroke="black" paint-order="fill stroke markers" d=" M 708.6961023938801 3008.6994198104985 L 513.0478524446614 3008.6994198104985" stroke-miterlimit="10" stroke-width="1.3612669416666667" stroke-dasharray="6.53408132"/><g transform="translate(510.32531856132806,3008.6994198104985) translate(-510.32531856132806,-3008.6994198104985)"><path fill="black" stroke="none" paint-order="stroke fill markers" d=" M 523.9379879779947 3001.893085102165 L 510.32531856132806 3008.6994198104985 L 523.9379879779947 3015.505754518832 Z"/></g></g><g><g><rect fill="white" stroke="none" x="215.7768710190625" y="3033.202224760498" width="201.28560127320313" height="21.23576429"/></g><text fill="black" stroke="none" font-family="sans-serif" font-size="11pt" font-style="normal" font-weight="normal" text-decoration="normal" x="218.22715151406248" y="3047.9039077304983" text-anchor="start" dominant-baseline="alphabetic">NotEnoughDataErrorMessage</text></g><g><path fill="none" stroke="black" paint-order="fill stroke markers" d=" M 493.99011526132807 3054.4379890504983 L 141.57176193333333 3054.4379890504983" stroke-miterlimit="10" stroke-width="1.3612669416666667" stroke-dasharray="6.53408132"/><g transform="translate(138.84922805,3054.4379890504983) translate(-138.84922805,-3054.4379890504983)"><path fill="black" stroke="none" paint-order="stroke fill markers" d=" M 152.46189746666667 3047.631654342165 L 138.84922805 3054.4379890504983 L 152.46189746666667 3061.244323758832 Z"/></g></g><g><g/><path fill="none" stroke="black" paint-order="fill stroke markers" d=" M 16.335203299999996 527.3820385405 L 2350.2915664052343 527.3820385405 L 2350.2915664052343 2735.9015247004995 L 16.335203299999996 2735.9015247004995 L 16.335203299999996 527.3820385405 Z" stroke-miterlimit="10" stroke-width="2.3336004714285714" stroke-dasharray=""/><path fill="white" stroke="black" paint-order="fill stroke markers" d=" M 16.335203299999996 527.3820385405 L 16.335203299999996 546.9842825005001 L 62.69440689707031 546.9842825005001 L 72.49552887707031 537.1831605205 L 72.49552887707031 527.3820385405 L 16.335203299999996 527.3820385405" stroke-miterlimit="10" stroke-width="2.3336004714285714" stroke-dasharray=""/><text fill="black" stroke="none" font-family="sans-serif" font-size="8.8pt" font-style="normal" font-weight="bold" text-decoration="normal" x="32.67040659999999" y="540.4502011805" text-anchor="start" dominant-baseline="alphabetic">alt</text><text fill="black" stroke="none" font-family="sans-serif" font-size="8.8pt" font-style="normal" font-weight="bold" text-decoration="normal" x="88.83073217707032" y="540.4502011805" text-anchor="start" dominant-baseline="alphabetic">[ExistsAtLeastOneImprovement]</text></g><g><g/><path fill="none" stroke="black" paint-order="fill stroke markers" d=" M 1289.388176770703 571.4870874505001 L 2333.9563631052342 571.4870874505001 L 2333.9563631052342 1407.8494964104996 L 1289.388176770703 1407.8494964104996 L 1289.388176770703 571.4870874505001 Z" stroke-miterlimit="10" stroke-width="2.3336004714285714" stroke-dasharray=""/><path fill="white" stroke="black" paint-order="fill stroke markers" d=" M 1289.388176770703 571.4870874505001 L 1289.388176770703 591.0893314105001 L 1335.7473803677733 591.0893314105001 L 1345.5485023477734 581.2882094305 L 1345.5485023477734 571.4870874505001 L 1289.388176770703 571.4870874505001" stroke-miterlimit="10" stroke-width="2.3336004714285714" stroke-dasharray=""/><text fill="black" stroke="none" font-family="sans-serif" font-size="8.8pt" font-style="normal" font-weight="bold" text-decoration="normal" x="1305.7233800707031" y="584.5552500905001" text-anchor="start" dominant-baseline="alphabetic">alt</text><text fill="black" stroke="none" font-family="sans-serif" font-size="8.8pt" font-style="normal" font-weight="bold" text-decoration="normal" x="1361.8837056477735" y="584.5552500905001" text-anchor="start" dominant-baseline="alphabetic">[ExistsAtLeastOneReport]</text></g><g><g/><path fill="none" stroke="black" paint-order="fill stroke markers" d=" M 1305.7233800707031 904.7252347704999 L 2317.621159805234 904.7252347704999 L 2317.621159805234 1383.3466914604996 L 1305.7233800707031 1383.3466914604996 L 1305.7233800707031 904.7252347704999 Z" stroke-miterlimit="10" stroke-width="2.3336004714285714" stroke-dasharray=""/><path fill="white" stroke="black" paint-order="fill stroke markers" d=" M 1305.7233800707031 904.7252347704999 L 1305.7233800707031 924.3274787304999 L 1363.148181201953 924.3274787304999 L 1372.9493031819532 914.5263567504999 L 1372.9493031819532 904.7252347704999 L 1305.7233800707031 904.7252347704999" stroke-miterlimit="10" stroke-width="2.3336004714285714" stroke-dasharray=""/><text fill="black" stroke="none" font-family="sans-serif" font-size="8.8pt" font-style="normal" font-weight="bold" text-decoration="normal" x="1322.0585833707032" y="917.7933974104999" text-anchor="start" dominant-baseline="alphabetic">loop</text><text fill="black" stroke="none" font-family="sans-serif" font-size="8.8pt" font-style="normal" font-weight="bold" text-decoration="normal" x="1389.2845064819533" y="917.7933974104999" text-anchor="start" dominant-baseline="alphabetic">[notFinished==True]</text></g><g><g/><path fill="none" stroke="black" paint-order="fill stroke markers" d=" M 1330.2261850207033 1040.3074221605 L 1547.6337512738933 1040.3074221605 L 1547.6337512738933 1187.3242518604998 L 1330.2261850207033 1187.3242518604998 L 1330.2261850207033 1040.3074221605 Z" stroke-miterlimit="10" stroke-width="2.3336004714285714" stroke-dasharray=""/><path fill="white" stroke="black" paint-order="fill stroke markers" d=" M 1330.2261850207033 1040.3074221605 L 1330.2261850207033 1059.9096661204999 L 1376.5853886177736 1059.9096661204999 L 1386.3865105977736 1050.1085441405 L 1386.3865105977736 1040.3074221605 L 1330.2261850207033 1040.3074221605" stroke-miterlimit="10" stroke-width="2.3336004714285714" stroke-dasharray=""/><text fill="black" stroke="none" font-family="sans-serif" font-size="8.8pt" font-style="normal" font-weight="bold" text-decoration="normal" x="1346.5613883207034" y="1053.3755848004998" text-anchor="start" dominant-baseline="alphabetic">alt</text><text fill="black" stroke="none" font-family="sans-serif" font-size="8.8pt" font-style="normal" font-weight="bold" text-decoration="normal" x="1402.7217138977737" y="1053.3755848004998" text-anchor="start" dominant-baseline="alphabetic">[StillAdding]</text></g><g><g/><path fill="none" stroke="black" paint-order="fill stroke markers" d=" M 1330.2261850207033 1211.8270568105 L 1553.8828662641276 1211.8270568105 L 1553.8828662641276 1358.8438865104997 L 1330.2261850207033 1358.8438865104997 L 1330.2261850207033 1211.8270568105 Z" stroke-miterlimit="10" stroke-width="2.3336004714285714" stroke-dasharray=""/><path fill="white" stroke="black" paint-order="fill stroke markers" d=" M 1330.2261850207033 1211.8270568105 L 1330.2261850207033 1231.4293007704998 L 1376.5853886177736 1231.4293007704998 L 1386.3865105977736 1221.6281787905 L 1386.3865105977736 1211.8270568105 L 1330.2261850207033 1211.8270568105" stroke-miterlimit="10" stroke-width="2.3336004714285714" stroke-dasharray=""/><text fill="black" stroke="none" font-family="sans-serif" font-size="8.8pt" font-style="normal" font-weight="bold" text-decoration="normal" x="1346.5613883207034" y="1224.8952194504998" text-anchor="start" dominant-baseline="alphabetic">alt</text><text fill="black" stroke="none" font-family="sans-serif" font-size="8.8pt" font-style="normal" font-weight="bold" text-decoration="normal" x="1402.7217138977737" y="1224.8952194504998" text-anchor="start" dominant-baseline="alphabetic">[FinishAdding]</text></g><g><g/><path fill="none" stroke="black" paint-order="fill stroke markers" d=" M 32.6704066 1798.2608552805002 L 2333.9563631052342 1798.2608552805002 L 2333.9563631052342 2711.3987197504994 L 32.6704066 2711.3987197504994 L 32.6704066 1798.2608552805002 Z" stroke-miterlimit="10" stroke-width="2.3336004714285714" stroke-dasharray=""/><path fill="white" stroke="black" paint-order="fill stroke markers" d=" M 32.6704066 1798.2608552805002 L 32.6704066 1817.8630992405 L 79.02961019707031 1817.8630992405 L 88.83073217707032 1808.0619772605003 L 88.83073217707032 1798.2608552805002 L 32.6704066 1798.2608552805002" stroke-miterlimit="10" stroke-width="2.3336004714285714" stroke-dasharray=""/><text fill="black" stroke="none" font-family="sans-serif" font-size="8.8pt" font-style="normal" font-weight="bold" text-decoration="normal" x="49.005609899999996" y="1811.3290179205" text-anchor="start" dominant-baseline="alphabetic">alt</text><text fill="black" stroke="none" font-family="sans-serif" font-size="8.8pt" font-style="normal" font-weight="bold" text-decoration="normal" x="105.16593547707032" y="1811.3290179205" text-anchor="start" dominant-baseline="alphabetic">[ExistsAtLeastOneImprovementToBeSetCompleted]</text></g><g><g/><path fill="none" stroke="black" paint-order="fill stroke markers" d=" M 49.0056099 1842.3659041905003 L 2317.621159805234 1842.3659041905003 L 2317.621159805234 2686.895914800499 L 49.0056099 2686.895914800499 L 49.0056099 1842.3659041905003 Z" stroke-miterlimit="10" stroke-width="2.3336004714285714" stroke-dasharray=""/><path fill="white" stroke="black" paint-order="fill stroke markers" d=" M 49.0056099 1842.3659041905003 L 49.0056099 1861.9681481505002 L 106.43041103125 1861.9681481505002 L 116.23153301125001 1852.1670261705003 L 116.23153301125001 1842.3659041905003 L 49.0056099 1842.3659041905003" stroke-miterlimit="10" stroke-width="2.3336004714285714" stroke-dasharray=""/><text fill="black" stroke="none" font-family="sans-serif" font-size="8.8pt" font-style="normal" font-weight="bold" text-decoration="normal" x="65.3408132" y="1855.4340668305001" text-anchor="start" dominant-baseline="alphabetic">loop</text><text fill="black" stroke="none" font-family="sans-serif" font-size="8.8pt" font-style="normal" font-weight="bold" text-decoration="normal" x="132.56673631125" y="1855.4340668305001" text-anchor="start" dominant-baseline="alphabetic">[notFinished=True]</text></g><g><g/><path fill="none" stroke="black" paint-order="fill stroke markers" d=" M 73.50841485000001 2343.8566455004993 L 290.9159811031901 2343.8566455004993 L 290.9159811031901 2490.8734752004993 L 73.50841485000001 2490.8734752004993 L 73.50841485000001 2343.8566455004993 Z" stroke-miterlimit="10" stroke-width="2.3336004714285714" stroke-dasharray=""/><path fill="white" stroke="black" paint-order="fill stroke markers" d=" M 73.50841485000001 2343.8566455004993 L 73.50841485000001 2363.4588894604994 L 119.86761844707033 2363.4588894604994 L 129.66874042707033 2353.6577674804994 L 129.66874042707033 2343.8566455004993 L 73.50841485000001 2343.8566455004993" stroke-miterlimit="10" stroke-width="2.3336004714285714" stroke-dasharray=""/><text fill="black" stroke="none" font-family="sans-serif" font-size="8.8pt" font-style="normal" font-weight="bold" text-decoration="normal" x="89.84361815000001" y="2356.9248081404994" text-anchor="start" dominant-baseline="alphabetic">alt</text><text fill="black" stroke="none" font-family="sans-serif" font-size="8.8pt" font-style="normal" font-weight="bold" text-decoration="normal" x="146.00394372707032" y="2356.9248081404994" text-anchor="start" dominant-baseline="alphabetic">[StillSetting]</text></g><g><g/><path fill="none" stroke="black" paint-order="fill stroke markers" d=" M 73.50841485000001 2515.376280150499 L 297.1650960934245 2515.376280150499 L 297.1650960934245 2662.393109850499 L 73.50841485000001 2662.393109850499 L 73.50841485000001 2515.376280150499 Z" stroke-miterlimit="10" stroke-width="2.3336004714285714" stroke-dasharray=""/><path fill="white" stroke="black" paint-order="fill stroke markers" d=" M 73.50841485000001 2515.376280150499 L 73.50841485000001 2534.978524110499 L 119.86761844707033 2534.978524110499 L 129.66874042707033 2525.177402130499 L 129.66874042707033 2515.376280150499 L 73.50841485000001 2515.376280150499" stroke-miterlimit="10" stroke-width="2.3336004714285714" stroke-dasharray=""/><text fill="black" stroke="none" font-family="sans-serif" font-size="8.8pt" font-style="normal" font-weight="bold" text-decoration="normal" x="89.84361815000001" y="2528.444442790499" text-anchor="start" dominant-baseline="alphabetic">alt</text><text fill="black" stroke="none" font-family="sans-serif" font-size="8.8pt" font-style="normal" font-weight="bold" text-decoration="normal" x="146.00394372707032" y="2528.444442790499" text-anchor="start" dominant-baseline="alphabetic">[FinishSetting]</text></g><g><g/><path fill="none" stroke="black" paint-order="fill stroke markers" d=" M 65.34081320000001 2760.404329650499 L 2317.621159805234 2760.404329650499 L 2317.621159805234 3078.9407940004985 L 65.34081320000001 3078.9407940004985 L 65.34081320000001 2760.404329650499 Z" stroke-miterlimit="10" stroke-width="2.3336004714285714" stroke-dasharray=""/><path fill="white" stroke="black" paint-order="fill stroke markers" d=" M 65.34081320000001 2760.404329650499 L 65.34081320000001 2780.0065736104993 L 111.70001679707033 2780.0065736104993 L 121.50113877707034 2770.2054516304993 L 121.50113877707034 2760.404329650499 L 65.34081320000001 2760.404329650499" stroke-miterlimit="10" stroke-width="2.3336004714285714" stroke-dasharray=""/><text fill="black" stroke="none" font-family="sans-serif" font-size="8.8pt" font-style="normal" font-weight="bold" text-decoration="normal" x="81.67601650000002" y="2773.4724922904993" text-anchor="start" dominant-baseline="alphabetic">alt</text><text fill="black" stroke="none" font-family="sans-serif" font-size="8.8pt" font-style="normal" font-weight="bold" text-decoration="normal" x="137.83634207707033" y="2773.4724922904993" text-anchor="start" dominant-baseline="alphabetic">[NotEnoughData]</text></g></g><g/><g/><g/><g/><g/><g/><g/><g/><g/></g></svg>