<svg version="1.1" xmlns="http://www.w3.org/2000/svg" xmlns:xlink="http://www.w3.org/1999/xlink" width="1182" height="651"><defs/><g><g/><g/><g/><g/><g/><g/><g/><g/><g/><g/><g><rect fill="white" stroke="none" x="0" y="0" width="1182" height="651"/></g><g><text fill="black" stroke="none" font-family="sans-serif" font-size="16.5pt" font-style="normal" font-weight="normal" text-decoration="normal" x="476.72928967838016" y="24.50280495" text-anchor="start" dominant-baseline="alphabetic">DataBase Access Error</text></g><g/><g><path fill="none" stroke="black" paint-order="fill stroke markers" d=" M 19.928948026 128.80307802049998 L 19.928948026 651.5295836204999" stroke-miterlimit="10" stroke-width="1.3612669416666667" stroke-dasharray="12.565541,5.445067766666667"/><path fill="none" stroke="black" paint-order="fill stroke markers" d=" M 258.28560044175515 128.80307802049998 L 258.28560044175515 651.5295836204999" stroke-miterlimit="10" stroke-width="1.3612669416666667" stroke-dasharray="12.565541,5.445067766666667"/><path fill="none" stroke="black" paint-order="fill stroke markers" d=" M 472.99158757430723 128.80307802049998 L 472.99158757430723 651.5295836204999" stroke-miterlimit="10" stroke-width="1.3612669416666667" stroke-dasharray="12.565541,5.445067766666667"/><path fill="none" stroke="black" paint-order="fill stroke markers" d=" M 692.5579873045156 128.80307802049998 L 692.5579873045156 651.5295836204999" stroke-miterlimit="10" stroke-width="1.3612669416666667" stroke-dasharray="12.565541,5.445067766666667"/><path fill="none" stroke="black" paint-order="fill stroke markers" d=" M 913.7922337144114 128.80307802049998 L 913.7922337144114 651.5295836204999" stroke-miterlimit="10" stroke-width="1.3612669416666667" stroke-dasharray="12.565541,5.445067766666667"/><path fill="none" stroke="black" paint-order="fill stroke markers" d=" M 1135.0264801243072 128.80307802049998 L 1135.0264801243072 651.5295836204999" stroke-miterlimit="10" stroke-width="1.3612669416666667" stroke-dasharray="12.565541,5.445067766666667"/></g><g><g><path fill="white" stroke="black" paint-order="fill stroke markers" d=" M 29.240013906999998 59.70516806150002 A 9.311065881 9.311065881 0 1 1 29.24000925146745 59.69585699717086 M 19.928948026 69.01623394250002 L 19.928948026 88.94518196850002 M 8.167601650000002 76.20372339450002 L 31.690294402 76.20372339450002 M 19.928948026 88.94518196850002 L 8.167601650000002 107.56731373050002 M 19.928948026 88.94518196850002 L 31.690294402 107.56731373050002" stroke-miterlimit="10" stroke-width="2.7769845610000004" stroke-dasharray=""/></g><g><g/><text fill="black" stroke="none" font-family="sans-serif" font-size="11pt" font-style="normal" font-weight="normal" text-decoration="normal" x="14.635460477171875" y="123.90251703050001" text-anchor="start" dominant-baseline="alphabetic">U</text></g><path fill="none" stroke="none"/><g><path fill="white" stroke="black" paint-order="fill stroke markers" d=" M 227.5196761625247 84.69802911050002 L 289.05152472098564 84.69802911050002 L 289.05152472098564 128.8030780205 L 227.5196761625247 128.8030780205 L 227.5196761625247 84.69802911050002 Z" stroke-miterlimit="10" stroke-width="2.613632528" stroke-dasharray=""/></g><g><g/><text fill="black" stroke="none" font-family="sans-serif" font-size="11pt" font-style="normal" font-weight="normal" text-decoration="normal" x="245.24337174302468" y="112.46787472049999" text-anchor="start" dominant-baseline="alphabetic">App</text></g><path fill="none" stroke="none"/><g><path fill="white" stroke="black" paint-order="fill stroke markers" d=" M 418.739640345858 84.69802911050002 L 527.2435348027565 84.69802911050002 L 527.2435348027565 128.8030780205 L 418.739640345858 128.8030780205 L 418.739640345858 84.69802911050002 Z" stroke-miterlimit="10" stroke-width="2.613632528" stroke-dasharray=""/></g><g><g/><text fill="black" stroke="none" font-family="sans-serif" font-size="11pt" font-style="normal" font-weight="normal" text-decoration="normal" x="436.463335926358" y="112.46787472049999" text-anchor="start" dominant-baseline="alphabetic">WebServer</text></g><path fill="none" stroke="none"/><g><path fill="white" stroke="black" paint-order="fill stroke markers" d=" M 652.8335821903241 84.69802911050002 L 732.282392418707 84.69802911050002 L 732.282392418707 128.8030780205 L 652.8335821903241 128.8030780205 L 652.8335821903241 84.69802911050002 Z" stroke-miterlimit="10" stroke-width="2.613632528" stroke-dasharray=""/></g><g><g/><text fill="black" stroke="none" font-family="sans-serif" font-size="11pt" font-style="normal" font-weight="normal" text-decoration="normal" x="670.5572777708242" y="112.46787472049999" text-anchor="start" dominant-baseline="alphabetic">Router</text></g><path fill="none" stroke="none"/><g><path fill="white" stroke="black" paint-order="fill stroke markers" d=" M 796.6519655631106 84.69802911050002 L 1030.932501865712 84.69802911050002 L 1030.932501865712 128.8030780205 L 796.6519655631106 128.8030780205 L 796.6519655631106 84.69802911050002 Z" stroke-miterlimit="10" stroke-width="2.613632528" stroke-dasharray=""/></g><g><g/><text fill="black" stroke="none" font-family="sans-serif" font-size="11pt" font-style="normal" font-weight="normal" text-decoration="normal" x="814.3756611436106" y="112.46787472049999" text-anchor="start" dominant-baseline="alphabetic">DatabaseAccessorComponent</text></g><path fill="none" stroke="none"/><g><path fill="white" stroke="black" paint-order="fill stroke markers" d=" M 1096.1252637918542 84.69802911050002 L 1173.9276964567605 84.69802911050002 L 1173.9276964567605 128.8030780205 L 1096.1252637918542 128.8030780205 L 1096.1252637918542 84.69802911050002 Z" stroke-miterlimit="10" stroke-width="2.613632528" stroke-dasharray=""/></g><g><g/><text fill="black" stroke="none" font-family="sans-serif" font-size="11pt" font-style="normal" font-weight="normal" text-decoration="normal" x="1113.848959372354" y="112.46787472049999" text-anchor="start" dominant-baseline="alphabetic">DBMS</text></g></g><g><path fill="white" stroke="black" paint-order="fill stroke markers" d=" M 11.761346376 136.97067967049998 L 28.096549676000002 136.97067967049998 L 28.096549676000002 635.1943803204999 L 11.761346376 635.1943803204999 L 11.761346376 136.97067967049998" stroke-miterlimit="10" stroke-width="1.3612669416666667" stroke-dasharray=""/><path fill="white" stroke="black" paint-order="fill stroke markers" d=" M 250.11799879175516 182.70924891049998 L 266.45320209175514 182.70924891049998 L 266.45320209175514 594.3563720704999 L 250.11799879175516 594.3563720704999 L 250.11799879175516 182.70924891049998" stroke-miterlimit="10" stroke-width="1.3612669416666667" stroke-dasharray=""/><path fill="white" stroke="black" paint-order="fill stroke markers" d=" M 464.82398592430724 228.44781815049998 L 481.1591892243072 228.44781815049998 L 481.1591892243072 548.6178028305 L 464.82398592430724 548.6178028305 L 464.82398592430724 228.44781815049998" stroke-miterlimit="10" stroke-width="1.3612669416666667" stroke-dasharray=""/><path fill="white" stroke="black" paint-order="fill stroke markers" d=" M 684.3903856545155 274.1863873905 L 700.7255889545156 274.1863873905 L 700.7255889545156 502.8792335905 L 684.3903856545155 502.8792335905 L 684.3903856545155 274.1863873905" stroke-miterlimit="10" stroke-width="1.3612669416666667" stroke-dasharray=""/><path fill="white" stroke="black" paint-order="fill stroke markers" d=" M 905.6246320644113 319.9249566305 L 921.9598353644114 319.9249566305 L 921.9598353644114 457.1406643505 L 905.6246320644113 457.1406643505 L 905.6246320644113 319.9249566305" stroke-miterlimit="10" stroke-width="1.3612669416666667" stroke-dasharray=""/><path fill="white" stroke="black" paint-order="fill stroke markers" d=" M 1126.8588784743072 365.6635258705 L 1143.1940817743073 365.6635258705 L 1143.1940817743073 411.4020951105 L 1126.8588784743072 411.4020951105 L 1126.8588784743072 365.6635258705" stroke-miterlimit="10" stroke-width="1.3612669416666667" stroke-dasharray=""/><g><g><rect fill="white" stroke="none" x="112.20818697618226" y="161.4734846205" width="53.79817451539063" height="21.23576429"/></g><text fill="black" stroke="none" font-family="sans-serif" font-size="11pt" font-style="normal" font-weight="normal" text-decoration="normal" x="114.65846747118226" y="176.17516759049997" text-anchor="start" dominant-baseline="alphabetic">request</text></g><g><path fill="none" stroke="black" paint-order="fill stroke markers" d=" M 28.096549676000002 182.70924891049998 L 247.39546490842181 182.70924891049998" stroke-miterlimit="10" stroke-width="1.3612669416666667" stroke-dasharray=""/><g transform="translate(250.11799879175516,182.70924891049998) translate(-250.11799879175516,-182.70924891049998)"><path fill="black" stroke="none" paint-order="stroke fill markers" d=" M 236.50532937508848 175.90291420216664 L 250.11799879175516 182.70924891049998 L 236.50532937508848 189.51558361883332 Z"/></g></g><g><g><rect fill="white" stroke="none" x="285.7831926634218" y="207.2120538605" width="159.71080268921875" height="21.23576429"/></g><text fill="black" stroke="none" font-family="sans-serif" font-size="11pt" font-style="normal" font-weight="normal" text-decoration="normal" x="288.2334731584218" y="221.91373683049997" text-anchor="start" dominant-baseline="alphabetic">handleRequest(xmlFile)</text></g><g><path fill="none" stroke="black" paint-order="fill stroke markers" d=" M 266.45320209175514 228.44781815049998 L 462.1014520409739 228.44781815049998" stroke-miterlimit="10" stroke-width="1.3612669416666667" stroke-dasharray=""/><g transform="translate(464.82398592430724,228.44781815049998) translate(-464.82398592430724,-228.44781815049998)"><path fill="black" stroke="none" paint-order="stroke fill markers" d=" M 451.21131650764056 221.64148344216665 L 464.82398592430724 228.44781815049998 L 451.21131650764056 235.25415285883332 Z"/></g></g><g><g><rect fill="white" stroke="none" x="500.4891797959739" y="252.9506231005" width="164.571215286875" height="21.23576429"/></g><text fill="black" stroke="none" font-family="sans-serif" font-size="11pt" font-style="normal" font-weight="normal" text-decoration="normal" x="502.9394602909739" y="267.6523060705" text-anchor="start" dominant-baseline="alphabetic">forwardRequest(xmlFile)</text></g><g><path fill="none" stroke="black" paint-order="fill stroke markers" d=" M 481.1591892243072 274.1863873905 L 681.6678517711822 274.1863873905" stroke-miterlimit="10" stroke-width="1.3612669416666667" stroke-dasharray=""/><g transform="translate(684.3903856545155,274.1863873905) translate(-684.3903856545155,-274.1863873905)"><path fill="black" stroke="none" paint-order="stroke fill markers" d=" M 670.7777162378488 267.38005268216665 L 684.3903856545155 274.1863873905 L 670.7777162378488 280.9927220988333 Z"/></g></g><g><g><rect fill="white" stroke="none" x="771.394141537901" y="298.6891923405" width="63.561937943125" height="21.23576429"/></g><text fill="black" stroke="none" font-family="sans-serif" font-size="11pt" font-style="normal" font-weight="normal" text-decoration="normal" x="773.844422032901" y="313.39087531049995" text-anchor="start" dominant-baseline="alphabetic">request()</text></g><g><path fill="none" stroke="black" paint-order="fill stroke markers" d=" M 700.7255889545156 319.9249566305 L 902.902098181078 319.9249566305" stroke-miterlimit="10" stroke-width="1.3612669416666667" stroke-dasharray=""/><g transform="translate(905.6246320644113,319.9249566305) translate(-905.6246320644113,-319.9249566305)"><path fill="black" stroke="none" paint-order="stroke fill markers" d=" M 892.0119626477447 313.11862192216665 L 905.6246320644113 319.9249566305 L 892.0119626477447 326.73129133883333 Z"/></g></g><g><g><rect fill="white" stroke="none" x="977.1523747642029" y="344.4277615805" width="94.5139643103125" height="21.23576429"/></g><text fill="black" stroke="none" font-family="sans-serif" font-size="11pt" font-style="normal" font-weight="normal" text-decoration="normal" x="979.602655259203" y="359.12944455049995" text-anchor="start" dominant-baseline="alphabetic">retrieveData()</text></g><g><path fill="none" stroke="black" paint-order="fill stroke markers" d=" M 921.9598353644114 365.6635258705 L 1124.1363445909737 365.6635258705" stroke-miterlimit="10" stroke-width="1.3612669416666667" stroke-dasharray=""/><g transform="translate(1126.8588784743072,365.6635258705) translate(-1126.8588784743072,-365.6635258705)"><path fill="black" stroke="none" paint-order="stroke fill markers" d=" M 1113.2462090576405 358.85719116216666 L 1126.8588784743072 365.6635258705 L 1113.2462090576405 372.46986057883333 Z"/></g></g><g><g><rect fill="white" stroke="none" x="941.2898259360779" y="390.1663308205" width="166.2390619665625" height="21.23576429"/></g><text fill="black" stroke="none" font-family="sans-serif" font-size="11pt" font-style="normal" font-weight="normal" text-decoration="normal" x="943.740106431078" y="404.86801379049996" text-anchor="start" dominant-baseline="alphabetic">DataBaseErrorException</text></g><g><path fill="none" stroke="black" paint-order="fill stroke markers" d=" M 1126.8588784743072 411.4020951105 L 924.6823692477448 411.4020951105" stroke-miterlimit="10" stroke-width="1.3612669416666667" stroke-dasharray="6.53408132"/><g transform="translate(921.9598353644114,411.4020951105) translate(-921.9598353644114,-411.4020951105)"><path fill="black" stroke="none" paint-order="stroke fill markers" d=" M 935.5725047810781 404.59576040216666 L 921.9598353644114 411.4020951105 L 935.5725047810781 418.20842981883334 Z"/></g></g><g><g><rect fill="white" stroke="none" x="720.0555795261822" y="435.9049000605" width="166.2390619665625" height="21.23576429"/></g><text fill="black" stroke="none" font-family="sans-serif" font-size="11pt" font-style="normal" font-weight="normal" text-decoration="normal" x="722.5058600211822" y="450.60658303049996" text-anchor="start" dominant-baseline="alphabetic">DataBaseErrorException</text></g><g><path fill="none" stroke="black" paint-order="fill stroke markers" d=" M 905.6246320644113 457.1406643505 L 703.4481228378489 457.1406643505" stroke-miterlimit="10" stroke-width="1.3612669416666667" stroke-dasharray="6.53408132"/><g transform="translate(700.7255889545156,457.1406643505) translate(-700.7255889545156,-457.1406643505)"><path fill="black" stroke="none" paint-order="stroke fill markers" d=" M 714.3382583711823 450.33432964216667 L 700.7255889545156 457.1406643505 L 714.3382583711823 463.94699905883334 Z"/></g></g><g><g><rect fill="white" stroke="none" x="521.6631147324973" y="481.6434693005" width="122.22334541382813" height="21.23576429"/></g><text fill="black" stroke="none" font-family="sans-serif" font-size="11pt" font-style="normal" font-weight="normal" text-decoration="normal" x="524.1133952274973" y="496.34515227049997" text-anchor="start" dominant-baseline="alphabetic">XmlFile: response</text></g><g><path fill="none" stroke="black" paint-order="fill stroke markers" d=" M 684.3903856545155 502.8792335905 L 483.88172310764054 502.8792335905" stroke-miterlimit="10" stroke-width="1.3612669416666667" stroke-dasharray="6.53408132"/><g transform="translate(481.1591892243072,502.8792335905) translate(-481.1591892243072,-502.8792335905)"><path fill="black" stroke="none" paint-order="stroke fill markers" d=" M 494.7718586409739 496.07289888216667 L 481.1591892243072 502.8792335905 L 494.7718586409739 509.68556829883335 Z"/></g></g><g><g><rect fill="white" stroke="none" x="304.5269213011171" y="527.3820385404999" width="122.22334541382813" height="21.23576429"/></g><text fill="black" stroke="none" font-family="sans-serif" font-size="11pt" font-style="normal" font-weight="normal" text-decoration="normal" x="306.97720179611713" y="542.0837215104999" text-anchor="start" dominant-baseline="alphabetic">XmlFile: response</text></g><g><path fill="none" stroke="black" paint-order="fill stroke markers" d=" M 464.82398592430724 548.6178028305 L 269.17573597508846 548.6178028305" stroke-miterlimit="10" stroke-width="1.3612669416666667" stroke-dasharray="6.53408132"/><g transform="translate(266.45320209175514,548.6178028305) translate(-266.45320209175514,-548.6178028305)"><path fill="black" stroke="none" paint-order="stroke fill markers" d=" M 280.0658715084218 541.8114681221666 L 266.45320209175514 548.6178028305 L 280.0658715084218 555.4241375388333 Z"/></g></g><g><g><rect fill="white" stroke="none" x="47.42654024766664" y="573.1206077804999" width="183.36146797242188" height="21.23576429"/></g><text fill="black" stroke="none" font-family="sans-serif" font-size="11pt" font-style="normal" font-weight="normal" text-decoration="normal" x="49.87682074266664" y="587.8222907504999" text-anchor="start" dominant-baseline="alphabetic">UnreachableDatabaseError</text></g><g><path fill="none" stroke="black" paint-order="fill stroke markers" d=" M 250.11799879175516 594.3563720704999 L 30.819083559333336 594.3563720704999" stroke-miterlimit="10" stroke-width="1.3612669416666667" stroke-dasharray="6.53408132"/><g transform="translate(28.096549676000002,594.3563720704999) translate(-28.096549676000002,-594.3563720704999)"><path fill="black" stroke="none" paint-order="stroke fill markers" d=" M 41.70921909266667 587.5500373621666 L 28.096549676000002 594.3563720704999 L 41.70921909266667 601.1627067788332 Z"/></g></g></g><g/><g/><g/><g/><g/><g/></g></svg>