<svg version="1.1" xmlns="http://www.w3.org/2000/svg" xmlns:xlink="http://www.w3.org/1999/xlink" width="588" height="445"><defs/><g><g/><g/><g/><g/><g><rect fill="white" stroke="none" x="0" y="0" width="588" height="445"/></g><g><text fill="black" stroke="none" font-family="sans-serif" font-size="16.5pt" font-style="normal" font-weight="normal" text-decoration="normal" x="232.57614883518875" y="24.50280495" text-anchor="start" dominant-baseline="alphabetic">Invalid token</text></g><g/><g><path fill="none" stroke="black" paint-order="fill stroke markers" d=" M 81.67601649999999 128.80307802049998 L 81.67601649999999 445.7060220405" stroke-miterlimit="10" stroke-width="1.3612669416666667" stroke-dasharray="12.565541,5.445067766666667"/><path fill="none" stroke="black" paint-order="fill stroke markers" d=" M 292.29470810032547 128.80307802049998 L 292.29470810032547 445.7060220405" stroke-miterlimit="10" stroke-width="1.3612669416666667" stroke-dasharray="12.565541,5.445067766666667"/><path fill="none" stroke="black" paint-order="fill stroke markers" d=" M 507.00069523287755 128.80307802049998 L 507.00069523287755 445.7060220405" stroke-miterlimit="10" stroke-width="1.3612669416666667" stroke-dasharray="12.565541,5.445067766666667"/></g><g><g><path fill="white" stroke="black" paint-order="fill stroke markers" d=" M 90.987082381 59.70516806150002 A 9.311065881 9.311065881 0 1 1 90.98707772546743 59.69585699717086 M 81.67601649999999 69.01623394250002 L 81.67601649999999 88.94518196850002 M 69.914670124 76.20372339450002 L 93.43736287599998 76.20372339450002 M 81.67601649999999 88.94518196850002 L 69.914670124 107.56731373050002 M 81.67601649999999 88.94518196850002 L 93.43736287599998 107.56731373050002" stroke-miterlimit="10" stroke-width="2.7769845610000004" stroke-dasharray=""/></g><g><g/><text fill="black" stroke="none" font-family="sans-serif" font-size="11pt" font-style="normal" font-weight="normal" text-decoration="normal" x="76.38252895117186" y="123.90251703050001" text-anchor="start" dominant-baseline="alphabetic">U</text></g><path fill="none" stroke="none"/><g><path fill="white" stroke="black" paint-order="fill stroke markers" d=" M 261.528783821095 84.69802911050002 L 323.0606323795559 84.69802911050002 L 323.0606323795559 128.8030780205 L 261.528783821095 128.8030780205 L 261.528783821095 84.69802911050002 Z" stroke-miterlimit="10" stroke-width="2.613632528" stroke-dasharray=""/></g><g><g/><text fill="black" stroke="none" font-family="sans-serif" font-size="11pt" font-style="normal" font-weight="normal" text-decoration="normal" x="279.252479401595" y="112.46787472049999" text-anchor="start" dominant-baseline="alphabetic">App</text></g><path fill="none" stroke="none"/><g><path fill="white" stroke="black" paint-order="fill stroke markers" d=" M 452.7487480044283 84.69802911050002 L 561.2526424613268 84.69802911050002 L 561.2526424613268 128.8030780205 L 452.7487480044283 128.8030780205 L 452.7487480044283 84.69802911050002 Z" stroke-miterlimit="10" stroke-width="2.613632528" stroke-dasharray=""/></g><g><g/><text fill="black" stroke="none" font-family="sans-serif" font-size="11pt" font-style="normal" font-weight="normal" text-decoration="normal" x="470.4724435849283" y="112.46787472049999" text-anchor="start" dominant-baseline="alphabetic">WebServer</text></g></g><g><path fill="white" stroke="black" paint-order="fill stroke markers" d=" M 73.50841485 136.97067967049998 L 89.84361814999998 136.97067967049998 L 89.84361814999998 429.3708187405 L 73.50841485 429.3708187405 L 73.50841485 136.97067967049998" stroke-miterlimit="10" stroke-width="1.3612669416666667" stroke-dasharray=""/><path fill="white" stroke="black" paint-order="fill stroke markers" d=" M 284.12710645032547 182.70924891049998 L 300.46230975032546 182.70924891049998 L 300.46230975032546 364.0300055405 L 284.12710645032547 364.0300055405 L 284.12710645032547 182.70924891049998" stroke-miterlimit="10" stroke-width="1.3612669416666667" stroke-dasharray=""/><path fill="white" stroke="black" paint-order="fill stroke markers" d=" M 498.83309358287755 228.44781815049998 L 515.1682968828776 228.44781815049998 L 515.1682968828776 318.2914363005 L 498.83309358287755 318.2914363005 L 498.83309358287755 228.44781815049998" stroke-miterlimit="10" stroke-width="1.3612669416666667" stroke-dasharray=""/><g><g><rect fill="white" stroke="none" x="109.17360872166661" y="161.4734846205" width="155.6235071569922" height="21.23576429"/></g><text fill="black" stroke="none" font-family="sans-serif" font-size="11pt" font-style="normal" font-weight="normal" text-decoration="normal" x="111.62388921666661" y="176.17516759049997" text-anchor="start" dominant-baseline="alphabetic">          request               </text></g><g><path fill="none" stroke="black" paint-order="fill stroke markers" d=" M 89.84361814999998 182.70924891049998 L 281.40457256699216 182.70924891049998" stroke-miterlimit="10" stroke-width="1.3612669416666667" stroke-dasharray=""/><g transform="translate(284.12710645032547,182.70924891049998) translate(-284.12710645032547,-182.70924891049998)"><path fill="black" stroke="none" paint-order="stroke fill markers" d=" M 270.5144370336588 175.90291420216664 L 284.12710645032547 182.70924891049998 L 270.5144370336588 189.51558361883332 Z"/></g></g><g><g><rect fill="white" stroke="none" x="319.7923003219921" y="207.2120538605" width="159.71080268921875" height="21.23576429"/></g><text fill="black" stroke="none" font-family="sans-serif" font-size="11pt" font-style="normal" font-weight="normal" text-decoration="normal" x="322.24258081699213" y="221.91373683049997" text-anchor="start" dominant-baseline="alphabetic">handleRequest(xmlFile)</text></g><g><path fill="none" stroke="black" paint-order="fill stroke markers" d=" M 300.46230975032546 228.44781815049998 L 496.11055969954424 228.44781815049998" stroke-miterlimit="10" stroke-width="1.3612669416666667" stroke-dasharray=""/><g transform="translate(498.83309358287755,228.44781815049998) translate(-498.83309358287755,-228.44781815049998)"><path fill="black" stroke="none" paint-order="stroke fill markers" d=" M 485.2204241662109 221.64148344216665 L 498.83309358287755 228.44781815049998 L 485.2204241662109 235.25415285883332 Z"/></g></g><g><g><rect fill="white" stroke="none" x="338.5360289596874" y="297.05567201049996" width="122.22334541382813" height="21.23576429"/></g><text fill="black" stroke="none" font-family="sans-serif" font-size="11pt" font-style="normal" font-weight="normal" text-decoration="normal" x="340.98630945468744" y="311.75735498049994" text-anchor="start" dominant-baseline="alphabetic">XmlFile: response</text></g><g><path fill="none" stroke="black" paint-order="fill stroke markers" d=" M 498.83309358287755 318.2914363005 L 303.1848436336588 318.2914363005" stroke-miterlimit="10" stroke-width="1.3612669416666667" stroke-dasharray=""/><g transform="translate(300.46230975032546,318.2914363005) translate(-300.46230975032546,-318.2914363005)"><path fill="black" stroke="none" paint-order="stroke fill markers" d=" M 314.07497916699214 311.48510159216664 L 300.46230975032546 318.2914363005 L 314.07497916699214 325.0977710088333 Z"/></g></g><g><g><rect fill="white" stroke="none" x="122.60955232518224" y="342.79424125049997" width="128.75161994996094" height="21.23576429"/></g><text fill="black" stroke="none" font-family="sans-serif" font-size="11pt" font-style="normal" font-weight="normal" text-decoration="normal" x="125.05983282018224" y="357.49592422049994" text-anchor="start" dominant-baseline="alphabetic">UserNotAuthorized</text></g><g><path fill="none" stroke="black" paint-order="fill stroke markers" d=" M 284.12710645032547 364.0300055405 L 92.56615203333331 364.0300055405" stroke-miterlimit="10" stroke-width="1.3612669416666667" stroke-dasharray=""/><g transform="translate(89.84361814999998,364.0300055405) translate(-89.84361814999998,-364.0300055405)"><path fill="black" stroke="none" paint-order="stroke fill markers" d=" M 103.45628756666665 357.22367083216665 L 89.84361814999998 364.0300055405 L 103.45628756666665 370.8363402488333 Z"/></g></g><g><g/><path fill="none" stroke="black" paint-order="fill stroke markers" d=" M 16.33520329999999 252.95062310049997 L 564.1739067828776 252.95062310049997 L 564.1739067828776 388.53281049049997 L 16.33520329999999 388.53281049049997 L 16.33520329999999 252.95062310049997 Z" stroke-miterlimit="10" stroke-width="2.3336004714285714" stroke-dasharray=""/><path fill="white" stroke="black" paint-order="fill stroke markers" d=" M 16.33520329999999 252.95062310049997 L 16.33520329999999 272.5528670605 L 62.6944068970703 272.5528670605 L 72.4955288770703 262.7517450805 L 72.4955288770703 252.95062310049997 L 16.33520329999999 252.95062310049997" stroke-miterlimit="10" stroke-width="2.3336004714285714" stroke-dasharray=""/><text fill="black" stroke="none" font-family="sans-serif" font-size="8.8pt" font-style="normal" font-weight="bold" text-decoration="normal" x="32.67040659999999" y="266.0187857405" text-anchor="start" dominant-baseline="alphabetic">alt</text><text fill="black" stroke="none" font-family="sans-serif" font-size="8.8pt" font-style="normal" font-weight="bold" text-decoration="normal" x="88.8307321770703" y="266.0187857405" text-anchor="start" dominant-baseline="alphabetic">[InvalidToken]</text></g></g><g/><g/><g/></g></svg>