<svg version="1.1" xmlns="http://www.w3.org/2000/svg" xmlns:xlink="http://www.w3.org/1999/xlink" width="250" height="347"><defs/><g><g/><g/><g/><g><rect fill="white" stroke="none" x="0" y="0" width="250" height="347"/></g><g><text fill="black" stroke="none" font-family="sans-serif" font-size="16.5pt" font-style="normal" font-weight="normal" text-decoration="normal" x="69.72416813544399" y="24.50280495" text-anchor="start" dominant-baseline="alphabetic">Add Report</text></g><g/><g><path fill="none" stroke="black" paint-order="fill stroke markers" d=" M 19.928948026 128.80307802049998 L 19.928948026 347.6948022405" stroke-miterlimit="10" stroke-width="1.3612669416666667" stroke-dasharray="12.565541,5.445067766666667"/><path fill="none" stroke="black" paint-order="fill stroke markers" d=" M 186.54619004136455 128.80307802049998 L 186.54619004136455 347.6948022405" stroke-miterlimit="10" stroke-width="1.3612669416666667" stroke-dasharray="12.565541,5.445067766666667"/></g><g><g><path fill="white" stroke="black" paint-order="fill stroke markers" d=" M 29.240013906999998 59.70516806150002 A 9.311065881 9.311065881 0 1 1 29.24000925146745 59.69585699717086 M 19.928948026 69.01623394250002 L 19.928948026 88.94518196850002 M 8.167601650000002 76.20372339450002 L 31.690294402 76.20372339450002 M 19.928948026 88.94518196850002 L 8.167601650000002 107.56731373050002 M 19.928948026 88.94518196850002 L 31.690294402 107.56731373050002" stroke-miterlimit="10" stroke-width="2.7769845610000004" stroke-dasharray=""/></g><g><g/><text fill="black" stroke="none" font-family="sans-serif" font-size="11pt" font-style="normal" font-weight="normal" text-decoration="normal" x="9.34197292834375" y="123.90251703050001" text-anchor="start" dominant-baseline="alphabetic">RU</text></g><path fill="none" stroke="none"/><g><path fill="white" stroke="black" paint-order="fill stroke markers" d=" M 130.52258296184112 84.69802911050002 L 242.569797120888 84.69802911050002 L 242.569797120888 128.8030780205 L 130.52258296184112 128.8030780205 L 130.52258296184112 84.69802911050002 Z" stroke-miterlimit="10" stroke-width="2.613632528" stroke-dasharray=""/></g><g><g/><text fill="black" stroke="none" font-family="sans-serif" font-size="11pt" font-style="normal" font-weight="normal" text-decoration="normal" x="148.24627854234112" y="112.46787472049999" text-anchor="start" dominant-baseline="alphabetic">SafeStreets</text></g></g><g><path fill="white" stroke="black" paint-order="fill stroke markers" d=" M 11.761346376 136.97067967049998 L 28.096549676000002 136.97067967049998 L 28.096549676000002 331.3595989405 L 11.761346376 331.3595989405 L 11.761346376 136.97067967049998" stroke-miterlimit="10" stroke-width="1.3612669416666667" stroke-dasharray=""/><path fill="white" stroke="black" paint-order="fill stroke markers" d=" M 178.37858839136456 244.78302145049997 L 194.71379169136455 244.78302145049997 L 194.71379169136455 290.5215906905 L 178.37858839136456 290.5215906905 L 178.37858839136456 244.78302145049997" stroke-miterlimit="10" stroke-width="1.3612669416666667" stroke-dasharray=""/><g><g><rect fill="white" stroke="none" x="47.42654024766667" y="161.47348462049996" width="72.50967659058594" height="21.23576429"/></g><text fill="black" stroke="none" font-family="sans-serif" font-size="11pt" font-style="normal" font-weight="normal" text-decoration="normal" x="49.87682074266667" y="176.17516759049994" text-anchor="start" dominant-baseline="alphabetic">fill(Report)</text></g><g><path fill="none" stroke="black" paint-order="fill stroke markers" d=" M 28.096549676000002 182.70924891049998 L 93.43736287600001 182.70924891049998 L 93.43736287600001 199.04445221049997 L 30.819083559333336 199.04445221049997" stroke-miterlimit="10" stroke-width="1.3612669416666667" stroke-dasharray=""/><g transform="translate(28.096549676000002,199.04445221049997) translate(-28.096549676000002,-199.04445221049997)"><path fill="black" stroke="none" paint-order="stroke fill markers" d=" M 41.70921909266667 192.23811750216663 L 28.096549676000002 199.04445221049997 L 41.70921909266667 205.8507869188333 Z"/></g></g><g><g><rect fill="white" stroke="none" x="58.00992952989323" y="223.54725716049998" width="90.45527900757813" height="21.23576429"/></g><text fill="black" stroke="none" font-family="sans-serif" font-size="11pt" font-style="normal" font-weight="normal" text-decoration="normal" x="60.46021002489323" y="238.24894013049996" text-anchor="start" dominant-baseline="alphabetic">send(Report)</text></g><g><path fill="none" stroke="black" paint-order="fill stroke markers" d=" M 28.096549676000002 244.78302145049997 L 175.65605450803122 244.78302145049997" stroke-miterlimit="10" stroke-width="1.3612669416666667" stroke-dasharray=""/><g transform="translate(178.37858839136456,244.78302145049997) translate(-178.37858839136456,-244.78302145049997)"><path fill="black" stroke="none" paint-order="stroke fill markers" d=" M 164.76591897469788 237.97668674216663 L 178.37858839136456 244.78302145049997 L 164.76591897469788 251.5893561588333 Z"/></g></g><g><g><rect fill="white" stroke="none" x="47.426540247666665" y="269.28582640049996" width="111.62205757203125" height="21.23576429"/></g><text fill="black" stroke="none" font-family="sans-serif" font-size="11pt" font-style="normal" font-weight="normal" text-decoration="normal" x="49.876820742666666" y="283.98750937049994" text-anchor="start" dominant-baseline="alphabetic">reply(ReportOK)</text></g><g><path fill="none" stroke="black" paint-order="fill stroke markers" d=" M 178.37858839136456 290.5215906905 L 30.819083559333336 290.5215906905" stroke-miterlimit="10" stroke-width="1.3612669416666667" stroke-dasharray="6.53408132"/><g transform="translate(28.096549676000002,290.5215906905) translate(-28.096549676000002,-290.5215906905)"><path fill="black" stroke="none" paint-order="stroke fill markers" d=" M 41.70921909266667 283.71525598216664 L 28.096549676000002 290.5215906905 L 41.70921909266667 297.3279253988333 Z"/></g></g></g><g/><g/></g></svg>