<svg version="1.1" xmlns="http://www.w3.org/2000/svg" xmlns:xlink="http://www.w3.org/1999/xlink" width="505" height="697"><defs/><g><g/><g/><g/><g/><g><rect fill="white" stroke="none" x="0" y="0" width="505" height="697"/></g><g><text fill="black" stroke="none" font-family="sans-serif" font-size="16.5pt" font-style="normal" font-weight="normal" text-decoration="normal" x="151.69198771048175" y="24.50280495" text-anchor="start" dominant-baseline="alphabetic">Notify Improvements</text></g><g/><g><path fill="none" stroke="black" paint-order="fill stroke markers" d=" M 98.01121979999999 128.80307802049998 L 98.01121979999999 697.2681528604999" stroke-miterlimit="10" stroke-width="1.3612669416666667" stroke-dasharray="12.565541,5.445067766666667"/><path fill="none" stroke="black" paint-order="fill stroke markers" d=" M 423.4354979834635 128.80307802049998 L 423.4354979834635 697.2681528604999" stroke-miterlimit="10" stroke-width="1.3612669416666667" stroke-dasharray="12.565541,5.445067766666667"/></g><g><g><path fill="white" stroke="black" paint-order="fill stroke markers" d=" M 107.322285681 59.70516806150002 A 9.311065881 9.311065881 0 1 1 107.32228102546743 59.69585699717086 M 98.01121979999999 69.01623394250002 L 98.01121979999999 88.94518196850002 M 86.24987342399999 76.20372339450002 L 109.772566176 76.20372339450002 M 98.01121979999999 88.94518196850002 L 86.24987342399999 107.56731373050002 M 98.01121979999999 88.94518196850002 L 109.772566176 107.56731373050002" stroke-miterlimit="10" stroke-width="2.7769845610000004" stroke-dasharray=""/></g><g><g/><text fill="black" stroke="none" font-family="sans-serif" font-size="11pt" font-style="normal" font-weight="normal" text-decoration="normal" x="87.01623231220702" y="123.90251703050001" text-anchor="start" dominant-baseline="alphabetic">ME</text></g><path fill="none" stroke="none"/><g><path fill="white" stroke="black" paint-order="fill stroke markers" d=" M 367.41189090394005 84.69802911050002 L 479.45910506298696 84.69802911050002 L 479.45910506298696 128.8030780205 L 367.41189090394005 128.8030780205 L 367.41189090394005 84.69802911050002 Z" stroke-miterlimit="10" stroke-width="2.613632528" stroke-dasharray=""/></g><g><g/><text fill="black" stroke="none" font-family="sans-serif" font-size="11pt" font-style="normal" font-weight="normal" text-decoration="normal" x="385.13558648444007" y="112.46787472049999" text-anchor="start" dominant-baseline="alphabetic">SafeStreets</text></g></g><g><path fill="white" stroke="black" paint-order="fill stroke markers" d=" M 89.84361815 136.97067967049998 L 106.17882144999999 136.97067967049998 L 106.17882144999999 680.9329495604999 L 89.84361815 680.9329495604999 L 89.84361815 136.97067967049998" stroke-miterlimit="10" stroke-width="1.3612669416666667" stroke-dasharray=""/><path fill="white" stroke="black" paint-order="fill stroke markers" d=" M 98.01121979999999 287.25455003049996 L 114.34642309999998 287.25455003049996 L 114.34642309999998 328.09255828049993 L 98.01121979999999 328.09255828049993 L 98.01121979999999 287.25455003049996" stroke-miterlimit="10" stroke-width="1.3612669416666667" stroke-dasharray=""/><path fill="white" stroke="black" paint-order="fill stroke markers" d=" M 98.01121979999999 458.7741846804999 L 114.34642309999998 458.7741846804999 L 114.34642309999998 499.6121929304999 L 98.01121979999999 499.6121929304999 L 98.01121979999999 458.7741846804999" stroke-miterlimit="10" stroke-width="1.3612669416666667" stroke-dasharray=""/><path fill="white" stroke="black" paint-order="fill stroke markers" d=" M 415.2678963334635 569.8535671204999 L 431.6030996334635 569.8535671204999 L 431.6030996334635 615.5921363604998 L 415.2678963334635 615.5921363604998 L 415.2678963334635 569.8535671204999" stroke-miterlimit="10" stroke-width="1.3612669416666667" stroke-dasharray=""/><g><g><rect fill="white" stroke="none" x="133.67641367166667" y="249.68358244049995" width="259.53895820679685" height="21.23576429"/></g><text fill="black" stroke="none" font-family="sans-serif" font-size="11pt" font-style="normal" font-weight="normal" text-decoration="normal" x="136.12669416666665" y="264.3852654104999" text-anchor="start" dominant-baseline="alphabetic">fill(ExectuedImprovement) [done=false]</text></g><g><path fill="none" stroke="black" paint-order="fill stroke markers" d=" M 106.17882144999999 270.91934673049997 L 179.6872363 270.91934673049997 L 179.6872363 287.25455003049996 L 117.06895698333332 287.25455003049996" stroke-miterlimit="10" stroke-width="1.3612669416666667" stroke-dasharray=""/><g transform="translate(114.3464231,287.25455003049996) translate(-114.3464231,-287.25455003049996)"><path fill="black" stroke="none" paint-order="stroke fill markers" d=" M 127.95909251666666 280.4482153221666 L 114.3464231 287.25455003049996 L 127.95909251666666 294.0608847388333 Z"/></g></g><g><g><rect fill="white" stroke="none" x="133.67641367166667" y="421.2032170904999" width="253.83388008179688" height="21.23576429"/></g><text fill="black" stroke="none" font-family="sans-serif" font-size="11pt" font-style="normal" font-weight="normal" text-decoration="normal" x="136.12669416666665" y="435.90490006049987" text-anchor="start" dominant-baseline="alphabetic">fill(ExectuedImprovement) [done=true]</text></g><g><path fill="none" stroke="black" paint-order="fill stroke markers" d=" M 106.17882144999999 442.4389813804999 L 179.6872363 442.4389813804999 L 179.6872363 458.7741846804999 L 117.06895698333332 458.7741846804999" stroke-miterlimit="10" stroke-width="1.3612669416666667" stroke-dasharray=""/><g transform="translate(114.3464231,458.7741846804999) translate(-114.3464231,-458.7741846804999)"><path fill="black" stroke="none" paint-order="stroke fill markers" d=" M 127.95909251666666 451.96784997216656 L 114.3464231 458.7741846804999 L 127.95909251666666 465.58051938883324 Z"/></g></g><g><g><rect fill="white" stroke="none" x="164.16073556225913" y="548.6178028304998" width="193.12524665894531" height="21.23576429"/></g><text fill="black" stroke="none" font-family="sans-serif" font-size="11pt" font-style="normal" font-weight="normal" text-decoration="normal" x="166.61101605725912" y="563.3194858004998" text-anchor="start" dominant-baseline="alphabetic">send(ExecutedImprovement)</text></g><g><path fill="none" stroke="black" paint-order="fill stroke markers" d=" M 106.17882144999999 569.8535671204999 L 412.5453624501302 569.8535671204999" stroke-miterlimit="10" stroke-width="1.3612669416666667" stroke-dasharray=""/><g transform="translate(415.2678963334635,569.8535671204999) translate(-415.2678963334635,-569.8535671204999)"><path fill="black" stroke="none" paint-order="stroke fill markers" d=" M 401.65522691679683 563.0472324121665 L 415.2678963334635 569.8535671204999 L 401.65522691679683 576.6599018288332 Z"/></g></g><g><g><rect fill="white" stroke="none" x="153.57018227856773" y="594.3563720704998" width="214.30635322632813" height="21.23576429"/></g><text fill="black" stroke="none" font-family="sans-serif" font-size="11pt" font-style="normal" font-weight="normal" text-decoration="normal" x="156.02046277356771" y="609.0580550404998" text-anchor="start" dominant-baseline="alphabetic">send(ExecutedImprovementOK)</text></g><g><path fill="none" stroke="black" paint-order="fill stroke markers" d=" M 415.2678963334635 615.5921363604998 L 108.90135533333333 615.5921363604998" stroke-miterlimit="10" stroke-width="1.3612669416666667" stroke-dasharray="6.53408132"/><g transform="translate(106.17882144999999,615.5921363604998) translate(-106.17882144999999,-615.5921363604998)"><path fill="black" stroke="none" paint-order="stroke fill markers" d=" M 119.79149086666665 608.7858016521665 L 106.17882144999999 615.5921363604998 L 119.79149086666665 622.3984710688331 Z"/></g></g><g><g/><path fill="none" stroke="black" paint-order="fill stroke markers" d=" M 16.335203299999996 161.47348462049996 L 480.6087095334635 161.47348462049996 L 480.6087095334635 640.0949413104998 L 16.335203299999996 640.0949413104998 L 16.335203299999996 161.47348462049996 Z" stroke-miterlimit="10" stroke-width="2.3336004714285714" stroke-dasharray=""/><path fill="white" stroke="black" paint-order="fill stroke markers" d=" M 16.335203299999996 161.47348462049996 L 16.335203299999996 181.07572858049997 L 73.76000443125 181.07572858049997 L 83.56112641125 171.27460660049996 L 83.56112641125 161.47348462049996 L 16.335203299999996 161.47348462049996" stroke-miterlimit="10" stroke-width="2.3336004714285714" stroke-dasharray=""/><text fill="black" stroke="none" font-family="sans-serif" font-size="8.8pt" font-style="normal" font-weight="bold" text-decoration="normal" x="32.67040659999999" y="174.54164726049996" text-anchor="start" dominant-baseline="alphabetic">loop</text><text fill="black" stroke="none" font-family="sans-serif" font-size="8.8pt" font-style="normal" font-weight="bold" text-decoration="normal" x="99.89632971125" y="174.54164726049996" text-anchor="start" dominant-baseline="alphabetic">[done==false]</text></g><g><g/><path fill="none" stroke="black" paint-order="fill stroke markers" d=" M 40.838008249999994 205.57853353049995 L 398.9326930334635 205.57853353049995 L 398.9326930334635 352.5953632304999 L 40.838008249999994 352.5953632304999 L 40.838008249999994 205.57853353049995 Z" stroke-miterlimit="10" stroke-width="2.3336004714285714" stroke-dasharray=""/><path fill="white" stroke="black" paint-order="fill stroke markers" d=" M 40.838008249999994 205.57853353049995 L 40.838008249999994 225.18077749049996 L 87.1972118470703 225.18077749049996 L 96.99833382707031 215.37965551049996 L 96.99833382707031 205.57853353049995 L 40.838008249999994 205.57853353049995" stroke-miterlimit="10" stroke-width="2.3336004714285714" stroke-dasharray=""/><text fill="black" stroke="none" font-family="sans-serif" font-size="8.8pt" font-style="normal" font-weight="bold" text-decoration="normal" x="57.17321154999999" y="218.64669617049995" text-anchor="start" dominant-baseline="alphabetic">alt</text><text fill="black" stroke="none" font-family="sans-serif" font-size="8.8pt" font-style="normal" font-weight="bold" text-decoration="normal" x="113.33353712707031" y="218.64669617049995" text-anchor="start" dominant-baseline="alphabetic">[NotLastExecutedImprovement]</text></g><g><g/><path fill="none" stroke="black" paint-order="fill stroke markers" d=" M 40.838008249999994 377.0981681804999 L 393.2276149084635 377.0981681804999 L 393.2276149084635 524.1149978804999 L 40.838008249999994 524.1149978804999 L 40.838008249999994 377.0981681804999 Z" stroke-miterlimit="10" stroke-width="2.3336004714285714" stroke-dasharray=""/><path fill="white" stroke="black" paint-order="fill stroke markers" d=" M 40.838008249999994 377.0981681804999 L 40.838008249999994 396.7004121404999 L 87.1972118470703 396.7004121404999 L 96.99833382707031 386.8992901604999 L 96.99833382707031 377.0981681804999 L 40.838008249999994 377.0981681804999" stroke-miterlimit="10" stroke-width="2.3336004714285714" stroke-dasharray=""/><text fill="black" stroke="none" font-family="sans-serif" font-size="8.8pt" font-style="normal" font-weight="bold" text-decoration="normal" x="57.17321154999999" y="390.1663308204999" text-anchor="start" dominant-baseline="alphabetic">alt</text><text fill="black" stroke="none" font-family="sans-serif" font-size="8.8pt" font-style="normal" font-weight="bold" text-decoration="normal" x="113.33353712707031" y="390.1663308204999" text-anchor="start" dominant-baseline="alphabetic">[LastExecutedImprovement]</text></g></g><g/><g/></g></svg>