<svg version="1.1" xmlns="http://www.w3.org/2000/svg" xmlns:xlink="http://www.w3.org/1999/xlink" width="434" height="971"><defs/><g><g/><g/><g/><g/><g/><g/><g/><g><rect fill="white" stroke="none" x="0" y="0" width="434" height="971"/></g><g><text fill="black" stroke="none" font-family="sans-serif" font-size="16.5pt" font-style="normal" font-weight="normal" text-decoration="normal" x="136.5678329433268" y="24.50280495" text-anchor="start" dominant-baseline="alphabetic">Validate Reports</text></g><g/><g><path fill="none" stroke="black" paint-order="fill stroke markers" d=" M 114.3464231 128.80307802049998 L 114.3464231 971.6995683005001" stroke-miterlimit="10" stroke-width="1.3612669416666667" stroke-dasharray="12.565541,5.445067766666667"/><path fill="none" stroke="black" paint-order="fill stroke markers" d=" M 336.1390945241536 128.80307802049998 L 336.1390945241536 971.6995683005001" stroke-miterlimit="10" stroke-width="1.3612669416666667" stroke-dasharray="12.565541,5.445067766666667"/></g><g><g><path fill="white" stroke="black" paint-order="fill stroke markers" d=" M 123.657488981 59.70516806150002 A 9.311065881 9.311065881 0 1 1 123.65748432546744 59.69585699717086 M 114.3464231 69.01623394250002 L 114.3464231 88.94518196850002 M 102.585076724 76.20372339450002 L 126.10776947599999 76.20372339450002 M 114.3464231 88.94518196850002 L 102.585076724 107.56731373050002 M 114.3464231 88.94518196850002 L 126.10776947599999 107.56731373050002" stroke-miterlimit="10" stroke-width="2.7769845610000004" stroke-dasharray=""/></g><g><g/><text fill="black" stroke="none" font-family="sans-serif" font-size="11pt" font-style="normal" font-weight="normal" text-decoration="normal" x="104.5683240399414" y="123.90251703050001" text-anchor="start" dominant-baseline="alphabetic">LO</text></g><path fill="none" stroke="none"/><g><path fill="white" stroke="black" paint-order="fill stroke markers" d=" M 280.11548744463016 84.69802911050002 L 392.1627016036771 84.69802911050002 L 392.1627016036771 128.8030780205 L 280.11548744463016 128.8030780205 L 280.11548744463016 84.69802911050002 Z" stroke-miterlimit="10" stroke-width="2.613632528" stroke-dasharray=""/></g><g><g/><text fill="black" stroke="none" font-family="sans-serif" font-size="11pt" font-style="normal" font-weight="normal" text-decoration="normal" x="297.8391830251302" y="112.46787472049999" text-anchor="start" dominant-baseline="alphabetic">SafeStreets</text></g></g><g><path fill="white" stroke="black" paint-order="fill stroke markers" d=" M 106.17882145 136.97067967049998 L 122.51402474999999 136.97067967049998 L 122.51402474999999 955.3643650005001 L 106.17882145 955.3643650005001 L 106.17882145 136.97067967049998" stroke-miterlimit="10" stroke-width="1.3612669416666667" stroke-dasharray=""/><path fill="white" stroke="black" paint-order="fill stroke markers" d=" M 327.9714928741536 182.70924891049998 L 344.3066961741536 182.70924891049998 L 344.3066961741536 272.5528670605 L 327.9714928741536 272.5528670605 L 327.9714928741536 182.70924891049998" stroke-miterlimit="10" stroke-width="1.3612669416666667" stroke-dasharray=""/><path fill="white" stroke="black" paint-order="fill stroke markers" d=" M 327.9714928741536 362.3964852105 L 344.3066961741536 362.3964852105 L 344.3066961741536 408.1350544505 L 327.9714928741536 408.1350544505 L 327.9714928741536 362.3964852105" stroke-miterlimit="10" stroke-width="1.3612669416666667" stroke-dasharray=""/><path fill="white" stroke="black" paint-order="fill stroke markers" d=" M 114.3464231 514.3138759005 L 130.6816264 514.3138759005 L 130.6816264 555.1518841505 L 114.3464231 555.1518841505 L 114.3464231 514.3138759005" stroke-miterlimit="10" stroke-width="1.3612669416666667" stroke-dasharray=""/><path fill="white" stroke="black" paint-order="fill stroke markers" d=" M 114.3464231 685.8335105505 L 130.6816264 685.8335105505 L 130.6816264 726.6715188005 L 114.3464231 726.6715188005 L 114.3464231 685.8335105505" stroke-miterlimit="10" stroke-width="1.3612669416666667" stroke-dasharray=""/><path fill="white" stroke="black" paint-order="fill stroke markers" d=" M 327.9714928741536 800.1799336505002 L 344.3066961741536 800.1799336505002 L 344.3066961741536 890.0235518005001 L 327.9714928741536 890.0235518005001 L 327.9714928741536 800.1799336505002" stroke-miterlimit="10" stroke-width="1.3612669416666667" stroke-dasharray=""/><g><g><rect fill="white" stroke="none" x="164.53552030926434" y="161.4734846205" width="121.414477005625" height="21.23576429"/></g><text fill="black" stroke="none" font-family="sans-serif" font-size="11pt" font-style="normal" font-weight="normal" text-decoration="normal" x="166.98580080426433" y="176.17516759049997" text-anchor="start" dominant-baseline="alphabetic">send(GetReports)</text></g><g><path fill="none" stroke="black" paint-order="fill stroke markers" d=" M 122.51402474999999 182.70924891049998 L 325.2489589908203 182.70924891049998" stroke-miterlimit="10" stroke-width="1.3612669416666667" stroke-dasharray=""/><g transform="translate(327.9714928741536,182.70924891049998) translate(-327.9714928741536,-182.70924891049998)"><path fill="black" stroke="none" paint-order="stroke fill markers" d=" M 314.35882345748695 175.90291420216664 L 327.9714928741536 182.70924891049998 L 314.35882345748695 189.51558361883332 Z"/></g></g><g><g><rect fill="white" stroke="none" x="176.3572900236198" y="251.3171027705" width="97.77093757691406" height="21.23576429"/></g><text fill="black" stroke="none" font-family="sans-serif" font-size="11pt" font-style="normal" font-weight="normal" text-decoration="normal" x="178.8075705186198" y="266.0187857405" text-anchor="start" dominant-baseline="alphabetic">reply(Reports)</text></g><g><path fill="none" stroke="black" paint-order="fill stroke markers" d=" M 327.9714928741536 272.5528670605 L 125.23655863333332 272.5528670605" stroke-miterlimit="10" stroke-width="1.3612669416666667" stroke-dasharray="6.53408132"/><g transform="translate(122.51402474999999,272.5528670605) translate(-122.51402474999999,-272.5528670605)"><path fill="black" stroke="none" paint-order="stroke fill markers" d=" M 136.12669416666665 265.74653235216664 L 122.51402474999999 272.5528670605 L 136.12669416666665 279.3592017688333 Z"/></g></g><g><g><rect fill="white" stroke="none" x="145.9278161466667" y="341.16072092049995" width="158.62988533082031" height="21.23576429"/></g><text fill="black" stroke="none" font-family="sans-serif" font-size="11pt" font-style="normal" font-weight="normal" text-decoration="normal" x="148.37809664166667" y="355.86240389049993" text-anchor="start" dominant-baseline="alphabetic">send(SetReportValidity)</text></g><g><path fill="none" stroke="black" paint-order="fill stroke markers" d=" M 122.51402474999999 362.3964852105 L 325.2489589908203 362.3964852105" stroke-miterlimit="10" stroke-width="1.3612669416666667" stroke-dasharray=""/><g transform="translate(327.9714928741536,362.3964852105) translate(-327.9714928741536,-362.3964852105)"><path fill="black" stroke="none" paint-order="stroke fill markers" d=" M 314.35882345748695 355.59015050216664 L 327.9714928741536 362.3964852105 L 314.35882345748695 369.2028199188333 Z"/></g></g><g><g><rect fill="white" stroke="none" x="167.93568968182294" y="386.89929016049996" width="114.61413826050781" height="21.23576429"/></g><text fill="black" stroke="none" font-family="sans-serif" font-size="11pt" font-style="normal" font-weight="normal" text-decoration="normal" x="170.38597017682292" y="401.60097313049994" text-anchor="start" dominant-baseline="alphabetic">reply(ValiditySet)</text></g><g><path fill="none" stroke="black" paint-order="fill stroke markers" d=" M 327.9714928741536 408.1350544505 L 125.23655863333332 408.1350544505" stroke-miterlimit="10" stroke-width="1.3612669416666667" stroke-dasharray=""/><g transform="translate(122.51402474999999,408.1350544505) translate(-122.51402474999999,-408.1350544505)"><path fill="black" stroke="none" paint-order="stroke fill markers" d=" M 136.12669416666665 401.32871974216664 L 122.51402474999999 408.1350544505 L 136.12669416666665 414.9413891588333 Z"/></g></g><g><g><rect fill="white" stroke="none" x="150.01161697166668" y="476.74290831049996" width="129.43165840210938" height="21.23576429"/></g><text fill="black" stroke="none" font-family="sans-serif" font-size="11pt" font-style="normal" font-weight="normal" text-decoration="normal" x="152.46189746666667" y="491.44459128049994" text-anchor="start" dominant-baseline="alphabetic">NotFinished = True</text></g><g><path fill="none" stroke="black" paint-order="fill stroke markers" d=" M 122.51402474999999 497.9786726005 L 196.02243959999998 497.9786726005 L 196.02243959999998 514.3138759005 L 133.40416028333334 514.3138759005" stroke-miterlimit="10" stroke-width="1.3612669416666667" stroke-dasharray=""/><g transform="translate(130.6816264,514.3138759005) translate(-130.6816264,-514.3138759005)"><path fill="black" stroke="none" paint-order="stroke fill markers" d=" M 144.29429581666668 507.5075411921666 L 130.6816264 514.3138759005 L 144.29429581666668 521.1202106088333 Z"/></g></g><g><g><rect fill="white" stroke="none" x="150.01161697166668" y="648.2625429605" width="135.68077339234375" height="21.23576429"/></g><text fill="black" stroke="none" font-family="sans-serif" font-size="11pt" font-style="normal" font-weight="normal" text-decoration="normal" x="152.46189746666667" y="662.9642259305" text-anchor="start" dominant-baseline="alphabetic">NotFinished = False</text></g><g><path fill="none" stroke="black" paint-order="fill stroke markers" d=" M 122.51402474999999 669.4983072505 L 196.02243959999998 669.4983072505 L 196.02243959999998 685.8335105505 L 133.40416028333334 685.8335105505" stroke-miterlimit="10" stroke-width="1.3612669416666667" stroke-dasharray=""/><g transform="translate(130.6816264,685.8335105505) translate(-130.6816264,-685.8335105505)"><path fill="black" stroke="none" paint-order="stroke fill markers" d=" M 144.29429581666668 679.0271758421667 L 130.6816264 685.8335105505 L 144.29429581666668 692.6398452588334 Z"/></g></g><g><g><rect fill="white" stroke="none" x="166.98721098309247" y="868.7877875105" width="116.51109565796875" height="21.23576429"/></g><text fill="black" stroke="none" font-family="sans-serif" font-size="11pt" font-style="normal" font-weight="normal" text-decoration="normal" x="169.43749147809245" y="883.4894704805" text-anchor="start" dominant-baseline="alphabetic">reply(NoReports)</text></g><g><path fill="none" stroke="black" paint-order="fill stroke markers" d=" M 327.9714928741536 890.0235518005001 L 125.23655863333332 890.0235518005001" stroke-miterlimit="10" stroke-width="1.3612669416666667" stroke-dasharray="6.53408132"/><g transform="translate(122.51402474999999,890.0235518005001) translate(-122.51402474999999,-890.0235518005001)"><path fill="black" stroke="none" paint-order="stroke fill markers" d=" M 136.12669416666665 883.2172170921667 L 122.51402474999999 890.0235518005001 L 136.12669416666665 896.8298865088334 Z"/></g></g><g><g/><path fill="none" stroke="black" paint-order="fill stroke markers" d=" M 16.335203299999996 207.21205386049996 L 409.6475093741536 207.21205386049996 L 409.6475093741536 800.1799336505002 L 16.335203299999996 800.1799336505002 L 16.335203299999996 207.21205386049996 Z" stroke-miterlimit="10" stroke-width="2.3336004714285714" stroke-dasharray=""/><path fill="white" stroke="black" paint-order="fill stroke markers" d=" M 16.335203299999996 207.21205386049996 L 16.335203299999996 226.81429782049997 L 62.69440689707031 226.81429782049997 L 72.49552887707031 217.01317584049997 L 72.49552887707031 207.21205386049996 L 16.335203299999996 207.21205386049996" stroke-miterlimit="10" stroke-width="2.3336004714285714" stroke-dasharray=""/><text fill="black" stroke="none" font-family="sans-serif" font-size="8.8pt" font-style="normal" font-weight="bold" text-decoration="normal" x="32.67040659999999" y="220.28021650049996" text-anchor="start" dominant-baseline="alphabetic">alt</text><text fill="black" stroke="none" font-family="sans-serif" font-size="8.8pt" font-style="normal" font-weight="bold" text-decoration="normal" x="88.83073217707032" y="220.28021650049996" text-anchor="start" dominant-baseline="alphabetic">[ExistsAtLeastOneReport]</text></g><g><g/><path fill="none" stroke="black" paint-order="fill stroke markers" d=" M 32.6704066 297.05567201049996 L 393.31230607415364 297.05567201049996 L 393.31230607415364 775.6771287005001 L 32.6704066 775.6771287005001 L 32.6704066 297.05567201049996 Z" stroke-miterlimit="10" stroke-width="2.3336004714285714" stroke-dasharray=""/><path fill="white" stroke="black" paint-order="fill stroke markers" d=" M 32.6704066 297.05567201049996 L 32.6704066 316.65791597049997 L 90.09520773125 316.65791597049997 L 99.89632971125 306.85679399049997 L 99.89632971125 297.05567201049996 L 32.6704066 297.05567201049996" stroke-miterlimit="10" stroke-width="2.3336004714285714" stroke-dasharray=""/><text fill="black" stroke="none" font-family="sans-serif" font-size="8.8pt" font-style="normal" font-weight="bold" text-decoration="normal" x="49.005609899999996" y="310.1238346505" text-anchor="start" dominant-baseline="alphabetic">loop</text><text fill="black" stroke="none" font-family="sans-serif" font-size="8.8pt" font-style="normal" font-weight="bold" text-decoration="normal" x="116.23153301125001" y="310.1238346505" text-anchor="start" dominant-baseline="alphabetic">[NotFinished == True]</text></g><g><g/><path fill="none" stroke="black" paint-order="fill stroke markers" d=" M 57.17321155 432.63785940049996 L 285.160596528776 432.63785940049996 L 285.160596528776 579.6546891005 L 57.17321155 579.6546891005 L 57.17321155 432.63785940049996 Z" stroke-miterlimit="10" stroke-width="2.3336004714285714" stroke-dasharray=""/><path fill="white" stroke="black" paint-order="fill stroke markers" d=" M 57.17321155 432.63785940049996 L 57.17321155 452.2401033605 L 103.53241514707031 452.2401033605 L 113.33353712707031 442.43898138049997 L 113.33353712707031 432.63785940049996 L 57.17321155 432.63785940049996" stroke-miterlimit="10" stroke-width="2.3336004714285714" stroke-dasharray=""/><text fill="black" stroke="none" font-family="sans-serif" font-size="8.8pt" font-style="normal" font-weight="bold" text-decoration="normal" x="73.50841485" y="445.7060220405" text-anchor="start" dominant-baseline="alphabetic">alt</text><text fill="black" stroke="none" font-family="sans-serif" font-size="8.8pt" font-style="normal" font-weight="bold" text-decoration="normal" x="129.6687404270703" y="445.7060220405" text-anchor="start" dominant-baseline="alphabetic">[StillValidating]</text></g><g><g/><path fill="none" stroke="black" paint-order="fill stroke markers" d=" M 57.17321155 604.1574940505001 L 291.4097115190104 604.1574940505001 L 291.4097115190104 751.1743237505001 L 57.17321155 751.1743237505001 L 57.17321155 604.1574940505001 Z" stroke-miterlimit="10" stroke-width="2.3336004714285714" stroke-dasharray=""/><path fill="white" stroke="black" paint-order="fill stroke markers" d=" M 57.17321155 604.1574940505001 L 57.17321155 623.7597380105001 L 103.53241514707031 623.7597380105001 L 113.33353712707031 613.9586160305 L 113.33353712707031 604.1574940505001 L 57.17321155 604.1574940505001" stroke-miterlimit="10" stroke-width="2.3336004714285714" stroke-dasharray=""/><text fill="black" stroke="none" font-family="sans-serif" font-size="8.8pt" font-style="normal" font-weight="bold" text-decoration="normal" x="73.50841485" y="617.2256566905" text-anchor="start" dominant-baseline="alphabetic">alt</text><text fill="black" stroke="none" font-family="sans-serif" font-size="8.8pt" font-style="normal" font-weight="bold" text-decoration="normal" x="129.6687404270703" y="617.2256566905" text-anchor="start" dominant-baseline="alphabetic">[FinishValidating]</text></g><g><g/><path fill="none" stroke="black" paint-order="fill stroke markers" d=" M 49.005609899999996 824.6827386005001 L 393.31230607415364 824.6827386005001 L 393.31230607415364 914.5263567505001 L 49.005609899999996 914.5263567505001 L 49.005609899999996 824.6827386005001 Z" stroke-miterlimit="10" stroke-width="2.3336004714285714" stroke-dasharray=""/><path fill="white" stroke="black" paint-order="fill stroke markers" d=" M 49.005609899999996 824.6827386005001 L 49.005609899999996 844.2849825605001 L 95.36481349707032 844.2849825605001 L 105.16593547707032 834.4838605805 L 105.16593547707032 824.6827386005001 L 49.005609899999996 824.6827386005001" stroke-miterlimit="10" stroke-width="2.3336004714285714" stroke-dasharray=""/><text fill="black" stroke="none" font-family="sans-serif" font-size="8.8pt" font-style="normal" font-weight="bold" text-decoration="normal" x="65.3408132" y="837.7509012405001" text-anchor="start" dominant-baseline="alphabetic">alt</text><text fill="black" stroke="none" font-family="sans-serif" font-size="8.8pt" font-style="normal" font-weight="bold" text-decoration="normal" x="121.50113877707032" y="837.7509012405001" text-anchor="start" dominant-baseline="alphabetic">[NotExistsAtLeastOneReport]</text></g></g><g/><g/></g></svg>