<svg version="1.1" xmlns="http://www.w3.org/2000/svg" xmlns:xlink="http://www.w3.org/1999/xlink" width="624" height="1023"><defs/><g><g/><g/><g/><g/><g/><g/><g/><g/><g/><g><rect fill="white" stroke="none" x="0" y="0" width="624" height="1023"/></g><g><text fill="black" stroke="none" font-family="sans-serif" font-size="16.5pt" font-style="normal" font-weight="normal" text-decoration="normal" x="238.62571997499998" y="24.50280495" text-anchor="start" dominant-baseline="alphabetic">Authority Login</text></g><g/><g><path fill="none" stroke="black" paint-order="fill stroke markers" d=" M 98.01121979999999 128.80307802049998 L 98.01121979999999 1023.9722188605001" stroke-miterlimit="10" stroke-width="1.3612669416666667" stroke-dasharray="12.565541,5.445067766666667"/><path fill="none" stroke="black" paint-order="fill stroke markers" d=" M 433.4903383677083 128.80307802049998 L 433.4903383677083 1023.9722188605001" stroke-miterlimit="10" stroke-width="1.3612669416666667" stroke-dasharray="12.565541,5.445067766666667"/></g><g><g><path fill="white" stroke="black" paint-order="fill stroke markers" d=" M 107.322285681 59.70516806150002 A 9.311065881 9.311065881 0 1 1 107.32228102546743 59.69585699717086 M 98.01121979999999 69.01623394250002 L 98.01121979999999 88.94518196850002 M 86.24987342399999 76.20372339450002 L 109.772566176 76.20372339450002 M 98.01121979999999 88.94518196850002 L 86.24987342399999 107.56731373050002 M 98.01121979999999 88.94518196850002 L 109.772566176 107.56731373050002" stroke-miterlimit="10" stroke-width="2.7769845610000004" stroke-dasharray=""/></g><g><g/><text fill="black" stroke="none" font-family="sans-serif" font-size="11pt" font-style="normal" font-weight="normal" text-decoration="normal" x="75.2016265993164" y="123.90251703050001" text-anchor="start" dominant-baseline="alphabetic">ME/LO</text></g><path fill="none" stroke="none"/><g><path fill="white" stroke="black" paint-order="fill stroke markers" d=" M 377.46673128818486 84.69802911050002 L 489.5139454472318 84.69802911050002 L 489.5139454472318 128.8030780205 L 377.46673128818486 128.8030780205 L 377.46673128818486 84.69802911050002 Z" stroke-miterlimit="10" stroke-width="2.613632528" stroke-dasharray=""/></g><g><g/><text fill="black" stroke="none" font-family="sans-serif" font-size="11pt" font-style="normal" font-weight="normal" text-decoration="normal" x="395.1904268686849" y="112.46787472049999" text-anchor="start" dominant-baseline="alphabetic">SafeStreets</text></g></g><g><path fill="white" stroke="black" paint-order="fill stroke markers" d=" M 89.84361815 136.97067967049998 L 106.17882144999999 136.97067967049998 L 106.17882144999999 1007.6370155605001 L 89.84361815 1007.6370155605001 L 89.84361815 136.97067967049998" stroke-miterlimit="10" stroke-width="1.3612669416666667" stroke-dasharray=""/><path fill="white" stroke="black" paint-order="fill stroke markers" d=" M 425.3227367177083 182.70924891049998 L 441.6579400177083 182.70924891049998 L 441.6579400177083 228.44781815049998 L 425.3227367177083 228.44781815049998 L 425.3227367177083 182.70924891049998" stroke-miterlimit="10" stroke-width="1.3612669416666667" stroke-dasharray=""/><path fill="white" stroke="black" paint-order="fill stroke markers" d=" M 98.01121979999999 290.5215906905 L 114.34642309999998 290.5215906905 L 114.34642309999998 331.35959894049995 L 98.01121979999999 331.35959894049995 L 98.01121979999999 290.5215906905" stroke-miterlimit="10" stroke-width="1.3612669416666667" stroke-dasharray=""/><path fill="white" stroke="black" paint-order="fill stroke markers" d=" M 425.3227367177083 377.09816818049995 L 441.6579400177083 377.09816818049995 L 441.6579400177083 654.7966242804999 L 425.3227367177083 654.7966242804999 L 425.3227367177083 377.09816818049995" stroke-miterlimit="10" stroke-width="1.3612669416666667" stroke-dasharray=""/><path fill="white" stroke="black" paint-order="fill stroke markers" d=" M 433.4903383677083 483.27698963049994 L 449.8255416677083 483.27698963049994 L 449.8255416677083 524.1149978804999 L 433.4903383677083 524.1149978804999 L 433.4903383677083 483.27698963049994" stroke-miterlimit="10" stroke-width="1.3612669416666667" stroke-dasharray=""/><path fill="white" stroke="black" paint-order="fill stroke markers" d=" M 98.01121979999999 716.8703968205 L 114.34642309999998 716.8703968205 L 114.34642309999998 757.7084050705 L 98.01121979999999 757.7084050705 L 98.01121979999999 716.8703968205" stroke-miterlimit="10" stroke-width="1.3612669416666667" stroke-dasharray=""/><path fill="white" stroke="black" paint-order="fill stroke markers" d=" M 425.3227367177083 803.4469743105 L 441.6579400177083 803.4469743105 L 441.6579400177083 917.7933974105 L 425.3227367177083 917.7933974105 L 425.3227367177083 803.4469743105" stroke-miterlimit="10" stroke-width="1.3612669416666667" stroke-dasharray=""/><g><g><rect fill="white" stroke="none" x="213.17525444822914" y="161.4734846205" width="105.15104927125" height="21.23576429"/></g><text fill="black" stroke="none" font-family="sans-serif" font-size="11pt" font-style="normal" font-weight="normal" text-decoration="normal" x="215.62553494322913" y="176.17516759049997" text-anchor="start" dominant-baseline="alphabetic">get(LoginPage)</text></g><g><path fill="none" stroke="black" paint-order="fill stroke markers" d=" M 106.17882144999999 182.70924891049998 L 422.600202834375 182.70924891049998" stroke-miterlimit="10" stroke-width="1.3612669416666667" stroke-dasharray=""/><g transform="translate(425.3227367177083,182.70924891049998) translate(-425.3227367177083,-182.70924891049998)"><path fill="black" stroke="none" paint-order="stroke fill markers" d=" M 411.71006730104165 175.90291420216664 L 425.3227367177083 182.70924891049998 L 411.71006730104165 189.51558361883332 Z"/></g></g><g><g><rect fill="white" stroke="none" x="206.25328026610023" y="207.2120538605" width="118.99499763550781" height="21.23576429"/></g><text fill="black" stroke="none" font-family="sans-serif" font-size="11pt" font-style="normal" font-weight="normal" text-decoration="normal" x="208.70356076110022" y="221.91373683049997" text-anchor="start" dominant-baseline="alphabetic">show(LoginPage)</text></g><g><path fill="none" stroke="black" paint-order="fill stroke markers" d=" M 425.3227367177083 228.44781815049998 L 108.90135533333333 228.44781815049998" stroke-miterlimit="10" stroke-width="1.3612669416666667" stroke-dasharray="6.53408132"/><g transform="translate(106.17882144999999,228.44781815049998) translate(-106.17882144999999,-228.44781815049998)"><path fill="black" stroke="none" paint-order="stroke fill markers" d=" M 119.79149086666665 221.64148344216665 L 106.17882144999999 228.44781815049998 L 119.79149086666665 235.25415285883332 Z"/></g></g><g><g><rect fill="white" stroke="none" x="133.67641367166667" y="252.95062310049997" width="104.27774299683594" height="21.23576429"/></g><text fill="black" stroke="none" font-family="sans-serif" font-size="11pt" font-style="normal" font-weight="normal" text-decoration="normal" x="136.12669416666665" y="267.65230607049995" text-anchor="start" dominant-baseline="alphabetic">fill(SignInForm)</text></g><g><path fill="none" stroke="black" paint-order="fill stroke markers" d=" M 106.17882144999999 274.1863873905 L 179.6872363 274.1863873905 L 179.6872363 290.5215906905 L 117.06895698333332 290.5215906905" stroke-miterlimit="10" stroke-width="1.3612669416666667" stroke-dasharray=""/><g transform="translate(114.3464231,290.5215906905) translate(-114.3464231,-290.5215906905)"><path fill="black" stroke="none" paint-order="stroke fill markers" d=" M 127.95909251666666 283.71525598216664 L 114.3464231 290.5215906905 L 127.95909251666666 297.3279253988333 Z"/></g></g><g><g><rect fill="white" stroke="none" x="204.63910637694008" y="355.86240389049993" width="122.22334541382813" height="21.23576429"/></g><text fill="black" stroke="none" font-family="sans-serif" font-size="11pt" font-style="normal" font-weight="normal" text-decoration="normal" x="207.08938687194006" y="370.5640868604999" text-anchor="start" dominant-baseline="alphabetic">send(SignInForm)</text></g><g><path fill="none" stroke="black" paint-order="fill stroke markers" d=" M 106.17882144999999 377.09816818049995 L 422.600202834375 377.09816818049995" stroke-miterlimit="10" stroke-width="1.3612669416666667" stroke-dasharray=""/><g transform="translate(425.3227367177083,377.09816818049995) translate(-425.3227367177083,-377.09816818049995)"><path fill="black" stroke="none" paint-order="stroke fill markers" d=" M 411.71006730104165 370.2918334721666 L 425.3227367177083 377.09816818049995 L 411.71006730104165 383.9045028888333 Z"/></g></g><g><g><rect fill="white" stroke="none" x="469.15553223937496" y="445.70602204049993" width="132.803148880625" height="21.23576429"/></g><text fill="black" stroke="none" font-family="sans-serif" font-size="11pt" font-style="normal" font-weight="normal" text-decoration="normal" x="471.605812734375" y="460.4077050104999" text-anchor="start" dominant-baseline="alphabetic"> check(SignInForm)</text></g><g><path fill="none" stroke="black" paint-order="fill stroke markers" d=" M 441.6579400177083 466.94178633049995 L 515.1663548677083 466.94178633049995 L 515.1663548677083 483.27698963049994 L 452.5480755510416 483.27698963049994" stroke-miterlimit="10" stroke-width="1.3612669416666667" stroke-dasharray=""/><g transform="translate(449.8255416677083,483.27698963049994) translate(-449.8255416677083,-483.27698963049994)"><path fill="black" stroke="none" paint-order="stroke fill markers" d=" M 463.438211084375 476.4706549221666 L 449.8255416677083 483.27698963049994 L 463.438211084375 490.0833243388333 Z"/></g></g><g><g><rect fill="white" stroke="none" x="129.59261284666664" y="633.5608599904999" width="272.316332474375" height="21.23576429"/></g><text fill="black" stroke="none" font-family="sans-serif" font-size="11pt" font-style="normal" font-weight="normal" text-decoration="normal" x="132.04289334166663" y="648.2625429604999" text-anchor="start" dominant-baseline="alphabetic">send(LogInKO) [isValidCredentials=false]</text></g><g><path fill="none" stroke="black" paint-order="fill stroke markers" d=" M 425.3227367177083 654.7966242804999 L 108.90135533333333 654.7966242804999" stroke-miterlimit="10" stroke-width="1.3612669416666667" stroke-dasharray="6.53408132"/><g transform="translate(106.17882144999999,654.7966242804999) translate(-106.17882144999999,-654.7966242804999)"><path fill="black" stroke="none" paint-order="stroke fill markers" d=" M 119.79149086666665 647.9902895721666 L 106.17882144999999 654.7966242804999 L 119.79149086666665 661.6029589888333 Z"/></g></g><g><g><rect fill="white" stroke="none" x="133.67641367166667" y="679.2994292305" width="104.27774299683594" height="21.23576429"/></g><text fill="black" stroke="none" font-family="sans-serif" font-size="11pt" font-style="normal" font-weight="normal" text-decoration="normal" x="136.12669416666665" y="694.0011122005" text-anchor="start" dominant-baseline="alphabetic">fill(SignInForm)</text></g><g><path fill="none" stroke="black" paint-order="fill stroke markers" d=" M 106.17882144999999 700.5351935205 L 179.6872363 700.5351935205 L 179.6872363 716.8703968205 L 117.06895698333332 716.8703968205" stroke-miterlimit="10" stroke-width="1.3612669416666667" stroke-dasharray=""/><g transform="translate(114.3464231,716.8703968205) translate(-114.3464231,-716.8703968205)"><path fill="black" stroke="none" paint-order="stroke fill markers" d=" M 127.95909251666666 710.0640621121667 L 114.3464231 716.8703968205 L 127.95909251666666 723.6767315288333 Z"/></g></g><g><g><rect fill="white" stroke="none" x="189.9755397875846" y="782.2112100205" width="151.55047859253906" height="21.23576429"/></g><text fill="black" stroke="none" font-family="sans-serif" font-size="11pt" font-style="normal" font-weight="normal" text-decoration="normal" x="192.4258202825846" y="796.9128929904999" text-anchor="start" dominant-baseline="alphabetic">send(NewSignInForm)</text></g><g><path fill="none" stroke="black" paint-order="fill stroke markers" d=" M 106.17882144999999 803.4469743105 L 422.600202834375 803.4469743105" stroke-miterlimit="10" stroke-width="1.3612669416666667" stroke-dasharray=""/><g transform="translate(425.3227367177083,803.4469743105) translate(-425.3227367177083,-803.4469743105)"><path fill="black" stroke="none" paint-order="stroke fill markers" d=" M 411.71006730104165 796.6406396021666 L 425.3227367177083 803.4469743105 L 411.71006730104165 810.2533090188333 Z"/></g></g><g><g><rect fill="white" stroke="none" x="132.44515190916664" y="896.5576331205" width="266.611254349375" height="21.23576429"/></g><text fill="black" stroke="none" font-family="sans-serif" font-size="11pt" font-style="normal" font-weight="normal" text-decoration="normal" x="134.89543240416663" y="911.2593160905" text-anchor="start" dominant-baseline="alphabetic">send(LogInOK) [isValidCredentials=true]</text></g><g><path fill="none" stroke="black" paint-order="fill stroke markers" d=" M 425.3227367177083 917.7933974105 L 108.90135533333333 917.7933974105" stroke-miterlimit="10" stroke-width="1.3612669416666667" stroke-dasharray="6.53408132"/><g transform="translate(106.17882144999999,917.7933974105) translate(-106.17882144999999,-917.7933974105)"><path fill="black" stroke="none" paint-order="stroke fill markers" d=" M 119.79149086666665 910.9870627021667 L 106.17882144999999 917.7933974105 L 119.79149086666665 924.5997321188333 Z"/></g></g><g><g/><path fill="none" stroke="black" paint-order="fill stroke markers" d=" M 16.335203299999996 401.60097313049994 L 607.676002275 401.60097313049994 L 607.676002275 966.7990073105001 L 16.335203299999996 966.7990073105001 L 16.335203299999996 401.60097313049994 Z" stroke-miterlimit="10" stroke-width="2.3336004714285714" stroke-dasharray=""/><path fill="white" stroke="black" paint-order="fill stroke markers" d=" M 16.335203299999996 401.60097313049994 L 16.335203299999996 421.20321709049995 L 73.76000443125 421.20321709049995 L 83.56112641125 411.40209511049994 L 83.56112641125 401.60097313049994 L 16.335203299999996 401.60097313049994" stroke-miterlimit="10" stroke-width="2.3336004714285714" stroke-dasharray=""/><text fill="black" stroke="none" font-family="sans-serif" font-size="8.8pt" font-style="normal" font-weight="bold" text-decoration="normal" x="32.67040659999999" y="414.66913577049996" text-anchor="start" dominant-baseline="alphabetic">loop</text><text fill="black" stroke="none" font-family="sans-serif" font-size="8.8pt" font-style="normal" font-weight="bold" text-decoration="normal" x="99.89632971125" y="414.66913577049996" text-anchor="start" dominant-baseline="alphabetic">[isValidCredentials==false ]</text></g><g><g/><path fill="none" stroke="black" paint-order="fill stroke markers" d=" M 32.67040659999999 589.4558110805 L 490.66354991770834 589.4558110805 L 490.66354991770834 827.9497792605 L 32.67040659999999 827.9497792605 L 32.67040659999999 589.4558110805 Z" stroke-miterlimit="10" stroke-width="2.3336004714285714" stroke-dasharray=""/><path fill="white" stroke="black" paint-order="fill stroke markers" d=" M 32.67040659999999 589.4558110805 L 32.67040659999999 609.0580550405 L 79.0296101970703 609.0580550405 L 88.8307321770703 599.2569330604999 L 88.8307321770703 589.4558110805 L 32.67040659999999 589.4558110805" stroke-miterlimit="10" stroke-width="2.3336004714285714" stroke-dasharray=""/><text fill="black" stroke="none" font-family="sans-serif" font-size="8.8pt" font-style="normal" font-weight="bold" text-decoration="normal" x="49.005609899999996" y="602.5239737205" text-anchor="start" dominant-baseline="alphabetic">alt</text><text fill="black" stroke="none" font-family="sans-serif" font-size="8.8pt" font-style="normal" font-weight="bold" text-decoration="normal" x="105.1659354770703" y="602.5239737205" text-anchor="start" dominant-baseline="alphabetic">[invalidCredentials]</text></g><g><g/><path fill="none" stroke="black" paint-order="fill stroke markers" d=" M 32.67040659999999 852.4525842105 L 490.66354991770834 852.4525842105 L 490.66354991770834 942.2962023605 L 32.67040659999999 942.2962023605 L 32.67040659999999 852.4525842105 Z" stroke-miterlimit="10" stroke-width="2.3336004714285714" stroke-dasharray=""/><path fill="white" stroke="black" paint-order="fill stroke markers" d=" M 32.67040659999999 852.4525842105 L 32.67040659999999 872.0548281705001 L 79.0296101970703 872.0548281705001 L 88.8307321770703 862.2537061905 L 88.8307321770703 852.4525842105 L 32.67040659999999 852.4525842105" stroke-miterlimit="10" stroke-width="2.3336004714285714" stroke-dasharray=""/><text fill="black" stroke="none" font-family="sans-serif" font-size="8.8pt" font-style="normal" font-weight="bold" text-decoration="normal" x="49.005609899999996" y="865.5207468505" text-anchor="start" dominant-baseline="alphabetic">alt</text><text fill="black" stroke="none" font-family="sans-serif" font-size="8.8pt" font-style="normal" font-weight="bold" text-decoration="normal" x="105.1659354770703" y="865.5207468505" text-anchor="start" dominant-baseline="alphabetic">[validCredentials]</text></g></g><g/><g/></g></svg>