<svg version="1.1" xmlns="http://www.w3.org/2000/svg" xmlns:xlink="http://www.w3.org/1999/xlink" width="2268" height="2355"><defs/><g><g/><g/><g/><g/><g/><g/><g/><g/><g/><g/><g/><g/><g/><g/><g/><g/><g/><g/><g/><g/><g/><g/><g/><g/><g/><g/><g/><g/><g/><g/><g/><g/><g/><g/><g/><g/><g/><g/><g/><g><rect fill="white" stroke="none" x="0" y="0" width="2268" height="2355"/></g><g><text fill="black" stroke="none" font-family="sans-serif" font-size="16.5pt" font-style="normal" font-weight="normal" text-decoration="normal" x="1069.4731538560548" y="24.50280495" text-anchor="start" dominant-baseline="alphabetic">Get Statistics</text></g><g/><g><path fill="none" stroke="black" paint-order="fill stroke markers" d=" M 98.01121979999999 128.80307802049998 L 98.01121979999999 2355.2912878105" stroke-miterlimit="10" stroke-width="1.3612669416666667" stroke-dasharray="12.565541,5.445067766666667"/><path fill="none" stroke="black" paint-order="fill stroke markers" d=" M 354.29200551653645 128.80307802049998 L 354.29200551653645 2355.2912878105" stroke-miterlimit="10" stroke-width="1.3612669416666667" stroke-dasharray="12.565541,5.445067766666667"/><path fill="none" stroke="black" paint-order="fill stroke markers" d=" M 568.9979926490885 128.80307802049998 L 568.9979926490885 2355.2912878105" stroke-miterlimit="10" stroke-width="1.3612669416666667" stroke-dasharray="12.565541,5.445067766666667"/><path fill="none" stroke="black" paint-order="fill stroke markers" d=" M 788.5643923792968 128.80307802049998 L 788.5643923792968 2355.2912878105" stroke-miterlimit="10" stroke-width="1.3612669416666667" stroke-dasharray="12.565541,5.445067766666667"/><path fill="none" stroke="black" paint-order="fill stroke markers" d=" M 1068.4385466261067 128.80307802049998 L 1068.4385466261067 2355.2912878105" stroke-miterlimit="10" stroke-width="1.3612669416666667" stroke-dasharray="12.565541,5.445067766666667"/><path fill="none" stroke="black" paint-order="fill stroke markers" d=" M 1356.4803025229166 128.80307802049998 L 1356.4803025229166 2355.2912878105" stroke-miterlimit="10" stroke-width="1.3612669416666667" stroke-dasharray="12.565541,5.445067766666667"/><path fill="none" stroke="black" paint-order="fill stroke markers" d=" M 1604.8728427214844 128.80307802049998 L 1604.8728427214844 2355.2912878105" stroke-miterlimit="10" stroke-width="1.3612669416666667" stroke-dasharray="12.565541,5.445067766666667"/><path fill="none" stroke="black" paint-order="fill stroke markers" d=" M 1778.8651481428385 128.80307802049998 L 1778.8651481428385 2355.2912878105" stroke-miterlimit="10" stroke-width="1.3612669416666667" stroke-dasharray="12.565541,5.445067766666667"/><path fill="none" stroke="black" paint-order="fill stroke markers" d=" M 2170.5288379121093 128.80307802049998 L 2170.5288379121093 2355.2912878105" stroke-miterlimit="10" stroke-width="1.3612669416666667" stroke-dasharray="12.565541,5.445067766666667"/></g><g><g><path fill="white" stroke="black" paint-order="fill stroke markers" d=" M 107.322285681 59.70516806150002 A 9.311065881 9.311065881 0 1 1 107.32228102546743 59.69585699717086 M 98.01121979999999 69.01623394250002 L 98.01121979999999 88.94518196850002 M 86.24987342399999 76.20372339450002 L 109.772566176 76.20372339450002 M 98.01121979999999 88.94518196850002 L 86.24987342399999 107.56731373050002 M 98.01121979999999 88.94518196850002 L 109.772566176 107.56731373050002" stroke-miterlimit="10" stroke-width="2.7769845610000004" stroke-dasharray=""/></g><g><g/><text fill="black" stroke="none" font-family="sans-serif" font-size="11pt" font-style="normal" font-weight="normal" text-decoration="normal" x="75.2016265993164" y="123.90251703050001" text-anchor="start" dominant-baseline="alphabetic">ME/LO</text></g><path fill="none" stroke="none"/><g><path fill="white" stroke="black" paint-order="fill stroke markers" d=" M 308.5869332880872 84.69802911050002 L 399.99707774498563 84.69802911050002 L 399.99707774498563 128.8030780205 L 308.5869332880872 128.8030780205 L 308.5869332880872 84.69802911050002 Z" stroke-miterlimit="10" stroke-width="2.613632528" stroke-dasharray=""/></g><g><g/><text fill="black" stroke="none" font-family="sans-serif" font-size="11pt" font-style="normal" font-weight="normal" text-decoration="normal" x="326.31062886858723" y="112.46787472049999" text-anchor="start" dominant-baseline="alphabetic">WebApp</text></g><path fill="none" stroke="none"/><g><path fill="white" stroke="black" paint-order="fill stroke markers" d=" M 514.7460454206392 84.69802911050002 L 623.2499398775377 84.69802911050002 L 623.2499398775377 128.8030780205 L 514.7460454206392 128.8030780205 L 514.7460454206392 84.69802911050002 Z" stroke-miterlimit="10" stroke-width="2.613632528" stroke-dasharray=""/></g><g><g/><text fill="black" stroke="none" font-family="sans-serif" font-size="11pt" font-style="normal" font-weight="normal" text-decoration="normal" x="532.4697410011393" y="112.46787472049999" text-anchor="start" dominant-baseline="alphabetic">WebServer</text></g><path fill="none" stroke="none"/><g><path fill="white" stroke="black" paint-order="fill stroke markers" d=" M 748.8399872651054 84.69802911050002 L 828.2887974934882 84.69802911050002 L 828.2887974934882 128.8030780205 L 748.8399872651054 128.8030780205 L 748.8399872651054 84.69802911050002 Z" stroke-miterlimit="10" stroke-width="2.613632528" stroke-dasharray=""/></g><g><g/><text fill="black" stroke="none" font-family="sans-serif" font-size="11pt" font-style="normal" font-weight="normal" text-decoration="normal" x="766.5636828456054" y="112.46787472049999" text-anchor="start" dominant-baseline="alphabetic">Router</text></g><path fill="none" stroke="none"/><g><path fill="white" stroke="black" paint-order="fill stroke markers" d=" M 959.8594814777356 84.69802911050002 L 1177.0176117744777 84.69802911050002 L 1177.0176117744777 128.8030780205 L 959.8594814777356 128.8030780205 L 959.8594814777356 84.69802911050002 Z" stroke-miterlimit="10" stroke-width="2.613632528" stroke-dasharray=""/></g><g><g/><text fill="black" stroke="none" font-family="sans-serif" font-size="11pt" font-style="normal" font-weight="normal" text-decoration="normal" x="977.5831770582356" y="112.46787472049999" text-anchor="start" dominant-baseline="alphabetic">StatisticsDownloadManager</text></g><path fill="none" stroke="none"/><g><path fill="white" stroke="black" paint-order="fill stroke markers" d=" M 1238.9391783535496 84.69802911050002 L 1474.021426692284 84.69802911050002 L 1474.021426692284 128.8030780205 L 1238.9391783535496 128.8030780205 L 1238.9391783535496 84.69802911050002 Z" stroke-miterlimit="10" stroke-width="2.613632528" stroke-dasharray=""/></g><g><g/><text fill="black" stroke="none" font-family="sans-serif" font-size="11pt" font-style="normal" font-weight="normal" text-decoration="normal" x="1256.6628739340495" y="112.46787472049999" text-anchor="start" dominant-baseline="alphabetic">StatisticsComputationManager</text></g><path fill="none" stroke="none"/><g><path fill="white" stroke="black" paint-order="fill stroke markers" d=" M 1577.7826462864923 84.69802911050002 L 1631.9630391564767 84.69802911050002 L 1631.9630391564767 128.8030780205 L 1577.7826462864923 128.8030780205 L 1577.7826462864923 84.69802911050002 Z" stroke-miterlimit="10" stroke-width="2.613632528" stroke-dasharray=""/></g><g><g/><text fill="black" stroke="none" font-family="sans-serif" font-size="11pt" font-style="normal" font-weight="normal" text-decoration="normal" x="1595.5063418669922" y="112.46787472049999" text-anchor="start" dominant-baseline="alphabetic">TS</text></g><path fill="none" stroke="none"/><g><path fill="white" stroke="black" paint-order="fill stroke markers" d=" M 1720.8121907825534 84.69802911050002 L 1836.9181055031238 84.69802911050002 L 1836.9181055031238 128.8030780205 L 1720.8121907825534 128.8030780205 L 1720.8121907825534 84.69802911050002 Z" stroke-miterlimit="10" stroke-width="2.613632528" stroke-dasharray=""/></g><g><g/><text fill="black" stroke="none" font-family="sans-serif" font-size="11pt" font-style="normal" font-weight="normal" text-decoration="normal" x="1738.5358863630534" y="112.46787472049999" text-anchor="start" dominant-baseline="alphabetic">ReportMiner</text></g><path fill="none" stroke="none"/><g><path fill="white" stroke="black" paint-order="fill stroke markers" d=" M 2131.627621579656 84.69802911050002 L 2209.430054244562 84.69802911050002 L 2209.430054244562 128.8030780205 L 2131.627621579656 128.8030780205 L 2131.627621579656 84.69802911050002 Z" stroke-miterlimit="10" stroke-width="2.613632528" stroke-dasharray=""/></g><g><g/><text fill="black" stroke="none" font-family="sans-serif" font-size="11pt" font-style="normal" font-weight="normal" text-decoration="normal" x="2149.351317160156" y="112.46787472049999" text-anchor="start" dominant-baseline="alphabetic">DBMS</text></g></g><g><path fill="white" stroke="black" paint-order="fill stroke markers" d=" M 89.84361815 136.97067967049998 L 106.17882144999999 136.97067967049998 L 106.17882144999999 2338.9560845104997 L 89.84361815 2338.9560845104997 L 89.84361815 136.97067967049998" stroke-miterlimit="10" stroke-width="1.3612669416666667" stroke-dasharray=""/><path fill="white" stroke="black" paint-order="fill stroke markers" d=" M 346.12440386653645 182.70924891049998 L 362.45960716653644 182.70924891049998 L 362.45960716653644 924.3274787304997 L 346.12440386653645 924.3274787304997 L 346.12440386653645 182.70924891049998" stroke-miterlimit="10" stroke-width="1.3612669416666667" stroke-dasharray=""/><path fill="white" stroke="black" paint-order="fill stroke markers" d=" M 560.8303909990884 228.44781815049998 L 577.1655942990885 228.44781815049998 L 577.1655942990885 878.5889094904998 L 560.8303909990884 878.5889094904998 L 560.8303909990884 228.44781815049998" stroke-miterlimit="10" stroke-width="1.3612669416666667" stroke-dasharray=""/><path fill="white" stroke="black" paint-order="fill stroke markers" d=" M 780.3967907292968 274.1863873905 L 796.7319940292969 274.1863873905 L 796.7319940292969 832.8503402504998 L 780.3967907292968 832.8503402504998 L 780.3967907292968 274.1863873905" stroke-miterlimit="10" stroke-width="1.3612669416666667" stroke-dasharray=""/><path fill="white" stroke="black" paint-order="fill stroke markers" d=" M 1348.3127008729166 319.9249566305 L 1364.6479041729167 319.9249566305 L 1364.6479041729167 787.1117710104999 L 1348.3127008729166 787.1117710104999 L 1348.3127008729166 319.9249566305" stroke-miterlimit="10" stroke-width="1.3612669416666667" stroke-dasharray=""/><path fill="white" stroke="black" paint-order="fill stroke markers" d=" M 1596.7052410714844 365.6635258705 L 1613.0404443714845 365.6635258705 L 1613.0404443714845 411.4020951105 L 1596.7052410714844 411.4020951105 L 1596.7052410714844 365.6635258705" stroke-miterlimit="10" stroke-width="1.3612669416666667" stroke-dasharray=""/><path fill="white" stroke="black" paint-order="fill stroke markers" d=" M 1770.6975464928385 457.1406643505 L 1787.0327497928386 457.1406643505 L 1787.0327497928386 638.4614209805 L 1770.6975464928385 638.4614209805 L 1770.6975464928385 457.1406643505" stroke-miterlimit="10" stroke-width="1.3612669416666667" stroke-dasharray=""/><path fill="white" stroke="black" paint-order="fill stroke markers" d=" M 2162.3612362621093 502.8792335905 L 2178.6964395621094 502.8792335905 L 2178.6964395621094 592.7228517405 L 2162.3612362621093 592.7228517405 L 2162.3612362621093 502.8792335905" stroke-miterlimit="10" stroke-width="1.3612669416666667" stroke-dasharray=""/><path fill="white" stroke="black" paint-order="fill stroke markers" d=" M 1356.4803025229166 700.5351935204999 L 1372.8155058229167 700.5351935204999 L 1372.8155058229167 741.3732017704999 L 1356.4803025229166 741.3732017704999 L 1356.4803025229166 700.5351935204999" stroke-miterlimit="10" stroke-width="1.3612669416666667" stroke-dasharray=""/><path fill="white" stroke="black" paint-order="fill stroke markers" d=" M 346.12440386653645 1014.1710968804997 L 362.45960716653644 1014.1710968804997 L 362.45960716653644 1906.0731970605004 L 346.12440386653645 1906.0731970605004 L 346.12440386653645 1014.1710968804997" stroke-miterlimit="10" stroke-width="1.3612669416666667" stroke-dasharray=""/><path fill="white" stroke="black" paint-order="fill stroke markers" d=" M 560.8303909990884 1059.9096661204997 L 577.1655942990885 1059.9096661204997 L 577.1655942990885 1860.3346278205004 L 560.8303909990884 1860.3346278205004 L 560.8303909990884 1059.9096661204997" stroke-miterlimit="10" stroke-width="1.3612669416666667" stroke-dasharray=""/><path fill="white" stroke="black" paint-order="fill stroke markers" d=" M 780.3967907292968 1105.6482353604997 L 796.7319940292969 1105.6482353604997 L 796.7319940292969 1814.5960585805003 L 780.3967907292968 1814.5960585805003 L 780.3967907292968 1105.6482353604997" stroke-miterlimit="10" stroke-width="1.3612669416666667" stroke-dasharray=""/><path fill="white" stroke="black" paint-order="fill stroke markers" d=" M 1060.2709449761066 1151.3868046004998 L 1076.6061482761068 1151.3868046004998 L 1076.6061482761068 1768.8574893405003 L 1060.2709449761066 1768.8574893405003 L 1060.2709449761066 1151.3868046004998" stroke-miterlimit="10" stroke-width="1.3612669416666667" stroke-dasharray=""/><path fill="white" stroke="black" paint-order="fill stroke markers" d=" M 1348.3127008729166 1197.1253738404998 L 1364.6479041729167 1197.1253738404998 L 1364.6479041729167 1620.2071393105002 L 1348.3127008729166 1620.2071393105002 L 1348.3127008729166 1197.1253738404998" stroke-miterlimit="10" stroke-width="1.3612669416666667" stroke-dasharray=""/><path fill="white" stroke="black" paint-order="fill stroke markers" d=" M 1596.7052410714844 1242.8639430805 L 1613.0404443714845 1242.8639430805 L 1613.0404443714845 1288.6025123205 L 1596.7052410714844 1288.6025123205 L 1596.7052410714844 1242.8639430805" stroke-miterlimit="10" stroke-width="1.3612669416666667" stroke-dasharray=""/><path fill="white" stroke="black" paint-order="fill stroke markers" d=" M 1770.6975464928385 1334.3410815605 L 1787.0327497928386 1334.3410815605 L 1787.0327497928386 1471.5567892805002 L 1770.6975464928385 1471.5567892805002 L 1770.6975464928385 1334.3410815605" stroke-miterlimit="10" stroke-width="1.3612669416666667" stroke-dasharray=""/><path fill="white" stroke="black" paint-order="fill stroke markers" d=" M 2162.3612362621093 1380.0796508005 L 2178.6964395621094 1380.0796508005 L 2178.6964395621094 1425.8182200405001 L 2162.3612362621093 1425.8182200405001 L 2162.3612362621093 1380.0796508005" stroke-miterlimit="10" stroke-width="1.3612669416666667" stroke-dasharray=""/><path fill="white" stroke="black" paint-order="fill stroke markers" d=" M 1356.4803025229166 1533.6305618205001 L 1372.8155058229167 1533.6305618205001 L 1372.8155058229167 1574.4685700705002 L 1356.4803025229166 1574.4685700705002 L 1356.4803025229166 1533.6305618205001" stroke-miterlimit="10" stroke-width="1.3612669416666667" stroke-dasharray=""/><path fill="white" stroke="black" paint-order="fill stroke markers" d=" M 1068.4385466261067 1682.2809118505002 L 1084.7737499261068 1682.2809118505002 L 1084.7737499261068 1723.1189201005002 L 1068.4385466261067 1723.1189201005002 L 1068.4385466261067 1682.2809118505002" stroke-miterlimit="10" stroke-width="1.3612669416666667" stroke-dasharray=""/><path fill="white" stroke="black" paint-order="fill stroke markers" d=" M 346.12440386653645 1955.0788069605003 L 362.45960716653644 1955.0788069605003 L 362.45960716653644 2273.6152713105 L 346.12440386653645 2273.6152713105 L 346.12440386653645 1955.0788069605003" stroke-miterlimit="10" stroke-width="1.3612669416666667" stroke-dasharray=""/><path fill="white" stroke="black" paint-order="fill stroke markers" d=" M 560.8303909990884 1955.0788069605003 L 577.1655942990885 1955.0788069605003 L 577.1655942990885 2227.8767020705 L 560.8303909990884 2227.8767020705 L 560.8303909990884 1955.0788069605003" stroke-miterlimit="10" stroke-width="1.3612669416666667" stroke-dasharray=""/><path fill="white" stroke="black" paint-order="fill stroke markers" d=" M 780.3967907292968 1955.0788069605003 L 796.7319940292969 1955.0788069605003 L 796.7319940292969 2182.1381328305 L 780.3967907292968 2182.1381328305 L 780.3967907292968 1955.0788069605003" stroke-miterlimit="10" stroke-width="1.3612669416666667" stroke-dasharray=""/><path fill="white" stroke="black" paint-order="fill stroke markers" d=" M 1348.3127008729166 1955.0788069605003 L 1364.6479041729167 1955.0788069605003 L 1364.6479041729167 2136.3995635905003 L 1348.3127008729166 2136.3995635905003 L 1348.3127008729166 1955.0788069605003" stroke-miterlimit="10" stroke-width="1.3612669416666667" stroke-dasharray=""/><path fill="white" stroke="black" paint-order="fill stroke markers" d=" M 1770.6975464928385 1955.0788069605003 L 1787.0327497928386 1955.0788069605003 L 1787.0327497928386 2090.6609943505005 L 1770.6975464928385 2090.6609943505005 L 1770.6975464928385 1955.0788069605003" stroke-miterlimit="10" stroke-width="1.3612669416666667" stroke-dasharray=""/><path fill="white" stroke="black" paint-order="fill stroke markers" d=" M 2162.3612362621093 1955.0788069605003 L 2178.6964395621094 1955.0788069605003 L 2178.6964395621094 2044.9224251105004 L 2162.3612362621093 2044.9224251105004 L 2162.3612362621093 1955.0788069605003" stroke-miterlimit="10" stroke-width="1.3612669416666667" stroke-dasharray=""/><g><g><rect fill="white" stroke="none" x="184.18453223651042" y="161.4734846205" width="83.93416084351563" height="21.23576429"/></g><text fill="black" stroke="none" font-family="sans-serif" font-size="11pt" font-style="normal" font-weight="normal" text-decoration="normal" x="186.6348127315104" y="176.17516759049997" text-anchor="start" dominant-baseline="alphabetic">getStatistics</text></g><g><path fill="none" stroke="black" paint-order="fill stroke markers" d=" M 106.17882144999999 182.70924891049998 L 343.40186998320314 182.70924891049998" stroke-miterlimit="10" stroke-width="1.3612669416666667" stroke-dasharray=""/><g transform="translate(346.12440386653645,182.70924891049998) translate(-346.12440386653645,-182.70924891049998)"><path fill="black" stroke="none" paint-order="stroke fill markers" d=" M 332.5117344498698 175.90291420216664 L 346.12440386653645 182.70924891049998 L 332.5117344498698 189.51558361883332 Z"/></g></g><g><g><rect fill="white" stroke="none" x="381.78959773820304" y="207.2120538605" width="159.71080268921875" height="21.23576429"/></g><text fill="black" stroke="none" font-family="sans-serif" font-size="11pt" font-style="normal" font-weight="normal" text-decoration="normal" x="384.23987823320306" y="221.91373683049997" text-anchor="start" dominant-baseline="alphabetic">handleRequest(xmlFile)</text></g><g><path fill="none" stroke="black" paint-order="fill stroke markers" d=" M 362.45960716653644 228.44781815049998 L 558.1078571157551 228.44781815049998" stroke-miterlimit="10" stroke-width="1.3612669416666667" stroke-dasharray=""/><g transform="translate(560.8303909990884,228.44781815049998) translate(-560.8303909990884,-228.44781815049998)"><path fill="black" stroke="none" paint-order="stroke fill markers" d=" M 547.2177215824217 221.64148344216665 L 560.8303909990884 228.44781815049998 L 547.2177215824217 235.25415285883332 Z"/></g></g><g><g><rect fill="white" stroke="none" x="596.4955848707551" y="252.9506231005" width="164.571215286875" height="21.23576429"/></g><text fill="black" stroke="none" font-family="sans-serif" font-size="11pt" font-style="normal" font-weight="normal" text-decoration="normal" x="598.9458653657551" y="267.6523060705" text-anchor="start" dominant-baseline="alphabetic">forwardRequest(xmlFile)</text></g><g><path fill="none" stroke="black" paint-order="fill stroke markers" d=" M 577.1655942990885 274.1863873905 L 777.6742568459634 274.1863873905" stroke-miterlimit="10" stroke-width="1.3612669416666667" stroke-dasharray=""/><g transform="translate(780.3967907292968,274.1863873905) translate(-780.3967907292968,-274.1863873905)"><path fill="black" stroke="none" paint-order="stroke fill markers" d=" M 766.7841213126301 267.38005268216665 L 780.3967907292968 274.1863873905 L 766.7841213126301 280.9927220988333 Z"/></g></g><g><g><rect fill="white" stroke="none" x="960.0828625493684" y="298.6891923405" width="224.87896980347656" height="21.23576429"/></g><text fill="black" stroke="none" font-family="sans-serif" font-size="11pt" font-style="normal" font-weight="normal" text-decoration="normal" x="962.5331430443684" y="313.39087531049995" text-anchor="start" dominant-baseline="alphabetic">getStatistics(token,municipalityID)</text></g><g><path fill="none" stroke="black" paint-order="fill stroke markers" d=" M 796.7319940292969 319.9249566305 L 1345.5901669895832 319.9249566305" stroke-miterlimit="10" stroke-width="1.3612669416666667" stroke-dasharray=""/><g transform="translate(1348.3127008729166,319.9249566305) translate(-1348.3127008729166,-319.9249566305)"><path fill="black" stroke="none" paint-order="stroke fill markers" d=" M 1334.70003145625 313.11862192216665 L 1348.3127008729166 319.9249566305 L 1334.70003145625 326.73129133883333 Z"/></g></g><g><g><rect fill="white" stroke="none" x="1440.3487057624545" y="344.4277615805" width="80.65573371949219" height="21.23576429"/></g><text fill="black" stroke="none" font-family="sans-serif" font-size="11pt" font-style="normal" font-weight="normal" text-decoration="normal" x="1442.7989862574545" y="359.12944455049995" text-anchor="start" dominant-baseline="alphabetic">GET tickets</text></g><g><path fill="none" stroke="black" paint-order="fill stroke markers" d=" M 1364.6479041729167 365.6635258705 L 1593.982707188151 365.6635258705" stroke-miterlimit="10" stroke-width="1.3612669416666667" stroke-dasharray=""/><g transform="translate(1596.7052410714844,365.6635258705) translate(-1596.7052410714844,-365.6635258705)"><path fill="black" stroke="none" paint-order="stroke fill markers" d=" M 1583.0925716548177 358.85719116216666 L 1596.7052410714844 365.6635258705 L 1583.0925716548177 372.46986057883333 Z"/></g></g><g><g><rect fill="white" stroke="none" x="1388.0616955695834" y="390.1663308205" width="185.22975410523438" height="21.23576429"/></g><text fill="black" stroke="none" font-family="sans-serif" font-size="11pt" font-style="normal" font-weight="normal" text-decoration="normal" x="1390.5119760645835" y="404.86801379049996" text-anchor="start" dominant-baseline="alphabetic">List&lt;Ticket&gt;: tickets emitted</text></g><g><path fill="none" stroke="black" paint-order="fill stroke markers" d=" M 1596.7052410714844 411.4020951105 L 1367.3704380562501 411.4020951105" stroke-miterlimit="10" stroke-width="1.3612669416666667" stroke-dasharray="6.53408132"/><g transform="translate(1364.6479041729167,411.4020951105) translate(-1364.6479041729167,-411.4020951105)"><path fill="black" stroke="none" paint-order="stroke fill markers" d=" M 1378.2605735895834 404.59576040216666 L 1364.6479041729167 411.4020951105 L 1378.2605735895834 418.20842981883334 Z"/></g></g><g><g><rect fill="white" stroke="none" x="1429.3456137831902" y="435.9049000605" width="276.654223099375" height="21.23576429"/></g><text fill="black" stroke="none" font-family="sans-serif" font-size="11pt" font-style="normal" font-weight="normal" text-decoration="normal" x="1431.7958942781902" y="450.60658303049996" text-anchor="start" dominant-baseline="alphabetic">getReports(requestType=All,requestField)</text></g><g><path fill="none" stroke="black" paint-order="fill stroke markers" d=" M 1364.6479041729167 457.1406643505 L 1767.975012609505 457.1406643505" stroke-miterlimit="10" stroke-width="1.3612669416666667" stroke-dasharray=""/><g transform="translate(1770.6975464928385,457.1406643505) translate(-1770.6975464928385,-457.1406643505)"><path fill="black" stroke="none" paint-order="stroke fill markers" d=" M 1757.0848770761718 450.33432964216667 L 1770.6975464928385 457.1406643505 L 1757.0848770761718 463.94699905883334 Z"/></g></g><g><g><rect fill="white" stroke="none" x="1806.3627403645053" y="481.6434693005" width="336.6685053259375" height="21.23576429"/></g><text fill="black" stroke="none" font-family="sans-serif" font-size="11pt" font-style="normal" font-weight="normal" text-decoration="normal" x="1808.8130208595053" y="496.34515227049997" text-anchor="start" dominant-baseline="alphabetic">retrieveValidReports(requestType=All,requestField)</text></g><g><path fill="none" stroke="black" paint-order="fill stroke markers" d=" M 1787.0327497928386 502.8792335905 L 2159.638702378776 502.8792335905" stroke-miterlimit="10" stroke-width="1.3612669416666667" stroke-dasharray=""/><g transform="translate(2162.3612362621093,502.8792335905) translate(-2162.3612362621093,-502.8792335905)"><path fill="black" stroke="none" paint-order="stroke fill markers" d=" M 2148.748566845443 496.07289888216667 L 2162.3612362621093 502.8792335905 L 2148.748566845443 509.68556829883335 Z"/></g></g><g><g><rect fill="white" stroke="none" x="1876.9103248981967" y="571.4870874505" width="195.5733362585547" height="21.23576429"/></g><text fill="black" stroke="none" font-family="sans-serif" font-size="11pt" font-style="normal" font-weight="normal" text-decoration="normal" x="1879.3606053931967" y="586.1887704205" text-anchor="start" dominant-baseline="alphabetic">List&lt;Report&gt;: all valid reports</text></g><g><path fill="none" stroke="black" paint-order="fill stroke markers" d=" M 2162.3612362621093 592.7228517405 L 1789.755283676172 592.7228517405" stroke-miterlimit="10" stroke-width="1.3612669416666667" stroke-dasharray="6.53408132"/><g transform="translate(1787.0327497928386,592.7228517405) translate(-1787.0327497928386,-592.7228517405)"><path fill="black" stroke="none" paint-order="stroke fill markers" d=" M 1800.6454192095052 585.9165170321667 L 1787.0327497928386 592.7228517405 L 1800.6454192095052 599.5291864488333 Z"/></g></g><g><g><rect fill="white" stroke="none" x="1469.8860572036003" y="617.2256566904999" width="195.5733362585547" height="21.23576429"/></g><text fill="black" stroke="none" font-family="sans-serif" font-size="11pt" font-style="normal" font-weight="normal" text-decoration="normal" x="1472.3363376986003" y="631.9273396604999" text-anchor="start" dominant-baseline="alphabetic">List&lt;Report&gt;: all valid reports</text></g><g><path fill="none" stroke="black" paint-order="fill stroke markers" d=" M 1770.6975464928385 638.4614209805 L 1367.3704380562501 638.4614209805" stroke-miterlimit="10" stroke-width="1.3612669416666667" stroke-dasharray="6.53408132"/><g transform="translate(1364.6479041729167,638.4614209805) translate(-1364.6479041729167,-638.4614209805)"><path fill="black" stroke="none" paint-order="stroke fill markers" d=" M 1378.2605735895834 631.6550862721666 L 1364.6479041729167 638.4614209805 L 1378.2605735895834 645.2677556888333 Z"/></g></g><g><g><rect fill="white" stroke="none" x="1392.1454963945835" y="662.9642259304999" width="129.54616035523438" height="21.23576429"/></g><text fill="black" stroke="none" font-family="sans-serif" font-size="11pt" font-style="normal" font-weight="normal" text-decoration="normal" x="1394.5957768895835" y="677.6659089004999" text-anchor="start" dominant-baseline="alphabetic">computeStatistics()</text></g><g><path fill="none" stroke="black" paint-order="fill stroke markers" d=" M 1364.6479041729167 684.1999902204999 L 1438.1563190229167 684.1999902204999 L 1438.1563190229167 700.5351935204999 L 1375.5380397062502 700.5351935204999" stroke-miterlimit="10" stroke-width="1.3612669416666667" stroke-dasharray=""/><g transform="translate(1372.8155058229167,700.5351935204999) translate(-1372.8155058229167,-700.5351935204999)"><path fill="black" stroke="none" paint-order="stroke fill markers" d=" M 1386.4281752395834 693.7288588121665 L 1372.8155058229167 700.5351935204999 L 1386.4281752395834 707.3415282288332 Z"/></g></g><g><g><rect fill="white" stroke="none" x="1042.3734432988801" y="765.8760067204998" width="60.29780830445313" height="21.23576429"/></g><text fill="black" stroke="none" font-family="sans-serif" font-size="11pt" font-style="normal" font-weight="normal" text-decoration="normal" x="1044.8237237938802" y="780.5776896904998" text-anchor="start" dominant-baseline="alphabetic">Statistic </text></g><g><path fill="none" stroke="black" paint-order="fill stroke markers" d=" M 1348.3127008729166 787.1117710104999 L 799.4545279126302 787.1117710104999" stroke-miterlimit="10" stroke-width="1.3612669416666667" stroke-dasharray="6.53408132"/><g transform="translate(796.7319940292969,787.1117710104999) translate(-796.7319940292969,-787.1117710104999)"><path fill="black" stroke="none" paint-order="stroke fill markers" d=" M 810.3446634459635 780.3054363021665 L 796.7319940292969 787.1117710104999 L 810.3446634459635 793.9181057188332 Z"/></g></g><g><g><rect fill="white" stroke="none" x="617.6695198072786" y="811.6145759604998" width="122.22334541382813" height="21.23576429"/></g><text fill="black" stroke="none" font-family="sans-serif" font-size="11pt" font-style="normal" font-weight="normal" text-decoration="normal" x="620.1198003022786" y="826.3162589304998" text-anchor="start" dominant-baseline="alphabetic">XmlFile: response</text></g><g><path fill="none" stroke="black" paint-order="fill stroke markers" d=" M 780.3967907292968 832.8503402504998 L 579.8881281824218 832.8503402504998" stroke-miterlimit="10" stroke-width="1.3612669416666667" stroke-dasharray="6.53408132"/><g transform="translate(577.1655942990885,832.8503402504998) translate(-577.1655942990885,-832.8503402504998)"><path fill="black" stroke="none" paint-order="stroke fill markers" d=" M 590.7782637157552 826.0440055421665 L 577.1655942990885 832.8503402504998 L 590.7782637157552 839.6566749588332 Z"/></g></g><g><g><rect fill="white" stroke="none" x="400.53332637589835" y="857.3531452004997" width="122.22334541382813" height="21.23576429"/></g><text fill="black" stroke="none" font-family="sans-serif" font-size="11pt" font-style="normal" font-weight="normal" text-decoration="normal" x="402.98360687089837" y="872.0548281704997" text-anchor="start" dominant-baseline="alphabetic">XmlFile: response</text></g><g><path fill="none" stroke="black" paint-order="fill stroke markers" d=" M 560.8303909990884 878.5889094904998 L 365.18214104986976 878.5889094904998" stroke-miterlimit="10" stroke-width="1.3612669416666667" stroke-dasharray="6.53408132"/><g transform="translate(362.45960716653644,878.5889094904998) translate(-362.45960716653644,-878.5889094904998)"><path fill="black" stroke="none" paint-order="stroke fill markers" d=" M 376.0722765832031 871.7825747821664 L 362.45960716653644 878.5889094904998 L 376.0722765832031 885.3952441988331 Z"/></g></g><g><g><rect fill="white" stroke="none" x="198.0392151588737" y="903.0917144404997" width="56.224794998789065" height="21.23576429"/></g><text fill="black" stroke="none" font-family="sans-serif" font-size="11pt" font-style="normal" font-weight="normal" text-decoration="normal" x="200.4894956538737" y="917.7933974104997" text-anchor="start" dominant-baseline="alphabetic">Statistic</text></g><g><path fill="none" stroke="black" paint-order="fill stroke markers" d=" M 346.12440386653645 924.3274787304997 L 108.90135533333333 924.3274787304997" stroke-miterlimit="10" stroke-width="1.3612669416666667" stroke-dasharray="6.53408132"/><g transform="translate(106.17882144999999,924.3274787304997) translate(-106.17882144999999,-924.3274787304997)"><path fill="black" stroke="none" paint-order="stroke fill markers" d=" M 119.79149086666665 917.5211440221664 L 106.17882144999999 924.3274787304997 L 119.79149086666665 931.133813438833 Z"/></g></g><g><g><rect fill="white" stroke="none" x="162.99269874041667" y="992.9353325904997" width="126.31782783570313" height="21.23576429"/></g><text fill="black" stroke="none" font-family="sans-serif" font-size="11pt" font-style="normal" font-weight="normal" text-decoration="normal" x="165.44297923541666" y="1007.6370155604997" text-anchor="start" dominant-baseline="alphabetic">downloadStatistics</text></g><g><path fill="none" stroke="black" paint-order="fill stroke markers" d=" M 106.17882144999999 1014.1710968804997 L 343.40186998320314 1014.1710968804997" stroke-miterlimit="10" stroke-width="1.3612669416666667" stroke-dasharray=""/><g transform="translate(346.12440386653645,1014.1710968804997) translate(-346.12440386653645,-1014.1710968804997)"><path fill="black" stroke="none" paint-order="stroke fill markers" d=" M 332.5117344498698 1007.3647621721664 L 346.12440386653645 1014.1710968804997 L 332.5117344498698 1020.977431588833 Z"/></g></g><g><g><rect fill="white" stroke="none" x="381.78959773820304" y="1038.6739018304997" width="159.71080268921875" height="21.23576429"/></g><text fill="black" stroke="none" font-family="sans-serif" font-size="11pt" font-style="normal" font-weight="normal" text-decoration="normal" x="384.23987823320306" y="1053.3755848004998" text-anchor="start" dominant-baseline="alphabetic">handleRequest(xmlFile)</text></g><g><path fill="none" stroke="black" paint-order="fill stroke markers" d=" M 362.45960716653644 1059.9096661204997 L 558.1078571157551 1059.9096661204997" stroke-miterlimit="10" stroke-width="1.3612669416666667" stroke-dasharray=""/><g transform="translate(560.8303909990884,1059.9096661204997) translate(-560.8303909990884,-1059.9096661204997)"><path fill="black" stroke="none" paint-order="stroke fill markers" d=" M 547.2177215824217 1053.1033314121664 L 560.8303909990884 1059.9096661204997 L 547.2177215824217 1066.7160008288329 Z"/></g></g><g><g><rect fill="white" stroke="none" x="596.4955848707551" y="1084.4124710704998" width="164.571215286875" height="21.23576429"/></g><text fill="black" stroke="none" font-family="sans-serif" font-size="11pt" font-style="normal" font-weight="normal" text-decoration="normal" x="598.9458653657551" y="1099.1141540405" text-anchor="start" dominant-baseline="alphabetic">forwardRequest(xmlFile)</text></g><g><path fill="none" stroke="black" paint-order="fill stroke markers" d=" M 577.1655942990885 1105.6482353604997 L 777.6742568459634 1105.6482353604997" stroke-miterlimit="10" stroke-width="1.3612669416666667" stroke-dasharray=""/><g transform="translate(780.3967907292968,1105.6482353604997) translate(-780.3967907292968,-1105.6482353604997)"><path fill="black" stroke="none" paint-order="stroke fill markers" d=" M 766.7841213126301 1098.8419006521665 L 780.3967907292968 1105.6482353604997 L 766.7841213126301 1112.454570068833 Z"/></g></g><g><g><rect fill="white" stroke="none" x="816.0619846009635" y="1130.1510403104999" width="224.87896980347656" height="21.23576429"/></g><text fill="black" stroke="none" font-family="sans-serif" font-size="11pt" font-style="normal" font-weight="normal" text-decoration="normal" x="818.5122650959635" y="1144.8527232805" text-anchor="start" dominant-baseline="alphabetic">getStatistics(token,municipalityID)</text></g><g><path fill="none" stroke="black" paint-order="fill stroke markers" d=" M 796.7319940292969 1151.3868046004998 L 1057.5484110927732 1151.3868046004998" stroke-miterlimit="10" stroke-width="1.3612669416666667" stroke-dasharray=""/><g transform="translate(1060.2709449761066,1151.3868046004998) translate(-1060.2709449761066,-1151.3868046004998)"><path fill="black" stroke="none" paint-order="stroke fill markers" d=" M 1046.65827555944 1144.5804698921665 L 1060.2709449761066 1151.3868046004998 L 1046.65827555944 1158.193139308833 Z"/></g></g><g><g><rect fill="white" stroke="none" x="1100.0199396727733" y="1175.8896095505" width="224.87896980347656" height="21.23576429"/></g><text fill="black" stroke="none" font-family="sans-serif" font-size="11pt" font-style="normal" font-weight="normal" text-decoration="normal" x="1102.4702201677733" y="1190.5912925205" text-anchor="start" dominant-baseline="alphabetic">getStatistics(token,municipalityID)</text></g><g><path fill="none" stroke="black" paint-order="fill stroke markers" d=" M 1076.6061482761068 1197.1253738404998 L 1345.5901669895832 1197.1253738404998" stroke-miterlimit="10" stroke-width="1.3612669416666667" stroke-dasharray=""/><g transform="translate(1348.3127008729166,1197.1253738404998) translate(-1348.3127008729166,-1197.1253738404998)"><path fill="black" stroke="none" paint-order="stroke fill markers" d=" M 1334.70003145625 1190.3190391321666 L 1348.3127008729166 1197.1253738404998 L 1334.70003145625 1203.931708548833 Z"/></g></g><g><g><rect fill="white" stroke="none" x="1440.3487057624545" y="1221.6281787905" width="80.65573371949219" height="21.23576429"/></g><text fill="black" stroke="none" font-family="sans-serif" font-size="11pt" font-style="normal" font-weight="normal" text-decoration="normal" x="1442.7989862574545" y="1236.3298617605" text-anchor="start" dominant-baseline="alphabetic">GET tickets</text></g><g><path fill="none" stroke="black" paint-order="fill stroke markers" d=" M 1364.6479041729167 1242.8639430805 L 1593.982707188151 1242.8639430805" stroke-miterlimit="10" stroke-width="1.3612669416666667" stroke-dasharray=""/><g transform="translate(1596.7052410714844,1242.8639430805) translate(-1596.7052410714844,-1242.8639430805)"><path fill="black" stroke="none" paint-order="stroke fill markers" d=" M 1583.0925716548177 1236.0576083721667 L 1596.7052410714844 1242.8639430805 L 1583.0925716548177 1249.6702777888331 Z"/></g></g><g><g><rect fill="white" stroke="none" x="1388.0616955695834" y="1267.3667480305" width="185.22975410523438" height="21.23576429"/></g><text fill="black" stroke="none" font-family="sans-serif" font-size="11pt" font-style="normal" font-weight="normal" text-decoration="normal" x="1390.5119760645835" y="1282.0684310005001" text-anchor="start" dominant-baseline="alphabetic">List&lt;Ticket&gt;: tickets emitted</text></g><g><path fill="none" stroke="black" paint-order="fill stroke markers" d=" M 1596.7052410714844 1288.6025123205 L 1367.3704380562501 1288.6025123205" stroke-miterlimit="10" stroke-width="1.3612669416666667" stroke-dasharray="6.53408132"/><g transform="translate(1364.6479041729167,1288.6025123205) translate(-1364.6479041729167,-1288.6025123205)"><path fill="black" stroke="none" paint-order="stroke fill markers" d=" M 1378.2605735895834 1281.7961776121667 L 1364.6479041729167 1288.6025123205 L 1378.2605735895834 1295.4088470288332 Z"/></g></g><g><g><rect fill="white" stroke="none" x="1429.3456137831902" y="1313.1053172705" width="276.654223099375" height="21.23576429"/></g><text fill="black" stroke="none" font-family="sans-serif" font-size="11pt" font-style="normal" font-weight="normal" text-decoration="normal" x="1431.7958942781902" y="1327.8070002405002" text-anchor="start" dominant-baseline="alphabetic">getReports(requestType=All,requestField)</text></g><g><path fill="none" stroke="black" paint-order="fill stroke markers" d=" M 1364.6479041729167 1334.3410815605 L 1767.975012609505 1334.3410815605" stroke-miterlimit="10" stroke-width="1.3612669416666667" stroke-dasharray=""/><g transform="translate(1770.6975464928385,1334.3410815605) translate(-1770.6975464928385,-1334.3410815605)"><path fill="black" stroke="none" paint-order="stroke fill markers" d=" M 1757.0848770761718 1327.5347468521668 L 1770.6975464928385 1334.3410815605 L 1757.0848770761718 1341.1474162688332 Z"/></g></g><g><g><rect fill="white" stroke="none" x="1806.3627403645053" y="1358.8438865105002" width="336.6685053259375" height="21.23576429"/></g><text fill="black" stroke="none" font-family="sans-serif" font-size="11pt" font-style="normal" font-weight="normal" text-decoration="normal" x="1808.8130208595053" y="1373.5455694805003" text-anchor="start" dominant-baseline="alphabetic">retrieveValidReports(requestType=All,requestField)</text></g><g><path fill="none" stroke="black" paint-order="fill stroke markers" d=" M 1787.0327497928386 1380.0796508005 L 2159.638702378776 1380.0796508005" stroke-miterlimit="10" stroke-width="1.3612669416666667" stroke-dasharray=""/><g transform="translate(2162.3612362621093,1380.0796508005) translate(-2162.3612362621093,-1380.0796508005)"><path fill="black" stroke="none" paint-order="stroke fill markers" d=" M 2148.748566845443 1373.2733160921669 L 2162.3612362621093 1380.0796508005 L 2148.748566845443 1386.8859855088333 Z"/></g></g><g><g><rect fill="white" stroke="none" x="1876.9103248981967" y="1404.5824557505002" width="195.5733362585547" height="21.23576429"/></g><text fill="black" stroke="none" font-family="sans-serif" font-size="11pt" font-style="normal" font-weight="normal" text-decoration="normal" x="1879.3606053931967" y="1419.2841387205003" text-anchor="start" dominant-baseline="alphabetic">List&lt;Report&gt;: all valid reports</text></g><g><path fill="none" stroke="black" paint-order="fill stroke markers" d=" M 2162.3612362621093 1425.8182200405001 L 1789.755283676172 1425.8182200405001" stroke-miterlimit="10" stroke-width="1.3612669416666667" stroke-dasharray="6.53408132"/><g transform="translate(1787.0327497928386,1425.8182200405001) translate(-1787.0327497928386,-1425.8182200405001)"><path fill="black" stroke="none" paint-order="stroke fill markers" d=" M 1800.6454192095052 1419.011885332167 L 1787.0327497928386 1425.8182200405001 L 1800.6454192095052 1432.6245547488334 Z"/></g></g><g><g><rect fill="white" stroke="none" x="1469.8860572036003" y="1450.3210249905003" width="195.5733362585547" height="21.23576429"/></g><text fill="black" stroke="none" font-family="sans-serif" font-size="11pt" font-style="normal" font-weight="normal" text-decoration="normal" x="1472.3363376986003" y="1465.0227079605004" text-anchor="start" dominant-baseline="alphabetic">List&lt;Report&gt;: all valid reports</text></g><g><path fill="none" stroke="black" paint-order="fill stroke markers" d=" M 1770.6975464928385 1471.5567892805002 L 1367.3704380562501 1471.5567892805002" stroke-miterlimit="10" stroke-width="1.3612669416666667" stroke-dasharray="6.53408132"/><g transform="translate(1364.6479041729167,1471.5567892805002) translate(-1364.6479041729167,-1471.5567892805002)"><path fill="black" stroke="none" paint-order="stroke fill markers" d=" M 1378.2605735895834 1464.750454572167 L 1364.6479041729167 1471.5567892805002 L 1378.2605735895834 1478.3631239888334 Z"/></g></g><g><g><rect fill="white" stroke="none" x="1392.1454963945835" y="1496.0595942305001" width="129.54616035523438" height="21.23576429"/></g><text fill="black" stroke="none" font-family="sans-serif" font-size="11pt" font-style="normal" font-weight="normal" text-decoration="normal" x="1394.5957768895835" y="1510.7612772005002" text-anchor="start" dominant-baseline="alphabetic">computeStatistics()</text></g><g><path fill="none" stroke="black" paint-order="fill stroke markers" d=" M 1364.6479041729167 1517.2953585205 L 1438.1563190229167 1517.2953585205 L 1438.1563190229167 1533.6305618205001 L 1375.5380397062502 1533.6305618205001" stroke-miterlimit="10" stroke-width="1.3612669416666667" stroke-dasharray=""/><g transform="translate(1372.8155058229167,1533.6305618205001) translate(-1372.8155058229167,-1533.6305618205001)"><path fill="black" stroke="none" paint-order="stroke fill markers" d=" M 1386.4281752395834 1526.824227112167 L 1372.8155058229167 1533.6305618205001 L 1386.4281752395834 1540.4368965288334 Z"/></g></g><g><g><rect fill="white" stroke="none" x="1184.347027075117" y="1598.9713750205003" width="56.224794998789065" height="21.23576429"/></g><text fill="black" stroke="none" font-family="sans-serif" font-size="11pt" font-style="normal" font-weight="normal" text-decoration="normal" x="1186.797307570117" y="1613.6730579905004" text-anchor="start" dominant-baseline="alphabetic">Statistic</text></g><g><path fill="none" stroke="black" paint-order="fill stroke markers" d=" M 1348.3127008729166 1620.2071393105002 L 1079.3286821594402 1620.2071393105002" stroke-miterlimit="10" stroke-width="1.3612669416666667" stroke-dasharray="6.53408132"/><g transform="translate(1076.6061482761068,1620.2071393105002) translate(-1076.6061482761068,-1620.2071393105002)"><path fill="black" stroke="none" paint-order="stroke fill markers" d=" M 1090.2188176927734 1613.400804602167 L 1076.6061482761068 1620.2071393105002 L 1090.2188176927734 1627.0134740188334 Z"/></g></g><g><g><rect fill="white" stroke="none" x="1104.1037404977735" y="1644.7099442605002" width="137.68501533570313" height="21.23576429"/></g><text fill="black" stroke="none" font-family="sans-serif" font-size="11pt" font-style="normal" font-weight="normal" text-decoration="normal" x="1106.5540209927735" y="1659.4116272305002" text-anchor="start" dominant-baseline="alphabetic">createStatisticsFile()</text></g><g><path fill="none" stroke="black" paint-order="fill stroke markers" d=" M 1076.6061482761068 1665.9457085505 L 1150.1145631261068 1665.9457085505 L 1150.1145631261068 1682.2809118505002 L 1087.4962838094402 1682.2809118505002" stroke-miterlimit="10" stroke-width="1.3612669416666667" stroke-dasharray=""/><g transform="translate(1084.7737499261068,1682.2809118505002) translate(-1084.7737499261068,-1682.2809118505002)"><path fill="black" stroke="none" paint-order="stroke fill markers" d=" M 1098.3864193427735 1675.474577142167 L 1084.7737499261068 1682.2809118505002 L 1098.3864193427735 1689.0872465588334 Z"/></g></g><g><g><rect fill="white" stroke="none" x="861.2838626527213" y="1747.6217250505003" width="134.43521369996094" height="21.23576429"/></g><text fill="black" stroke="none" font-family="sans-serif" font-size="11pt" font-style="normal" font-weight="normal" text-decoration="normal" x="863.7341431477213" y="1762.3234080205004" text-anchor="start" dominant-baseline="alphabetic">Object: statistics file</text></g><g><path fill="none" stroke="black" paint-order="fill stroke markers" d=" M 1060.2709449761066 1768.8574893405003 L 799.4545279126302 1768.8574893405003" stroke-miterlimit="10" stroke-width="1.3612669416666667" stroke-dasharray="6.53408132"/><g transform="translate(796.7319940292969,1768.8574893405003) translate(-796.7319940292969,-1768.8574893405003)"><path fill="black" stroke="none" paint-order="stroke fill markers" d=" M 810.3446634459635 1762.051154632167 L 796.7319940292969 1768.8574893405003 L 810.3446634459635 1775.6638240488335 Z"/></g></g><g><g><rect fill="white" stroke="none" x="617.6695198072786" y="1793.3602942905004" width="122.22334541382813" height="21.23576429"/></g><text fill="black" stroke="none" font-family="sans-serif" font-size="11pt" font-style="normal" font-weight="normal" text-decoration="normal" x="620.1198003022786" y="1808.0619772605005" text-anchor="start" dominant-baseline="alphabetic">XmlFile: response</text></g><g><path fill="none" stroke="black" paint-order="fill stroke markers" d=" M 780.3967907292968 1814.5960585805003 L 579.8881281824218 1814.5960585805003" stroke-miterlimit="10" stroke-width="1.3612669416666667" stroke-dasharray="6.53408132"/><g transform="translate(577.1655942990885,1814.5960585805003) translate(-577.1655942990885,-1814.5960585805003)"><path fill="black" stroke="none" paint-order="stroke fill markers" d=" M 590.7782637157552 1807.789723872167 L 577.1655942990885 1814.5960585805003 L 590.7782637157552 1821.4023932888335 Z"/></g></g><g><g><rect fill="white" stroke="none" x="400.53332637589835" y="1839.0988635305005" width="122.22334541382813" height="21.23576429"/></g><text fill="black" stroke="none" font-family="sans-serif" font-size="11pt" font-style="normal" font-weight="normal" text-decoration="normal" x="402.98360687089837" y="1853.8005465005006" text-anchor="start" dominant-baseline="alphabetic">XmlFile: response</text></g><g><path fill="none" stroke="black" paint-order="fill stroke markers" d=" M 560.8303909990884 1860.3346278205004 L 365.18214104986976 1860.3346278205004" stroke-miterlimit="10" stroke-width="1.3612669416666667" stroke-dasharray="6.53408132"/><g transform="translate(362.45960716653644,1860.3346278205004) translate(-362.45960716653644,-1860.3346278205004)"><path fill="black" stroke="none" paint-order="stroke fill markers" d=" M 376.0722765832031 1853.5282931121671 L 362.45960716653644 1860.3346278205004 L 376.0722765832031 1867.1409625288336 Z"/></g></g><g><g><rect fill="white" stroke="none" x="184.19169623797526" y="1884.8374327705005" width="83.91983284058594" height="21.23576429"/></g><text fill="black" stroke="none" font-family="sans-serif" font-size="11pt" font-style="normal" font-weight="normal" text-decoration="normal" x="186.64197673297525" y="1899.5391157405006" text-anchor="start" dominant-baseline="alphabetic">statistics file</text></g><g><path fill="none" stroke="black" paint-order="fill stroke markers" d=" M 346.12440386653645 1906.0731970605004 L 108.90135533333333 1906.0731970605004" stroke-miterlimit="10" stroke-width="1.3612669416666667" stroke-dasharray="6.53408132"/><g transform="translate(106.17882144999999,1906.0731970605004) translate(-106.17882144999999,-1906.0731970605004)"><path fill="black" stroke="none" paint-order="stroke fill markers" d=" M 119.79149086666665 1899.2668623521672 L 106.17882144999999 1906.0731970605004 L 119.79149086666665 1912.8795317688337 Z"/></g></g><g><g><rect fill="white" stroke="none" x="1881.3770225910678" y="2023.6866608205005" width="186.6399408728125" height="21.23576429"/></g><text fill="black" stroke="none" font-family="sans-serif" font-size="11pt" font-style="normal" font-weight="normal" text-decoration="normal" x="1883.8273030860678" y="2038.3883437905006" text-anchor="start" dominant-baseline="alphabetic">NotEnoughReportException</text></g><g><path fill="none" stroke="black" paint-order="fill stroke markers" d=" M 2162.3612362621093 2044.9224251105004 L 1789.755283676172 2044.9224251105004" stroke-miterlimit="10" stroke-width="1.3612669416666667" stroke-dasharray="6.53408132"/><g transform="translate(1787.0327497928386,2044.9224251105004) translate(-1787.0327497928386,-2044.9224251105004)"><path fill="black" stroke="none" paint-order="stroke fill markers" d=" M 1800.6454192095052 2038.1160904021672 L 1787.0327497928386 2044.9224251105004 L 1800.6454192095052 2051.7287598188336 Z"/></g></g><g><g><rect fill="white" stroke="none" x="1474.3527548964714" y="2069.4252300605003" width="186.6399408728125" height="21.23576429"/></g><text fill="black" stroke="none" font-family="sans-serif" font-size="11pt" font-style="normal" font-weight="normal" text-decoration="normal" x="1476.8030353914714" y="2084.1269130305004" text-anchor="start" dominant-baseline="alphabetic">NotEnoughReportException</text></g><g><path fill="none" stroke="black" paint-order="fill stroke markers" d=" M 1770.6975464928385 2090.6609943505005 L 1367.3704380562501 2090.6609943505005" stroke-miterlimit="10" stroke-width="1.3612669416666667" stroke-dasharray="6.53408132"/><g transform="translate(1364.6479041729167,2090.6609943505005) translate(-1364.6479041729167,-2090.6609943505005)"><path fill="black" stroke="none" paint-order="stroke fill markers" d=" M 1378.2605735895834 2083.854659642167 L 1364.6479041729167 2090.6609943505005 L 1378.2605735895834 2097.467329058834 Z"/></g></g><g><g><rect fill="white" stroke="none" x="979.2023770147005" y="2115.1637993005" width="186.6399408728125" height="21.23576429"/></g><text fill="black" stroke="none" font-family="sans-serif" font-size="11pt" font-style="normal" font-weight="normal" text-decoration="normal" x="981.6526575097005" y="2129.8654822705003" text-anchor="start" dominant-baseline="alphabetic">NotEnoughReportException</text></g><g><path fill="none" stroke="black" paint-order="fill stroke markers" d=" M 1348.3127008729166 2136.3995635905003 L 799.4545279126302 2136.3995635905003" stroke-miterlimit="10" stroke-width="1.3612669416666667" stroke-dasharray="6.53408132"/><g transform="translate(796.7319940292969,2136.3995635905003) translate(-796.7319940292969,-2136.3995635905003)"><path fill="black" stroke="none" paint-order="stroke fill markers" d=" M 810.3446634459635 2129.593228882167 L 796.7319940292969 2136.3995635905003 L 810.3446634459635 2143.2058982988337 Z"/></g></g><g><g><rect fill="white" stroke="none" x="617.6695198072786" y="2160.9023685405" width="122.22334541382813" height="21.23576429"/></g><text fill="black" stroke="none" font-family="sans-serif" font-size="11pt" font-style="normal" font-weight="normal" text-decoration="normal" x="620.1198003022786" y="2175.6040515105" text-anchor="start" dominant-baseline="alphabetic">XmlFile: response</text></g><g><path fill="none" stroke="black" paint-order="fill stroke markers" d=" M 780.3967907292968 2182.1381328305 L 579.8881281824218 2182.1381328305" stroke-miterlimit="10" stroke-width="1.3612669416666667" stroke-dasharray="6.53408132"/><g transform="translate(577.1655942990885,2182.1381328305) translate(-577.1655942990885,-2182.1381328305)"><path fill="black" stroke="none" paint-order="stroke fill markers" d=" M 590.7782637157552 2175.3317981221667 L 577.1655942990885 2182.1381328305 L 590.7782637157552 2188.9444675388336 Z"/></g></g><g><g><rect fill="white" stroke="none" x="400.53332637589835" y="2206.6409377805" width="122.22334541382813" height="21.23576429"/></g><text fill="black" stroke="none" font-family="sans-serif" font-size="11pt" font-style="normal" font-weight="normal" text-decoration="normal" x="402.98360687089837" y="2221.3426207505" text-anchor="start" dominant-baseline="alphabetic">XmlFile: response</text></g><g><path fill="none" stroke="black" paint-order="fill stroke markers" d=" M 560.8303909990884 2227.8767020705 L 365.18214104986976 2227.8767020705" stroke-miterlimit="10" stroke-width="1.3612669416666667" stroke-dasharray="6.53408132"/><g transform="translate(362.45960716653644,2227.8767020705) translate(-362.45960716653644,-2227.8767020705)"><path fill="black" stroke="none" paint-order="stroke fill markers" d=" M 376.0722765832031 2221.0703673621665 L 362.45960716653644 2227.8767020705 L 376.0722765832031 2234.6830367788334 Z"/></g></g><g><g><rect fill="white" stroke="none" x="125.50881202166666" y="2252.3795070204997" width="201.28560127320313" height="21.23576429"/></g><text fill="black" stroke="none" font-family="sans-serif" font-size="11pt" font-style="normal" font-weight="normal" text-decoration="normal" x="127.95909251666666" y="2267.0811899904998" text-anchor="start" dominant-baseline="alphabetic">NotEnoughDataErrorMessage</text></g><g><path fill="none" stroke="black" paint-order="fill stroke markers" d=" M 346.12440386653645 2273.6152713105 L 108.90135533333333 2273.6152713105" stroke-miterlimit="10" stroke-width="1.3612669416666667" stroke-dasharray="6.53408132"/><g transform="translate(106.17882144999999,2273.6152713105) translate(-106.17882144999999,-2273.6152713105)"><path fill="black" stroke="none" paint-order="stroke fill markers" d=" M 119.79149086666665 2266.8089366021663 L 106.17882144999999 2273.6152713105 L 119.79149086666665 2280.4216060188332 Z"/></g></g><g><g/><path fill="none" stroke="black" paint-order="fill stroke markers" d=" M 16.335203299999996 527.3820385405 L 2244.0372527621093 527.3820385405 L 2244.0372527621093 1955.0788069605005 L 16.335203299999996 1955.0788069605005 L 16.335203299999996 527.3820385405 Z" stroke-miterlimit="10" stroke-width="2.3336004714285714" stroke-dasharray=""/><path fill="white" stroke="black" paint-order="fill stroke markers" d=" M 16.335203299999996 527.3820385405 L 16.335203299999996 546.9842825005001 L 62.69440689707031 546.9842825005001 L 72.49552887707031 537.1831605205 L 72.49552887707031 527.3820385405 L 16.335203299999996 527.3820385405" stroke-miterlimit="10" stroke-width="2.3336004714285714" stroke-dasharray=""/><text fill="black" stroke="none" font-family="sans-serif" font-size="8.8pt" font-style="normal" font-weight="bold" text-decoration="normal" x="32.67040659999999" y="540.4502011805" text-anchor="start" dominant-baseline="alphabetic">alt</text><text fill="black" stroke="none" font-family="sans-serif" font-size="8.8pt" font-style="normal" font-weight="bold" text-decoration="normal" x="88.83073217707032" y="540.4502011805" text-anchor="start" dominant-baseline="alphabetic">[EnoughData]</text></g><g><g/><path fill="none" stroke="black" paint-order="fill stroke markers" d=" M 32.67040659999999 948.8302836804997 L 2227.7020494621092 948.8302836804997 L 2227.7020494621092 1930.5760020105004 L 32.67040659999999 1930.5760020105004 L 32.67040659999999 948.8302836804997 Z" stroke-miterlimit="10" stroke-width="2.3336004714285714" stroke-dasharray=""/><path fill="white" stroke="black" paint-order="fill stroke markers" d=" M 32.67040659999999 948.8302836804997 L 32.67040659999999 968.4325276404998 L 79.0296101970703 968.4325276404998 L 88.8307321770703 958.6314056604997 L 88.8307321770703 948.8302836804997 L 32.67040659999999 948.8302836804997" stroke-miterlimit="10" stroke-width="2.3336004714285714" stroke-dasharray=""/><text fill="black" stroke="none" font-family="sans-serif" font-size="8.8pt" font-style="normal" font-weight="bold" text-decoration="normal" x="49.005609899999996" y="961.8984463204997" text-anchor="start" dominant-baseline="alphabetic">alt</text><text fill="black" stroke="none" font-family="sans-serif" font-size="8.8pt" font-style="normal" font-weight="bold" text-decoration="normal" x="105.1659354770703" y="961.8984463204997" text-anchor="start" dominant-baseline="alphabetic">[ME/LOWantsToDownload]</text></g><g><g/><path fill="none" stroke="black" paint-order="fill stroke markers" d=" M 32.67040659999999 1979.5816119105004 L 2227.7020494621092 1979.5816119105004 L 2227.7020494621092 2298.1180762605 L 32.67040659999999 2298.1180762605 L 32.67040659999999 1979.5816119105004 Z" stroke-miterlimit="10" stroke-width="2.3336004714285714" stroke-dasharray=""/><path fill="white" stroke="black" paint-order="fill stroke markers" d=" M 32.67040659999999 1979.5816119105004 L 32.67040659999999 1999.1838558705003 L 79.0296101970703 1999.1838558705003 L 88.8307321770703 1989.3827338905005 L 88.8307321770703 1979.5816119105004 L 32.67040659999999 1979.5816119105004" stroke-miterlimit="10" stroke-width="2.3336004714285714" stroke-dasharray=""/><text fill="black" stroke="none" font-family="sans-serif" font-size="8.8pt" font-style="normal" font-weight="bold" text-decoration="normal" x="49.005609899999996" y="1992.6497745505003" text-anchor="start" dominant-baseline="alphabetic">alt</text><text fill="black" stroke="none" font-family="sans-serif" font-size="8.8pt" font-style="normal" font-weight="bold" text-decoration="normal" x="105.1659354770703" y="1992.6497745505003" text-anchor="start" dominant-baseline="alphabetic">[NotEnoughData]</text></g></g><g/><g/><g/><g/><g/><g/><g/><g/><g/></g></svg>