<svg version="1.1" xmlns="http://www.w3.org/2000/svg" xmlns:xlink="http://www.w3.org/1999/xlink" width="1698" height="1657"><defs/><g><g/><g/><g/><g/><g/><g/><g/><g/><g/><g/><g/><g/><g/><g/><g/><g/><g/><g/><g/><g/><g/><g/><g/><g/><g/><g/><g/><g/><g/><g><rect fill="white" stroke="none" x="0" y="0" width="1698" height="1657"/></g><g><text fill="black" stroke="none" font-family="sans-serif" font-size="16.5pt" font-style="normal" font-weight="normal" text-decoration="normal" x="784.0114244566081" y="24.50280495" text-anchor="start" dominant-baseline="alphabetic">Mine Reports</text></g><g/><g><path fill="none" stroke="black" paint-order="fill stroke markers" d=" M 81.67601649999999 128.80307802049998 L 81.67601649999999 1657.7781069004998" stroke-miterlimit="10" stroke-width="1.3612669416666667" stroke-dasharray="12.565541,5.445067766666667"/><path fill="none" stroke="black" paint-order="fill stroke markers" d=" M 239.1650870580729 128.80307802049998 L 239.1650870580729 1657.7781069004998" stroke-miterlimit="10" stroke-width="1.3612669416666667" stroke-dasharray="12.565541,5.445067766666667"/><path fill="none" stroke="black" paint-order="fill stroke markers" d=" M 419.65490292597656 128.80307802049998 L 419.65490292597656 1657.7781069004998" stroke-miterlimit="10" stroke-width="1.3612669416666667" stroke-dasharray="12.565541,5.445067766666667"/><path fill="none" stroke="black" paint-order="fill stroke markers" d=" M 634.3608900585286 128.80307802049998 L 634.3608900585286 1657.7781069004998" stroke-miterlimit="10" stroke-width="1.3612669416666667" stroke-dasharray="12.565541,5.445067766666667"/><path fill="none" stroke="black" paint-order="fill stroke markers" d=" M 853.927289788737 128.80307802049998 L 853.927289788737 1657.7781069004998" stroke-miterlimit="10" stroke-width="1.3612669416666667" stroke-dasharray="12.565541,5.445067766666667"/><path fill="none" stroke="black" paint-order="fill stroke markers" d=" M 1225.5122442064453 128.80307802049998 L 1225.5122442064453 1657.7781069004998" stroke-miterlimit="10" stroke-width="1.3612669416666667" stroke-dasharray="12.565541,5.445067766666667"/><path fill="none" stroke="black" paint-order="fill stroke markers" d=" M 1617.1759339757161 128.80307802049998 L 1617.1759339757161 1657.7781069004998" stroke-miterlimit="10" stroke-width="1.3612669416666667" stroke-dasharray="12.565541,5.445067766666667"/></g><g><g><path fill="white" stroke="black" paint-order="fill stroke markers" d=" M 90.987082381 59.70516806150002 A 9.311065881 9.311065881 0 1 1 90.98707772546743 59.69585699717086 M 81.67601649999999 69.01623394250002 L 81.67601649999999 88.94518196850002 M 69.914670124 76.20372339450002 L 93.43736287599998 76.20372339450002 M 81.67601649999999 88.94518196850002 L 69.914670124 107.56731373050002 M 81.67601649999999 88.94518196850002 L 93.43736287599998 107.56731373050002" stroke-miterlimit="10" stroke-width="2.7769845610000004" stroke-dasharray=""/></g><g><g/><text fill="black" stroke="none" font-family="sans-serif" font-size="11pt" font-style="normal" font-weight="normal" text-decoration="normal" x="58.866423299316395" y="123.90251703050001" text-anchor="start" dominant-baseline="alphabetic">ME/LO</text></g><path fill="none" stroke="none"/><g><path fill="white" stroke="black" paint-order="fill stroke markers" d=" M 210.44640398977995 84.69802911050002 L 267.8837701263659 84.69802911050002 L 267.8837701263659 128.8030780205 L 210.44640398977995 128.8030780205 L 210.44640398977995 84.69802911050002 Z" stroke-miterlimit="10" stroke-width="2.613632528" stroke-dasharray=""/></g><g><g/><text fill="black" stroke="none" font-family="sans-serif" font-size="11pt" font-style="normal" font-weight="normal" text-decoration="normal" x="228.17009957027994" y="112.46787472049999" text-anchor="start" dominant-baseline="alphabetic">MS</text></g><path fill="none" stroke="none"/><g><path fill="white" stroke="black" paint-order="fill stroke markers" d=" M 373.9498306975273 84.69802911050002 L 465.3599751544258 84.69802911050002 L 465.3599751544258 128.8030780205 L 373.9498306975273 128.8030780205 L 373.9498306975273 84.69802911050002 Z" stroke-miterlimit="10" stroke-width="2.613632528" stroke-dasharray=""/></g><g><g/><text fill="black" stroke="none" font-family="sans-serif" font-size="11pt" font-style="normal" font-weight="normal" text-decoration="normal" x="391.67352627802734" y="112.46787472049999" text-anchor="start" dominant-baseline="alphabetic">WebApp</text></g><path fill="none" stroke="none"/><g><path fill="white" stroke="black" paint-order="fill stroke markers" d=" M 580.1089428300794 84.69802911050002 L 688.6128372869779 84.69802911050002 L 688.6128372869779 128.8030780205 L 580.1089428300794 128.8030780205 L 580.1089428300794 84.69802911050002 Z" stroke-miterlimit="10" stroke-width="2.613632528" stroke-dasharray=""/></g><g><g/><text fill="black" stroke="none" font-family="sans-serif" font-size="11pt" font-style="normal" font-weight="normal" text-decoration="normal" x="597.8326384105794" y="112.46787472049999" text-anchor="start" dominant-baseline="alphabetic">WebServer</text></g><path fill="none" stroke="none"/><g><path fill="white" stroke="black" paint-order="fill stroke markers" d=" M 814.2028846745455 84.69802911050002 L 893.6516949029284 84.69802911050002 L 893.6516949029284 128.8030780205 L 814.2028846745455 128.8030780205 L 814.2028846745455 84.69802911050002 Z" stroke-miterlimit="10" stroke-width="2.613632528" stroke-dasharray=""/></g><g><g/><text fill="black" stroke="none" font-family="sans-serif" font-size="11pt" font-style="normal" font-weight="normal" text-decoration="normal" x="831.9265802550456" y="112.46787472049999" text-anchor="start" dominant-baseline="alphabetic">Router</text></g><path fill="none" stroke="none"/><g><path fill="white" stroke="black" paint-order="fill stroke markers" d=" M 1167.4592868461602 84.69802911050002 L 1283.5652015667306 84.69802911050002 L 1283.5652015667306 128.8030780205 L 1167.4592868461602 128.8030780205 L 1167.4592868461602 84.69802911050002 Z" stroke-miterlimit="10" stroke-width="2.613632528" stroke-dasharray=""/></g><g><g/><text fill="black" stroke="none" font-family="sans-serif" font-size="11pt" font-style="normal" font-weight="normal" text-decoration="normal" x="1185.1829824266601" y="112.46787472049999" text-anchor="start" dominant-baseline="alphabetic">ReportMiner</text></g><path fill="none" stroke="none"/><g><path fill="white" stroke="black" paint-order="fill stroke markers" d=" M 1578.274717643263 84.69802911050002 L 1656.0771503081694 84.69802911050002 L 1656.0771503081694 128.8030780205 L 1578.274717643263 128.8030780205 L 1578.274717643263 84.69802911050002 Z" stroke-miterlimit="10" stroke-width="2.613632528" stroke-dasharray=""/></g><g><g/><text fill="black" stroke="none" font-family="sans-serif" font-size="11pt" font-style="normal" font-weight="normal" text-decoration="normal" x="1595.998413223763" y="112.46787472049999" text-anchor="start" dominant-baseline="alphabetic">DBMS</text></g></g><g><path fill="white" stroke="black" paint-order="fill stroke markers" d=" M 73.50841485 136.97067967049998 L 89.84361814999998 136.97067967049998 L 89.84361814999998 1641.4429036004997 L 73.50841485 1641.4429036004997 L 73.50841485 136.97067967049998" stroke-miterlimit="10" stroke-width="1.3612669416666667" stroke-dasharray=""/><path fill="white" stroke="black" paint-order="fill stroke markers" d=" M 411.48730127597656 182.70924891049998 L 427.82250457597655 182.70924891049998 L 427.82250457597655 1278.8013903404997 L 411.48730127597656 1278.8013903404997 L 411.48730127597656 182.70924891049998" stroke-miterlimit="10" stroke-width="1.3612669416666667" stroke-dasharray=""/><path fill="white" stroke="black" paint-order="fill stroke markers" d=" M 626.1932884085286 228.44781815049998 L 642.5284917085287 228.44781815049998 L 642.5284917085287 1141.5856826204995 L 626.1932884085286 1141.5856826204995 L 626.1932884085286 228.44781815049998" stroke-miterlimit="10" stroke-width="1.3612669416666667" stroke-dasharray=""/><path fill="white" stroke="black" paint-order="fill stroke markers" d=" M 845.7596881387369 274.1863873905 L 862.094891438737 274.1863873905 L 862.094891438737 1095.8471133804994 L 845.7596881387369 1095.8471133804994 L 845.7596881387369 274.1863873905" stroke-miterlimit="10" stroke-width="1.3612669416666667" stroke-dasharray=""/><path fill="white" stroke="black" paint-order="fill stroke markers" d=" M 1217.3446425564453 319.9249566305 L 1233.6798458564454 319.9249566305 L 1233.6798458564454 1050.1085441404994 L 1217.3446425564453 1050.1085441404994 L 1217.3446425564453 319.9249566305" stroke-miterlimit="10" stroke-width="1.3612669416666667" stroke-dasharray=""/><path fill="white" stroke="black" paint-order="fill stroke markers" d=" M 1609.008332325716 365.6635258705 L 1625.3435356257162 365.6635258705 L 1625.3435356257162 1004.3699749004994 L 1609.008332325716 1004.3699749004994 L 1609.008332325716 365.6635258705" stroke-miterlimit="10" stroke-width="1.3612669416666667" stroke-dasharray=""/><path fill="white" stroke="black" paint-order="fill stroke markers" d=" M 230.99748540807292 638.4614209804998 L 247.3326887080729 638.4614209804998 L 247.3326887080729 684.1999902204998 L 230.99748540807292 684.1999902204998 L 230.99748540807292 638.4614209804998" stroke-miterlimit="10" stroke-width="1.3612669416666667" stroke-dasharray=""/><path fill="white" stroke="black" paint-order="fill stroke markers" d=" M 230.99748540807292 1187.3242518604995 L 247.3326887080729 1187.3242518604995 L 247.3326887080729 1233.0628211004996 L 230.99748540807292 1233.0628211004996 L 230.99748540807292 1187.3242518604995" stroke-miterlimit="10" stroke-width="1.3612669416666667" stroke-dasharray=""/><path fill="white" stroke="black" paint-order="fill stroke markers" d=" M 411.48730127597656 1303.3041952904996 L 427.82250457597655 1303.3041952904996 L 427.82250457597655 1576.1020904005 L 411.48730127597656 1576.1020904005 L 411.48730127597656 1303.3041952904996" stroke-miterlimit="10" stroke-width="1.3612669416666667" stroke-dasharray=""/><path fill="white" stroke="black" paint-order="fill stroke markers" d=" M 626.1932884085286 1303.3041952904996 L 642.5284917085287 1303.3041952904996 L 642.5284917085287 1530.3635211604999 L 626.1932884085286 1530.3635211604999 L 626.1932884085286 1303.3041952904996" stroke-miterlimit="10" stroke-width="1.3612669416666667" stroke-dasharray=""/><path fill="white" stroke="black" paint-order="fill stroke markers" d=" M 845.7596881387369 1303.3041952904996 L 862.094891438737 1303.3041952904996 L 862.094891438737 1484.6249519204998 L 845.7596881387369 1484.6249519204998 L 845.7596881387369 1303.3041952904996" stroke-miterlimit="10" stroke-width="1.3612669416666667" stroke-dasharray=""/><path fill="white" stroke="black" paint-order="fill stroke markers" d=" M 1217.3446425564453 1303.3041952904996 L 1233.6798458564454 1303.3041952904996 L 1233.6798458564454 1438.8863826804998 L 1217.3446425564453 1438.8863826804998 L 1217.3446425564453 1303.3041952904996" stroke-miterlimit="10" stroke-width="1.3612669416666667" stroke-dasharray=""/><path fill="white" stroke="black" paint-order="fill stroke markers" d=" M 1609.008332325716 1303.3041952904996 L 1625.3435356257162 1303.3041952904996 L 1625.3435356257162 1393.1478134404997 L 1609.008332325716 1393.1478134404997 L 1609.008332325716 1303.3041952904996" stroke-miterlimit="10" stroke-width="1.3612669416666667" stroke-dasharray=""/><g><g><rect fill="white" stroke="none" x="195.65972877853514" y="161.4734846205" width="110.01146186890625" height="21.23576429"/></g><text fill="black" stroke="none" font-family="sans-serif" font-size="11pt" font-style="normal" font-weight="normal" text-decoration="normal" x="198.11000927353513" y="176.17516759049997" text-anchor="start" dominant-baseline="alphabetic">getReportsByAll</text></g><g><path fill="none" stroke="black" paint-order="fill stroke markers" d=" M 89.84361814999998 182.70924891049998 L 408.76476739264325 182.70924891049998" stroke-miterlimit="10" stroke-width="1.3612669416666667" stroke-dasharray=""/><g transform="translate(411.48730127597656,182.70924891049998) translate(-411.48730127597656,-182.70924891049998)"><path fill="black" stroke="none" paint-order="stroke fill markers" d=" M 397.8746318593099 175.90291420216664 L 411.48730127597656 182.70924891049998 L 397.8746318593099 189.51558361883332 Z"/></g></g><g><g><rect fill="white" stroke="none" x="447.1524951476432" y="207.2120538605" width="159.71080268921875" height="21.23576429"/></g><text fill="black" stroke="none" font-family="sans-serif" font-size="11pt" font-style="normal" font-weight="normal" text-decoration="normal" x="449.6027756426432" y="221.91373683049997" text-anchor="start" dominant-baseline="alphabetic">handleRequest(xmlFile)</text></g><g><path fill="none" stroke="black" paint-order="fill stroke markers" d=" M 427.82250457597655 228.44781815049998 L 623.4707545251953 228.44781815049998" stroke-miterlimit="10" stroke-width="1.3612669416666667" stroke-dasharray=""/><g transform="translate(626.1932884085286,228.44781815049998) translate(-626.1932884085286,-228.44781815049998)"><path fill="black" stroke="none" paint-order="stroke fill markers" d=" M 612.5806189918619 221.64148344216665 L 626.1932884085286 228.44781815049998 L 612.5806189918619 235.25415285883332 Z"/></g></g><g><g><rect fill="white" stroke="none" x="661.8584822801953" y="252.9506231005" width="164.571215286875" height="21.23576429"/></g><text fill="black" stroke="none" font-family="sans-serif" font-size="11pt" font-style="normal" font-weight="normal" text-decoration="normal" x="664.3087627751953" y="267.6523060705" text-anchor="start" dominant-baseline="alphabetic">forwardRequest(xmlFile)</text></g><g><path fill="none" stroke="black" paint-order="fill stroke markers" d=" M 642.5284917085287 274.1863873905 L 843.0371542554036 274.1863873905" stroke-miterlimit="10" stroke-width="1.3612669416666667" stroke-dasharray=""/><g transform="translate(845.7596881387369,274.1863873905) translate(-845.7596881387369,-274.1863873905)"><path fill="black" stroke="none" paint-order="stroke fill markers" d=" M 832.1470187220702 267.38005268216665 L 845.7596881387369 274.1863873905 L 832.1470187220702 280.9927220988333 Z"/></g></g><g><g><rect fill="white" stroke="none" x="881.4248820104037" y="298.6891923405" width="316.589769974375" height="21.23576429"/></g><text fill="black" stroke="none" font-family="sans-serif" font-size="11pt" font-style="normal" font-weight="normal" text-decoration="normal" x="883.8751625054038" y="313.39087531049995" text-anchor="start" dominant-baseline="alphabetic">getReports(requestType=All,requestField,token)</text></g><g><path fill="none" stroke="black" paint-order="fill stroke markers" d=" M 862.094891438737 319.9249566305 L 1214.6221086731118 319.9249566305" stroke-miterlimit="10" stroke-width="1.3612669416666667" stroke-dasharray=""/><g transform="translate(1217.3446425564453,319.9249566305) translate(-1217.3446425564453,-319.9249566305)"><path fill="black" stroke="none" paint-order="stroke fill markers" d=" M 1203.7319731397786 313.11862192216665 L 1217.3446425564453 319.9249566305 L 1203.7319731397786 326.73129133883333 Z"/></g></g><g><g><rect fill="white" stroke="none" x="1253.0098364281118" y="344.4277615805" width="336.6685053259375" height="21.23576429"/></g><text fill="black" stroke="none" font-family="sans-serif" font-size="11pt" font-style="normal" font-weight="normal" text-decoration="normal" x="1255.4601169231119" y="359.12944455049995" text-anchor="start" dominant-baseline="alphabetic">retrieveValidReports(requestType=All,requestField)</text></g><g><path fill="none" stroke="black" paint-order="fill stroke markers" d=" M 1233.6798458564454 365.6635258705 L 1606.2857984423827 365.6635258705" stroke-miterlimit="10" stroke-width="1.3612669416666667" stroke-dasharray=""/><g transform="translate(1609.008332325716,365.6635258705) translate(-1609.008332325716,-365.6635258705)"><path fill="black" stroke="none" paint-order="stroke fill markers" d=" M 1595.3956629090494 358.85719116216666 L 1609.008332325716 365.6635258705 L 1595.3956629090494 372.46986057883333 Z"/></g></g><g><g><rect fill="white" stroke="none" x="1323.5574209618032" y="434.2713797305" width="195.5733362585547" height="21.23576429"/></g><text fill="black" stroke="none" font-family="sans-serif" font-size="11pt" font-style="normal" font-weight="normal" text-decoration="normal" x="1326.0077014568033" y="448.97306270049995" text-anchor="start" dominant-baseline="alphabetic">List&lt;Report&gt;: all valid reports</text></g><g><path fill="none" stroke="black" paint-order="fill stroke markers" d=" M 1609.008332325716 455.5071440205 L 1236.4023797397788 455.5071440205" stroke-miterlimit="10" stroke-width="1.3612669416666667" stroke-dasharray="6.53408132"/><g transform="translate(1233.6798458564454,455.5071440205) translate(-1233.6798458564454,-455.5071440205)"><path fill="black" stroke="none" paint-order="stroke fill markers" d=" M 1247.292515273112 448.70080931216665 L 1233.6798458564454 455.5071440205 L 1247.292515273112 462.31347872883333 Z"/></g></g><g><g><rect fill="white" stroke="none" x="941.9330988683139" y="480.0099489705" width="195.5733362585547" height="21.23576429"/></g><text fill="black" stroke="none" font-family="sans-serif" font-size="11pt" font-style="normal" font-weight="normal" text-decoration="normal" x="944.3833793633139" y="494.71163194049996" text-anchor="start" dominant-baseline="alphabetic">List&lt;Report&gt;: all valid reports</text></g><g><path fill="none" stroke="black" paint-order="fill stroke markers" d=" M 1217.3446425564453 501.2457132605 L 864.8174253220703 501.2457132605" stroke-miterlimit="10" stroke-width="1.3612669416666667" stroke-dasharray="6.53408132"/><g transform="translate(862.094891438737,501.2457132605) translate(-862.094891438737,-501.2457132605)"><path fill="black" stroke="none" paint-order="stroke fill markers" d=" M 875.7075608554037 494.43937855216666 L 862.094891438737 501.2457132605 L 875.7075608554037 508.05204796883334 Z"/></g></g><g><g><rect fill="white" stroke="none" x="683.0324172167187" y="525.7485182104999" width="122.22334541382813" height="21.23576429"/></g><text fill="black" stroke="none" font-family="sans-serif" font-size="11pt" font-style="normal" font-weight="normal" text-decoration="normal" x="685.4826977117187" y="540.4502011804999" text-anchor="start" dominant-baseline="alphabetic">XmlFile: response</text></g><g><path fill="none" stroke="black" paint-order="fill stroke markers" d=" M 845.7596881387369 546.9842825005 L 645.251025591862 546.9842825005" stroke-miterlimit="10" stroke-width="1.3612669416666667" stroke-dasharray="6.53408132"/><g transform="translate(642.5284917085287,546.9842825005) translate(-642.5284917085287,-546.9842825005)"><path fill="black" stroke="none" paint-order="stroke fill markers" d=" M 656.1411611251954 540.1779477921666 L 642.5284917085287 546.9842825005 L 656.1411611251954 553.7906172088333 Z"/></g></g><g><g><rect fill="white" stroke="none" x="465.8962237853385" y="571.4870874504999" width="122.22334541382813" height="21.23576429"/></g><text fill="black" stroke="none" font-family="sans-serif" font-size="11pt" font-style="normal" font-weight="normal" text-decoration="normal" x="468.34650428033854" y="586.1887704204998" text-anchor="start" dominant-baseline="alphabetic">XmlFile: response</text></g><g><path fill="none" stroke="black" paint-order="fill stroke markers" d=" M 626.1932884085286 592.7228517404999 L 430.54503845930986 592.7228517404999" stroke-miterlimit="10" stroke-width="1.3612669416666667" stroke-dasharray="6.53408132"/><g transform="translate(427.82250457597655,592.7228517404999) translate(-427.82250457597655,-592.7228517404999)"><path fill="black" stroke="none" paint-order="stroke fill markers" d=" M 441.43517399264323 585.9165170321666 L 427.82250457597655 592.7228517404999 L 441.43517399264323 599.5291864488332 Z"/></g></g><g><g><rect fill="white" stroke="none" x="266.66267927973956" y="617.2256566904998" width="125.49463142457031" height="21.23576429"/></g><text fill="black" stroke="none" font-family="sans-serif" font-size="11pt" font-style="normal" font-weight="normal" text-decoration="normal" x="269.1129597747396" y="631.9273396604998" text-anchor="start" dominant-baseline="alphabetic">fetchMap(position)</text></g><g><path fill="none" stroke="black" paint-order="fill stroke markers" d=" M 411.48730127597656 638.4614209804998 L 250.05522259140625 638.4614209804998" stroke-miterlimit="10" stroke-width="1.3612669416666667" stroke-dasharray=""/><g transform="translate(247.3326887080729,638.4614209804998) translate(-247.3326887080729,-638.4614209804998)"><path fill="black" stroke="none" paint-order="stroke fill markers" d=" M 260.9453581247396 631.6550862721665 L 247.3326887080729 638.4614209804998 L 260.9453581247396 645.2677556888332 Z"/></g></g><g><g><rect fill="white" stroke="none" x="312.70058974116535" y="662.9642259304998" width="33.41881050171875" height="21.23576429"/></g><text fill="black" stroke="none" font-family="sans-serif" font-size="11pt" font-style="normal" font-weight="normal" text-decoration="normal" x="315.15087023616536" y="677.6659089004997" text-anchor="start" dominant-baseline="alphabetic">map</text></g><g><path fill="none" stroke="black" paint-order="fill stroke markers" d=" M 247.3326887080729 684.1999902204998 L 408.76476739264325 684.1999902204998" stroke-miterlimit="10" stroke-width="1.3612669416666667" stroke-dasharray="6.53408132"/><g transform="translate(411.48730127597656,684.1999902204998) translate(-411.48730127597656,-684.1999902204998)"><path fill="black" stroke="none" paint-order="stroke fill markers" d=" M 397.8746318593099 677.3936555121664 L 411.48730127597656 684.1999902204998 L 397.8746318593099 691.0063249288331 Z"/></g></g><g><g><rect fill="white" stroke="none" x="152.87879158371092" y="708.7027951704997" width="195.5733362585547" height="21.23576429"/></g><text fill="black" stroke="none" font-family="sans-serif" font-size="11pt" font-style="normal" font-weight="normal" text-decoration="normal" x="155.3290720787109" y="723.4044781404997" text-anchor="start" dominant-baseline="alphabetic">List&lt;Report&gt;: all valid reports</text></g><g><path fill="none" stroke="black" paint-order="fill stroke markers" d=" M 411.48730127597656 729.9385594604997 L 92.56615203333331 729.9385594604997" stroke-miterlimit="10" stroke-width="1.3612669416666667" stroke-dasharray="6.53408132"/><g transform="translate(89.84361814999998,729.9385594604997) translate(-89.84361814999998,-729.9385594604997)"><path fill="black" stroke="none" paint-order="stroke fill markers" d=" M 103.45628756666665 723.1322247521664 L 89.84361814999998 729.9385594604997 L 103.45628756666665 736.7448941688331 Z"/></g></g><g><g><rect fill="white" stroke="none" x="200.95320869796873" y="754.4413644104997" width="99.42450203003906" height="21.23576429"/></g><text fill="black" stroke="none" font-family="sans-serif" font-size="11pt" font-style="normal" font-weight="normal" text-decoration="normal" x="203.40348919296872" y="769.1430473804996" text-anchor="start" dominant-baseline="alphabetic">getReportsBy*</text></g><g><path fill="none" stroke="black" paint-order="fill stroke markers" d=" M 89.84361814999998 775.6771287004997 L 408.76476739264325 775.6771287004997" stroke-miterlimit="10" stroke-width="1.3612669416666667" stroke-dasharray=""/><g transform="translate(411.48730127597656,775.6771287004997) translate(-411.48730127597656,-775.6771287004997)"><path fill="black" stroke="none" paint-order="stroke fill markers" d=" M 397.8746318593099 768.8707939921663 L 411.48730127597656 775.6771287004997 L 397.8746318593099 782.483463408833 Z"/></g></g><g><g><rect fill="white" stroke="none" x="447.1524951476432" y="800.1799336504996" width="159.71080268921875" height="21.23576429"/></g><text fill="black" stroke="none" font-family="sans-serif" font-size="11pt" font-style="normal" font-weight="normal" text-decoration="normal" x="449.6027756426432" y="814.8816166204996" text-anchor="start" dominant-baseline="alphabetic">handleRequest(xmlFile)</text></g><g><path fill="none" stroke="black" paint-order="fill stroke markers" d=" M 427.82250457597655 821.4156979404996 L 623.4707545251953 821.4156979404996" stroke-miterlimit="10" stroke-width="1.3612669416666667" stroke-dasharray=""/><g transform="translate(626.1932884085286,821.4156979404996) translate(-626.1932884085286,-821.4156979404996)"><path fill="black" stroke="none" paint-order="stroke fill markers" d=" M 612.5806189918619 814.6093632321663 L 626.1932884085286 821.4156979404996 L 612.5806189918619 828.222032648833 Z"/></g></g><g><g><rect fill="white" stroke="none" x="661.8584822801953" y="845.9185028904996" width="164.571215286875" height="21.23576429"/></g><text fill="black" stroke="none" font-family="sans-serif" font-size="11pt" font-style="normal" font-weight="normal" text-decoration="normal" x="664.3087627751953" y="860.6201858604995" text-anchor="start" dominant-baseline="alphabetic">forwardRequest(xmlFile)</text></g><g><path fill="none" stroke="black" paint-order="fill stroke markers" d=" M 642.5284917085287 867.1542671804996 L 843.0371542554036 867.1542671804996" stroke-miterlimit="10" stroke-width="1.3612669416666667" stroke-dasharray=""/><g transform="translate(845.7596881387369,867.1542671804996) translate(-845.7596881387369,-867.1542671804996)"><path fill="black" stroke="none" paint-order="stroke fill markers" d=" M 832.1470187220702 860.3479324721662 L 845.7596881387369 867.1542671804996 L 832.1470187220702 873.9606018888329 Z"/></g></g><g><g><rect fill="white" stroke="none" x="893.8514872350131" y="891.6570721304995" width="291.7365595251562" height="21.23576429"/></g><text fill="black" stroke="none" font-family="sans-serif" font-size="11pt" font-style="normal" font-weight="normal" text-decoration="normal" x="896.3017677300131" y="906.3587551004995" text-anchor="start" dominant-baseline="alphabetic">getReports(requestType,requestField,token)</text></g><g><path fill="none" stroke="black" paint-order="fill stroke markers" d=" M 862.094891438737 912.8928364204995 L 1214.6221086731118 912.8928364204995" stroke-miterlimit="10" stroke-width="1.3612669416666667" stroke-dasharray=""/><g transform="translate(1217.3446425564453,912.8928364204995) translate(-1217.3446425564453,-912.8928364204995)"><path fill="black" stroke="none" paint-order="stroke fill markers" d=" M 1203.7319731397786 906.0865017121662 L 1217.3446425564453 912.8928364204995 L 1203.7319731397786 919.6991711288329 Z"/></g></g><g><g><rect fill="white" stroke="none" x="1265.4364721702993" y="937.3956413704994" width="311.8152338415625" height="21.23576429"/></g><text fill="black" stroke="none" font-family="sans-serif" font-size="11pt" font-style="normal" font-weight="normal" text-decoration="normal" x="1267.8867526652994" y="952.0973243404994" text-anchor="start" dominant-baseline="alphabetic">retrieveValidReports(requestType,requestField)</text></g><g><path fill="none" stroke="black" paint-order="fill stroke markers" d=" M 1233.6798458564454 958.6314056604995 L 1606.2857984423827 958.6314056604995" stroke-miterlimit="10" stroke-width="1.3612669416666667" stroke-dasharray=""/><g transform="translate(1609.008332325716,958.6314056604995) translate(-1609.008332325716,-958.6314056604995)"><path fill="black" stroke="none" paint-order="stroke fill markers" d=" M 1595.3956629090494 951.8250709521661 L 1609.008332325716 958.6314056604995 L 1595.3956629090494 965.4377403688328 Z"/></g></g><g><g><rect fill="white" stroke="none" x="1299.5202124046743" y="983.1342106104994" width="243.6477533728125" height="21.23576429"/></g><text fill="black" stroke="none" font-family="sans-serif" font-size="11pt" font-style="normal" font-weight="normal" text-decoration="normal" x="1301.9704928996744" y="997.8358935804994" text-anchor="start" dominant-baseline="alphabetic">List&lt;Report&gt;: all valid reports filtered</text></g><g><path fill="none" stroke="black" paint-order="fill stroke markers" d=" M 1609.008332325716 1004.3699749004994 L 1236.4023797397788 1004.3699749004994" stroke-miterlimit="10" stroke-width="1.3612669416666667" stroke-dasharray="6.53408132"/><g transform="translate(1233.6798458564454,1004.3699749004994) translate(-1233.6798458564454,-1004.3699749004994)"><path fill="black" stroke="none" paint-order="stroke fill markers" d=" M 1247.292515273112 997.5636401921661 L 1233.6798458564454 1004.3699749004994 L 1247.292515273112 1011.1763096088328 Z"/></g></g><g><g><rect fill="white" stroke="none" x="917.895890311185" y="1028.8727798504995" width="243.6477533728125" height="21.23576429"/></g><text fill="black" stroke="none" font-family="sans-serif" font-size="11pt" font-style="normal" font-weight="normal" text-decoration="normal" x="920.346170806185" y="1043.5744628204995" text-anchor="start" dominant-baseline="alphabetic">List&lt;Report&gt;: all valid reports filtered</text></g><g><path fill="none" stroke="black" paint-order="fill stroke markers" d=" M 1217.3446425564453 1050.1085441404994 L 864.8174253220703 1050.1085441404994" stroke-miterlimit="10" stroke-width="1.3612669416666667" stroke-dasharray="6.53408132"/><g transform="translate(862.094891438737,1050.1085441404994) translate(-862.094891438737,-1050.1085441404994)"><path fill="black" stroke="none" paint-order="stroke fill markers" d=" M 875.7075608554037 1043.3022094321661 L 862.094891438737 1050.1085441404994 L 875.7075608554037 1056.9148788488326 Z"/></g></g><g><g><rect fill="white" stroke="none" x="683.0324172167187" y="1074.6113490904995" width="122.22334541382813" height="21.23576429"/></g><text fill="black" stroke="none" font-family="sans-serif" font-size="11pt" font-style="normal" font-weight="normal" text-decoration="normal" x="685.4826977117187" y="1089.3130320604996" text-anchor="start" dominant-baseline="alphabetic">XmlFile: response</text></g><g><path fill="none" stroke="black" paint-order="fill stroke markers" d=" M 845.7596881387369 1095.8471133804994 L 645.251025591862 1095.8471133804994" stroke-miterlimit="10" stroke-width="1.3612669416666667" stroke-dasharray="6.53408132"/><g transform="translate(642.5284917085287,1095.8471133804994) translate(-642.5284917085287,-1095.8471133804994)"><path fill="black" stroke="none" paint-order="stroke fill markers" d=" M 656.1411611251954 1089.0407786721662 L 642.5284917085287 1095.8471133804994 L 656.1411611251954 1102.6534480888326 Z"/></g></g><g><g><rect fill="white" stroke="none" x="465.8962237853385" y="1120.3499183304996" width="122.22334541382813" height="21.23576429"/></g><text fill="black" stroke="none" font-family="sans-serif" font-size="11pt" font-style="normal" font-weight="normal" text-decoration="normal" x="468.34650428033854" y="1135.0516013004997" text-anchor="start" dominant-baseline="alphabetic">XmlFile: response</text></g><g><path fill="none" stroke="black" paint-order="fill stroke markers" d=" M 626.1932884085286 1141.5856826204995 L 430.54503845930986 1141.5856826204995" stroke-miterlimit="10" stroke-width="1.3612669416666667" stroke-dasharray="6.53408132"/><g transform="translate(427.82250457597655,1141.5856826204995) translate(-427.82250457597655,-1141.5856826204995)"><path fill="black" stroke="none" paint-order="stroke fill markers" d=" M 441.43517399264323 1134.7793479121663 L 427.82250457597655 1141.5856826204995 L 441.43517399264323 1148.3920173288327 Z"/></g></g><g><g><rect fill="white" stroke="none" x="266.66267927973956" y="1166.0884875704996" width="125.49463142457031" height="21.23576429"/></g><text fill="black" stroke="none" font-family="sans-serif" font-size="11pt" font-style="normal" font-weight="normal" text-decoration="normal" x="269.1129597747396" y="1180.7901705404997" text-anchor="start" dominant-baseline="alphabetic">fetchMap(position)</text></g><g><path fill="none" stroke="black" paint-order="fill stroke markers" d=" M 411.48730127597656 1187.3242518604995 L 250.05522259140625 1187.3242518604995" stroke-miterlimit="10" stroke-width="1.3612669416666667" stroke-dasharray=""/><g transform="translate(247.3326887080729,1187.3242518604995) translate(-247.3326887080729,-1187.3242518604995)"><path fill="black" stroke="none" paint-order="stroke fill markers" d=" M 260.9453581247396 1180.5179171521663 L 247.3326887080729 1187.3242518604995 L 260.9453581247396 1194.1305865688328 Z"/></g></g><g><g><rect fill="white" stroke="none" x="312.70058974116535" y="1211.8270568104997" width="33.41881050171875" height="21.23576429"/></g><text fill="black" stroke="none" font-family="sans-serif" font-size="11pt" font-style="normal" font-weight="normal" text-decoration="normal" x="315.15087023616536" y="1226.5287397804998" text-anchor="start" dominant-baseline="alphabetic">map</text></g><g><path fill="none" stroke="black" paint-order="fill stroke markers" d=" M 247.3326887080729 1233.0628211004996 L 408.76476739264325 1233.0628211004996" stroke-miterlimit="10" stroke-width="1.3612669416666667" stroke-dasharray="6.53408132"/><g transform="translate(411.48730127597656,1233.0628211004996) translate(-411.48730127597656,-1233.0628211004996)"><path fill="black" stroke="none" paint-order="stroke fill markers" d=" M 397.8746318593099 1226.2564863921664 L 411.48730127597656 1233.0628211004996 L 397.8746318593099 1239.8691558088328 Z"/></g></g><g><g><rect fill="white" stroke="none" x="128.84158302658201" y="1257.5656260504998" width="243.6477533728125" height="21.23576429"/></g><text fill="black" stroke="none" font-family="sans-serif" font-size="11pt" font-style="normal" font-weight="normal" text-decoration="normal" x="131.291863521582" y="1272.2673090204999" text-anchor="start" dominant-baseline="alphabetic">List&lt;Report&gt;: all valid reports filtered</text></g><g><path fill="none" stroke="black" paint-order="fill stroke markers" d=" M 411.48730127597656 1278.8013903404997 L 92.56615203333331 1278.8013903404997" stroke-miterlimit="10" stroke-width="1.3612669416666667" stroke-dasharray="6.53408132"/><g transform="translate(89.84361814999998,1278.8013903404997) translate(-89.84361814999998,-1278.8013903404997)"><path fill="black" stroke="none" paint-order="stroke fill markers" d=" M 103.45628756666665 1271.9950556321664 L 89.84361814999998 1278.8013903404997 L 103.45628756666665 1285.607725048833 Z"/></g></g><g><g><rect fill="white" stroke="none" x="1355.3326284813345" y="1371.9120491504998" width="132.0229212194922" height="21.23576429"/></g><text fill="black" stroke="none" font-family="sans-serif" font-size="11pt" font-style="normal" font-weight="normal" text-decoration="normal" x="1357.7829089763345" y="1386.6137321205" text-anchor="start" dominant-baseline="alphabetic">NoReportException</text></g><g><path fill="none" stroke="black" paint-order="fill stroke markers" d=" M 1609.008332325716 1393.1478134404997 L 1236.4023797397788 1393.1478134404997" stroke-miterlimit="10" stroke-width="1.3612669416666667" stroke-dasharray="6.53408132"/><g transform="translate(1233.6798458564454,1393.1478134404997) translate(-1233.6798458564454,-1393.1478134404997)"><path fill="black" stroke="none" paint-order="stroke fill markers" d=" M 1247.292515273112 1386.3414787321665 L 1233.6798458564454 1393.1478134404997 L 1247.292515273112 1399.954148148833 Z"/></g></g><g><g><rect fill="white" stroke="none" x="973.7083063878451" y="1417.6506183904999" width="132.0229212194922" height="21.23576429"/></g><text fill="black" stroke="none" font-family="sans-serif" font-size="11pt" font-style="normal" font-weight="normal" text-decoration="normal" x="976.1585868828452" y="1432.3523013605" text-anchor="start" dominant-baseline="alphabetic">NoReportException</text></g><g><path fill="none" stroke="black" paint-order="fill stroke markers" d=" M 1217.3446425564453 1438.8863826804998 L 864.8174253220703 1438.8863826804998" stroke-miterlimit="10" stroke-width="1.3612669416666667" stroke-dasharray="6.53408132"/><g transform="translate(862.094891438737,1438.8863826804998) translate(-862.094891438737,-1438.8863826804998)"><path fill="black" stroke="none" paint-order="stroke fill markers" d=" M 875.7075608554037 1432.0800479721665 L 862.094891438737 1438.8863826804998 L 875.7075608554037 1445.692717388833 Z"/></g></g><g><g><rect fill="white" stroke="none" x="683.0324172167187" y="1463.3891876305" width="122.22334541382813" height="21.23576429"/></g><text fill="black" stroke="none" font-family="sans-serif" font-size="11pt" font-style="normal" font-weight="normal" text-decoration="normal" x="685.4826977117187" y="1478.0908706005" text-anchor="start" dominant-baseline="alphabetic">XmlFile: response</text></g><g><path fill="none" stroke="black" paint-order="fill stroke markers" d=" M 845.7596881387369 1484.6249519204998 L 645.251025591862 1484.6249519204998" stroke-miterlimit="10" stroke-width="1.3612669416666667" stroke-dasharray="6.53408132"/><g transform="translate(642.5284917085287,1484.6249519204998) translate(-642.5284917085287,-1484.6249519204998)"><path fill="black" stroke="none" paint-order="stroke fill markers" d=" M 656.1411611251954 1477.8186172121666 L 642.5284917085287 1484.6249519204998 L 656.1411611251954 1491.431286628833 Z"/></g></g><g><g><rect fill="white" stroke="none" x="465.8962237853385" y="1509.1277568705" width="122.22334541382813" height="21.23576429"/></g><text fill="black" stroke="none" font-family="sans-serif" font-size="11pt" font-style="normal" font-weight="normal" text-decoration="normal" x="468.34650428033854" y="1523.8294398405" text-anchor="start" dominant-baseline="alphabetic">XmlFile: response</text></g><g><path fill="none" stroke="black" paint-order="fill stroke markers" d=" M 626.1932884085286 1530.3635211604999 L 430.54503845930986 1530.3635211604999" stroke-miterlimit="10" stroke-width="1.3612669416666667" stroke-dasharray="6.53408132"/><g transform="translate(427.82250457597655,1530.3635211604999) translate(-427.82250457597655,-1530.3635211604999)"><path fill="black" stroke="none" paint-order="stroke fill markers" d=" M 441.43517399264323 1523.5571864521667 L 427.82250457597655 1530.3635211604999 L 441.43517399264323 1537.169855868833 Z"/></g></g><g><g><rect fill="white" stroke="none" x="170.81363655441405" y="1554.8663261105" width="159.70364631714844" height="21.23576429"/></g><text fill="black" stroke="none" font-family="sans-serif" font-size="11pt" font-style="normal" font-weight="normal" text-decoration="normal" x="173.26391704941403" y="1569.5680090805001" text-anchor="start" dominant-baseline="alphabetic">NoReportErrorMessage</text></g><g><path fill="none" stroke="black" paint-order="fill stroke markers" d=" M 411.48730127597656 1576.1020904005 L 92.56615203333331 1576.1020904005" stroke-miterlimit="10" stroke-width="1.3612669416666667" stroke-dasharray="6.53408132"/><g transform="translate(89.84361814999998,1576.1020904005) translate(-89.84361814999998,-1576.1020904005)"><path fill="black" stroke="none" paint-order="stroke fill markers" d=" M 103.45628756666665 1569.2957556921667 L 89.84361814999998 1576.1020904005 L 103.45628756666665 1582.9084251088332 Z"/></g></g><g><g/><path fill="none" stroke="black" paint-order="fill stroke markers" d=" M 16.33520329999999 390.1663308205 L 1674.3491455257163 390.1663308205 L 1674.3491455257163 1303.3041952904996 L 16.33520329999999 1303.3041952904996 L 16.33520329999999 390.1663308205 Z" stroke-miterlimit="10" stroke-width="2.3336004714285714" stroke-dasharray=""/><path fill="white" stroke="black" paint-order="fill stroke markers" d=" M 16.33520329999999 390.1663308205 L 16.33520329999999 409.7685747805 L 62.6944068970703 409.7685747805 L 72.4955288770703 399.9674528005 L 72.4955288770703 390.1663308205 L 16.33520329999999 390.1663308205" stroke-miterlimit="10" stroke-width="2.3336004714285714" stroke-dasharray=""/><text fill="black" stroke="none" font-family="sans-serif" font-size="8.8pt" font-style="normal" font-weight="bold" text-decoration="normal" x="32.67040659999999" y="403.2344934605" text-anchor="start" dominant-baseline="alphabetic">alt</text><text fill="black" stroke="none" font-family="sans-serif" font-size="8.8pt" font-style="normal" font-weight="bold" text-decoration="normal" x="88.8307321770703" y="403.2344934605" text-anchor="start" dominant-baseline="alphabetic">[ExistsAtLeastOneReport]</text></g><g><g/><path fill="none" stroke="black" paint-order="fill stroke markers" d=" M 16.33520329999999 1327.8070002404997 L 1674.3491455257163 1327.8070002404997 L 1674.3491455257163 1600.6048953504999 L 16.33520329999999 1600.6048953504999 L 16.33520329999999 1327.8070002404997 Z" stroke-miterlimit="10" stroke-width="2.3336004714285714" stroke-dasharray=""/><path fill="white" stroke="black" paint-order="fill stroke markers" d=" M 16.33520329999999 1327.8070002404997 L 16.33520329999999 1347.4092442004996 L 62.6944068970703 1347.4092442004996 L 72.4955288770703 1337.6081222204998 L 72.4955288770703 1327.8070002404997 L 16.33520329999999 1327.8070002404997" stroke-miterlimit="10" stroke-width="2.3336004714285714" stroke-dasharray=""/><text fill="black" stroke="none" font-family="sans-serif" font-size="8.8pt" font-style="normal" font-weight="bold" text-decoration="normal" x="32.67040659999999" y="1340.8751628804996" text-anchor="start" dominant-baseline="alphabetic">alt</text><text fill="black" stroke="none" font-family="sans-serif" font-size="8.8pt" font-style="normal" font-weight="bold" text-decoration="normal" x="88.8307321770703" y="1340.8751628804996" text-anchor="start" dominant-baseline="alphabetic">[NotExistsAtLeastOneReport]</text></g></g><g/><g/><g/><g/><g/><g/><g/></g></svg>