<svg version="1.1" xmlns="http://www.w3.org/2000/svg" xmlns:xlink="http://www.w3.org/1999/xlink" width="1731" height="1726"><defs/><g><g/><g/><g/><g/><g/><g/><g/><g/><g/><g/><g/><g/><g/><g/><g/><g/><g/><g/><g/><g/><g/><g/><g/><g/><g/><g/><g/><g/><g/><g><rect fill="white" stroke="none" x="0" y="0" width="1731" height="1726"/></g><g><text fill="black" stroke="none" font-family="sans-serif" font-size="16.5pt" font-style="normal" font-weight="normal" text-decoration="normal" x="800.3466277566081" y="24.50280495" text-anchor="start" dominant-baseline="alphabetic">Mine Reports</text></g><g/><g><path fill="none" stroke="black" paint-order="fill stroke markers" d=" M 98.01121979999999 128.80307802049998 L 98.01121979999999 1726.3859607604998" stroke-miterlimit="10" stroke-width="1.3612669416666667" stroke-dasharray="12.565541,5.445067766666667"/><path fill="none" stroke="black" paint-order="fill stroke markers" d=" M 255.5002903580729 128.80307802049998 L 255.5002903580729 1726.3859607604998" stroke-miterlimit="10" stroke-width="1.3612669416666667" stroke-dasharray="12.565541,5.445067766666667"/><path fill="none" stroke="black" paint-order="fill stroke markers" d=" M 435.99010622597655 128.80307802049998 L 435.99010622597655 1726.3859607604998" stroke-miterlimit="10" stroke-width="1.3612669416666667" stroke-dasharray="12.565541,5.445067766666667"/><path fill="none" stroke="black" paint-order="fill stroke markers" d=" M 650.6960933585286 128.80307802049998 L 650.6960933585286 1726.3859607604998" stroke-miterlimit="10" stroke-width="1.3612669416666667" stroke-dasharray="12.565541,5.445067766666667"/><path fill="none" stroke="black" paint-order="fill stroke markers" d=" M 870.262493088737 128.80307802049998 L 870.262493088737 1726.3859607604998" stroke-miterlimit="10" stroke-width="1.3612669416666667" stroke-dasharray="12.565541,5.445067766666667"/><path fill="none" stroke="black" paint-order="fill stroke markers" d=" M 1241.8474475064454 128.80307802049998 L 1241.8474475064454 1726.3859607604998" stroke-miterlimit="10" stroke-width="1.3612669416666667" stroke-dasharray="12.565541,5.445067766666667"/><path fill="none" stroke="black" paint-order="fill stroke markers" d=" M 1633.5111372757162 128.80307802049998 L 1633.5111372757162 1726.3859607604998" stroke-miterlimit="10" stroke-width="1.3612669416666667" stroke-dasharray="12.565541,5.445067766666667"/></g><g><g><path fill="white" stroke="black" paint-order="fill stroke markers" d=" M 107.322285681 59.70516806150002 A 9.311065881 9.311065881 0 1 1 107.32228102546743 59.69585699717086 M 98.01121979999999 69.01623394250002 L 98.01121979999999 88.94518196850002 M 86.24987342399999 76.20372339450002 L 109.772566176 76.20372339450002 M 98.01121979999999 88.94518196850002 L 86.24987342399999 107.56731373050002 M 98.01121979999999 88.94518196850002 L 109.772566176 107.56731373050002" stroke-miterlimit="10" stroke-width="2.7769845610000004" stroke-dasharray=""/></g><g><g/><text fill="black" stroke="none" font-family="sans-serif" font-size="11pt" font-style="normal" font-weight="normal" text-decoration="normal" x="75.2016265993164" y="123.90251703050001" text-anchor="start" dominant-baseline="alphabetic">ME/LO</text></g><path fill="none" stroke="none"/><g><path fill="white" stroke="black" paint-order="fill stroke markers" d=" M 226.78160728977994 84.69802911050002 L 284.2189734263659 84.69802911050002 L 284.2189734263659 128.8030780205 L 226.78160728977994 128.8030780205 L 226.78160728977994 84.69802911050002 Z" stroke-miterlimit="10" stroke-width="2.613632528" stroke-dasharray=""/></g><g><g/><text fill="black" stroke="none" font-family="sans-serif" font-size="11pt" font-style="normal" font-weight="normal" text-decoration="normal" x="244.50530287027993" y="112.46787472049999" text-anchor="start" dominant-baseline="alphabetic">MS</text></g><path fill="none" stroke="none"/><g><path fill="white" stroke="black" paint-order="fill stroke markers" d=" M 390.2850339975273 84.69802911050002 L 481.6951784544258 84.69802911050002 L 481.6951784544258 128.8030780205 L 390.2850339975273 128.8030780205 L 390.2850339975273 84.69802911050002 Z" stroke-miterlimit="10" stroke-width="2.613632528" stroke-dasharray=""/></g><g><g/><text fill="black" stroke="none" font-family="sans-serif" font-size="11pt" font-style="normal" font-weight="normal" text-decoration="normal" x="408.0087295780273" y="112.46787472049999" text-anchor="start" dominant-baseline="alphabetic">WebApp</text></g><path fill="none" stroke="none"/><g><path fill="white" stroke="black" paint-order="fill stroke markers" d=" M 596.4441461300794 84.69802911050002 L 704.9480405869779 84.69802911050002 L 704.9480405869779 128.8030780205 L 596.4441461300794 128.8030780205 L 596.4441461300794 84.69802911050002 Z" stroke-miterlimit="10" stroke-width="2.613632528" stroke-dasharray=""/></g><g><g/><text fill="black" stroke="none" font-family="sans-serif" font-size="11pt" font-style="normal" font-weight="normal" text-decoration="normal" x="614.1678417105794" y="112.46787472049999" text-anchor="start" dominant-baseline="alphabetic">WebServer</text></g><path fill="none" stroke="none"/><g><path fill="white" stroke="black" paint-order="fill stroke markers" d=" M 830.5380879745455 84.69802911050002 L 909.9868982029284 84.69802911050002 L 909.9868982029284 128.8030780205 L 830.5380879745455 128.8030780205 L 830.5380879745455 84.69802911050002 Z" stroke-miterlimit="10" stroke-width="2.613632528" stroke-dasharray=""/></g><g><g/><text fill="black" stroke="none" font-family="sans-serif" font-size="11pt" font-style="normal" font-weight="normal" text-decoration="normal" x="848.2617835550456" y="112.46787472049999" text-anchor="start" dominant-baseline="alphabetic">Router</text></g><path fill="none" stroke="none"/><g><path fill="white" stroke="black" paint-order="fill stroke markers" d=" M 1183.7944901461603 84.69802911050002 L 1299.9004048667307 84.69802911050002 L 1299.9004048667307 128.8030780205 L 1183.7944901461603 128.8030780205 L 1183.7944901461603 84.69802911050002 Z" stroke-miterlimit="10" stroke-width="2.613632528" stroke-dasharray=""/></g><g><g/><text fill="black" stroke="none" font-family="sans-serif" font-size="11pt" font-style="normal" font-weight="normal" text-decoration="normal" x="1201.5181857266602" y="112.46787472049999" text-anchor="start" dominant-baseline="alphabetic">ReportMiner</text></g><path fill="none" stroke="none"/><g><path fill="white" stroke="black" paint-order="fill stroke markers" d=" M 1594.6099209432632 84.69802911050002 L 1672.4123536081695 84.69802911050002 L 1672.4123536081695 128.8030780205 L 1594.6099209432632 128.8030780205 L 1594.6099209432632 84.69802911050002 Z" stroke-miterlimit="10" stroke-width="2.613632528" stroke-dasharray=""/></g><g><g/><text fill="black" stroke="none" font-family="sans-serif" font-size="11pt" font-style="normal" font-weight="normal" text-decoration="normal" x="1612.333616523763" y="112.46787472049999" text-anchor="start" dominant-baseline="alphabetic">DBMS</text></g></g><g><path fill="white" stroke="black" paint-order="fill stroke markers" d=" M 89.84361815 136.97067967049998 L 106.17882144999999 136.97067967049998 L 106.17882144999999 1710.0507574604997 L 89.84361815 1710.0507574604997 L 89.84361815 136.97067967049998" stroke-miterlimit="10" stroke-width="1.3612669416666667" stroke-dasharray=""/><path fill="white" stroke="black" paint-order="fill stroke markers" d=" M 427.82250457597655 182.70924891049998 L 444.15770787597654 182.70924891049998 L 444.15770787597654 1322.9064392504997 L 427.82250457597655 1322.9064392504997 L 427.82250457597655 182.70924891049998" stroke-miterlimit="10" stroke-width="1.3612669416666667" stroke-dasharray=""/><path fill="white" stroke="black" paint-order="fill stroke markers" d=" M 642.5284917085286 228.44781815049998 L 658.8636950085287 228.44781815049998 L 658.8636950085287 1185.6907315304995 L 642.5284917085286 1185.6907315304995 L 642.5284917085286 228.44781815049998" stroke-miterlimit="10" stroke-width="1.3612669416666667" stroke-dasharray=""/><path fill="white" stroke="black" paint-order="fill stroke markers" d=" M 862.0948914387369 274.1863873905 L 878.430094738737 274.1863873905 L 878.430094738737 1139.9521622904995 L 862.0948914387369 1139.9521622904995 L 862.0948914387369 274.1863873905" stroke-miterlimit="10" stroke-width="1.3612669416666667" stroke-dasharray=""/><path fill="white" stroke="black" paint-order="fill stroke markers" d=" M 1233.6798458564454 319.9249566305 L 1250.0150491564455 319.9249566305 L 1250.0150491564455 1094.2135930504994 L 1233.6798458564454 1094.2135930504994 L 1233.6798458564454 319.9249566305" stroke-miterlimit="10" stroke-width="1.3612669416666667" stroke-dasharray=""/><path fill="white" stroke="black" paint-order="fill stroke markers" d=" M 1625.3435356257162 365.6635258705 L 1641.6787389257163 365.6635258705 L 1641.6787389257163 1048.4750238104994 L 1625.3435356257162 1048.4750238104994 L 1625.3435356257162 365.6635258705" stroke-miterlimit="10" stroke-width="1.3612669416666667" stroke-dasharray=""/><path fill="white" stroke="black" paint-order="fill stroke markers" d=" M 247.3326887080729 638.4614209804998 L 263.6678920080729 638.4614209804998 L 263.6678920080729 684.1999902204998 L 247.3326887080729 684.1999902204998 L 247.3326887080729 638.4614209804998" stroke-miterlimit="10" stroke-width="1.3612669416666667" stroke-dasharray=""/><path fill="white" stroke="black" paint-order="fill stroke markers" d=" M 247.3326887080729 1231.4293007704996 L 263.6678920080729 1231.4293007704996 L 263.6678920080729 1277.1678700104997 L 247.3326887080729 1277.1678700104997 L 247.3326887080729 1231.4293007704996" stroke-miterlimit="10" stroke-width="1.3612669416666667" stroke-dasharray=""/><path fill="white" stroke="black" paint-order="fill stroke markers" d=" M 427.82250457597655 1371.9120491504996 L 444.15770787597654 1371.9120491504996 L 444.15770787597654 1644.7099442605 L 427.82250457597655 1644.7099442605 L 427.82250457597655 1371.9120491504996" stroke-miterlimit="10" stroke-width="1.3612669416666667" stroke-dasharray=""/><path fill="white" stroke="black" paint-order="fill stroke markers" d=" M 642.5284917085286 1371.9120491504996 L 658.8636950085287 1371.9120491504996 L 658.8636950085287 1598.9713750204999 L 642.5284917085286 1598.9713750204999 L 642.5284917085286 1371.9120491504996" stroke-miterlimit="10" stroke-width="1.3612669416666667" stroke-dasharray=""/><path fill="white" stroke="black" paint-order="fill stroke markers" d=" M 862.0948914387369 1371.9120491504996 L 878.430094738737 1371.9120491504996 L 878.430094738737 1553.2328057804998 L 862.0948914387369 1553.2328057804998 L 862.0948914387369 1371.9120491504996" stroke-miterlimit="10" stroke-width="1.3612669416666667" stroke-dasharray=""/><path fill="white" stroke="black" paint-order="fill stroke markers" d=" M 1233.6798458564454 1371.9120491504996 L 1250.0150491564455 1371.9120491504996 L 1250.0150491564455 1507.4942365404997 L 1233.6798458564454 1507.4942365404997 L 1233.6798458564454 1371.9120491504996" stroke-miterlimit="10" stroke-width="1.3612669416666667" stroke-dasharray=""/><path fill="white" stroke="black" paint-order="fill stroke markers" d=" M 1625.3435356257162 1371.9120491504996 L 1641.6787389257163 1371.9120491504996 L 1641.6787389257163 1461.7556673004997 L 1625.3435356257162 1461.7556673004997 L 1625.3435356257162 1371.9120491504996" stroke-miterlimit="10" stroke-width="1.3612669416666667" stroke-dasharray=""/><g><g><rect fill="white" stroke="none" x="211.9949320785352" y="161.4734846205" width="110.01146186890625" height="21.23576429"/></g><text fill="black" stroke="none" font-family="sans-serif" font-size="11pt" font-style="normal" font-weight="normal" text-decoration="normal" x="214.44521257353517" y="176.17516759049997" text-anchor="start" dominant-baseline="alphabetic">getReportsByAll</text></g><g><path fill="none" stroke="black" paint-order="fill stroke markers" d=" M 106.17882144999999 182.70924891049998 L 425.09997069264324 182.70924891049998" stroke-miterlimit="10" stroke-width="1.3612669416666667" stroke-dasharray=""/><g transform="translate(427.82250457597655,182.70924891049998) translate(-427.82250457597655,-182.70924891049998)"><path fill="black" stroke="none" paint-order="stroke fill markers" d=" M 414.2098351593099 175.90291420216664 L 427.82250457597655 182.70924891049998 L 414.2098351593099 189.51558361883332 Z"/></g></g><g><g><rect fill="white" stroke="none" x="463.4876984476432" y="207.2120538605" width="159.71080268921875" height="21.23576429"/></g><text fill="black" stroke="none" font-family="sans-serif" font-size="11pt" font-style="normal" font-weight="normal" text-decoration="normal" x="465.9379789426432" y="221.91373683049997" text-anchor="start" dominant-baseline="alphabetic">handleRequest(xmlFile)</text></g><g><path fill="none" stroke="black" paint-order="fill stroke markers" d=" M 444.15770787597654 228.44781815049998 L 639.8059578251953 228.44781815049998" stroke-miterlimit="10" stroke-width="1.3612669416666667" stroke-dasharray=""/><g transform="translate(642.5284917085286,228.44781815049998) translate(-642.5284917085286,-228.44781815049998)"><path fill="black" stroke="none" paint-order="stroke fill markers" d=" M 628.9158222918619 221.64148344216665 L 642.5284917085286 228.44781815049998 L 628.9158222918619 235.25415285883332 Z"/></g></g><g><g><rect fill="white" stroke="none" x="678.1936855801953" y="252.9506231005" width="164.571215286875" height="21.23576429"/></g><text fill="black" stroke="none" font-family="sans-serif" font-size="11pt" font-style="normal" font-weight="normal" text-decoration="normal" x="680.6439660751953" y="267.6523060705" text-anchor="start" dominant-baseline="alphabetic">forwardRequest(xmlFile)</text></g><g><path fill="none" stroke="black" paint-order="fill stroke markers" d=" M 658.8636950085287 274.1863873905 L 859.3723575554036 274.1863873905" stroke-miterlimit="10" stroke-width="1.3612669416666667" stroke-dasharray=""/><g transform="translate(862.0948914387369,274.1863873905) translate(-862.0948914387369,-274.1863873905)"><path fill="black" stroke="none" paint-order="stroke fill markers" d=" M 848.4822220220702 267.38005268216665 L 862.0948914387369 274.1863873905 L 848.4822220220702 280.9927220988333 Z"/></g></g><g><g><rect fill="white" stroke="none" x="897.7600853104036" y="298.6891923405" width="316.589769974375" height="21.23576429"/></g><text fill="black" stroke="none" font-family="sans-serif" font-size="11pt" font-style="normal" font-weight="normal" text-decoration="normal" x="900.2103658054036" y="313.39087531049995" text-anchor="start" dominant-baseline="alphabetic">getReports(requestType=All,requestField,token)</text></g><g><path fill="none" stroke="black" paint-order="fill stroke markers" d=" M 878.430094738737 319.9249566305 L 1230.957311973112 319.9249566305" stroke-miterlimit="10" stroke-width="1.3612669416666667" stroke-dasharray=""/><g transform="translate(1233.6798458564454,319.9249566305) translate(-1233.6798458564454,-319.9249566305)"><path fill="black" stroke="none" paint-order="stroke fill markers" d=" M 1220.0671764397787 313.11862192216665 L 1233.6798458564454 319.9249566305 L 1220.0671764397787 326.73129133883333 Z"/></g></g><g><g><rect fill="white" stroke="none" x="1269.345039728112" y="344.4277615805" width="336.6685053259375" height="21.23576429"/></g><text fill="black" stroke="none" font-family="sans-serif" font-size="11pt" font-style="normal" font-weight="normal" text-decoration="normal" x="1271.795320223112" y="359.12944455049995" text-anchor="start" dominant-baseline="alphabetic">retrieveValidReports(requestType=All,requestField)</text></g><g><path fill="none" stroke="black" paint-order="fill stroke markers" d=" M 1250.0150491564455 365.6635258705 L 1622.6210017423828 365.6635258705" stroke-miterlimit="10" stroke-width="1.3612669416666667" stroke-dasharray=""/><g transform="translate(1625.3435356257162,365.6635258705) translate(-1625.3435356257162,-365.6635258705)"><path fill="black" stroke="none" paint-order="stroke fill markers" d=" M 1611.7308662090495 358.85719116216666 L 1625.3435356257162 365.6635258705 L 1611.7308662090495 372.46986057883333 Z"/></g></g><g><g><rect fill="white" stroke="none" x="1339.8926242618033" y="434.2713797305" width="195.5733362585547" height="21.23576429"/></g><text fill="black" stroke="none" font-family="sans-serif" font-size="11pt" font-style="normal" font-weight="normal" text-decoration="normal" x="1342.3429047568034" y="448.97306270049995" text-anchor="start" dominant-baseline="alphabetic">List&lt;Report&gt;: all valid reports</text></g><g><path fill="none" stroke="black" paint-order="fill stroke markers" d=" M 1625.3435356257162 455.5071440205 L 1252.7375830397789 455.5071440205" stroke-miterlimit="10" stroke-width="1.3612669416666667" stroke-dasharray="6.53408132"/><g transform="translate(1250.0150491564455,455.5071440205) translate(-1250.0150491564455,-455.5071440205)"><path fill="black" stroke="none" paint-order="stroke fill markers" d=" M 1263.6277185731121 448.70080931216665 L 1250.0150491564455 455.5071440205 L 1263.6277185731121 462.31347872883333 Z"/></g></g><g><g><rect fill="white" stroke="none" x="958.2683021683138" y="480.0099489705" width="195.5733362585547" height="21.23576429"/></g><text fill="black" stroke="none" font-family="sans-serif" font-size="11pt" font-style="normal" font-weight="normal" text-decoration="normal" x="960.7185826633138" y="494.71163194049996" text-anchor="start" dominant-baseline="alphabetic">List&lt;Report&gt;: all valid reports</text></g><g><path fill="none" stroke="black" paint-order="fill stroke markers" d=" M 1233.6798458564454 501.2457132605 L 881.1526286220703 501.2457132605" stroke-miterlimit="10" stroke-width="1.3612669416666667" stroke-dasharray="6.53408132"/><g transform="translate(878.430094738737,501.2457132605) translate(-878.430094738737,-501.2457132605)"><path fill="black" stroke="none" paint-order="stroke fill markers" d=" M 892.0427641554037 494.43937855216666 L 878.430094738737 501.2457132605 L 892.0427641554037 508.05204796883334 Z"/></g></g><g><g><rect fill="white" stroke="none" x="699.3676205167187" y="525.7485182104999" width="122.22334541382813" height="21.23576429"/></g><text fill="black" stroke="none" font-family="sans-serif" font-size="11pt" font-style="normal" font-weight="normal" text-decoration="normal" x="701.8179010117187" y="540.4502011804999" text-anchor="start" dominant-baseline="alphabetic">XmlFile: response</text></g><g><path fill="none" stroke="black" paint-order="fill stroke markers" d=" M 862.0948914387369 546.9842825005 L 661.586228891862 546.9842825005" stroke-miterlimit="10" stroke-width="1.3612669416666667" stroke-dasharray="6.53408132"/><g transform="translate(658.8636950085287,546.9842825005) translate(-658.8636950085287,-546.9842825005)"><path fill="black" stroke="none" paint-order="stroke fill markers" d=" M 672.4763644251954 540.1779477921666 L 658.8636950085287 546.9842825005 L 672.4763644251954 553.7906172088333 Z"/></g></g><g><g><rect fill="white" stroke="none" x="482.2314270853385" y="571.4870874504999" width="122.22334541382813" height="21.23576429"/></g><text fill="black" stroke="none" font-family="sans-serif" font-size="11pt" font-style="normal" font-weight="normal" text-decoration="normal" x="484.6817075803385" y="586.1887704204998" text-anchor="start" dominant-baseline="alphabetic">XmlFile: response</text></g><g><path fill="none" stroke="black" paint-order="fill stroke markers" d=" M 642.5284917085286 592.7228517404999 L 446.88024175930985 592.7228517404999" stroke-miterlimit="10" stroke-width="1.3612669416666667" stroke-dasharray="6.53408132"/><g transform="translate(444.15770787597654,592.7228517404999) translate(-444.15770787597654,-592.7228517404999)"><path fill="black" stroke="none" paint-order="stroke fill markers" d=" M 457.7703772926432 585.9165170321666 L 444.15770787597654 592.7228517404999 L 457.7703772926432 599.5291864488332 Z"/></g></g><g><g><rect fill="white" stroke="none" x="282.99788257973955" y="617.2256566904998" width="125.49463142457031" height="21.23576429"/></g><text fill="black" stroke="none" font-family="sans-serif" font-size="11pt" font-style="normal" font-weight="normal" text-decoration="normal" x="285.44816307473957" y="631.9273396604998" text-anchor="start" dominant-baseline="alphabetic">fetchMap(position)</text></g><g><path fill="none" stroke="black" paint-order="fill stroke markers" d=" M 427.82250457597655 638.4614209804998 L 266.3904258914062 638.4614209804998" stroke-miterlimit="10" stroke-width="1.3612669416666667" stroke-dasharray=""/><g transform="translate(263.6678920080729,638.4614209804998) translate(-263.6678920080729,-638.4614209804998)"><path fill="black" stroke="none" paint-order="stroke fill markers" d=" M 277.2805614247396 631.6550862721665 L 263.6678920080729 638.4614209804998 L 277.2805614247396 645.2677556888332 Z"/></g></g><g><g><rect fill="white" stroke="none" x="329.03579304116533" y="662.9642259304998" width="33.41881050171875" height="21.23576429"/></g><text fill="black" stroke="none" font-family="sans-serif" font-size="11pt" font-style="normal" font-weight="normal" text-decoration="normal" x="331.48607353616535" y="677.6659089004997" text-anchor="start" dominant-baseline="alphabetic">map</text></g><g><path fill="none" stroke="black" paint-order="fill stroke markers" d=" M 263.6678920080729 684.1999902204998 L 425.09997069264324 684.1999902204998" stroke-miterlimit="10" stroke-width="1.3612669416666667" stroke-dasharray="6.53408132"/><g transform="translate(427.82250457597655,684.1999902204998) translate(-427.82250457597655,-684.1999902204998)"><path fill="black" stroke="none" paint-order="stroke fill markers" d=" M 414.2098351593099 677.3936555121664 L 427.82250457597655 684.1999902204998 L 414.2098351593099 691.0063249288331 Z"/></g></g><g><g><rect fill="white" stroke="none" x="169.21399488371097" y="708.7027951704997" width="195.5733362585547" height="21.23576429"/></g><text fill="black" stroke="none" font-family="sans-serif" font-size="11pt" font-style="normal" font-weight="normal" text-decoration="normal" x="171.66427537871095" y="723.4044781404997" text-anchor="start" dominant-baseline="alphabetic">List&lt;Report&gt;: all valid reports</text></g><g><path fill="none" stroke="black" paint-order="fill stroke markers" d=" M 427.82250457597655 729.9385594604997 L 108.90135533333333 729.9385594604997" stroke-miterlimit="10" stroke-width="1.3612669416666667" stroke-dasharray="6.53408132"/><g transform="translate(106.17882144999999,729.9385594604997) translate(-106.17882144999999,-729.9385594604997)"><path fill="black" stroke="none" paint-order="stroke fill markers" d=" M 119.79149086666665 723.1322247521664 L 106.17882144999999 729.9385594604997 L 119.79149086666665 736.7448941688331 Z"/></g></g><g><g><rect fill="white" stroke="none" x="217.28841199796878" y="798.5464133204996" width="99.42450203003906" height="21.23576429"/></g><text fill="black" stroke="none" font-family="sans-serif" font-size="11pt" font-style="normal" font-weight="normal" text-decoration="normal" x="219.73869249296877" y="813.2480962904996" text-anchor="start" dominant-baseline="alphabetic">getReportsBy*</text></g><g><path fill="none" stroke="black" paint-order="fill stroke markers" d=" M 106.17882144999999 819.7821776104996 L 425.09997069264324 819.7821776104996" stroke-miterlimit="10" stroke-width="1.3612669416666667" stroke-dasharray=""/><g transform="translate(427.82250457597655,819.7821776104996) translate(-427.82250457597655,-819.7821776104996)"><path fill="black" stroke="none" paint-order="stroke fill markers" d=" M 414.2098351593099 812.9758429021663 L 427.82250457597655 819.7821776104996 L 414.2098351593099 826.588512318833 Z"/></g></g><g><g><rect fill="white" stroke="none" x="463.4876984476432" y="844.2849825604995" width="159.71080268921875" height="21.23576429"/></g><text fill="black" stroke="none" font-family="sans-serif" font-size="11pt" font-style="normal" font-weight="normal" text-decoration="normal" x="465.9379789426432" y="858.9866655304995" text-anchor="start" dominant-baseline="alphabetic">handleRequest(xmlFile)</text></g><g><path fill="none" stroke="black" paint-order="fill stroke markers" d=" M 444.15770787597654 865.5207468504996 L 639.8059578251953 865.5207468504996" stroke-miterlimit="10" stroke-width="1.3612669416666667" stroke-dasharray=""/><g transform="translate(642.5284917085286,865.5207468504996) translate(-642.5284917085286,-865.5207468504996)"><path fill="black" stroke="none" paint-order="stroke fill markers" d=" M 628.9158222918619 858.7144121421662 L 642.5284917085286 865.5207468504996 L 628.9158222918619 872.3270815588329 Z"/></g></g><g><g><rect fill="white" stroke="none" x="678.1936855801953" y="890.0235518004995" width="164.571215286875" height="21.23576429"/></g><text fill="black" stroke="none" font-family="sans-serif" font-size="11pt" font-style="normal" font-weight="normal" text-decoration="normal" x="680.6439660751953" y="904.7252347704995" text-anchor="start" dominant-baseline="alphabetic">forwardRequest(xmlFile)</text></g><g><path fill="none" stroke="black" paint-order="fill stroke markers" d=" M 658.8636950085287 911.2593160904995 L 859.3723575554036 911.2593160904995" stroke-miterlimit="10" stroke-width="1.3612669416666667" stroke-dasharray=""/><g transform="translate(862.0948914387369,911.2593160904995) translate(-862.0948914387369,-911.2593160904995)"><path fill="black" stroke="none" paint-order="stroke fill markers" d=" M 848.4822220220702 904.4529813821662 L 862.0948914387369 911.2593160904995 L 848.4822220220702 918.0656507988328 Z"/></g></g><g><g><rect fill="white" stroke="none" x="910.186690535013" y="935.7621210404994" width="291.7365595251562" height="21.23576429"/></g><text fill="black" stroke="none" font-family="sans-serif" font-size="11pt" font-style="normal" font-weight="normal" text-decoration="normal" x="912.636971030013" y="950.4638040104994" text-anchor="start" dominant-baseline="alphabetic">getReports(requestType,requestField,token)</text></g><g><path fill="none" stroke="black" paint-order="fill stroke markers" d=" M 878.430094738737 956.9978853304995 L 1230.957311973112 956.9978853304995" stroke-miterlimit="10" stroke-width="1.3612669416666667" stroke-dasharray=""/><g transform="translate(1233.6798458564454,956.9978853304995) translate(-1233.6798458564454,-956.9978853304995)"><path fill="black" stroke="none" paint-order="stroke fill markers" d=" M 1220.0671764397787 950.1915506221661 L 1233.6798458564454 956.9978853304995 L 1220.0671764397787 963.8042200388328 Z"/></g></g><g><g><rect fill="white" stroke="none" x="1281.7716754702994" y="981.5006902804994" width="311.8152338415625" height="21.23576429"/></g><text fill="black" stroke="none" font-family="sans-serif" font-size="11pt" font-style="normal" font-weight="normal" text-decoration="normal" x="1284.2219559652995" y="996.2023732504994" text-anchor="start" dominant-baseline="alphabetic">retrieveValidReports(requestType,requestField)</text></g><g><path fill="none" stroke="black" paint-order="fill stroke markers" d=" M 1250.0150491564455 1002.7364545704994 L 1622.6210017423828 1002.7364545704994" stroke-miterlimit="10" stroke-width="1.3612669416666667" stroke-dasharray=""/><g transform="translate(1625.3435356257162,1002.7364545704994) translate(-1625.3435356257162,-1002.7364545704994)"><path fill="black" stroke="none" paint-order="stroke fill markers" d=" M 1611.7308662090495 995.9301198621661 L 1625.3435356257162 1002.7364545704994 L 1611.7308662090495 1009.5427892788327 Z"/></g></g><g><g><rect fill="white" stroke="none" x="1315.8554157046744" y="1027.2392595204994" width="243.6477533728125" height="21.23576429"/></g><text fill="black" stroke="none" font-family="sans-serif" font-size="11pt" font-style="normal" font-weight="normal" text-decoration="normal" x="1318.3056961996745" y="1041.9409424904995" text-anchor="start" dominant-baseline="alphabetic">List&lt;Report&gt;: all valid reports filtered</text></g><g><path fill="none" stroke="black" paint-order="fill stroke markers" d=" M 1625.3435356257162 1048.4750238104994 L 1252.7375830397789 1048.4750238104994" stroke-miterlimit="10" stroke-width="1.3612669416666667" stroke-dasharray="6.53408132"/><g transform="translate(1250.0150491564455,1048.4750238104994) translate(-1250.0150491564455,-1048.4750238104994)"><path fill="black" stroke="none" paint-order="stroke fill markers" d=" M 1263.6277185731121 1041.6686891021661 L 1250.0150491564455 1048.4750238104994 L 1263.6277185731121 1055.2813585188326 Z"/></g></g><g><g><rect fill="white" stroke="none" x="934.2310936111849" y="1072.9778287604995" width="243.6477533728125" height="21.23576429"/></g><text fill="black" stroke="none" font-family="sans-serif" font-size="11pt" font-style="normal" font-weight="normal" text-decoration="normal" x="936.6813741061849" y="1087.6795117304996" text-anchor="start" dominant-baseline="alphabetic">List&lt;Report&gt;: all valid reports filtered</text></g><g><path fill="none" stroke="black" paint-order="fill stroke markers" d=" M 1233.6798458564454 1094.2135930504994 L 881.1526286220703 1094.2135930504994" stroke-miterlimit="10" stroke-width="1.3612669416666667" stroke-dasharray="6.53408132"/><g transform="translate(878.430094738737,1094.2135930504994) translate(-878.430094738737,-1094.2135930504994)"><path fill="black" stroke="none" paint-order="stroke fill markers" d=" M 892.0427641554037 1087.4072583421662 L 878.430094738737 1094.2135930504994 L 892.0427641554037 1101.0199277588326 Z"/></g></g><g><g><rect fill="white" stroke="none" x="699.3676205167187" y="1118.7163980004996" width="122.22334541382813" height="21.23576429"/></g><text fill="black" stroke="none" font-family="sans-serif" font-size="11pt" font-style="normal" font-weight="normal" text-decoration="normal" x="701.8179010117187" y="1133.4180809704997" text-anchor="start" dominant-baseline="alphabetic">XmlFile: response</text></g><g><path fill="none" stroke="black" paint-order="fill stroke markers" d=" M 862.0948914387369 1139.9521622904995 L 661.586228891862 1139.9521622904995" stroke-miterlimit="10" stroke-width="1.3612669416666667" stroke-dasharray="6.53408132"/><g transform="translate(658.8636950085287,1139.9521622904995) translate(-658.8636950085287,-1139.9521622904995)"><path fill="black" stroke="none" paint-order="stroke fill markers" d=" M 672.4763644251954 1133.1458275821662 L 658.8636950085287 1139.9521622904995 L 672.4763644251954 1146.7584969988327 Z"/></g></g><g><g><rect fill="white" stroke="none" x="482.2314270853385" y="1164.4549672404996" width="122.22334541382813" height="21.23576429"/></g><text fill="black" stroke="none" font-family="sans-serif" font-size="11pt" font-style="normal" font-weight="normal" text-decoration="normal" x="484.6817075803385" y="1179.1566502104997" text-anchor="start" dominant-baseline="alphabetic">XmlFile: response</text></g><g><path fill="none" stroke="black" paint-order="fill stroke markers" d=" M 642.5284917085286 1185.6907315304995 L 446.88024175930985 1185.6907315304995" stroke-miterlimit="10" stroke-width="1.3612669416666667" stroke-dasharray="6.53408132"/><g transform="translate(444.15770787597654,1185.6907315304995) translate(-444.15770787597654,-1185.6907315304995)"><path fill="black" stroke="none" paint-order="stroke fill markers" d=" M 457.7703772926432 1178.8843968221663 L 444.15770787597654 1185.6907315304995 L 457.7703772926432 1192.4970662388328 Z"/></g></g><g><g><rect fill="white" stroke="none" x="282.99788257973955" y="1210.1935364804997" width="125.49463142457031" height="21.23576429"/></g><text fill="black" stroke="none" font-family="sans-serif" font-size="11pt" font-style="normal" font-weight="normal" text-decoration="normal" x="285.44816307473957" y="1224.8952194504998" text-anchor="start" dominant-baseline="alphabetic">fetchMap(position)</text></g><g><path fill="none" stroke="black" paint-order="fill stroke markers" d=" M 427.82250457597655 1231.4293007704996 L 266.3904258914062 1231.4293007704996" stroke-miterlimit="10" stroke-width="1.3612669416666667" stroke-dasharray=""/><g transform="translate(263.6678920080729,1231.4293007704996) translate(-263.6678920080729,-1231.4293007704996)"><path fill="black" stroke="none" paint-order="stroke fill markers" d=" M 277.2805614247396 1224.6229660621664 L 263.6678920080729 1231.4293007704996 L 277.2805614247396 1238.2356354788328 Z"/></g></g><g><g><rect fill="white" stroke="none" x="329.03579304116533" y="1255.9321057204997" width="33.41881050171875" height="21.23576429"/></g><text fill="black" stroke="none" font-family="sans-serif" font-size="11pt" font-style="normal" font-weight="normal" text-decoration="normal" x="331.48607353616535" y="1270.6337886904998" text-anchor="start" dominant-baseline="alphabetic">map</text></g><g><path fill="none" stroke="black" paint-order="fill stroke markers" d=" M 263.6678920080729 1277.1678700104997 L 425.09997069264324 1277.1678700104997" stroke-miterlimit="10" stroke-width="1.3612669416666667" stroke-dasharray="6.53408132"/><g transform="translate(427.82250457597655,1277.1678700104997) translate(-427.82250457597655,-1277.1678700104997)"><path fill="black" stroke="none" paint-order="stroke fill markers" d=" M 414.2098351593099 1270.3615353021664 L 427.82250457597655 1277.1678700104997 L 414.2098351593099 1283.9742047188329 Z"/></g></g><g><g><rect fill="white" stroke="none" x="145.17678632658206" y="1301.6706749604998" width="243.6477533728125" height="21.23576429"/></g><text fill="black" stroke="none" font-family="sans-serif" font-size="11pt" font-style="normal" font-weight="normal" text-decoration="normal" x="147.62706682158205" y="1316.3723579305" text-anchor="start" dominant-baseline="alphabetic">List&lt;Report&gt;: all valid reports filtered</text></g><g><path fill="none" stroke="black" paint-order="fill stroke markers" d=" M 427.82250457597655 1322.9064392504997 L 108.90135533333333 1322.9064392504997" stroke-miterlimit="10" stroke-width="1.3612669416666667" stroke-dasharray="6.53408132"/><g transform="translate(106.17882144999999,1322.9064392504997) translate(-106.17882144999999,-1322.9064392504997)"><path fill="black" stroke="none" paint-order="stroke fill markers" d=" M 119.79149086666665 1316.1001045421665 L 106.17882144999999 1322.9064392504997 L 119.79149086666665 1329.712773958833 Z"/></g></g><g><g><rect fill="white" stroke="none" x="1371.6678317813346" y="1440.5199030104998" width="132.0229212194922" height="21.23576429"/></g><text fill="black" stroke="none" font-family="sans-serif" font-size="11pt" font-style="normal" font-weight="normal" text-decoration="normal" x="1374.1181122763346" y="1455.2215859804999" text-anchor="start" dominant-baseline="alphabetic">NoReportException</text></g><g><path fill="none" stroke="black" paint-order="fill stroke markers" d=" M 1625.3435356257162 1461.7556673004997 L 1252.7375830397789 1461.7556673004997" stroke-miterlimit="10" stroke-width="1.3612669416666667" stroke-dasharray="6.53408132"/><g transform="translate(1250.0150491564455,1461.7556673004997) translate(-1250.0150491564455,-1461.7556673004997)"><path fill="black" stroke="none" paint-order="stroke fill markers" d=" M 1263.6277185731121 1454.9493325921665 L 1250.0150491564455 1461.7556673004997 L 1263.6277185731121 1468.562002008833 Z"/></g></g><g><g><rect fill="white" stroke="none" x="990.043509687845" y="1486.2584722504998" width="132.0229212194922" height="21.23576429"/></g><text fill="black" stroke="none" font-family="sans-serif" font-size="11pt" font-style="normal" font-weight="normal" text-decoration="normal" x="992.493790182845" y="1500.9601552205" text-anchor="start" dominant-baseline="alphabetic">NoReportException</text></g><g><path fill="none" stroke="black" paint-order="fill stroke markers" d=" M 1233.6798458564454 1507.4942365404997 L 881.1526286220703 1507.4942365404997" stroke-miterlimit="10" stroke-width="1.3612669416666667" stroke-dasharray="6.53408132"/><g transform="translate(878.430094738737,1507.4942365404997) translate(-878.430094738737,-1507.4942365404997)"><path fill="black" stroke="none" paint-order="stroke fill markers" d=" M 892.0427641554037 1500.6879018321665 L 878.430094738737 1507.4942365404997 L 892.0427641554037 1514.300571248833 Z"/></g></g><g><g><rect fill="white" stroke="none" x="699.3676205167187" y="1531.9970414905" width="122.22334541382813" height="21.23576429"/></g><text fill="black" stroke="none" font-family="sans-serif" font-size="11pt" font-style="normal" font-weight="normal" text-decoration="normal" x="701.8179010117187" y="1546.6987244605" text-anchor="start" dominant-baseline="alphabetic">XmlFile: response</text></g><g><path fill="none" stroke="black" paint-order="fill stroke markers" d=" M 862.0948914387369 1553.2328057804998 L 661.586228891862 1553.2328057804998" stroke-miterlimit="10" stroke-width="1.3612669416666667" stroke-dasharray="6.53408132"/><g transform="translate(658.8636950085287,1553.2328057804998) translate(-658.8636950085287,-1553.2328057804998)"><path fill="black" stroke="none" paint-order="stroke fill markers" d=" M 672.4763644251954 1546.4264710721666 L 658.8636950085287 1553.2328057804998 L 672.4763644251954 1560.039140488833 Z"/></g></g><g><g><rect fill="white" stroke="none" x="482.2314270853385" y="1577.7356107305" width="122.22334541382813" height="21.23576429"/></g><text fill="black" stroke="none" font-family="sans-serif" font-size="11pt" font-style="normal" font-weight="normal" text-decoration="normal" x="484.6817075803385" y="1592.4372937005" text-anchor="start" dominant-baseline="alphabetic">XmlFile: response</text></g><g><path fill="none" stroke="black" paint-order="fill stroke markers" d=" M 642.5284917085286 1598.9713750204999 L 446.88024175930985 1598.9713750204999" stroke-miterlimit="10" stroke-width="1.3612669416666667" stroke-dasharray="6.53408132"/><g transform="translate(444.15770787597654,1598.9713750204999) translate(-444.15770787597654,-1598.9713750204999)"><path fill="black" stroke="none" paint-order="stroke fill markers" d=" M 457.7703772926432 1592.1650403121666 L 444.15770787597654 1598.9713750204999 L 457.7703772926432 1605.777709728833 Z"/></g></g><g><g><rect fill="white" stroke="none" x="187.1488398544141" y="1623.4741799705" width="159.70364631714844" height="21.23576429"/></g><text fill="black" stroke="none" font-family="sans-serif" font-size="11pt" font-style="normal" font-weight="normal" text-decoration="normal" x="189.59912034941408" y="1638.1758629405" text-anchor="start" dominant-baseline="alphabetic">NoReportErrorMessage</text></g><g><path fill="none" stroke="black" paint-order="fill stroke markers" d=" M 427.82250457597655 1644.7099442605 L 108.90135533333333 1644.7099442605" stroke-miterlimit="10" stroke-width="1.3612669416666667" stroke-dasharray="6.53408132"/><g transform="translate(106.17882144999999,1644.7099442605) translate(-106.17882144999999,-1644.7099442605)"><path fill="black" stroke="none" paint-order="stroke fill markers" d=" M 119.79149086666665 1637.9036095521667 L 106.17882144999999 1644.7099442605 L 119.79149086666665 1651.5162789688331 Z"/></g></g><g><g/><path fill="none" stroke="black" paint-order="fill stroke markers" d=" M 16.335203299999996 390.1663308205 L 1707.0195521257162 390.1663308205 L 1707.0195521257162 1371.9120491504996 L 16.335203299999996 1371.9120491504996 L 16.335203299999996 390.1663308205 Z" stroke-miterlimit="10" stroke-width="2.3336004714285714" stroke-dasharray=""/><path fill="white" stroke="black" paint-order="fill stroke markers" d=" M 16.335203299999996 390.1663308205 L 16.335203299999996 409.7685747805 L 62.69440689707031 409.7685747805 L 72.49552887707031 399.9674528005 L 72.49552887707031 390.1663308205 L 16.335203299999996 390.1663308205" stroke-miterlimit="10" stroke-width="2.3336004714285714" stroke-dasharray=""/><text fill="black" stroke="none" font-family="sans-serif" font-size="8.8pt" font-style="normal" font-weight="bold" text-decoration="normal" x="32.67040659999999" y="403.2344934605" text-anchor="start" dominant-baseline="alphabetic">alt</text><text fill="black" stroke="none" font-family="sans-serif" font-size="8.8pt" font-style="normal" font-weight="bold" text-decoration="normal" x="88.83073217707032" y="403.2344934605" text-anchor="start" dominant-baseline="alphabetic">[ExistsAtLeastOneReport]</text></g><g><g/><path fill="none" stroke="black" paint-order="fill stroke markers" d=" M 32.67040659999999 754.4413644104997 L 1690.6843488257161 754.4413644104997 L 1690.6843488257161 1347.4092442004996 L 32.67040659999999 1347.4092442004996 L 32.67040659999999 754.4413644104997 Z" stroke-miterlimit="10" stroke-width="2.3336004714285714" stroke-dasharray=""/><path fill="white" stroke="black" paint-order="fill stroke markers" d=" M 32.67040659999999 754.4413644104997 L 32.67040659999999 774.0436083704997 L 79.0296101970703 774.0436083704997 L 88.8307321770703 764.2424863904996 L 88.8307321770703 754.4413644104997 L 32.67040659999999 754.4413644104997" stroke-miterlimit="10" stroke-width="2.3336004714285714" stroke-dasharray=""/><text fill="black" stroke="none" font-family="sans-serif" font-size="8.8pt" font-style="normal" font-weight="bold" text-decoration="normal" x="49.005609899999996" y="767.5095270504996" text-anchor="start" dominant-baseline="alphabetic">alt</text><text fill="black" stroke="none" font-family="sans-serif" font-size="8.8pt" font-style="normal" font-weight="bold" text-decoration="normal" x="105.1659354770703" y="767.5095270504996" text-anchor="start" dominant-baseline="alphabetic">[ME/LOWantsToApplyAFilterToTheSearch]</text></g><g><g/><path fill="none" stroke="black" paint-order="fill stroke markers" d=" M 32.67040659999999 1396.4148541004997 L 1690.6843488257161 1396.4148541004997 L 1690.6843488257161 1669.2127492104999 L 32.67040659999999 1669.2127492104999 L 32.67040659999999 1396.4148541004997 Z" stroke-miterlimit="10" stroke-width="2.3336004714285714" stroke-dasharray=""/><path fill="white" stroke="black" paint-order="fill stroke markers" d=" M 32.67040659999999 1396.4148541004997 L 32.67040659999999 1416.0170980604996 L 79.0296101970703 1416.0170980604996 L 88.8307321770703 1406.2159760804998 L 88.8307321770703 1396.4148541004997 L 32.67040659999999 1396.4148541004997" stroke-miterlimit="10" stroke-width="2.3336004714285714" stroke-dasharray=""/><text fill="black" stroke="none" font-family="sans-serif" font-size="8.8pt" font-style="normal" font-weight="bold" text-decoration="normal" x="49.005609899999996" y="1409.4830167404996" text-anchor="start" dominant-baseline="alphabetic">alt</text><text fill="black" stroke="none" font-family="sans-serif" font-size="8.8pt" font-style="normal" font-weight="bold" text-decoration="normal" x="105.1659354770703" y="1409.4830167404996" text-anchor="start" dominant-baseline="alphabetic">[NotExistsAtLeastOneReport]</text></g></g><g/><g/><g/><g/><g/><g/><g/></g></svg>