<svg version="1.1" xmlns="http://www.w3.org/2000/svg" xmlns:xlink="http://www.w3.org/1999/xlink" width="1927" height="2206"><defs/><g><g/><g/><g/><g/><g/><g/><g/><g/><g/><g/><g/><g/><g/><g/><g/><g/><g/><g/><g/><g/><g/><g/><g/><g/><g/><g/><g/><g/><g/><g/><g/><g><rect fill="white" stroke="none" x="0" y="0" width="1927" height="2206"/></g><g><text fill="black" stroke="none" font-family="sans-serif" font-size="16.5pt" font-style="normal" font-weight="normal" text-decoration="normal" x="883.3598469025064" y="24.50280495" text-anchor="start" dominant-baseline="alphabetic">Validate Reports</text></g><g/><g><path fill="none" stroke="black" paint-order="fill stroke markers" d=" M 130.6816264 128.80307802049998 L 130.6816264 2206.6409377805" stroke-miterlimit="10" stroke-width="1.3612669416666667" stroke-dasharray="12.565541,5.445067766666667"/><path fill="none" stroke="black" paint-order="fill stroke markers" d=" M 324.10169315768223 128.80307802049998 L 324.10169315768223 2206.6409377805" stroke-miterlimit="10" stroke-width="1.3612669416666667" stroke-dasharray="12.565541,5.445067766666667"/><path fill="none" stroke="black" paint-order="fill stroke markers" d=" M 504.5915090255859 128.80307802049998 L 504.5915090255859 2206.6409377805" stroke-miterlimit="10" stroke-width="1.3612669416666667" stroke-dasharray="12.565541,5.445067766666667"/><path fill="none" stroke="black" paint-order="fill stroke markers" d=" M 719.297496158138 128.80307802049998 L 719.297496158138 2206.6409377805" stroke-miterlimit="10" stroke-width="1.3612669416666667" stroke-dasharray="12.565541,5.445067766666667"/><path fill="none" stroke="black" paint-order="fill stroke markers" d=" M 938.8638958883463 128.80307802049998 L 938.8638958883463 2206.6409377805" stroke-miterlimit="10" stroke-width="1.3612669416666667" stroke-dasharray="12.565541,5.445067766666667"/><path fill="none" stroke="black" paint-order="fill stroke markers" d=" M 1374.3786598763672 128.80307802049998 L 1374.3786598763672 2206.6409377805" stroke-miterlimit="10" stroke-width="1.3612669416666667" stroke-dasharray="12.565541,5.445067766666667"/><path fill="none" stroke="black" paint-order="fill stroke markers" d=" M 1707.209097692513 128.80307802049998 L 1707.209097692513 2206.6409377805" stroke-miterlimit="10" stroke-width="1.3612669416666667" stroke-dasharray="12.565541,5.445067766666667"/><path fill="none" stroke="black" paint-order="fill stroke markers" d=" M 1797.052715842513 128.80307802049998 L 1797.052715842513 2206.6409377805" stroke-miterlimit="10" stroke-width="1.3612669416666667" stroke-dasharray="12.565541,5.445067766666667"/></g><g><g><path fill="white" stroke="black" paint-order="fill stroke markers" d=" M 139.992692281 59.70516806150002 A 9.311065881 9.311065881 0 1 1 139.99268762546745 59.69585699717086 M 130.6816264 69.01623394250002 L 130.6816264 88.94518196850002 M 118.920280024 76.20372339450002 L 142.442972776 76.20372339450002 M 130.6816264 88.94518196850002 L 118.920280024 107.56731373050002 M 130.6816264 88.94518196850002 L 142.442972776 107.56731373050002" stroke-miterlimit="10" stroke-width="2.7769845610000004" stroke-dasharray=""/></g><g><g/><text fill="black" stroke="none" font-family="sans-serif" font-size="11pt" font-style="normal" font-weight="normal" text-decoration="normal" x="120.9035273399414" y="123.90251703050001" text-anchor="start" dominant-baseline="alphabetic">LO</text></g><path fill="none" stroke="none"/><g><path fill="white" stroke="black" paint-order="fill stroke markers" d=" M 295.38301008938924 84.69802911050002 L 352.82037622597517 84.69802911050002 L 352.82037622597517 128.8030780205 L 295.38301008938924 128.8030780205 L 295.38301008938924 84.69802911050002 Z" stroke-miterlimit="10" stroke-width="2.613632528" stroke-dasharray=""/></g><g><g/><text fill="black" stroke="none" font-family="sans-serif" font-size="11pt" font-style="normal" font-weight="normal" text-decoration="normal" x="313.10670566988927" y="112.46787472049999" text-anchor="start" dominant-baseline="alphabetic">MS</text></g><path fill="none" stroke="none"/><g><path fill="white" stroke="black" paint-order="fill stroke markers" d=" M 458.88643679713664 84.69802911050002 L 550.2965812540351 84.69802911050002 L 550.2965812540351 128.8030780205 L 458.88643679713664 128.8030780205 L 458.88643679713664 84.69802911050002 Z" stroke-miterlimit="10" stroke-width="2.613632528" stroke-dasharray=""/></g><g><g/><text fill="black" stroke="none" font-family="sans-serif" font-size="11pt" font-style="normal" font-weight="normal" text-decoration="normal" x="476.61013237763666" y="112.46787472049999" text-anchor="start" dominant-baseline="alphabetic">WebApp</text></g><path fill="none" stroke="none"/><g><path fill="white" stroke="black" paint-order="fill stroke markers" d=" M 665.0455489296887 84.69802911050002 L 773.5494433865872 84.69802911050002 L 773.5494433865872 128.8030780205 L 665.0455489296887 128.8030780205 L 665.0455489296887 84.69802911050002 Z" stroke-miterlimit="10" stroke-width="2.613632528" stroke-dasharray=""/></g><g><g/><text fill="black" stroke="none" font-family="sans-serif" font-size="11pt" font-style="normal" font-weight="normal" text-decoration="normal" x="682.7692445101887" y="112.46787472049999" text-anchor="start" dominant-baseline="alphabetic">WebServer</text></g><path fill="none" stroke="none"/><g><path fill="white" stroke="black" paint-order="fill stroke markers" d=" M 899.1394907741549 84.69802911050002 L 978.5883010025377 84.69802911050002 L 978.5883010025377 128.8030780205 L 899.1394907741549 128.8030780205 L 899.1394907741549 84.69802911050002 Z" stroke-miterlimit="10" stroke-width="2.613632528" stroke-dasharray=""/></g><g><g/><text fill="black" stroke="none" font-family="sans-serif" font-size="11pt" font-style="normal" font-weight="normal" text-decoration="normal" x="916.8631863546549" y="112.46787472049999" text-anchor="start" dominant-baseline="alphabetic">Router</text></g><path fill="none" stroke="none"/><g><path fill="white" stroke="black" paint-order="fill stroke markers" d=" M 1306.2684515395197 84.69802911050002 L 1442.488868213215 84.69802911050002 L 1442.488868213215 128.8030780205 L 1306.2684515395197 128.8030780205 L 1306.2684515395197 84.69802911050002 Z" stroke-miterlimit="10" stroke-width="2.613632528" stroke-dasharray=""/></g><g><g/><text fill="black" stroke="none" font-family="sans-serif" font-size="11pt" font-style="normal" font-weight="normal" text-decoration="normal" x="1323.9921471200196" y="112.46787472049999" text-anchor="start" dominant-baseline="alphabetic">ReportValidator</text></g><path fill="none" stroke="none"/><g><path fill="white" stroke="black" paint-order="fill stroke markers" d=" M 1668.30788136006 84.69802911050002 L 1746.1103140249663 84.69802911050002 L 1746.1103140249663 128.8030780205 L 1668.30788136006 128.8030780205 L 1668.30788136006 84.69802911050002 Z" stroke-miterlimit="10" stroke-width="2.613632528" stroke-dasharray=""/></g><g><g/><text fill="black" stroke="none" font-family="sans-serif" font-size="11pt" font-style="normal" font-weight="normal" text-decoration="normal" x="1686.03157694056" y="112.46787472049999" text-anchor="start" dominant-baseline="alphabetic">DBMS</text></g><path fill="none" stroke="none"/><g><path fill="white" stroke="black" paint-order="fill stroke markers" d=" M 1769.9625194075209 84.69802911050002 L 1824.1429122775053 84.69802911050002 L 1824.1429122775053 128.8030780205 L 1769.9625194075209 128.8030780205 L 1769.9625194075209 84.69802911050002 Z" stroke-miterlimit="10" stroke-width="2.613632528" stroke-dasharray=""/></g><g><g/><text fill="black" stroke="none" font-family="sans-serif" font-size="11pt" font-style="normal" font-weight="normal" text-decoration="normal" x="1787.6862149880208" y="112.46787472049999" text-anchor="start" dominant-baseline="alphabetic">TS</text></g></g><g><path fill="white" stroke="black" paint-order="fill stroke markers" d=" M 122.51402475 136.97067967049998 L 138.84922805 136.97067967049998 L 138.84922805 1852.1670261704996 L 122.51402475 1852.1670261704996 L 122.51402475 136.97067967049998" stroke-miterlimit="10" stroke-width="1.3612669416666667" stroke-dasharray=""/><path fill="white" stroke="black" paint-order="fill stroke markers" d=" M 496.4239073755859 182.70924891049998 L 512.7591106755859 182.70924891049998 L 512.7591106755859 729.9385594604997 L 496.4239073755859 729.9385594604997 L 496.4239073755859 182.70924891049998" stroke-miterlimit="10" stroke-width="1.3612669416666667" stroke-dasharray=""/><path fill="white" stroke="black" paint-order="fill stroke markers" d=" M 711.1298945081379 228.44781815049998 L 727.465097808138 228.44781815049998 L 727.465097808138 592.7228517404999 L 711.1298945081379 592.7228517404999 L 711.1298945081379 228.44781815049998" stroke-miterlimit="10" stroke-width="1.3612669416666667" stroke-dasharray=""/><path fill="white" stroke="black" paint-order="fill stroke markers" d=" M 930.6962942383462 274.1863873905 L 947.0314975383463 274.1863873905 L 947.0314975383463 546.9842825005 L 930.6962942383462 546.9842825005 L 930.6962942383462 274.1863873905" stroke-miterlimit="10" stroke-width="1.3612669416666667" stroke-dasharray=""/><path fill="white" stroke="black" paint-order="fill stroke markers" d=" M 1366.2110582263672 319.9249566305 L 1382.5462615263673 319.9249566305 L 1382.5462615263673 501.2457132605 L 1366.2110582263672 501.2457132605 L 1366.2110582263672 319.9249566305" stroke-miterlimit="10" stroke-width="1.3612669416666667" stroke-dasharray=""/><path fill="white" stroke="black" paint-order="fill stroke markers" d=" M 1699.041496042513 365.6635258705 L 1715.3766993425131 365.6635258705 L 1715.3766993425131 455.5071440205 L 1699.041496042513 455.5071440205 L 1699.041496042513 365.6635258705" stroke-miterlimit="10" stroke-width="1.3612669416666667" stroke-dasharray=""/><path fill="white" stroke="black" paint-order="fill stroke markers" d=" M 315.93409150768224 638.4614209804998 L 332.26929480768223 638.4614209804998 L 332.26929480768223 684.1999902204998 L 315.93409150768224 684.1999902204998 L 315.93409150768224 638.4614209804998" stroke-miterlimit="10" stroke-width="1.3612669416666667" stroke-dasharray=""/><path fill="white" stroke="black" paint-order="fill stroke markers" d=" M 496.4239073755859 863.8872265204997 L 512.7591106755859 863.8872265204997 L 512.7591106755859 1435.6193420205 L 496.4239073755859 1435.6193420205 L 496.4239073755859 863.8872265204997" stroke-miterlimit="10" stroke-width="1.3612669416666667" stroke-dasharray=""/><path fill="white" stroke="black" paint-order="fill stroke markers" d=" M 711.1298945081379 909.6257957604996 L 727.465097808138 909.6257957604996 L 727.465097808138 1389.8807727805 L 711.1298945081379 1389.8807727805 L 711.1298945081379 909.6257957604996" stroke-miterlimit="10" stroke-width="1.3612669416666667" stroke-dasharray=""/><path fill="white" stroke="black" paint-order="fill stroke markers" d=" M 930.6962942383462 955.3643650004996 L 947.0314975383463 955.3643650004996 L 947.0314975383463 1344.1422035404998 L 930.6962942383462 1344.1422035404998 L 930.6962942383462 955.3643650004996" stroke-miterlimit="10" stroke-width="1.3612669416666667" stroke-dasharray=""/><path fill="white" stroke="black" paint-order="fill stroke markers" d=" M 1366.2110582263672 1001.1029342404995 L 1382.5462615263673 1001.1029342404995 L 1382.5462615263673 1298.4036343004998 L 1366.2110582263672 1298.4036343004998 L 1366.2110582263672 1001.1029342404995" stroke-miterlimit="10" stroke-width="1.3612669416666667" stroke-dasharray=""/><path fill="white" stroke="black" paint-order="fill stroke markers" d=" M 1699.041496042513 1046.8415034804996 L 1715.3766993425131 1046.8415034804996 L 1715.3766993425131 1092.5800727204996 L 1699.041496042513 1092.5800727204996 L 1699.041496042513 1046.8415034804996" stroke-miterlimit="10" stroke-width="1.3612669416666667" stroke-dasharray=""/><path fill="white" stroke="black" paint-order="fill stroke markers" d=" M 1788.885114192513 1182.4236908704997 L 1805.220317492513 1182.4236908704997 L 1805.220317492513 1228.1622601104998 L 1788.885114192513 1228.1622601104998 L 1788.885114192513 1182.4236908704997" stroke-miterlimit="10" stroke-width="1.3612669416666667" stroke-dasharray=""/><path fill="white" stroke="black" paint-order="fill stroke markers" d=" M 130.6816264 1541.7981634705 L 147.0168297 1541.7981634705 L 147.0168297 1582.6361717205 L 130.6816264 1582.6361717205 L 130.6816264 1541.7981634705" stroke-miterlimit="10" stroke-width="1.3612669416666667" stroke-dasharray=""/><path fill="white" stroke="black" paint-order="fill stroke markers" d=" M 130.6816264 1713.3177981205 L 147.0168297 1713.3177981205 L 147.0168297 1754.1558063705 L 130.6816264 1754.1558063705 L 130.6816264 1713.3177981205" stroke-miterlimit="10" stroke-width="1.3612669416666667" stroke-dasharray=""/><path fill="white" stroke="black" paint-order="fill stroke markers" d=" M 122.51402475 1852.1670261704996 L 138.84922805 1852.1670261704996 L 138.84922805 2190.3057344804997 L 122.51402475 2190.3057344804997 L 122.51402475 1852.1670261704996" stroke-miterlimit="10" stroke-width="1.3612669416666667" stroke-dasharray=""/><path fill="white" stroke="black" paint-order="fill stroke markers" d=" M 496.4239073755859 1852.1670261704996 L 512.7591106755859 1852.1670261704996 L 512.7591106755859 2124.9649212804998 L 496.4239073755859 2124.9649212804998 L 496.4239073755859 1852.1670261704996" stroke-miterlimit="10" stroke-width="1.3612669416666667" stroke-dasharray=""/><path fill="white" stroke="black" paint-order="fill stroke markers" d=" M 930.6962942383462 1852.1670261704996 L 947.0314975383463 1852.1670261704996 L 947.0314975383463 2033.4877828004999 L 930.6962942383462 2033.4877828004999 L 930.6962942383462 1852.1670261704996" stroke-miterlimit="10" stroke-width="1.3612669416666667" stroke-dasharray=""/><path fill="white" stroke="black" paint-order="fill stroke markers" d=" M 1366.2110582263672 1852.1670261704996 L 1382.5462615263673 1852.1670261704996 L 1382.5462615263673 1987.7492135604998 L 1366.2110582263672 1987.7492135604998 L 1366.2110582263672 1852.1670261704996" stroke-miterlimit="10" stroke-width="1.3612669416666667" stroke-dasharray=""/><path fill="white" stroke="black" paint-order="fill stroke markers" d=" M 711.1298945081379 1852.1670261704996 L 727.465097808138 1852.1670261704996 L 727.465097808138 2079.2263520405 L 711.1298945081379 2079.2263520405 L 711.1298945081379 1852.1670261704996" stroke-miterlimit="10" stroke-width="1.3612669416666667" stroke-dasharray=""/><path fill="white" stroke="black" paint-order="fill stroke markers" d=" M 1699.041496042513 1852.1670261704996 L 1715.3766993425131 1852.1670261704996 L 1715.3766993425131 1942.0106443204998 L 1699.041496042513 1942.0106443204998 L 1699.041496042513 1852.1670261704996" stroke-miterlimit="10" stroke-width="1.3612669416666667" stroke-dasharray=""/><g><g><rect fill="white" stroke="none" x="243.47550993507812" y="161.4734846205" width="148.3221155554297" height="21.23576429"/></g><text fill="black" stroke="none" font-family="sans-serif" font-size="11pt" font-style="normal" font-weight="normal" text-decoration="normal" x="245.9257904300781" y="176.17516759049997" text-anchor="start" dominant-baseline="alphabetic">getNotVerifiedReports</text></g><g><path fill="none" stroke="black" paint-order="fill stroke markers" d=" M 138.84922805 182.70924891049998 L 493.70137349225257 182.70924891049998" stroke-miterlimit="10" stroke-width="1.3612669416666667" stroke-dasharray=""/><g transform="translate(496.4239073755859,182.70924891049998) translate(-496.4239073755859,-182.70924891049998)"><path fill="black" stroke="none" paint-order="stroke fill markers" d=" M 482.8112379589192 175.90291420216664 L 496.4239073755859 182.70924891049998 L 482.8112379589192 189.51558361883332 Z"/></g></g><g><g><rect fill="white" stroke="none" x="532.0891012472525" y="207.2120538605" width="159.71080268921875" height="21.23576429"/></g><text fill="black" stroke="none" font-family="sans-serif" font-size="11pt" font-style="normal" font-weight="normal" text-decoration="normal" x="534.5393817422525" y="221.91373683049997" text-anchor="start" dominant-baseline="alphabetic">handleRequest(xmlFile)</text></g><g><path fill="none" stroke="black" paint-order="fill stroke markers" d=" M 512.7591106755859 228.44781815049998 L 708.4073606248046 228.44781815049998" stroke-miterlimit="10" stroke-width="1.3612669416666667" stroke-dasharray=""/><g transform="translate(711.1298945081379,228.44781815049998) translate(-711.1298945081379,-228.44781815049998)"><path fill="black" stroke="none" paint-order="stroke fill markers" d=" M 697.5172250914712 221.64148344216665 L 711.1298945081379 228.44781815049998 L 697.5172250914712 235.25415285883332 Z"/></g></g><g><g><rect fill="white" stroke="none" x="746.7950883798046" y="252.9506231005" width="164.571215286875" height="21.23576429"/></g><text fill="black" stroke="none" font-family="sans-serif" font-size="11pt" font-style="normal" font-weight="normal" text-decoration="normal" x="749.2453688748046" y="267.6523060705" text-anchor="start" dominant-baseline="alphabetic">forwardRequest(xmlFile)</text></g><g><path fill="none" stroke="black" paint-order="fill stroke markers" d=" M 727.465097808138 274.1863873905 L 927.9737603550129 274.1863873905" stroke-miterlimit="10" stroke-width="1.3612669416666667" stroke-dasharray=""/><g transform="translate(930.6962942383462,274.1863873905) translate(-930.6962942383462,-274.1863873905)"><path fill="black" stroke="none" paint-order="stroke fill markers" d=" M 917.0836248216796 267.38005268216665 L 930.6962942383462 274.1863873905 L 917.0836248216796 280.9927220988333 Z"/></g></g><g><g><rect fill="white" stroke="none" x="1011.9878003658723" y="298.6891923405" width="289.2669550329687" height="21.23576429"/></g><text fill="black" stroke="none" font-family="sans-serif" font-size="11pt" font-style="normal" font-weight="normal" text-decoration="normal" x="1014.4380808608723" y="313.39087531049995" text-anchor="start" dominant-baseline="alphabetic">getNotVerifiedReports(token,municipalityID)</text></g><g><path fill="none" stroke="black" paint-order="fill stroke markers" d=" M 947.0314975383463 319.9249566305 L 1363.4885243430338 319.9249566305" stroke-miterlimit="10" stroke-width="1.3612669416666667" stroke-dasharray=""/><g transform="translate(1366.2110582263672,319.9249566305) translate(-1366.2110582263672,-319.9249566305)"><path fill="black" stroke="none" paint-order="stroke fill markers" d=" M 1352.5983888097005 313.11862192216665 L 1366.2110582263672 319.9249566305 L 1352.5983888097005 326.73129133883333 Z"/></g></g><g><g><rect fill="white" stroke="none" x="1401.8762520980338" y="344.4277615805" width="277.8352533728125" height="21.23576429"/></g><text fill="black" stroke="none" font-family="sans-serif" font-size="11pt" font-style="normal" font-weight="normal" text-decoration="normal" x="1404.3265325930338" y="359.12944455049995" text-anchor="start" dominant-baseline="alphabetic">retrieveNotVerifiedReports(municipalityID)</text></g><g><path fill="none" stroke="black" paint-order="fill stroke markers" d=" M 1382.5462615263673 365.6635258705 L 1696.3189621591796 365.6635258705" stroke-miterlimit="10" stroke-width="1.3612669416666667" stroke-dasharray=""/><g transform="translate(1699.041496042513,365.6635258705) translate(-1699.041496042513,-365.6635258705)"><path fill="black" stroke="none" paint-order="stroke fill markers" d=" M 1685.4288266258463 358.85719116216666 L 1699.041496042513 365.6635258705 L 1685.4288266258463 372.46986057883333 Z"/></g></g><g><g><rect fill="white" stroke="none" x="1431.5970467757681" y="434.2713797305" width="218.39366401734375" height="21.23576429"/></g><text fill="black" stroke="none" font-family="sans-serif" font-size="11pt" font-style="normal" font-weight="normal" text-decoration="normal" x="1434.0473272707682" y="448.97306270049995" text-anchor="start" dominant-baseline="alphabetic">List&lt;Report&gt;: not verified reports</text></g><g><path fill="none" stroke="black" paint-order="fill stroke markers" d=" M 1699.041496042513 455.5071440205 L 1385.2687954097007 455.5071440205" stroke-miterlimit="10" stroke-width="1.3612669416666667" stroke-dasharray="6.53408132"/><g transform="translate(1382.5462615263673,455.5071440205) translate(-1382.5462615263673,-455.5071440205)"><path fill="black" stroke="none" paint-order="stroke fill markers" d=" M 1396.158930943034 448.70080931216665 L 1382.5462615263673 455.5071440205 L 1396.158930943034 462.31347872883333 Z"/></g></g><g><g><rect fill="white" stroke="none" x="1047.4244458736848" y="480.0099489705" width="218.39366401734375" height="21.23576429"/></g><text fill="black" stroke="none" font-family="sans-serif" font-size="11pt" font-style="normal" font-weight="normal" text-decoration="normal" x="1049.8747263686848" y="494.71163194049996" text-anchor="start" dominant-baseline="alphabetic">List&lt;Report&gt;: not verified reports</text></g><g><path fill="none" stroke="black" paint-order="fill stroke markers" d=" M 1366.2110582263672 501.2457132605 L 949.7540314216797 501.2457132605" stroke-miterlimit="10" stroke-width="1.3612669416666667" stroke-dasharray="6.53408132"/><g transform="translate(947.0314975383463,501.2457132605) translate(-947.0314975383463,-501.2457132605)"><path fill="black" stroke="none" paint-order="stroke fill markers" d=" M 960.644166955013 494.43937855216666 L 947.0314975383463 501.2457132605 L 960.644166955013 508.05204796883334 Z"/></g></g><g><g><rect fill="white" stroke="none" x="767.969023316328" y="525.7485182104999" width="122.22334541382813" height="21.23576429"/></g><text fill="black" stroke="none" font-family="sans-serif" font-size="11pt" font-style="normal" font-weight="normal" text-decoration="normal" x="770.4193038113281" y="540.4502011804999" text-anchor="start" dominant-baseline="alphabetic">XmlFile: response</text></g><g><path fill="none" stroke="black" paint-order="fill stroke markers" d=" M 930.6962942383462 546.9842825005 L 730.1876316914713 546.9842825005" stroke-miterlimit="10" stroke-width="1.3612669416666667" stroke-dasharray="6.53408132"/><g transform="translate(727.465097808138,546.9842825005) translate(-727.465097808138,-546.9842825005)"><path fill="black" stroke="none" paint-order="stroke fill markers" d=" M 741.0777672248047 540.1779477921666 L 727.465097808138 546.9842825005 L 741.0777672248047 553.7906172088333 Z"/></g></g><g><g><rect fill="white" stroke="none" x="550.8328298849478" y="571.4870874504999" width="122.22334541382813" height="21.23576429"/></g><text fill="black" stroke="none" font-family="sans-serif" font-size="11pt" font-style="normal" font-weight="normal" text-decoration="normal" x="553.2831103799479" y="586.1887704204998" text-anchor="start" dominant-baseline="alphabetic">XmlFile: response</text></g><g><path fill="none" stroke="black" paint-order="fill stroke markers" d=" M 711.1298945081379 592.7228517404999 L 515.4816445589192 592.7228517404999" stroke-miterlimit="10" stroke-width="1.3612669416666667" stroke-dasharray="6.53408132"/><g transform="translate(512.7591106755859,592.7228517404999) translate(-512.7591106755859,-592.7228517404999)"><path fill="black" stroke="none" paint-order="stroke fill markers" d=" M 526.3717800922526 585.9165170321666 L 512.7591106755859 592.7228517404999 L 526.3717800922526 599.5291864488332 Z"/></g></g><g><g><rect fill="white" stroke="none" x="351.5992853793489" y="617.2256566904998" width="125.49463142457031" height="21.23576429"/></g><text fill="black" stroke="none" font-family="sans-serif" font-size="11pt" font-style="normal" font-weight="normal" text-decoration="normal" x="354.0495658743489" y="631.9273396604998" text-anchor="start" dominant-baseline="alphabetic">fetchMap(position)</text></g><g><path fill="none" stroke="black" paint-order="fill stroke markers" d=" M 496.4239073755859 638.4614209804998 L 334.99182869101554 638.4614209804998" stroke-miterlimit="10" stroke-width="1.3612669416666667" stroke-dasharray=""/><g transform="translate(332.26929480768223,638.4614209804998) translate(-332.26929480768223,-638.4614209804998)"><path fill="black" stroke="none" paint-order="stroke fill markers" d=" M 345.8819642243489 631.6550862721665 L 332.26929480768223 638.4614209804998 L 345.8819642243489 645.2677556888332 Z"/></g></g><g><g><rect fill="white" stroke="none" x="397.63719584077467" y="662.9642259304998" width="33.41881050171875" height="21.23576429"/></g><text fill="black" stroke="none" font-family="sans-serif" font-size="11pt" font-style="normal" font-weight="normal" text-decoration="normal" x="400.0874763357747" y="677.6659089004997" text-anchor="start" dominant-baseline="alphabetic">map</text></g><g><path fill="none" stroke="black" paint-order="fill stroke markers" d=" M 332.26929480768223 684.1999902204998 L 493.70137349225257 684.1999902204998" stroke-miterlimit="10" stroke-width="1.3612669416666667" stroke-dasharray="6.53408132"/><g transform="translate(496.4239073755859,684.1999902204998) translate(-496.4239073755859,-684.1999902204998)"><path fill="black" stroke="none" paint-order="stroke fill markers" d=" M 482.8112379589192 677.3936555121664 L 496.4239073755859 684.1999902204998 L 482.8112379589192 691.0063249288331 Z"/></g></g><g><g><rect fill="white" stroke="none" x="208.4397357041211" y="708.7027951704997" width="218.39366401734375" height="21.23576429"/></g><text fill="black" stroke="none" font-family="sans-serif" font-size="11pt" font-style="normal" font-weight="normal" text-decoration="normal" x="210.89001619912108" y="723.4044781404997" text-anchor="start" dominant-baseline="alphabetic">List&lt;Report&gt;: not verified reports</text></g><g><path fill="none" stroke="black" paint-order="fill stroke markers" d=" M 496.4239073755859 729.9385594604997 L 141.57176193333333 729.9385594604997" stroke-miterlimit="10" stroke-width="1.3612669416666667" stroke-dasharray="6.53408132"/><g transform="translate(138.84922805,729.9385594604997) translate(-138.84922805,-729.9385594604997)"><path fill="black" stroke="none" paint-order="stroke fill markers" d=" M 152.46189746666667 723.1322247521664 L 138.84922805 729.9385594604997 L 152.46189746666667 736.7448941688331 Z"/></g></g><g><g><rect fill="white" stroke="none" x="261.5428011948437" y="842.6514622304996" width="112.18753303589844" height="21.23576429"/></g><text fill="black" stroke="none" font-family="sans-serif" font-size="11pt" font-style="normal" font-weight="normal" text-decoration="normal" x="263.99308168984373" y="857.3531452004996" text-anchor="start" dominant-baseline="alphabetic">setValidityStatus</text></g><g><path fill="none" stroke="black" paint-order="fill stroke markers" d=" M 138.84922805 863.8872265204997 L 493.70137349225257 863.8872265204997" stroke-miterlimit="10" stroke-width="1.3612669416666667" stroke-dasharray=""/><g transform="translate(496.4239073755859,863.8872265204997) translate(-496.4239073755859,-863.8872265204997)"><path fill="black" stroke="none" paint-order="stroke fill markers" d=" M 482.8112379589192 857.0808918121663 L 496.4239073755859 863.8872265204997 L 482.8112379589192 870.693561228833 Z"/></g></g><g><g><rect fill="white" stroke="none" x="532.0891012472525" y="888.3900314704996" width="159.71080268921875" height="21.23576429"/></g><text fill="black" stroke="none" font-family="sans-serif" font-size="11pt" font-style="normal" font-weight="normal" text-decoration="normal" x="534.5393817422525" y="903.0917144404996" text-anchor="start" dominant-baseline="alphabetic">handleRequest(xmlFile)</text></g><g><path fill="none" stroke="black" paint-order="fill stroke markers" d=" M 512.7591106755859 909.6257957604996 L 708.4073606248046 909.6257957604996" stroke-miterlimit="10" stroke-width="1.3612669416666667" stroke-dasharray=""/><g transform="translate(711.1298945081379,909.6257957604996) translate(-711.1298945081379,-909.6257957604996)"><path fill="black" stroke="none" paint-order="stroke fill markers" d=" M 697.5172250914712 902.8194610521663 L 711.1298945081379 909.6257957604996 L 697.5172250914712 916.432130468833 Z"/></g></g><g><g><rect fill="white" stroke="none" x="746.7950883798046" y="934.1286007104995" width="164.571215286875" height="21.23576429"/></g><text fill="black" stroke="none" font-family="sans-serif" font-size="11pt" font-style="normal" font-weight="normal" text-decoration="normal" x="749.2453688748046" y="948.8302836804995" text-anchor="start" dominant-baseline="alphabetic">forwardRequest(xmlFile)</text></g><g><path fill="none" stroke="black" paint-order="fill stroke markers" d=" M 727.465097808138 955.3643650004996 L 927.9737603550129 955.3643650004996" stroke-miterlimit="10" stroke-width="1.3612669416666667" stroke-dasharray=""/><g transform="translate(930.6962942383462,955.3643650004996) translate(-930.6962942383462,-955.3643650004996)"><path fill="black" stroke="none" paint-order="stroke fill markers" d=" M 917.0836248216796 948.5580302921662 L 930.6962942383462 955.3643650004996 L 917.0836248216796 962.1706997088329 Z"/></g></g><g><g><rect fill="white" stroke="none" x="966.3614881100129" y="979.8671699504995" width="380.5195795446875" height="21.23576429"/></g><text fill="black" stroke="none" font-family="sans-serif" font-size="11pt" font-style="normal" font-weight="normal" text-decoration="normal" x="968.811768605013" y="994.5688529204995" text-anchor="start" dominant-baseline="alphabetic">setReportStatus(token,municipalityID,reportID,newStatus)</text></g><g><path fill="none" stroke="black" paint-order="fill stroke markers" d=" M 947.0314975383463 1001.1029342404995 L 1363.4885243430338 1001.1029342404995" stroke-miterlimit="10" stroke-width="1.3612669416666667" stroke-dasharray=""/><g transform="translate(1366.2110582263672,1001.1029342404995) translate(-1366.2110582263672,-1001.1029342404995)"><path fill="black" stroke="none" paint-order="stroke fill markers" d=" M 1352.5983888097005 994.2965995321662 L 1366.2110582263672 1001.1029342404995 L 1352.5983888097005 1007.9092689488328 Z"/></g></g><g><g><rect fill="white" stroke="none" x="1405.5197457503775" y="1025.6057391904997" width="270.548266068125" height="21.23576429"/></g><text fill="black" stroke="none" font-family="sans-serif" font-size="11pt" font-style="normal" font-weight="normal" text-decoration="normal" x="1407.9700262453775" y="1040.3074221604998" text-anchor="start" dominant-baseline="alphabetic">updateReportStatus(reportID,newStatus)</text></g><g><path fill="none" stroke="black" paint-order="fill stroke markers" d=" M 1382.5462615263673 1046.8415034804996 L 1696.3189621591796 1046.8415034804996" stroke-miterlimit="10" stroke-width="1.3612669416666667" stroke-dasharray=""/><g transform="translate(1699.041496042513,1046.8415034804996) translate(-1699.041496042513,-1046.8415034804996)"><path fill="black" stroke="none" paint-order="stroke fill markers" d=" M 1685.4288266258463 1040.0351687721663 L 1699.041496042513 1046.8415034804996 L 1685.4288266258463 1053.6478381888328 Z"/></g></g><g><g><rect fill="white" stroke="none" x="1506.9728173446158" y="1071.3443084304997" width="67.64212287964844" height="21.23576429"/></g><text fill="black" stroke="none" font-family="sans-serif" font-size="11pt" font-style="normal" font-weight="normal" text-decoration="normal" x="1509.4230978396158" y="1086.0459914004998" text-anchor="start" dominant-baseline="alphabetic">status set</text></g><g><path fill="none" stroke="black" paint-order="fill stroke markers" d=" M 1699.041496042513 1092.5800727204996 L 1385.2687954097007 1092.5800727204996" stroke-miterlimit="10" stroke-width="1.3612669416666667" stroke-dasharray="6.53408132"/><g transform="translate(1382.5462615263673,1092.5800727204996) translate(-1382.5462615263673,-1092.5800727204996)"><path fill="black" stroke="none" paint-order="stroke fill markers" d=" M 1396.158930943034 1085.7737380121664 L 1382.5462615263673 1092.5800727204996 L 1396.158930943034 1099.3864074288329 Z"/></g></g><g><g><rect fill="white" stroke="none" x="1542.1236837316276" y="1161.1879265804998" width="87.184008255625" height="21.23576429"/></g><text fill="black" stroke="none" font-family="sans-serif" font-size="11pt" font-style="normal" font-weight="normal" text-decoration="normal" x="1544.5739642266276" y="1175.8896095505" text-anchor="start" dominant-baseline="alphabetic">POST report</text></g><g><path fill="none" stroke="black" paint-order="fill stroke markers" d=" M 1382.5462615263673 1182.4236908704997 L 1786.1625803091795 1182.4236908704997" stroke-miterlimit="10" stroke-width="1.3612669416666667" stroke-dasharray=""/><g transform="translate(1788.885114192513,1182.4236908704997) translate(-1788.885114192513,-1182.4236908704997)"><path fill="black" stroke="none" paint-order="stroke fill markers" d=" M 1775.2724447758462 1175.6173561621665 L 1788.885114192513 1182.4236908704997 L 1775.2724447758462 1189.230025578833 Z"/></g></g><g><g><rect fill="white" stroke="none" x="1541.697780411315" y="1206.9264958205" width="88.03581489625" height="21.23576429"/></g><text fill="black" stroke="none" font-family="sans-serif" font-size="11pt" font-style="normal" font-weight="normal" text-decoration="normal" x="1544.148060906315" y="1221.6281787905" text-anchor="start" dominant-baseline="alphabetic">report added</text></g><g><path fill="none" stroke="black" paint-order="fill stroke markers" d=" M 1788.885114192513 1228.1622601104998 L 1385.2687954097007 1228.1622601104998" stroke-miterlimit="10" stroke-width="1.3612669416666667" stroke-dasharray="6.53408132"/><g transform="translate(1382.5462615263673,1228.1622601104998) translate(-1382.5462615263673,-1228.1622601104998)"><path fill="black" stroke="none" paint-order="stroke fill markers" d=" M 1396.158930943034 1221.3559254021666 L 1382.5462615263673 1228.1622601104998 L 1396.158930943034 1234.968594818833 Z"/></g></g><g><g><rect fill="white" stroke="none" x="1122.8002164425325" y="1277.1678700104999" width="67.64212287964844" height="21.23576429"/></g><text fill="black" stroke="none" font-family="sans-serif" font-size="11pt" font-style="normal" font-weight="normal" text-decoration="normal" x="1125.2504969375325" y="1291.8695529805" text-anchor="start" dominant-baseline="alphabetic">status set</text></g><g><path fill="none" stroke="black" paint-order="fill stroke markers" d=" M 1366.2110582263672 1298.4036343004998 L 949.7540314216797 1298.4036343004998" stroke-miterlimit="10" stroke-width="1.3612669416666667" stroke-dasharray="6.53408132"/><g transform="translate(947.0314975383463,1298.4036343004998) translate(-947.0314975383463,-1298.4036343004998)"><path fill="black" stroke="none" paint-order="stroke fill markers" d=" M 960.644166955013 1291.5972995921666 L 947.0314975383463 1298.4036343004998 L 960.644166955013 1305.209969008833 Z"/></g></g><g><g><rect fill="white" stroke="none" x="767.969023316328" y="1322.9064392505" width="122.22334541382813" height="21.23576429"/></g><text fill="black" stroke="none" font-family="sans-serif" font-size="11pt" font-style="normal" font-weight="normal" text-decoration="normal" x="770.4193038113281" y="1337.6081222205" text-anchor="start" dominant-baseline="alphabetic">XmlFile: response</text></g><g><path fill="none" stroke="black" paint-order="fill stroke markers" d=" M 930.6962942383462 1344.1422035404998 L 730.1876316914713 1344.1422035404998" stroke-miterlimit="10" stroke-width="1.3612669416666667" stroke-dasharray="6.53408132"/><g transform="translate(727.465097808138,1344.1422035404998) translate(-727.465097808138,-1344.1422035404998)"><path fill="black" stroke="none" paint-order="stroke fill markers" d=" M 741.0777672248047 1337.3358688321666 L 727.465097808138 1344.1422035404998 L 741.0777672248047 1350.948538248833 Z"/></g></g><g><g><rect fill="white" stroke="none" x="550.8328298849478" y="1368.6450084905" width="122.22334541382813" height="21.23576429"/></g><text fill="black" stroke="none" font-family="sans-serif" font-size="11pt" font-style="normal" font-weight="normal" text-decoration="normal" x="553.2831103799479" y="1383.3466914605" text-anchor="start" dominant-baseline="alphabetic">XmlFile: response</text></g><g><path fill="none" stroke="black" paint-order="fill stroke markers" d=" M 711.1298945081379 1389.8807727805 L 515.4816445589192 1389.8807727805" stroke-miterlimit="10" stroke-width="1.3612669416666667" stroke-dasharray="6.53408132"/><g transform="translate(512.7591106755859,1389.8807727805) translate(-512.7591106755859,-1389.8807727805)"><path fill="black" stroke="none" paint-order="stroke fill markers" d=" M 526.3717800922526 1383.0744380721667 L 512.7591106755859 1389.8807727805 L 526.3717800922526 1396.6871074888331 Z"/></g></g><g><g><rect fill="white" stroke="none" x="280.9665530258984" y="1414.3835777305" width="73.34002937378906" height="21.23576429"/></g><text fill="black" stroke="none" font-family="sans-serif" font-size="11pt" font-style="normal" font-weight="normal" text-decoration="normal" x="283.4168335208984" y="1429.0852607005002" text-anchor="start" dominant-baseline="alphabetic">validity set</text></g><g><path fill="none" stroke="black" paint-order="fill stroke markers" d=" M 496.4239073755859 1435.6193420205 L 141.57176193333333 1435.6193420205" stroke-miterlimit="10" stroke-width="1.3612669416666667" stroke-dasharray="6.53408132"/><g transform="translate(138.84922805,1435.6193420205) translate(-138.84922805,-1435.6193420205)"><path fill="black" stroke="none" paint-order="stroke fill markers" d=" M 152.46189746666667 1428.8130073121667 L 138.84922805 1435.6193420205 L 152.46189746666667 1442.4256767288332 Z"/></g></g><g><g><rect fill="white" stroke="none" x="166.34682027166667" y="1504.2271958805" width="121.28563179078125" height="21.23576429"/></g><text fill="black" stroke="none" font-family="sans-serif" font-size="11pt" font-style="normal" font-weight="normal" text-decoration="normal" x="168.79710076666666" y="1518.9288788505" text-anchor="start" dominant-baseline="alphabetic">NotFinished=True</text></g><g><path fill="none" stroke="black" paint-order="fill stroke markers" d=" M 138.84922805 1525.4629601704999 L 212.35764289999997 1525.4629601704999 L 212.35764289999997 1541.7981634705 L 149.73936358333333 1541.7981634705" stroke-miterlimit="10" stroke-width="1.3612669416666667" stroke-dasharray=""/><g transform="translate(147.0168297,1541.7981634705) translate(-147.0168297,-1541.7981634705)"><path fill="black" stroke="none" paint-order="stroke fill markers" d=" M 160.62949911666666 1534.9918287621667 L 147.0168297 1541.7981634705 L 160.62949911666666 1548.6044981788332 Z"/></g></g><g><g><rect fill="white" stroke="none" x="166.34682027166667" y="1675.7468305305" width="127.53474678101563" height="21.23576429"/></g><text fill="black" stroke="none" font-family="sans-serif" font-size="11pt" font-style="normal" font-weight="normal" text-decoration="normal" x="168.79710076666666" y="1690.4485135005" text-anchor="start" dominant-baseline="alphabetic">NotFinished=False</text></g><g><path fill="none" stroke="black" paint-order="fill stroke markers" d=" M 138.84922805 1696.9825948204998 L 212.35764289999997 1696.9825948204998 L 212.35764289999997 1713.3177981205 L 149.73936358333333 1713.3177981205" stroke-miterlimit="10" stroke-width="1.3612669416666667" stroke-dasharray=""/><g transform="translate(147.0168297,1713.3177981205) translate(-147.0168297,-1713.3177981205)"><path fill="black" stroke="none" paint-order="stroke fill markers" d=" M 160.62949911666666 1706.5114634121667 L 147.0168297 1713.3177981205 L 160.62949911666666 1720.1241328288331 Z"/></g></g><g><g><rect fill="white" stroke="none" x="1447.4739083480338" y="1920.7748800304998" width="186.6399408728125" height="21.23576429"/></g><text fill="black" stroke="none" font-family="sans-serif" font-size="11pt" font-style="normal" font-weight="normal" text-decoration="normal" x="1449.9241888430338" y="1935.4765630005" text-anchor="start" dominant-baseline="alphabetic">NotEnoughReportException</text></g><g><path fill="none" stroke="black" paint-order="fill stroke markers" d=" M 1699.041496042513 1942.0106443204998 L 1385.2687954097007 1942.0106443204998" stroke-miterlimit="10" stroke-width="1.3612669416666667" stroke-dasharray="6.53408132"/><g transform="translate(1382.5462615263673,1942.0106443204998) translate(-1382.5462615263673,-1942.0106443204998)"><path fill="black" stroke="none" paint-order="stroke fill markers" d=" M 1396.158930943034 1935.2043096121665 L 1382.5462615263673 1942.0106443204998 L 1396.158930943034 1948.816979028833 Z"/></g></g><g><g><rect fill="white" stroke="none" x="1063.3013074459504" y="1966.5134492705" width="186.6399408728125" height="21.23576429"/></g><text fill="black" stroke="none" font-family="sans-serif" font-size="11pt" font-style="normal" font-weight="normal" text-decoration="normal" x="1065.7515879409505" y="1981.2151322405" text-anchor="start" dominant-baseline="alphabetic">NotEnoughReportException</text></g><g><path fill="none" stroke="black" paint-order="fill stroke markers" d=" M 1366.2110582263672 1987.7492135604998 L 949.7540314216797 1987.7492135604998" stroke-miterlimit="10" stroke-width="1.3612669416666667" stroke-dasharray="6.53408132"/><g transform="translate(947.0314975383463,1987.7492135604998) translate(-947.0314975383463,-1987.7492135604998)"><path fill="black" stroke="none" paint-order="stroke fill markers" d=" M 960.644166955013 1980.9428788521666 L 947.0314975383463 1987.7492135604998 L 960.644166955013 1994.555548268833 Z"/></g></g><g><g><rect fill="white" stroke="none" x="767.969023316328" y="2012.2520185105" width="122.22334541382813" height="21.23576429"/></g><text fill="black" stroke="none" font-family="sans-serif" font-size="11pt" font-style="normal" font-weight="normal" text-decoration="normal" x="770.4193038113281" y="2026.9537014805" text-anchor="start" dominant-baseline="alphabetic">XmlFile: response</text></g><g><path fill="none" stroke="black" paint-order="fill stroke markers" d=" M 930.6962942383462 2033.4877828004999 L 730.1876316914713 2033.4877828004999" stroke-miterlimit="10" stroke-width="1.3612669416666667" stroke-dasharray="6.53408132"/><g transform="translate(727.465097808138,2033.4877828004999) translate(-727.465097808138,-2033.4877828004999)"><path fill="black" stroke="none" paint-order="stroke fill markers" d=" M 741.0777672248047 2026.6814480921666 L 727.465097808138 2033.4877828004999 L 741.0777672248047 2040.294117508833 Z"/></g></g><g><g><rect fill="white" stroke="none" x="550.8328298849478" y="2057.9905877505" width="122.22334541382813" height="21.23576429"/></g><text fill="black" stroke="none" font-family="sans-serif" font-size="11pt" font-style="normal" font-weight="normal" text-decoration="normal" x="553.2831103799479" y="2072.6922707205" text-anchor="start" dominant-baseline="alphabetic">XmlFile: response</text></g><g><path fill="none" stroke="black" paint-order="fill stroke markers" d=" M 711.1298945081379 2079.2263520405 L 515.4816445589192 2079.2263520405" stroke-miterlimit="10" stroke-width="1.3612669416666667" stroke-dasharray="6.53408132"/><g transform="translate(512.7591106755859,2079.2263520405) translate(-512.7591106755859,-2079.2263520405)"><path fill="black" stroke="none" paint-order="stroke fill markers" d=" M 526.3717800922526 2072.4200173321665 L 512.7591106755859 2079.2263520405 L 526.3717800922526 2086.0326867488334 Z"/></g></g><g><g><rect fill="white" stroke="none" x="216.9937670761914" y="2103.7291569904996" width="201.28560127320313" height="21.23576429"/></g><text fill="black" stroke="none" font-family="sans-serif" font-size="11pt" font-style="normal" font-weight="normal" text-decoration="normal" x="219.4440475711914" y="2118.4308399604997" text-anchor="start" dominant-baseline="alphabetic">NotEnoughDataErrorMessage</text></g><g><path fill="none" stroke="black" paint-order="fill stroke markers" d=" M 496.4239073755859 2124.9649212804998 L 141.57176193333333 2124.9649212804998" stroke-miterlimit="10" stroke-width="1.3612669416666667" stroke-dasharray="6.53408132"/><g transform="translate(138.84922805,2124.9649212804998) translate(-138.84922805,-2124.9649212804998)"><path fill="black" stroke="none" paint-order="stroke fill markers" d=" M 152.46189746666667 2118.1585865721663 L 138.84922805 2124.9649212804998 L 152.46189746666667 2131.771255988833 Z"/></g></g><g><g/><path fill="none" stroke="black" paint-order="fill stroke markers" d=" M 16.335203299999996 390.1663308205 L 1903.231537292513 390.1663308205 L 1903.231537292513 1852.1670261704996 L 16.335203299999996 1852.1670261704996 L 16.335203299999996 390.1663308205 Z" stroke-miterlimit="10" stroke-width="2.3336004714285714" stroke-dasharray=""/><path fill="white" stroke="black" paint-order="fill stroke markers" d=" M 16.335203299999996 390.1663308205 L 16.335203299999996 409.7685747805 L 62.69440689707031 409.7685747805 L 72.49552887707031 399.9674528005 L 72.49552887707031 390.1663308205 L 16.335203299999996 390.1663308205" stroke-miterlimit="10" stroke-width="2.3336004714285714" stroke-dasharray=""/><text fill="black" stroke="none" font-family="sans-serif" font-size="8.8pt" font-style="normal" font-weight="bold" text-decoration="normal" x="32.67040659999999" y="403.2344934605" text-anchor="start" dominant-baseline="alphabetic">alt</text><text fill="black" stroke="none" font-family="sans-serif" font-size="8.8pt" font-style="normal" font-weight="bold" text-decoration="normal" x="88.83073217707032" y="403.2344934605" text-anchor="start" dominant-baseline="alphabetic">[ExistsAtLeastOneReport]</text></g><g><g/><path fill="none" stroke="black" paint-order="fill stroke markers" d=" M 32.6704066 754.4413644104997 L 1886.896333992513 754.4413644104997 L 1886.896333992513 1827.6642212204997 L 32.6704066 1827.6642212204997 L 32.6704066 754.4413644104997 Z" stroke-miterlimit="10" stroke-width="2.3336004714285714" stroke-dasharray=""/><path fill="white" stroke="black" paint-order="fill stroke markers" d=" M 32.6704066 754.4413644104997 L 32.6704066 774.0436083704997 L 79.02961019707031 774.0436083704997 L 88.83073217707032 764.2424863904996 L 88.83073217707032 754.4413644104997 L 32.6704066 754.4413644104997" stroke-miterlimit="10" stroke-width="2.3336004714285714" stroke-dasharray=""/><text fill="black" stroke="none" font-family="sans-serif" font-size="8.8pt" font-style="normal" font-weight="bold" text-decoration="normal" x="49.005609899999996" y="767.5095270504996" text-anchor="start" dominant-baseline="alphabetic">alt</text><text fill="black" stroke="none" font-family="sans-serif" font-size="8.8pt" font-style="normal" font-weight="bold" text-decoration="normal" x="105.16593547707032" y="767.5095270504996" text-anchor="start" dominant-baseline="alphabetic">[LoWantsToValidate]</text></g><g><g/><path fill="none" stroke="black" paint-order="fill stroke markers" d=" M 49.0056099 798.5464133204997 L 1870.561130692513 798.5464133204997 L 1870.561130692513 1803.1614162704998 L 49.0056099 1803.1614162704998 L 49.0056099 798.5464133204997 Z" stroke-miterlimit="10" stroke-width="2.3336004714285714" stroke-dasharray=""/><path fill="white" stroke="black" paint-order="fill stroke markers" d=" M 49.0056099 798.5464133204997 L 49.0056099 818.1486572804997 L 106.43041103125 818.1486572804997 L 116.23153301125001 808.3475353004997 L 116.23153301125001 798.5464133204997 L 49.0056099 798.5464133204997" stroke-miterlimit="10" stroke-width="2.3336004714285714" stroke-dasharray=""/><text fill="black" stroke="none" font-family="sans-serif" font-size="8.8pt" font-style="normal" font-weight="bold" text-decoration="normal" x="65.3408132" y="811.6145759604997" text-anchor="start" dominant-baseline="alphabetic">loop</text><text fill="black" stroke="none" font-family="sans-serif" font-size="8.8pt" font-style="normal" font-weight="bold" text-decoration="normal" x="132.56673631125" y="811.6145759604997" text-anchor="start" dominant-baseline="alphabetic">[NotFinished == True]</text></g><g><g/><path fill="none" stroke="black" paint-order="fill stroke markers" d=" M 1309.0378466763673 1117.0828776704998 L 1854.2259273925129 1117.0828776704998 L 1854.2259273925129 1252.6650650604997 L 1309.0378466763673 1252.6650650604997 L 1309.0378466763673 1117.0828776704998 Z" stroke-miterlimit="10" stroke-width="2.3336004714285714" stroke-dasharray=""/><path fill="white" stroke="black" paint-order="fill stroke markers" d=" M 1309.0378466763673 1117.0828776704998 L 1309.0378466763673 1136.6851216304997 L 1355.3970502734376 1136.6851216304997 L 1365.1981722534376 1126.8839996504998 L 1365.1981722534376 1117.0828776704998 L 1309.0378466763673 1117.0828776704998" stroke-miterlimit="10" stroke-width="2.3336004714285714" stroke-dasharray=""/><text fill="black" stroke="none" font-family="sans-serif" font-size="8.8pt" font-style="normal" font-weight="bold" text-decoration="normal" x="1325.3730499763674" y="1130.1510403104996" text-anchor="start" dominant-baseline="alphabetic">alt</text><text fill="black" stroke="none" font-family="sans-serif" font-size="8.8pt" font-style="normal" font-weight="bold" text-decoration="normal" x="1381.5333755534377" y="1130.1510403104996" text-anchor="start" dominant-baseline="alphabetic">[newStatus==VALID]</text></g><g><g/><path fill="none" stroke="black" paint-order="fill stroke markers" d=" M 73.50841485000001 1460.1221469705001 L 293.34977321744793 1460.1221469705001 L 293.34977321744793 1607.1389766705 L 73.50841485000001 1607.1389766705 L 73.50841485000001 1460.1221469705001 Z" stroke-miterlimit="10" stroke-width="2.3336004714285714" stroke-dasharray=""/><path fill="white" stroke="black" paint-order="fill stroke markers" d=" M 73.50841485000001 1460.1221469705001 L 73.50841485000001 1479.7243909305 L 119.86761844707033 1479.7243909305 L 129.66874042707033 1469.9232689505002 L 129.66874042707033 1460.1221469705001 L 73.50841485000001 1460.1221469705001" stroke-miterlimit="10" stroke-width="2.3336004714285714" stroke-dasharray=""/><text fill="black" stroke="none" font-family="sans-serif" font-size="8.8pt" font-style="normal" font-weight="bold" text-decoration="normal" x="89.84361815000001" y="1473.1903096105" text-anchor="start" dominant-baseline="alphabetic">alt</text><text fill="black" stroke="none" font-family="sans-serif" font-size="8.8pt" font-style="normal" font-weight="bold" text-decoration="normal" x="146.00394372707032" y="1473.1903096105" text-anchor="start" dominant-baseline="alphabetic">[StillValidating]</text></g><g><g/><path fill="none" stroke="black" paint-order="fill stroke markers" d=" M 73.50841485000001 1631.6417816205 L 299.5988882076823 1631.6417816205 L 299.5988882076823 1778.6586113204999 L 73.50841485000001 1778.6586113204999 L 73.50841485000001 1631.6417816205 Z" stroke-miterlimit="10" stroke-width="2.3336004714285714" stroke-dasharray=""/><path fill="white" stroke="black" paint-order="fill stroke markers" d=" M 73.50841485000001 1631.6417816205 L 73.50841485000001 1651.2440255805 L 119.86761844707033 1651.2440255805 L 129.66874042707033 1641.4429036005001 L 129.66874042707033 1631.6417816205 L 73.50841485000001 1631.6417816205" stroke-miterlimit="10" stroke-width="2.3336004714285714" stroke-dasharray=""/><text fill="black" stroke="none" font-family="sans-serif" font-size="8.8pt" font-style="normal" font-weight="bold" text-decoration="normal" x="89.84361815000001" y="1644.7099442605" text-anchor="start" dominant-baseline="alphabetic">alt</text><text fill="black" stroke="none" font-family="sans-serif" font-size="8.8pt" font-style="normal" font-weight="bold" text-decoration="normal" x="146.00394372707032" y="1644.7099442605" text-anchor="start" dominant-baseline="alphabetic">[FinishValidating]</text></g><g><g/><path fill="none" stroke="black" paint-order="fill stroke markers" d=" M 65.34081320000001 1876.6698311204998 L 1764.382309242513 1876.6698311204998 L 1764.382309242513 2149.4677262305 L 65.34081320000001 2149.4677262305 L 65.34081320000001 1876.6698311204998 Z" stroke-miterlimit="10" stroke-width="2.3336004714285714" stroke-dasharray=""/><path fill="white" stroke="black" paint-order="fill stroke markers" d=" M 65.34081320000001 1876.6698311204998 L 65.34081320000001 1896.2720750804997 L 111.70001679707033 1896.2720750804997 L 121.50113877707034 1886.4709531004999 L 121.50113877707034 1876.6698311204998 L 65.34081320000001 1876.6698311204998" stroke-miterlimit="10" stroke-width="2.3336004714285714" stroke-dasharray=""/><text fill="black" stroke="none" font-family="sans-serif" font-size="8.8pt" font-style="normal" font-weight="bold" text-decoration="normal" x="81.67601650000002" y="1889.7379937604996" text-anchor="start" dominant-baseline="alphabetic">alt</text><text fill="black" stroke="none" font-family="sans-serif" font-size="8.8pt" font-style="normal" font-weight="bold" text-decoration="normal" x="137.83634207707033" y="1889.7379937604996" text-anchor="start" dominant-baseline="alphabetic">[NotExistsAtLeastOneReport]</text></g></g><g/><g/><g/><g/><g/><g/><g/><g/></g></svg>