<svg version="1.1" xmlns="http://www.w3.org/2000/svg" xmlns:xlink="http://www.w3.org/1999/xlink" width="362" height="468"><defs/><g><g/><g/><g/><g><rect fill="white" stroke="none" x="0" y="0" width="362" height="468"/></g><g><text fill="black" stroke="none" font-family="sans-serif" font-size="16.5pt" font-style="normal" font-weight="normal" text-decoration="normal" x="92.64289403844398" y="24.50280495" text-anchor="start" dominant-baseline="alphabetic">Mine Reports By *</text></g><g/><g><path fill="none" stroke="black" paint-order="fill stroke markers" d=" M 81.67601649999999 128.80307802049998 L 81.67601649999999 468.57530666049996" stroke-miterlimit="10" stroke-width="1.3612669416666667" stroke-dasharray="12.565541,5.445067766666667"/><path fill="none" stroke="black" paint-order="fill stroke markers" d=" M 280.89883407688797 128.80307802049998 L 280.89883407688797 468.57530666049996" stroke-miterlimit="10" stroke-width="1.3612669416666667" stroke-dasharray="12.565541,5.445067766666667"/></g><g><g><path fill="white" stroke="black" paint-order="fill stroke markers" d=" M 90.987082381 59.70516806150002 A 9.311065881 9.311065881 0 1 1 90.98707772546743 59.69585699717086 M 81.67601649999999 69.01623394250002 L 81.67601649999999 88.94518196850002 M 69.914670124 76.20372339450002 L 93.43736287599998 76.20372339450002 M 81.67601649999999 88.94518196850002 L 69.914670124 107.56731373050002 M 81.67601649999999 88.94518196850002 L 93.43736287599998 107.56731373050002" stroke-miterlimit="10" stroke-width="2.7769845610000004" stroke-dasharray=""/></g><g><g/><text fill="black" stroke="none" font-family="sans-serif" font-size="11pt" font-style="normal" font-weight="normal" text-decoration="normal" x="58.866423299316395" y="123.90251703050001" text-anchor="start" dominant-baseline="alphabetic">ME/LO</text></g><path fill="none" stroke="none"/><g><path fill="white" stroke="black" paint-order="fill stroke markers" d=" M 224.8752269973645 84.69802911050002 L 336.9224411564114 84.69802911050002 L 336.9224411564114 128.8030780205 L 224.8752269973645 128.8030780205 L 224.8752269973645 84.69802911050002 Z" stroke-miterlimit="10" stroke-width="2.613632528" stroke-dasharray=""/></g><g><g/><text fill="black" stroke="none" font-family="sans-serif" font-size="11pt" font-style="normal" font-weight="normal" text-decoration="normal" x="242.59892257786453" y="112.46787472049999" text-anchor="start" dominant-baseline="alphabetic">SafeStreets</text></g></g><g><path fill="white" stroke="black" paint-order="fill stroke markers" d=" M 73.50841485 136.97067967049998 L 89.84361814999998 136.97067967049998 L 89.84361814999998 452.2401033605 L 73.50841485 452.2401033605 L 73.50841485 136.97067967049998" stroke-miterlimit="10" stroke-width="1.3612669416666667" stroke-dasharray=""/><path fill="white" stroke="black" paint-order="fill stroke markers" d=" M 272.73123242688797 182.70924891049998 L 289.06643572688796 182.70924891049998 L 289.06643572688796 272.5528670605 L 272.73123242688797 272.5528670605 L 272.73123242688797 182.70924891049998" stroke-miterlimit="10" stroke-width="1.3612669416666667" stroke-dasharray=""/><path fill="white" stroke="black" paint-order="fill stroke markers" d=" M 272.73123242688797 297.05567201049996 L 289.06643572688796 297.05567201049996 L 289.06643572688796 386.89929016049996 L 272.73123242688797 386.89929016049996 L 272.73123242688797 297.05567201049996" stroke-miterlimit="10" stroke-width="1.3612669416666667" stroke-dasharray=""/><g><g><rect fill="white" stroke="none" x="109.17360872166661" y="161.4734846205" width="144.2276331335547" height="21.23576429"/></g><text fill="black" stroke="none" font-family="sans-serif" font-size="11pt" font-style="normal" font-weight="normal" text-decoration="normal" x="111.62388921666661" y="176.17516759049997" text-anchor="start" dominant-baseline="alphabetic">send(GetReportsBy*)</text></g><g><path fill="none" stroke="black" paint-order="fill stroke markers" d=" M 89.84361814999998 182.70924891049998 L 270.00869854355466 182.70924891049998" stroke-miterlimit="10" stroke-width="1.3612669416666667" stroke-dasharray=""/><g transform="translate(272.73123242688797,182.70924891049998) translate(-272.73123242688797,-182.70924891049998)"><path fill="black" stroke="none" paint-order="stroke fill markers" d=" M 259.1185630102213 175.90291420216664 L 272.73123242688797 182.70924891049998 L 259.1185630102213 189.51558361883332 Z"/></g></g><g><g><rect fill="white" stroke="none" x="132.40195649998694" y="251.3171027705" width="97.77093757691406" height="21.23576429"/></g><text fill="black" stroke="none" font-family="sans-serif" font-size="11pt" font-style="normal" font-weight="normal" text-decoration="normal" x="134.85223699498692" y="266.0187857405" text-anchor="start" dominant-baseline="alphabetic">reply(Reports)</text></g><g><path fill="none" stroke="black" paint-order="fill stroke markers" d=" M 272.73123242688797 272.5528670605 L 92.56615203333331 272.5528670605" stroke-miterlimit="10" stroke-width="1.3612669416666667" stroke-dasharray="6.53408132"/><g transform="translate(89.84361814999998,272.5528670605) translate(-89.84361814999998,-272.5528670605)"><path fill="black" stroke="none" paint-order="stroke fill markers" d=" M 103.45628756666665 265.74653235216664 L 89.84361814999998 272.5528670605 L 103.45628756666665 279.3592017688333 Z"/></g></g><g><g><rect fill="white" stroke="none" x="123.03187745945958" y="365.66352587049994" width="116.51109565796875" height="21.23576429"/></g><text fill="black" stroke="none" font-family="sans-serif" font-size="11pt" font-style="normal" font-weight="normal" text-decoration="normal" x="125.48215795445958" y="380.3652088404999" text-anchor="start" dominant-baseline="alphabetic">reply(NoReports)</text></g><g><path fill="none" stroke="black" paint-order="fill stroke markers" d=" M 272.73123242688797 386.89929016049996 L 92.56615203333331 386.89929016049996" stroke-miterlimit="10" stroke-width="1.3612669416666667" stroke-dasharray="6.53408132"/><g transform="translate(89.84361814999998,386.89929016049996) translate(-89.84361814999998,-386.89929016049996)"><path fill="black" stroke="none" paint-order="stroke fill markers" d=" M 103.45628756666665 380.0929554521666 L 89.84361814999998 386.89929016049996 L 103.45628756666665 393.7056248688333 Z"/></g></g><g><g/><path fill="none" stroke="black" paint-order="fill stroke markers" d=" M 16.33520329999999 207.21205386049996 L 338.072045626888 207.21205386049996 L 338.072045626888 297.05567201049996 L 16.33520329999999 297.05567201049996 L 16.33520329999999 207.21205386049996 Z" stroke-miterlimit="10" stroke-width="2.3336004714285714" stroke-dasharray=""/><path fill="white" stroke="black" paint-order="fill stroke markers" d=" M 16.33520329999999 207.21205386049996 L 16.33520329999999 226.81429782049997 L 62.6944068970703 226.81429782049997 L 72.4955288770703 217.01317584049997 L 72.4955288770703 207.21205386049996 L 16.33520329999999 207.21205386049996" stroke-miterlimit="10" stroke-width="2.3336004714285714" stroke-dasharray=""/><text fill="black" stroke="none" font-family="sans-serif" font-size="8.8pt" font-style="normal" font-weight="bold" text-decoration="normal" x="32.67040659999999" y="220.28021650049996" text-anchor="start" dominant-baseline="alphabetic">alt</text><text fill="black" stroke="none" font-family="sans-serif" font-size="8.8pt" font-style="normal" font-weight="bold" text-decoration="normal" x="88.8307321770703" y="220.28021650049996" text-anchor="start" dominant-baseline="alphabetic">[ExistsAtLeastOneReport]</text></g><g><g/><path fill="none" stroke="black" paint-order="fill stroke markers" d=" M 16.33520329999999 321.55847696049995 L 338.072045626888 321.55847696049995 L 338.072045626888 411.40209511049994 L 16.33520329999999 411.40209511049994 L 16.33520329999999 321.55847696049995 Z" stroke-miterlimit="10" stroke-width="2.3336004714285714" stroke-dasharray=""/><path fill="white" stroke="black" paint-order="fill stroke markers" d=" M 16.33520329999999 321.55847696049995 L 16.33520329999999 341.16072092049995 L 62.6944068970703 341.16072092049995 L 72.4955288770703 331.35959894049995 L 72.4955288770703 321.55847696049995 L 16.33520329999999 321.55847696049995" stroke-miterlimit="10" stroke-width="2.3336004714285714" stroke-dasharray=""/><text fill="black" stroke="none" font-family="sans-serif" font-size="8.8pt" font-style="normal" font-weight="bold" text-decoration="normal" x="32.67040659999999" y="334.62663960049997" text-anchor="start" dominant-baseline="alphabetic">alt</text><text fill="black" stroke="none" font-family="sans-serif" font-size="8.8pt" font-style="normal" font-weight="bold" text-decoration="normal" x="88.8307321770703" y="334.62663960049997" text-anchor="start" dominant-baseline="alphabetic">[NotExistsAtLeastOneReport]</text></g></g><g/><g/></g></svg>