<svg version="1.1" xmlns="http://www.w3.org/2000/svg" xmlns:xlink="http://www.w3.org/1999/xlink" width="550" height="1040"><defs/><g><g/><g/><g/><g/><g/><g/><g/><g><rect fill="white" stroke="none" x="0" y="0" width="550" height="1040"/></g><g><text fill="black" stroke="none" font-family="sans-serif" font-size="16.5pt" font-style="normal" font-weight="normal" text-decoration="normal" x="184.62362492740886" y="24.50280495" text-anchor="start" dominant-baseline="alphabetic">Get Improvements</text></g><g/><g><path fill="none" stroke="black" paint-order="fill stroke markers" d=" M 130.6816264 128.80307802049998 L 130.6816264 1040.3074221605" stroke-miterlimit="10" stroke-width="1.3612669416666667" stroke-dasharray="12.565541,5.445067766666667"/><path fill="none" stroke="black" paint-order="fill stroke markers" d=" M 435.8529751923177 128.80307802049998 L 435.8529751923177 1040.3074221605" stroke-miterlimit="10" stroke-width="1.3612669416666667" stroke-dasharray="12.565541,5.445067766666667"/></g><g><g><path fill="white" stroke="black" paint-order="fill stroke markers" d=" M 139.992692281 59.70516806150002 A 9.311065881 9.311065881 0 1 1 139.99268762546745 59.69585699717086 M 130.6816264 69.01623394250002 L 130.6816264 88.94518196850002 M 118.920280024 76.20372339450002 L 142.442972776 76.20372339450002 M 130.6816264 88.94518196850002 L 118.920280024 107.56731373050002 M 130.6816264 88.94518196850002 L 142.442972776 107.56731373050002" stroke-miterlimit="10" stroke-width="2.7769845610000004" stroke-dasharray=""/></g><g><g/><text fill="black" stroke="none" font-family="sans-serif" font-size="11pt" font-style="normal" font-weight="normal" text-decoration="normal" x="119.68663891220703" y="123.90251703050001" text-anchor="start" dominant-baseline="alphabetic">ME</text></g><path fill="none" stroke="none"/><g><path fill="white" stroke="black" paint-order="fill stroke markers" d=" M 379.8293681127942 84.69802911050002 L 491.87658227184113 84.69802911050002 L 491.87658227184113 128.8030780205 L 379.8293681127942 128.8030780205 L 379.8293681127942 84.69802911050002 Z" stroke-miterlimit="10" stroke-width="2.613632528" stroke-dasharray=""/></g><g><g/><text fill="black" stroke="none" font-family="sans-serif" font-size="11pt" font-style="normal" font-weight="normal" text-decoration="normal" x="397.55306369329423" y="112.46787472049999" text-anchor="start" dominant-baseline="alphabetic">SafeStreets</text></g></g><g><path fill="white" stroke="black" paint-order="fill stroke markers" d=" M 122.51402475 136.97067967049998 L 138.84922805 136.97067967049998 L 138.84922805 1023.9722188605 L 122.51402475 1023.9722188605 L 122.51402475 136.97067967049998" stroke-miterlimit="10" stroke-width="1.3612669416666667" stroke-dasharray=""/><path fill="white" stroke="black" paint-order="fill stroke markers" d=" M 427.6853735423177 182.70924891049998 L 444.02057684231767 182.70924891049998 L 444.02057684231767 272.5528670605 L 427.6853735423177 272.5528670605 L 427.6853735423177 182.70924891049998" stroke-miterlimit="10" stroke-width="1.3612669416666667" stroke-dasharray=""/><path fill="white" stroke="black" paint-order="fill stroke markers" d=" M 427.6853735423177 406.50153412049997 L 444.02057684231767 406.50153412049997 L 444.02057684231767 452.2401033605 L 427.6853735423177 452.2401033605 L 427.6853735423177 406.50153412049997" stroke-miterlimit="10" stroke-width="1.3612669416666667" stroke-dasharray=""/><path fill="white" stroke="black" paint-order="fill stroke markers" d=" M 130.6816264 558.4189248104999 L 147.0168297 558.4189248104999 L 147.0168297 599.2569330604999 L 130.6816264 599.2569330604999 L 130.6816264 558.4189248104999" stroke-miterlimit="10" stroke-width="1.3612669416666667" stroke-dasharray=""/><path fill="white" stroke="black" paint-order="fill stroke markers" d=" M 130.6816264 729.9385594604998 L 147.0168297 729.9385594604998 L 147.0168297 770.7765677104999 L 130.6816264 770.7765677104999 L 130.6816264 729.9385594604998" stroke-miterlimit="10" stroke-width="1.3612669416666667" stroke-dasharray=""/><path fill="white" stroke="black" paint-order="fill stroke markers" d=" M 427.6853735423177 868.7877875105 L 444.02057684231767 868.7877875105 L 444.02057684231767 958.6314056605 L 427.6853735423177 958.6314056605 L 427.6853735423177 868.7877875105" stroke-miterlimit="10" stroke-width="1.3612669416666667" stroke-dasharray=""/><g><g><rect fill="white" stroke="none" x="201.78698337488927" y="161.4734846205" width="162.96063484253906" height="21.23576429"/></g><text fill="black" stroke="none" font-family="sans-serif" font-size="11pt" font-style="normal" font-weight="normal" text-decoration="normal" x="204.23726386988926" y="176.17516759049997" text-anchor="start" dominant-baseline="alphabetic">send(GetImprovements)</text></g><g><path fill="none" stroke="black" paint-order="fill stroke markers" d=" M 138.84922805 182.70924891049998 L 424.96283965898436 182.70924891049998" stroke-miterlimit="10" stroke-width="1.3612669416666667" stroke-dasharray=""/><g transform="translate(427.6853735423177,182.70924891049998) translate(-427.6853735423177,-182.70924891049998)"><path fill="black" stroke="none" paint-order="stroke fill markers" d=" M 414.072704125651 175.90291420216664 L 427.6853735423177 182.70924891049998 L 414.072704125651 189.51558361883332 Z"/></g></g><g><g><rect fill="white" stroke="none" x="213.60875308924474" y="251.3171027705" width="139.31709541382813" height="21.23576429"/></g><text fill="black" stroke="none" font-family="sans-serif" font-size="11pt" font-style="normal" font-weight="normal" text-decoration="normal" x="216.05903358424473" y="266.0187857405" text-anchor="start" dominant-baseline="alphabetic">reply(Improvements)</text></g><g><path fill="none" stroke="black" paint-order="fill stroke markers" d=" M 427.6853735423177 272.5528670605 L 141.57176193333333 272.5528670605" stroke-miterlimit="10" stroke-width="1.3612669416666667" stroke-dasharray="6.53408132"/><g transform="translate(138.84922805,272.5528670605) translate(-138.84922805,-272.5528670605)"><path fill="black" stroke="none" paint-order="stroke fill markers" d=" M 152.46189746666667 265.74653235216664 L 138.84922805 272.5528670605 L 152.46189746666667 279.3592017688333 Z"/></g></g><g><g><rect fill="white" stroke="none" x="162.26301944666662" y="385.26576983049995" width="242.00856269898438" height="21.23576429"/></g><text fill="black" stroke="none" font-family="sans-serif" font-size="11pt" font-style="normal" font-weight="normal" text-decoration="normal" x="164.7132999416666" y="399.9674528004999" text-anchor="start" dominant-baseline="alphabetic">send(SetImprovementAsCompleted)</text></g><g><path fill="none" stroke="black" paint-order="fill stroke markers" d=" M 138.84922805 406.50153412049997 L 424.96283965898436 406.50153412049997" stroke-miterlimit="10" stroke-width="1.3612669416666667" stroke-dasharray=""/><g transform="translate(427.6853735423177,406.50153412049997) translate(-427.6853735423177,-406.50153412049997)"><path fill="black" stroke="none" paint-order="stroke fill markers" d=" M 414.072704125651 399.69519941216663 L 427.6853735423177 406.50153412049997 L 414.072704125651 413.3078688288333 Z"/></g></g><g><g><rect fill="white" stroke="none" x="228.26515567713537" y="431.00433907049995" width="110.00429023804688" height="21.23576429"/></g><text fill="black" stroke="none" font-family="sans-serif" font-size="11pt" font-style="normal" font-weight="normal" text-decoration="normal" x="230.71543617213536" y="445.70602204049993" text-anchor="start" dominant-baseline="alphabetic">reply(StatusSet)</text></g><g><path fill="none" stroke="black" paint-order="fill stroke markers" d=" M 427.6853735423177 452.2401033605 L 141.57176193333333 452.2401033605" stroke-miterlimit="10" stroke-width="1.3612669416666667" stroke-dasharray=""/><g transform="translate(138.84922805,452.2401033605) translate(-138.84922805,-452.2401033605)"><path fill="black" stroke="none" paint-order="stroke fill markers" d=" M 152.46189746666667 445.43376865216663 L 138.84922805 452.2401033605 L 152.46189746666667 459.0464380688333 Z"/></g></g><g><g><rect fill="white" stroke="none" x="166.34682027166667" y="520.8479572204999" width="129.43165840210938" height="21.23576429"/></g><text fill="black" stroke="none" font-family="sans-serif" font-size="11pt" font-style="normal" font-weight="normal" text-decoration="normal" x="168.79710076666666" y="535.5496401904999" text-anchor="start" dominant-baseline="alphabetic">NotFinished = True</text></g><g><path fill="none" stroke="black" paint-order="fill stroke markers" d=" M 138.84922805 542.0837215104999 L 212.35764289999997 542.0837215104999 L 212.35764289999997 558.4189248104999 L 149.73936358333333 558.4189248104999" stroke-miterlimit="10" stroke-width="1.3612669416666667" stroke-dasharray=""/><g transform="translate(147.0168297,558.4189248104999) translate(-147.0168297,-558.4189248104999)"><path fill="black" stroke="none" paint-order="stroke fill markers" d=" M 160.62949911666666 551.6125901021666 L 147.0168297 558.4189248104999 L 160.62949911666666 565.2252595188332 Z"/></g></g><g><g><rect fill="white" stroke="none" x="166.34682027166667" y="692.3675918704998" width="135.68077339234375" height="21.23576429"/></g><text fill="black" stroke="none" font-family="sans-serif" font-size="11pt" font-style="normal" font-weight="normal" text-decoration="normal" x="168.79710076666666" y="707.0692748404998" text-anchor="start" dominant-baseline="alphabetic">NotFinished = False</text></g><g><path fill="none" stroke="black" paint-order="fill stroke markers" d=" M 138.84922805 713.6033561604999 L 212.35764289999997 713.6033561604999 L 212.35764289999997 729.9385594604998 L 149.73936358333333 729.9385594604998" stroke-miterlimit="10" stroke-width="1.3612669416666667" stroke-dasharray=""/><g transform="translate(147.0168297,729.9385594604998) translate(-147.0168297,-729.9385594604998)"><path fill="black" stroke="none" paint-order="stroke fill markers" d=" M 160.62949911666666 723.1322247521665 L 147.0168297 729.9385594604998 L 160.62949911666666 736.7448941688332 Z"/></g></g><g><g><rect fill="white" stroke="none" x="204.2386740487174" y="937.3956413705" width="158.05725349488281" height="21.23576429"/></g><text fill="black" stroke="none" font-family="sans-serif" font-size="11pt" font-style="normal" font-weight="normal" text-decoration="normal" x="206.6889545437174" y="952.0973243405" text-anchor="start" dominant-baseline="alphabetic">reply(NoImprovements)</text></g><g><path fill="none" stroke="black" paint-order="fill stroke markers" d=" M 427.6853735423177 958.6314056605 L 141.57176193333333 958.6314056605" stroke-miterlimit="10" stroke-width="1.3612669416666667" stroke-dasharray="6.53408132"/><g transform="translate(138.84922805,958.6314056605) translate(-138.84922805,-958.6314056605)"><path fill="black" stroke="none" paint-order="stroke fill markers" d=" M 152.46189746666667 951.8250709521667 L 138.84922805 958.6314056605 L 152.46189746666667 965.4377403688334 Z"/></g></g><g><g/><path fill="none" stroke="black" paint-order="fill stroke markers" d=" M 16.335203299999996 207.21205386049996 L 525.6965933423177 207.21205386049996 L 525.6965933423177 868.7877875105 L 16.335203299999996 868.7877875105 L 16.335203299999996 207.21205386049996 Z" stroke-miterlimit="10" stroke-width="2.3336004714285714" stroke-dasharray=""/><path fill="white" stroke="black" paint-order="fill stroke markers" d=" M 16.335203299999996 207.21205386049996 L 16.335203299999996 226.81429782049997 L 62.69440689707031 226.81429782049997 L 72.49552887707031 217.01317584049997 L 72.49552887707031 207.21205386049996 L 16.335203299999996 207.21205386049996" stroke-miterlimit="10" stroke-width="2.3336004714285714" stroke-dasharray=""/><text fill="black" stroke="none" font-family="sans-serif" font-size="8.8pt" font-style="normal" font-weight="bold" text-decoration="normal" x="32.67040659999999" y="220.28021650049996" text-anchor="start" dominant-baseline="alphabetic">alt</text><text fill="black" stroke="none" font-family="sans-serif" font-size="8.8pt" font-style="normal" font-weight="bold" text-decoration="normal" x="88.83073217707032" y="220.28021650049996" text-anchor="start" dominant-baseline="alphabetic">[ExistsAtLeastOneImprovement]</text></g><g><g/><path fill="none" stroke="black" paint-order="fill stroke markers" d=" M 32.6704066 297.05567201049996 L 509.3613900423177 297.05567201049996 L 509.3613900423177 844.2849825605 L 32.6704066 844.2849825605 L 32.6704066 297.05567201049996 Z" stroke-miterlimit="10" stroke-width="2.3336004714285714" stroke-dasharray=""/><path fill="white" stroke="black" paint-order="fill stroke markers" d=" M 32.6704066 297.05567201049996 L 32.6704066 316.65791597049997 L 79.02961019707031 316.65791597049997 L 88.83073217707032 306.85679399049997 L 88.83073217707032 297.05567201049996 L 32.6704066 297.05567201049996" stroke-miterlimit="10" stroke-width="2.3336004714285714" stroke-dasharray=""/><text fill="black" stroke="none" font-family="sans-serif" font-size="8.8pt" font-style="normal" font-weight="bold" text-decoration="normal" x="49.005609899999996" y="310.1238346505" text-anchor="start" dominant-baseline="alphabetic">alt</text><text fill="black" stroke="none" font-family="sans-serif" font-size="8.8pt" font-style="normal" font-weight="bold" text-decoration="normal" x="105.16593547707032" y="310.1238346505" text-anchor="start" dominant-baseline="alphabetic">[ExistsAtLeastOneImprovementToBeSetCompleted]</text></g><g><g/><path fill="none" stroke="black" paint-order="fill stroke markers" d=" M 49.0056099 341.16072092049995 L 493.0261867423177 341.16072092049995 L 493.0261867423177 819.7821776105 L 49.0056099 819.7821776105 L 49.0056099 341.16072092049995 Z" stroke-miterlimit="10" stroke-width="2.3336004714285714" stroke-dasharray=""/><path fill="white" stroke="black" paint-order="fill stroke markers" d=" M 49.0056099 341.16072092049995 L 49.0056099 360.76296488049996 L 106.43041103125 360.76296488049996 L 116.23153301125001 350.96184290049996 L 116.23153301125001 341.16072092049995 L 49.0056099 341.16072092049995" stroke-miterlimit="10" stroke-width="2.3336004714285714" stroke-dasharray=""/><text fill="black" stroke="none" font-family="sans-serif" font-size="8.8pt" font-style="normal" font-weight="bold" text-decoration="normal" x="65.3408132" y="354.2288835605" text-anchor="start" dominant-baseline="alphabetic">loop</text><text fill="black" stroke="none" font-family="sans-serif" font-size="8.8pt" font-style="normal" font-weight="bold" text-decoration="normal" x="132.56673631125" y="354.2288835605" text-anchor="start" dominant-baseline="alphabetic">[NotFinished == True]</text></g><g><g/><path fill="none" stroke="black" paint-order="fill stroke markers" d=" M 73.50841485000001 476.74290831049996 L 301.49579982877606 476.74290831049996 L 301.49579982877606 623.7597380105 L 73.50841485000001 623.7597380105 L 73.50841485000001 476.74290831049996 Z" stroke-miterlimit="10" stroke-width="2.3336004714285714" stroke-dasharray=""/><path fill="white" stroke="black" paint-order="fill stroke markers" d=" M 73.50841485000001 476.74290831049996 L 73.50841485000001 496.34515227049997 L 119.86761844707033 496.34515227049997 L 129.66874042707033 486.54403029049996 L 129.66874042707033 476.74290831049996 L 73.50841485000001 476.74290831049996" stroke-miterlimit="10" stroke-width="2.3336004714285714" stroke-dasharray=""/><text fill="black" stroke="none" font-family="sans-serif" font-size="8.8pt" font-style="normal" font-weight="bold" text-decoration="normal" x="89.84361815000001" y="489.8110709505" text-anchor="start" dominant-baseline="alphabetic">alt</text><text fill="black" stroke="none" font-family="sans-serif" font-size="8.8pt" font-style="normal" font-weight="bold" text-decoration="normal" x="146.00394372707032" y="489.8110709505" text-anchor="start" dominant-baseline="alphabetic">[StillSettingStatus]</text></g><g><g/><path fill="none" stroke="black" paint-order="fill stroke markers" d=" M 73.50841485000001 648.2625429604999 L 307.74491481901043 648.2625429604999 L 307.74491481901043 795.2793726604999 L 73.50841485000001 795.2793726604999 L 73.50841485000001 648.2625429604999 Z" stroke-miterlimit="10" stroke-width="2.3336004714285714" stroke-dasharray=""/><path fill="white" stroke="black" paint-order="fill stroke markers" d=" M 73.50841485000001 648.2625429604999 L 73.50841485000001 667.8647869204999 L 119.86761844707033 667.8647869204999 L 129.66874042707033 658.0636649404998 L 129.66874042707033 648.2625429604999 L 73.50841485000001 648.2625429604999" stroke-miterlimit="10" stroke-width="2.3336004714285714" stroke-dasharray=""/><text fill="black" stroke="none" font-family="sans-serif" font-size="8.8pt" font-style="normal" font-weight="bold" text-decoration="normal" x="89.84361815000001" y="661.3307056004999" text-anchor="start" dominant-baseline="alphabetic">alt</text><text fill="black" stroke="none" font-family="sans-serif" font-size="8.8pt" font-style="normal" font-weight="bold" text-decoration="normal" x="146.00394372707032" y="661.3307056004999" text-anchor="start" dominant-baseline="alphabetic">[FinishSettingStatus]</text></g><g><g/><path fill="none" stroke="black" paint-order="fill stroke markers" d=" M 65.34081320000001 893.2905924605001 L 493.0261867423177 893.2905924605001 L 493.0261867423177 983.1342106105001 L 65.34081320000001 983.1342106105001 L 65.34081320000001 893.2905924605001 Z" stroke-miterlimit="10" stroke-width="2.3336004714285714" stroke-dasharray=""/><path fill="white" stroke="black" paint-order="fill stroke markers" d=" M 65.34081320000001 893.2905924605001 L 65.34081320000001 912.8928364205001 L 111.70001679707033 912.8928364205001 L 121.50113877707034 903.0917144405 L 121.50113877707034 893.2905924605001 L 65.34081320000001 893.2905924605001" stroke-miterlimit="10" stroke-width="2.3336004714285714" stroke-dasharray=""/><text fill="black" stroke="none" font-family="sans-serif" font-size="8.8pt" font-style="normal" font-weight="bold" text-decoration="normal" x="81.67601650000002" y="906.3587551005" text-anchor="start" dominant-baseline="alphabetic">alt</text><text fill="black" stroke="none" font-family="sans-serif" font-size="8.8pt" font-style="normal" font-weight="bold" text-decoration="normal" x="137.83634207707033" y="906.3587551005" text-anchor="start" dominant-baseline="alphabetic">[NotEnoughData]</text></g></g><g/><g/></g></svg>