<svg version="1.1" xmlns="http://www.w3.org/2000/svg" xmlns:xlink="http://www.w3.org/1999/xlink" width="1606" height="1200"><defs/><g><g/><g/><g/><g/><g/><g/><g/><g/><g/><g/><g/><g/><g/><g/><g/><g/><g/><g/><g/><g><rect fill="white" stroke="none" x="0" y="0" width="1606" height="1200"/></g><g><text fill="black" stroke="none" font-family="sans-serif" font-size="16.5pt" font-style="normal" font-weight="normal" text-decoration="normal" x="747.6924998146682" y="24.50280495" text-anchor="start" dominant-baseline="alphabetic">Add Report</text></g><g/><g><path fill="none" stroke="black" paint-order="fill stroke markers" d=" M 19.928948026 128.80307802049998 L 19.928948026 1200.3924145004996" stroke-miterlimit="10" stroke-width="1.3612669416666667" stroke-dasharray="12.565541,5.445067766666667"/><path fill="none" stroke="black" paint-order="fill stroke markers" d=" M 111.40517068368227 128.80307802049998 L 111.40517068368227 1200.3924145004996" stroke-miterlimit="10" stroke-width="1.3612669416666667" stroke-dasharray="12.565541,5.445067766666667"/><path fill="none" stroke="black" paint-order="fill stroke markers" d=" M 291.8949865515859 128.80307802049998 L 291.8949865515859 1200.3924145004996" stroke-miterlimit="10" stroke-width="1.3612669416666667" stroke-dasharray="12.565541,5.445067766666667"/><path fill="none" stroke="black" paint-order="fill stroke markers" d=" M 506.6009736841379 128.80307802049998 L 506.6009736841379 1200.3924145004996" stroke-miterlimit="10" stroke-width="1.3612669416666667" stroke-dasharray="12.565541,5.445067766666667"/><path fill="none" stroke="black" paint-order="fill stroke markers" d=" M 726.1673734143462 128.80307802049998 L 726.1673734143462 1200.3924145004996" stroke-miterlimit="10" stroke-width="1.3612669416666667" stroke-dasharray="12.565541,5.445067766666667"/><path fill="none" stroke="black" paint-order="fill stroke markers" d=" M 942.5197381103749 128.80307802049998 L 942.5197381103749 1200.3924145004996" stroke-miterlimit="10" stroke-width="1.3612669416666667" stroke-dasharray="12.565541,5.445067766666667"/><path fill="none" stroke="black" paint-order="fill stroke markers" d=" M 1268.8863087390207 128.80307802049998 L 1268.8863087390207 1200.3924145004996" stroke-miterlimit="10" stroke-width="1.3612669416666667" stroke-dasharray="12.565541,5.445067766666667"/><path fill="none" stroke="black" paint-order="fill stroke markers" d=" M 1385.620214196996 128.80307802049998 L 1385.620214196996 1200.3924145004996" stroke-miterlimit="10" stroke-width="1.3612669416666667" stroke-dasharray="12.565541,5.445067766666667"/><path fill="none" stroke="black" paint-order="fill stroke markers" d=" M 1542.0819973817465 128.80307802049998 L 1542.0819973817465 1200.3924145004996" stroke-miterlimit="10" stroke-width="1.3612669416666667" stroke-dasharray="12.565541,5.445067766666667"/></g><g><g><path fill="white" stroke="black" paint-order="fill stroke markers" d=" M 29.240013906999998 59.70516806150002 A 9.311065881 9.311065881 0 1 1 29.24000925146745 59.69585699717086 M 19.928948026 69.01623394250002 L 19.928948026 88.94518196850002 M 8.167601650000002 76.20372339450002 L 31.690294402 76.20372339450002 M 19.928948026 88.94518196850002 L 8.167601650000002 107.56731373050002 M 19.928948026 88.94518196850002 L 31.690294402 107.56731373050002" stroke-miterlimit="10" stroke-width="2.7769845610000004" stroke-dasharray=""/></g><g><g/><text fill="black" stroke="none" font-family="sans-serif" font-size="11pt" font-style="normal" font-weight="normal" text-decoration="normal" x="9.34197292834375" y="123.90251703050001" text-anchor="start" dominant-baseline="alphabetic">RU</text></g><path fill="none" stroke="none"/><g><path fill="white" stroke="black" paint-order="fill stroke markers" d=" M 82.6864876153893 84.69802911050002 L 140.12385375197522 84.69802911050002 L 140.12385375197522 128.8030780205 L 82.6864876153893 128.8030780205 L 82.6864876153893 84.69802911050002 Z" stroke-miterlimit="10" stroke-width="2.613632528" stroke-dasharray=""/></g><g><g/><text fill="black" stroke="none" font-family="sans-serif" font-size="11pt" font-style="normal" font-weight="normal" text-decoration="normal" x="100.4101831958893" y="112.46787472049999" text-anchor="start" dominant-baseline="alphabetic">MS</text></g><path fill="none" stroke="none"/><g><path fill="white" stroke="black" paint-order="fill stroke markers" d=" M 224.06035957460148 84.69802911050002 L 359.7296135285702 84.69802911050002 L 359.7296135285702 128.8030780205 L 224.06035957460148 128.8030780205 L 224.06035957460148 84.69802911050002 Z" stroke-miterlimit="10" stroke-width="2.613632528" stroke-dasharray=""/></g><g><g/><text fill="black" stroke="none" font-family="sans-serif" font-size="11pt" font-style="normal" font-weight="normal" text-decoration="normal" x="241.7840551551015" y="112.46787472049999" text-anchor="start" dominant-baseline="alphabetic">UserMobileApp</text></g><path fill="none" stroke="none"/><g><path fill="white" stroke="black" paint-order="fill stroke markers" d=" M 452.34902645568866 84.69802911050002 L 560.8529209125871 84.69802911050002 L 560.8529209125871 128.8030780205 L 452.34902645568866 128.8030780205 L 452.34902645568866 84.69802911050002 Z" stroke-miterlimit="10" stroke-width="2.613632528" stroke-dasharray=""/></g><g><g/><text fill="black" stroke="none" font-family="sans-serif" font-size="11pt" font-style="normal" font-weight="normal" text-decoration="normal" x="470.0727220361887" y="112.46787472049999" text-anchor="start" dominant-baseline="alphabetic">WebServer</text></g><path fill="none" stroke="none"/><g><path fill="white" stroke="black" paint-order="fill stroke markers" d=" M 686.4429683001548 84.69802911050002 L 765.8917785285377 84.69802911050002 L 765.8917785285377 128.8030780205 L 686.4429683001548 128.8030780205 L 686.4429683001548 84.69802911050002 Z" stroke-miterlimit="10" stroke-width="2.613632528" stroke-dasharray=""/></g><g><g/><text fill="black" stroke="none" font-family="sans-serif" font-size="11pt" font-style="normal" font-weight="normal" text-decoration="normal" x="704.1666638806548" y="112.46787472049999" text-anchor="start" dominant-baseline="alphabetic">Router</text></g><path fill="none" stroke="none"/><g><path fill="white" stroke="black" paint-order="fill stroke markers" d=" M 873.8726569097577 84.69802911050002 L 1011.1668193109921 84.69802911050002 L 1011.1668193109921 128.8030780205 L 873.8726569097577 128.8030780205 L 873.8726569097577 84.69802911050002 Z" stroke-miterlimit="10" stroke-width="2.613632528" stroke-dasharray=""/></g><g><g/><text fill="black" stroke="none" font-family="sans-serif" font-size="11pt" font-style="normal" font-weight="normal" text-decoration="normal" x="891.5963524902577" y="112.46787472049999" text-anchor="start" dominant-baseline="alphabetic">ReportReceiver</text></g><path fill="none" stroke="none"/><g><path fill="white" stroke="black" paint-order="fill stroke markers" d=" M 1229.9850847771731 84.69802911050002 L 1307.7875327008685 84.69802911050002 L 1307.7875327008685 128.8030780205 L 1229.9850847771731 128.8030780205 L 1229.9850847771731 84.69802911050002 Z" stroke-miterlimit="10" stroke-width="2.613632528" stroke-dasharray=""/></g><g><g/><text fill="black" stroke="none" font-family="sans-serif" font-size="11pt" font-style="normal" font-weight="normal" text-decoration="normal" x="1247.708780357673" y="112.46787472049999" text-anchor="start" dominant-baseline="alphabetic">OCRS</text></g><path fill="none" stroke="none"/><g><path fill="white" stroke="black" paint-order="fill stroke markers" d=" M 1346.7189978645429 84.69802911050002 L 1424.5214305294492 84.69802911050002 L 1424.5214305294492 128.8030780205 L 1346.7189978645429 128.8030780205 L 1346.7189978645429 84.69802911050002 Z" stroke-miterlimit="10" stroke-width="2.613632528" stroke-dasharray=""/></g><g><g/><text fill="black" stroke="none" font-family="sans-serif" font-size="11pt" font-style="normal" font-weight="normal" text-decoration="normal" x="1364.4426934450428" y="112.46787472049999" text-anchor="start" dominant-baseline="alphabetic">DBMS</text></g><path fill="none" stroke="none"/><g><path fill="white" stroke="black" paint-order="fill stroke markers" d=" M 1485.6575342841568 84.69802911050002 L 1598.5064604793365 84.69802911050002 L 1598.5064604793365 128.8030780205 L 1485.6575342841568 128.8030780205 L 1485.6575342841568 84.69802911050002 Z" stroke-miterlimit="10" stroke-width="2.613632528" stroke-dasharray=""/></g><g><g/><text fill="black" stroke="none" font-family="sans-serif" font-size="11pt" font-style="normal" font-weight="normal" text-decoration="normal" x="1503.3812298646567" y="112.46787472049999" text-anchor="start" dominant-baseline="alphabetic">MapService</text></g></g><g><path fill="white" stroke="black" paint-order="fill stroke markers" d=" M 11.761346376 136.97067967049998 L 28.096549676000002 136.97067967049998 L 28.096549676000002 1184.0572112004995 L 11.761346376 1184.0572112004995 L 11.761346376 136.97067967049998" stroke-miterlimit="10" stroke-width="1.3612669416666667" stroke-dasharray=""/><path fill="white" stroke="black" paint-order="fill stroke markers" d=" M 283.7273849015859 182.70924891049998 L 300.06258820158587 182.70924891049998 L 300.06258820158587 1143.2192029504997 L 283.7273849015859 1143.2192029504997 L 283.7273849015859 182.70924891049998" stroke-miterlimit="10" stroke-width="1.3612669416666667" stroke-dasharray=""/><path fill="white" stroke="black" paint-order="fill stroke markers" d=" M 103.23756903368228 228.44781815049998 L 119.57277233368227 228.44781815049998 L 119.57277233368227 274.1863873905 L 103.23756903368228 274.1863873905 L 103.23756903368228 228.44781815049998" stroke-miterlimit="10" stroke-width="1.3612669416666667" stroke-dasharray=""/><path fill="white" stroke="black" paint-order="fill stroke markers" d=" M 498.4333720341379 411.4020951105 L 514.768575334138 411.4020951105 L 514.768575334138 1097.4806337104997 L 498.4333720341379 1097.4806337104997 L 498.4333720341379 411.4020951105" stroke-miterlimit="10" stroke-width="1.3612669416666667" stroke-dasharray=""/><path fill="white" stroke="black" paint-order="fill stroke markers" d=" M 717.9997717643462 457.1406643505 L 734.3349750643463 457.1406643505 L 734.3349750643463 1051.7420644704996 L 717.9997717643462 1051.7420644704996 L 717.9997717643462 457.1406643505" stroke-miterlimit="10" stroke-width="1.3612669416666667" stroke-dasharray=""/><path fill="white" stroke="black" paint-order="fill stroke markers" d=" M 934.3521364603748 502.8792335905 L 950.6873397603749 502.8792335905 L 950.6873397603749 1006.0034952304997 L 934.3521364603748 1006.0034952304997 L 934.3521364603748 502.8792335905" stroke-miterlimit="10" stroke-width="1.3612669416666667" stroke-dasharray=""/><path fill="white" stroke="black" paint-order="fill stroke markers" d=" M 1260.7187070890207 548.6178028305 L 1277.0539103890208 548.6178028305 L 1277.0539103890208 638.4614209804998 L 1260.7187070890207 638.4614209804998 L 1260.7187070890207 548.6178028305" stroke-miterlimit="10" stroke-width="1.3612669416666667" stroke-dasharray=""/><path fill="white" stroke="black" paint-order="fill stroke markers" d=" M 1260.7187070890207 662.9642259304999 L 1277.0539103890208 662.9642259304999 L 1277.0539103890208 752.8078440804999 L 1260.7187070890207 752.8078440804999 L 1260.7187070890207 662.9642259304999" stroke-miterlimit="10" stroke-width="1.3612669416666667" stroke-dasharray=""/><path fill="white" stroke="black" paint-order="fill stroke markers" d=" M 1533.9143957317465 823.0492182704999 L 1550.2495990317466 823.0492182704999 L 1550.2495990317466 868.7877875104998 L 1533.9143957317465 868.7877875104998 L 1533.9143957317465 823.0492182704999" stroke-miterlimit="10" stroke-width="1.3612669416666667" stroke-dasharray=""/><path fill="white" stroke="black" paint-order="fill stroke markers" d=" M 1377.4526125469959 914.5263567504998 L 1393.787815846996 914.5263567504998 L 1393.787815846996 960.2649259904997 L 1377.4526125469959 960.2649259904997 L 1377.4526125469959 914.5263567504998" stroke-miterlimit="10" stroke-width="1.3612669416666667" stroke-dasharray=""/><g><g><rect fill="white" stroke="none" x="104.16320962094137" y="161.4734846205" width="103.49751533570313" height="21.23576429"/></g><text fill="black" stroke="none" font-family="sans-serif" font-size="11pt" font-style="normal" font-weight="normal" text-decoration="normal" x="106.61349011594137" y="176.17516759049997" text-anchor="start" dominant-baseline="alphabetic">startAddReport</text></g><g><path fill="none" stroke="black" paint-order="fill stroke markers" d=" M 28.096549676000002 182.70924891049998 L 281.00485101825257 182.70924891049998" stroke-miterlimit="10" stroke-width="1.3612669416666667" stroke-dasharray=""/><g transform="translate(283.7273849015859,182.70924891049998) translate(-283.7273849015859,-182.70924891049998)"><path fill="black" stroke="none" paint-order="stroke fill markers" d=" M 270.1147154849192 175.90291420216664 L 283.7273849015859 182.70924891049998 L 270.1147154849192 189.51558361883332 Z"/></g></g><g><g><rect fill="white" stroke="none" x="138.9027629053489" y="207.2120538605" width="125.49463142457031" height="21.23576429"/></g><text fill="black" stroke="none" font-family="sans-serif" font-size="11pt" font-style="normal" font-weight="normal" text-decoration="normal" x="141.3530434003489" y="221.91373683049997" text-anchor="start" dominant-baseline="alphabetic">fetchMap(position)</text></g><g><path fill="none" stroke="black" paint-order="fill stroke markers" d=" M 283.7273849015859 228.44781815049998 L 122.2953062170156 228.44781815049998" stroke-miterlimit="10" stroke-width="1.3612669416666667" stroke-dasharray=""/><g transform="translate(119.57277233368227,228.44781815049998) translate(-119.57277233368227,-228.44781815049998)"><path fill="black" stroke="none" paint-order="stroke fill markers" d=" M 133.18544175034893 221.64148344216665 L 119.57277233368227 228.44781815049998 L 133.18544175034893 235.25415285883332 Z"/></g></g><g><g><rect fill="white" stroke="none" x="184.9406733667747" y="252.9506231005" width="33.41881050171875" height="21.23576429"/></g><text fill="black" stroke="none" font-family="sans-serif" font-size="11pt" font-style="normal" font-weight="normal" text-decoration="normal" x="187.39095386177468" y="267.6523060705" text-anchor="start" dominant-baseline="alphabetic">map</text></g><g><path fill="none" stroke="black" paint-order="fill stroke markers" d=" M 119.57277233368227 274.1863873905 L 281.00485101825257 274.1863873905" stroke-miterlimit="10" stroke-width="1.3612669416666667" stroke-dasharray="6.53408132"/><g transform="translate(283.7273849015859,274.1863873905) translate(-283.7273849015859,-274.1863873905)"><path fill="black" stroke="none" paint-order="stroke fill markers" d=" M 270.1147154849192 267.38005268216665 L 283.7273849015859 274.1863873905 L 270.1147154849192 280.9927220988333 Z"/></g></g><g><g><rect fill="white" stroke="none" x="153.46168679379295" y="298.6891923405" width="4.90056099" height="21.23576429"/></g><text fill="black" stroke="none" font-family="sans-serif" font-size="11pt" font-style="normal" font-weight="normal" text-decoration="normal" x="155.91196728879294" y="313.39087531049995" text-anchor="start" dominant-baseline="alphabetic"></text></g><g><path fill="none" stroke="black" paint-order="fill stroke markers" d=" M 283.7273849015859 319.9249566305 L 30.819083559333336 319.9249566305" stroke-miterlimit="10" stroke-width="1.3612669416666667" stroke-dasharray="6.53408132"/><g transform="translate(28.096549676000002,319.9249566305) translate(-28.096549676000002,-319.9249566305)"><path fill="black" stroke="none" paint-order="stroke fill markers" d=" M 41.70921909266667 313.11862192216665 L 28.096549676000002 319.9249566305 L 41.70921909266667 326.73129133883333 Z"/></g></g><g><g><rect fill="white" stroke="none" x="110.68432778500387" y="344.4277615805" width="90.45527900757813" height="21.23576429"/></g><text fill="black" stroke="none" font-family="sans-serif" font-size="11pt" font-style="normal" font-weight="normal" text-decoration="normal" x="113.13460828000387" y="359.12944455049995" text-anchor="start" dominant-baseline="alphabetic">send(Report)</text></g><g><path fill="none" stroke="black" paint-order="fill stroke markers" d=" M 28.096549676000002 365.6635258705 L 281.00485101825257 365.6635258705" stroke-miterlimit="10" stroke-width="1.3612669416666667" stroke-dasharray=""/><g transform="translate(283.7273849015859,365.6635258705) translate(-283.7273849015859,-365.6635258705)"><path fill="black" stroke="none" paint-order="stroke fill markers" d=" M 270.1147154849192 358.85719116216666 L 283.7273849015859 365.6635258705 L 270.1147154849192 372.46986057883333 Z"/></g></g><g><g><rect fill="white" stroke="none" x="319.39257877325247" y="390.1663308205" width="159.71080268921875" height="21.23576429"/></g><text fill="black" stroke="none" font-family="sans-serif" font-size="11pt" font-style="normal" font-weight="normal" text-decoration="normal" x="321.8428592682525" y="404.86801379049996" text-anchor="start" dominant-baseline="alphabetic">handleRequest(xmlFile)</text></g><g><path fill="none" stroke="black" paint-order="fill stroke markers" d=" M 300.06258820158587 411.4020951105 L 495.7108381508046 411.4020951105" stroke-miterlimit="10" stroke-width="1.3612669416666667" stroke-dasharray=""/><g transform="translate(498.4333720341379,411.4020951105) translate(-498.4333720341379,-411.4020951105)"><path fill="black" stroke="none" paint-order="stroke fill markers" d=" M 484.8207026174712 404.59576040216666 L 498.4333720341379 411.4020951105 L 484.8207026174712 418.20842981883334 Z"/></g></g><g><g><rect fill="white" stroke="none" x="534.0985659058045" y="435.9049000605" width="164.571215286875" height="21.23576429"/></g><text fill="black" stroke="none" font-family="sans-serif" font-size="11pt" font-style="normal" font-weight="normal" text-decoration="normal" x="536.5488464008046" y="450.60658303049996" text-anchor="start" dominant-baseline="alphabetic">forwardRequest(xmlFile)</text></g><g><path fill="none" stroke="black" paint-order="fill stroke markers" d=" M 514.768575334138 457.1406643505 L 715.2772378810129 457.1406643505" stroke-miterlimit="10" stroke-width="1.3612669416666667" stroke-dasharray=""/><g transform="translate(717.9997717643462,457.1406643505) translate(-717.9997717643462,-457.1406643505)"><path fill="black" stroke="none" paint-order="stroke fill markers" d=" M 704.3871023476795 450.33432964216667 L 717.9997717643462 457.1406643505 L 704.3871023476795 463.94699905883334 Z"/></g></g><g><g><rect fill="white" stroke="none" x="753.6649656360129" y="481.6434693005" width="161.35718025269531" height="21.23576429"/></g><text fill="black" stroke="none" font-family="sans-serif" font-size="11pt" font-style="normal" font-weight="normal" text-decoration="normal" x="756.1152461310129" y="496.34515227049997" text-anchor="start" dominant-baseline="alphabetic">addReport(report,token)</text></g><g><path fill="none" stroke="black" paint-order="fill stroke markers" d=" M 734.3349750643463 502.8792335905 L 931.6296025770415 502.8792335905" stroke-miterlimit="10" stroke-width="1.3612669416666667" stroke-dasharray=""/><g transform="translate(934.3521364603748,502.8792335905) translate(-934.3521364603748,-502.8792335905)"><path fill="black" stroke="none" paint-order="stroke fill markers" d=" M 920.7394670437081 496.07289888216667 L 934.3521364603748 502.8792335905 L 920.7394670437081 509.68556829883335 Z"/></g></g><g><g><rect fill="white" stroke="none" x="970.0173303320414" y="527.3820385404999" width="271.3713861853125" height="21.23576429"/></g><text fill="black" stroke="none" font-family="sans-serif" font-size="11pt" font-style="normal" font-weight="normal" text-decoration="normal" x="972.4676108270414" y="542.0837215104999" text-anchor="start" dominant-baseline="alphabetic">recognizePlate(picture,highlightVertexes)</text></g><g><path fill="none" stroke="black" paint-order="fill stroke markers" d=" M 950.6873397603749 548.6178028305 L 1257.9961732056872 548.6178028305" stroke-miterlimit="10" stroke-width="1.3612669416666667" stroke-dasharray=""/><g transform="translate(1260.7187070890207,548.6178028305) translate(-1260.7187070890207,-548.6178028305)"><path fill="black" stroke="none" paint-order="stroke fill markers" d=" M 1247.106037672354 541.8114681221666 L 1260.7187070890207 548.6178028305 L 1247.106037672354 555.4241375388333 Z"/></g></g><g><g><rect fill="white" stroke="none" x="1053.1418191626078" y="617.2256566904998" width="105.12240852417969" height="21.23576429"/></g><text fill="black" stroke="none" font-family="sans-serif" font-size="11pt" font-style="normal" font-weight="normal" text-decoration="normal" x="1055.5920996576078" y="631.9273396604998" text-anchor="start" dominant-baseline="alphabetic">String: carPlate</text></g><g><path fill="none" stroke="black" paint-order="fill stroke markers" d=" M 1260.7187070890207 638.4614209804998 L 953.4098736437082 638.4614209804998" stroke-miterlimit="10" stroke-width="1.3612669416666667" stroke-dasharray="6.53408132"/><g transform="translate(950.6873397603749,638.4614209804998) translate(-950.6873397603749,-638.4614209804998)"><path fill="black" stroke="none" paint-order="stroke fill markers" d=" M 964.3000091770416 631.6550862721665 L 950.6873397603749 638.4614209804998 L 964.3000091770416 645.2677556888332 Z"/></g></g><g><g><rect fill="white" stroke="none" x="1036.4274255468852" y="731.5720797904999" width="138.551195755625" height="21.23576429"/></g><text fill="black" stroke="none" font-family="sans-serif" font-size="11pt" font-style="normal" font-weight="normal" text-decoration="normal" x="1038.8777060418852" y="746.2737627604998" text-anchor="start" dominant-baseline="alphabetic">PlateNotRecognized</text></g><g><path fill="none" stroke="black" paint-order="fill stroke markers" d=" M 1260.7187070890207 752.8078440804999 L 953.4098736437082 752.8078440804999" stroke-miterlimit="10" stroke-width="1.3612669416666667" stroke-dasharray="6.53408132"/><g transform="translate(950.6873397603749,752.8078440804999) translate(-950.6873397603749,-752.8078440804999)"><path fill="black" stroke="none" paint-order="stroke fill markers" d=" M 964.3000091770416 746.0015093721665 L 950.6873397603749 752.8078440804999 L 964.3000091770416 759.6141787888332 Z"/></g></g><g><g><rect fill="white" stroke="none" x="1074.4354566358263" y="801.8134539804998" width="335.7308222204687" height="21.23576429"/></g><text fill="black" stroke="none" font-family="sans-serif" font-size="11pt" font-style="normal" font-weight="normal" text-decoration="normal" x="1076.8857371308263" y="816.5151369504998" text-anchor="start" dominant-baseline="alphabetic">getMunicipalityFromCoordinates(latitude,longitude)</text></g><g><path fill="none" stroke="black" paint-order="fill stroke markers" d=" M 950.6873397603749 823.0492182704999 L 1531.191861848413 823.0492182704999" stroke-miterlimit="10" stroke-width="1.3612669416666667" stroke-dasharray=""/><g transform="translate(1533.9143957317465,823.0492182704999) translate(-1533.9143957317465,-823.0492182704999)"><path fill="black" stroke="none" paint-order="stroke fill markers" d=" M 1520.3017263150798 816.2428835621665 L 1533.9143957317465 823.0492182704999 L 1520.3017263150798 829.8555529788332 Z"/></g></g><g><g><rect fill="white" stroke="none" x="1171.006669404381" y="847.5520232204998" width="142.58839668335938" height="21.23576429"/></g><text fill="black" stroke="none" font-family="sans-serif" font-size="11pt" font-style="normal" font-weight="normal" text-decoration="normal" x="1173.456949899381" y="862.2537061904998" text-anchor="start" dominant-baseline="alphabetic">String: municipalityID</text></g><g><path fill="none" stroke="black" paint-order="fill stroke markers" d=" M 1533.9143957317465 868.7877875104998 L 953.4098736437082 868.7877875104998" stroke-miterlimit="10" stroke-width="1.3612669416666667" stroke-dasharray="6.53408132"/><g transform="translate(950.6873397603749,868.7877875104998) translate(-950.6873397603749,-868.7877875104998)"><path fill="black" stroke="none" paint-order="stroke fill markers" d=" M 964.3000091770416 861.9814528021665 L 950.6873397603749 868.7877875104998 L 964.3000091770416 875.5941222188331 Z"/></g></g><g><g><rect fill="white" stroke="none" x="1083.0012645673767" y="893.2905924604997" width="162.1374231726172" height="21.23576429"/></g><text fill="black" stroke="none" font-family="sans-serif" font-size="11pt" font-style="normal" font-weight="normal" text-decoration="normal" x="1085.4515450623767" y="907.9922754304997" text-anchor="start" dominant-baseline="alphabetic">insertNewReport(report)</text></g><g><path fill="none" stroke="black" paint-order="fill stroke markers" d=" M 950.6873397603749 914.5263567504998 L 1374.7300786636624 914.5263567504998" stroke-miterlimit="10" stroke-width="1.3612669416666667" stroke-dasharray=""/><g transform="translate(1377.4526125469959,914.5263567504998) translate(-1377.4526125469959,-914.5263567504998)"><path fill="black" stroke="none" paint-order="stroke fill markers" d=" M 1363.8399431303292 907.7200220421664 L 1377.4526125469959 914.5263567504998 L 1363.8399431303292 921.3326914588331 Z"/></g></g><g><g><rect fill="white" stroke="none" x="1116.3942317914978" y="939.0291617004997" width="95.351488724375" height="21.23576429"/></g><text fill="black" stroke="none" font-family="sans-serif" font-size="11pt" font-style="normal" font-weight="normal" text-decoration="normal" x="1118.8445122864978" y="953.7308446704997" text-anchor="start" dominant-baseline="alphabetic">reportCreated</text></g><g><path fill="none" stroke="black" paint-order="fill stroke markers" d=" M 1377.4526125469959 960.2649259904997 L 953.4098736437082 960.2649259904997" stroke-miterlimit="10" stroke-width="1.3612669416666667" stroke-dasharray="6.53408132"/><g transform="translate(950.6873397603749,960.2649259904997) translate(-950.6873397603749,-960.2649259904997)"><path fill="black" stroke="none" paint-order="stroke fill markers" d=" M 964.3000091770416 953.4585912821664 L 950.6873397603749 960.2649259904997 L 964.3000091770416 967.071260698833 Z"/></g></g><g><g><rect fill="white" stroke="none" x="780.1574354236105" y="984.7677309404996" width="108.3722406775" height="21.23576429"/></g><text fill="black" stroke="none" font-family="sans-serif" font-size="11pt" font-style="normal" font-weight="normal" text-decoration="normal" x="782.6077159186106" y="999.4694139104996" text-anchor="start" dominant-baseline="alphabetic">String: report ID</text></g><g><path fill="none" stroke="black" paint-order="fill stroke markers" d=" M 934.3521364603748 1006.0034952304997 L 737.0575089476796 1006.0034952304997" stroke-miterlimit="10" stroke-width="1.3612669416666667" stroke-dasharray="6.53408132"/><g transform="translate(734.3349750643463,1006.0034952304997) translate(-734.3349750643463,-1006.0034952304997)"><path fill="black" stroke="none" paint-order="stroke fill markers" d=" M 747.947644481013 999.1971605221663 L 734.3349750643463 1006.0034952304997 L 747.947644481013 1012.809829938833 Z"/></g></g><g><g><rect fill="white" stroke="none" x="555.272500842328" y="1030.5063001804997" width="122.22334541382813" height="21.23576429"/></g><text fill="black" stroke="none" font-family="sans-serif" font-size="11pt" font-style="normal" font-weight="normal" text-decoration="normal" x="557.722781337328" y="1045.2079831504998" text-anchor="start" dominant-baseline="alphabetic">XmlFile: response</text></g><g><path fill="none" stroke="black" paint-order="fill stroke markers" d=" M 717.9997717643462 1051.7420644704996 L 517.4911092174713 1051.7420644704996" stroke-miterlimit="10" stroke-width="1.3612669416666667" stroke-dasharray="6.53408132"/><g transform="translate(514.768575334138,1051.7420644704996) translate(-514.768575334138,-1051.7420644704996)"><path fill="black" stroke="none" paint-order="stroke fill markers" d=" M 528.3812447508046 1044.9357297621664 L 514.768575334138 1051.7420644704996 L 528.3812447508046 1058.5483991788328 Z"/></g></g><g><g><rect fill="white" stroke="none" x="338.1363074109478" y="1076.2448694204998" width="122.22334541382813" height="21.23576429"/></g><text fill="black" stroke="none" font-family="sans-serif" font-size="11pt" font-style="normal" font-weight="normal" text-decoration="normal" x="340.5865879059478" y="1090.9465523904998" text-anchor="start" dominant-baseline="alphabetic">XmlFile: response</text></g><g><path fill="none" stroke="black" paint-order="fill stroke markers" d=" M 498.4333720341379 1097.4806337104997 L 302.7851220849192 1097.4806337104997" stroke-miterlimit="10" stroke-width="1.3612669416666667" stroke-dasharray="6.53408132"/><g transform="translate(300.06258820158587,1097.4806337104997) translate(-300.06258820158587,-1097.4806337104997)"><path fill="black" stroke="none" paint-order="stroke fill markers" d=" M 313.67525761825254 1090.6742990021664 L 300.06258820158587 1097.4806337104997 L 313.67525761825254 1104.2869684188329 Z"/></g></g><g><g><rect fill="white" stroke="none" x="100.10093850277731" y="1121.9834386604998" width="111.62205757203125" height="21.23576429"/></g><text fill="black" stroke="none" font-family="sans-serif" font-size="11pt" font-style="normal" font-weight="normal" text-decoration="normal" x="102.55121899777731" y="1136.6851216305" text-anchor="start" dominant-baseline="alphabetic">reply(ReportOK)</text></g><g><path fill="none" stroke="black" paint-order="fill stroke markers" d=" M 283.7273849015859 1143.2192029504997 L 30.819083559333336 1143.2192029504997" stroke-miterlimit="10" stroke-width="1.3612669416666667" stroke-dasharray="6.53408132"/><g transform="translate(28.096549676000002,1143.2192029504997) translate(-28.096549676000002,-1143.2192029504997)"><path fill="black" stroke="none" paint-order="stroke fill markers" d=" M 41.70921909266667 1136.4128682421665 L 28.096549676000002 1143.2192029504997 L 41.70921909266667 1150.025537658833 Z"/></g></g><g><g/><path fill="none" stroke="black" paint-order="fill stroke markers" d=" M 877.1789249103748 573.1206077804999 L 1326.0595202890206 573.1206077804999 L 1326.0595202890206 662.9642259304999 L 877.1789249103748 662.9642259304999 L 877.1789249103748 573.1206077804999 Z" stroke-miterlimit="10" stroke-width="2.3336004714285714" stroke-dasharray=""/><path fill="white" stroke="black" paint-order="fill stroke markers" d=" M 877.1789249103748 573.1206077804999 L 877.1789249103748 592.7228517404999 L 923.5381285074451 592.7228517404999 L 933.339250487445 582.9217297604998 L 933.339250487445 573.1206077804999 L 877.1789249103748 573.1206077804999" stroke-miterlimit="10" stroke-width="2.3336004714285714" stroke-dasharray=""/><text fill="black" stroke="none" font-family="sans-serif" font-size="8.8pt" font-style="normal" font-weight="bold" text-decoration="normal" x="893.5141282103748" y="586.1887704204998" text-anchor="start" dominant-baseline="alphabetic">alt</text><text fill="black" stroke="none" font-family="sans-serif" font-size="8.8pt" font-style="normal" font-weight="bold" text-decoration="normal" x="949.674453787445" y="586.1887704204998" text-anchor="start" dominant-baseline="alphabetic">[carPlateRecognized]</text></g><g><g/><path fill="none" stroke="black" paint-order="fill stroke markers" d=" M 877.1789249103748 687.4670308804999 L 1326.0595202890206 687.4670308804999 L 1326.0595202890206 777.3106490304999 L 877.1789249103748 777.3106490304999 L 877.1789249103748 687.4670308804999 Z" stroke-miterlimit="10" stroke-width="2.3336004714285714" stroke-dasharray=""/><path fill="white" stroke="black" paint-order="fill stroke markers" d=" M 877.1789249103748 687.4670308804999 L 877.1789249103748 707.0692748404999 L 923.5381285074451 707.0692748404999 L 933.339250487445 697.2681528604999 L 933.339250487445 687.4670308804999 L 877.1789249103748 687.4670308804999" stroke-miterlimit="10" stroke-width="2.3336004714285714" stroke-dasharray=""/><text fill="black" stroke="none" font-family="sans-serif" font-size="8.8pt" font-style="normal" font-weight="bold" text-decoration="normal" x="893.5141282103748" y="700.5351935204999" text-anchor="start" dominant-baseline="alphabetic">alt</text><text fill="black" stroke="none" font-family="sans-serif" font-size="8.8pt" font-style="normal" font-weight="bold" text-decoration="normal" x="949.674453787445" y="700.5351935204999" text-anchor="start" dominant-baseline="alphabetic">[carPlateNotRecognized]</text></g></g><g/><g/><g/><g/><g/><g/><g/><g/><g/></g></svg>