<svg version="1.1" xmlns="http://www.w3.org/2000/svg" xmlns:xlink="http://www.w3.org/1999/xlink" width="1162" height="720"><defs/><g><g/><g/><g/><g/><g/><g/><g/><g/><g/><g/><g><rect fill="white" stroke="none" x="0" y="0" width="1162" height="720"/></g><g><text fill="black" stroke="none" font-family="sans-serif" font-size="16.5pt" font-style="normal" font-weight="normal" text-decoration="normal" x="503.9926209928177" y="24.50280495" text-anchor="start" dominant-baseline="alphabetic">Get My Reports</text></g><g/><g><path fill="none" stroke="black" paint-order="fill stroke markers" d=" M 19.928948026 128.80307802049998 L 19.928948026 720.1374374804999" stroke-miterlimit="10" stroke-width="1.3612669416666667" stroke-dasharray="12.565541,5.445067766666667"/><path fill="none" stroke="black" paint-order="fill stroke markers" d=" M 172.6950700462474 128.80307802049998 L 172.6950700462474 720.1374374804999" stroke-miterlimit="10" stroke-width="1.3612669416666667" stroke-dasharray="12.565541,5.445067766666667"/><path fill="none" stroke="black" paint-order="fill stroke markers" d=" M 387.4010571787994 128.80307802049998 L 387.4010571787994 720.1374374804999" stroke-miterlimit="10" stroke-width="1.3612669416666667" stroke-dasharray="12.565541,5.445067766666667"/><path fill="none" stroke="black" paint-order="fill stroke markers" d=" M 606.9674569090078 128.80307802049998 L 606.9674569090078 720.1374374804999" stroke-miterlimit="10" stroke-width="1.3612669416666667" stroke-dasharray="12.565541,5.445067766666667"/><path fill="none" stroke="black" paint-order="fill stroke markers" d=" M 864.8516666978098 128.80307802049998 L 864.8516666978098 720.1374374804999" stroke-miterlimit="10" stroke-width="1.3612669416666667" stroke-dasharray="12.565541,5.445067766666667"/><path fill="none" stroke="black" paint-order="fill stroke markers" d=" M 1080.3521942356354 128.80307802049998 L 1080.3521942356354 720.1374374804999" stroke-miterlimit="10" stroke-width="1.3612669416666667" stroke-dasharray="12.565541,5.445067766666667"/></g><g><g><path fill="white" stroke="black" paint-order="fill stroke markers" d=" M 29.240013906999998 59.70516806150002 A 9.311065881 9.311065881 0 1 1 29.24000925146745 59.69585699717086 M 19.928948026 69.01623394250002 L 19.928948026 88.94518196850002 M 8.167601650000002 76.20372339450002 L 31.690294402 76.20372339450002 M 19.928948026 88.94518196850002 L 8.167601650000002 107.56731373050002 M 19.928948026 88.94518196850002 L 31.690294402 107.56731373050002" stroke-miterlimit="10" stroke-width="2.7769845610000004" stroke-dasharray=""/></g><g><g/><text fill="black" stroke="none" font-family="sans-serif" font-size="11pt" font-style="normal" font-weight="normal" text-decoration="normal" x="9.34197292834375" y="123.90251703050001" text-anchor="start" dominant-baseline="alphabetic">RU</text></g><path fill="none" stroke="none"/><g><path fill="white" stroke="black" paint-order="fill stroke markers" d=" M 104.86044306926301 84.69802911050002 L 240.5296970232318 84.69802911050002 L 240.5296970232318 128.8030780205 L 104.86044306926301 128.8030780205 L 104.86044306926301 84.69802911050002 Z" stroke-miterlimit="10" stroke-width="2.613632528" stroke-dasharray=""/></g><g><g/><text fill="black" stroke="none" font-family="sans-serif" font-size="11pt" font-style="normal" font-weight="normal" text-decoration="normal" x="122.58413864976302" y="112.46787472049999" text-anchor="start" dominant-baseline="alphabetic">UserMobileApp</text></g><path fill="none" stroke="none"/><g><path fill="white" stroke="black" paint-order="fill stroke markers" d=" M 333.1491099503502 84.69802911050002 L 441.65300440724866 84.69802911050002 L 441.65300440724866 128.8030780205 L 333.1491099503502 128.8030780205 L 333.1491099503502 84.69802911050002 Z" stroke-miterlimit="10" stroke-width="2.613632528" stroke-dasharray=""/></g><g><g/><text fill="black" stroke="none" font-family="sans-serif" font-size="11pt" font-style="normal" font-weight="normal" text-decoration="normal" x="350.8728055308502" y="112.46787472049999" text-anchor="start" dominant-baseline="alphabetic">WebServer</text></g><path fill="none" stroke="none"/><g><path fill="white" stroke="black" paint-order="fill stroke markers" d=" M 567.2430517948163 84.69802911050002 L 646.6918620231992 84.69802911050002 L 646.6918620231992 128.8030780205 L 567.2430517948163 128.8030780205 L 567.2430517948163 84.69802911050002 Z" stroke-miterlimit="10" stroke-width="2.613632528" stroke-dasharray=""/></g><g><g/><text fill="black" stroke="none" font-family="sans-serif" font-size="11pt" font-style="normal" font-weight="normal" text-decoration="normal" x="584.9667473753163" y="112.46787472049999" text-anchor="start" dominant-baseline="alphabetic">Router</text></g><path fill="none" stroke="none"/><g><path fill="white" stroke="black" paint-order="fill stroke markers" d=" M 806.7987093375247 84.69802911050002 L 922.904624058095 84.69802911050002 L 922.904624058095 128.8030780205 L 806.7987093375247 128.8030780205 L 806.7987093375247 84.69802911050002 Z" stroke-miterlimit="10" stroke-width="2.613632528" stroke-dasharray=""/></g><g><g/><text fill="black" stroke="none" font-family="sans-serif" font-size="11pt" font-style="normal" font-weight="normal" text-decoration="normal" x="824.5224049180247" y="112.46787472049999" text-anchor="start" dominant-baseline="alphabetic">ReportMiner</text></g><path fill="none" stroke="none"/><g><path fill="white" stroke="black" paint-order="fill stroke markers" d=" M 1041.4509779031823 84.69802911050002 L 1119.2534105680886 84.69802911050002 L 1119.2534105680886 128.8030780205 L 1041.4509779031823 128.8030780205 L 1041.4509779031823 84.69802911050002 Z" stroke-miterlimit="10" stroke-width="2.613632528" stroke-dasharray=""/></g><g><g/><text fill="black" stroke="none" font-family="sans-serif" font-size="11pt" font-style="normal" font-weight="normal" text-decoration="normal" x="1059.1746734836822" y="112.46787472049999" text-anchor="start" dominant-baseline="alphabetic">DBMS</text></g></g><g><path fill="white" stroke="black" paint-order="fill stroke markers" d=" M 11.761346376 136.97067967049998 L 28.096549676000002 136.97067967049998 L 28.096549676000002 703.8022341804999 L 11.761346376 703.8022341804999 L 11.761346376 136.97067967049998" stroke-miterlimit="10" stroke-width="1.3612669416666667" stroke-dasharray=""/><path fill="white" stroke="black" paint-order="fill stroke markers" d=" M 164.5274683962474 182.70924891049998 L 180.8626716962474 182.70924891049998 L 180.8626716962474 662.9642259304999 L 164.5274683962474 662.9642259304999 L 164.5274683962474 182.70924891049998" stroke-miterlimit="10" stroke-width="1.3612669416666667" stroke-dasharray=""/><path fill="white" stroke="black" paint-order="fill stroke markers" d=" M 379.2334555287994 272.5528670605 L 395.5686588287994 272.5528670605 L 395.5686588287994 617.2256566904999 L 379.2334555287994 617.2256566904999 L 379.2334555287994 272.5528670605" stroke-miterlimit="10" stroke-width="1.3612669416666667" stroke-dasharray=""/><path fill="white" stroke="black" paint-order="fill stroke markers" d=" M 598.7998552590077 318.2914363005 L 615.1350585590078 318.2914363005 L 615.1350585590078 546.9842825005 L 598.7998552590077 546.9842825005 L 598.7998552590077 318.2914363005" stroke-miterlimit="10" stroke-width="1.3612669416666667" stroke-dasharray=""/><path fill="white" stroke="black" paint-order="fill stroke markers" d=" M 856.6840650478098 364.0300055405 L 873.0192683478099 364.0300055405 L 873.0192683478099 501.2457132605 L 856.6840650478098 501.2457132605 L 856.6840650478098 364.0300055405" stroke-miterlimit="10" stroke-width="1.3612669416666667" stroke-dasharray=""/><path fill="white" stroke="black" paint-order="fill stroke markers" d=" M 1072.1845925856353 409.7685747805 L 1088.5197958856354 409.7685747805 L 1088.5197958856354 455.5071440205 L 1072.1845925856353 455.5071440205 L 1072.1845925856353 409.7685747805" stroke-miterlimit="10" stroke-width="1.3612669416666667" stroke-dasharray=""/><g><g><rect fill="white" stroke="none" x="48.23540102647526" y="161.4734846205" width="96.15321601929688" height="21.23576429"/></g><text fill="black" stroke="none" font-family="sans-serif" font-size="11pt" font-style="normal" font-weight="normal" text-decoration="normal" x="50.68568152147526" y="176.17516759049997" text-anchor="start" dominant-baseline="alphabetic">getMyReports</text></g><g><path fill="none" stroke="black" paint-order="fill stroke markers" d=" M 28.096549676000002 182.70924891049998 L 161.80493451291406 182.70924891049998" stroke-miterlimit="10" stroke-width="1.3612669416666667" stroke-dasharray=""/><g transform="translate(164.5274683962474,182.70924891049998) translate(-164.5274683962474,-182.70924891049998)"><path fill="black" stroke="none" paint-order="stroke fill markers" d=" M 150.91479897958072 175.90291420216664 L 164.5274683962474 182.70924891049998 L 150.91479897958072 189.51558361883332 Z"/></g></g><g><g><rect fill="white" stroke="none" x="200.19266226791402" y="251.3171027705" width="159.71080268921875" height="21.23576429"/></g><text fill="black" stroke="none" font-family="sans-serif" font-size="11pt" font-style="normal" font-weight="normal" text-decoration="normal" x="202.642942762914" y="266.0187857405" text-anchor="start" dominant-baseline="alphabetic">handleRequest(xmlFile)</text></g><g><path fill="none" stroke="black" paint-order="fill stroke markers" d=" M 180.8626716962474 272.5528670605 L 376.5109216454661 272.5528670605" stroke-miterlimit="10" stroke-width="1.3612669416666667" stroke-dasharray=""/><g transform="translate(379.2334555287994,272.5528670605) translate(-379.2334555287994,-272.5528670605)"><path fill="black" stroke="none" paint-order="stroke fill markers" d=" M 365.62078611213275 265.74653235216664 L 379.2334555287994 272.5528670605 L 365.62078611213275 279.3592017688333 Z"/></g></g><g><g><rect fill="white" stroke="none" x="414.89864940046607" y="297.05567201049996" width="164.571215286875" height="21.23576429"/></g><text fill="black" stroke="none" font-family="sans-serif" font-size="11pt" font-style="normal" font-weight="normal" text-decoration="normal" x="417.3489298954661" y="311.75735498049994" text-anchor="start" dominant-baseline="alphabetic">forwardRequest(xmlFile)</text></g><g><path fill="none" stroke="black" paint-order="fill stroke markers" d=" M 395.5686588287994 318.2914363005 L 596.0773213756744 318.2914363005" stroke-miterlimit="10" stroke-width="1.3612669416666667" stroke-dasharray=""/><g transform="translate(598.7998552590077,318.2914363005) translate(-598.7998552590077,-318.2914363005)"><path fill="black" stroke="none" paint-order="stroke fill markers" d=" M 585.187185842341 311.48510159216664 L 598.7998552590077 318.2914363005 L 585.187185842341 325.0977710088333 Z"/></g></g><g><g><rect fill="white" stroke="none" x="634.4650491306744" y="342.79424125049997" width="202.88902534546875" height="21.23576429"/></g><text fill="black" stroke="none" font-family="sans-serif" font-size="11pt" font-style="normal" font-weight="normal" text-decoration="normal" x="636.9153296256744" y="357.49592422049994" text-anchor="start" dominant-baseline="alphabetic">getUserReport(reportID,token)</text></g><g><path fill="none" stroke="black" paint-order="fill stroke markers" d=" M 615.1350585590078 364.0300055405 L 853.9615311644765 364.0300055405" stroke-miterlimit="10" stroke-width="1.3612669416666667" stroke-dasharray=""/><g transform="translate(856.6840650478098,364.0300055405) translate(-856.6840650478098,-364.0300055405)"><path fill="black" stroke="none" paint-order="stroke fill markers" d=" M 843.0713956311431 357.22367083216665 L 856.6840650478098 364.0300055405 L 843.0713956311431 370.8363402488333 Z"/></g></g><g><g><rect fill="white" stroke="none" x="892.3492589194765" y="388.53281049049997" width="160.5053430944922" height="21.23576429"/></g><text fill="black" stroke="none" font-family="sans-serif" font-size="11pt" font-style="normal" font-weight="normal" text-decoration="normal" x="894.7995394144765" y="403.23449346049995" text-anchor="start" dominant-baseline="alphabetic">retrieveReport(reportID)</text></g><g><path fill="none" stroke="black" paint-order="fill stroke markers" d=" M 873.0192683478099 409.7685747805 L 1069.4620587023019 409.7685747805" stroke-miterlimit="10" stroke-width="1.3612669416666667" stroke-dasharray=""/><g transform="translate(1072.1845925856353,409.7685747805) translate(-1072.1845925856353,-409.7685747805)"><path fill="black" stroke="none" paint-order="stroke fill markers" d=" M 1058.5719231689686 402.96224007216665 L 1072.1845925856353 409.7685747805 L 1058.5719231689686 416.5749094888333 Z"/></g></g><g><g><rect fill="white" stroke="none" x="948.1509404380312" y="434.2713797305" width="48.901980057382815" height="21.23576429"/></g><text fill="black" stroke="none" font-family="sans-serif" font-size="11pt" font-style="normal" font-weight="normal" text-decoration="normal" x="950.6012209330312" y="448.97306270049995" text-anchor="start" dominant-baseline="alphabetic">Report</text></g><g><path fill="none" stroke="black" paint-order="fill stroke markers" d=" M 1072.1845925856353 455.5071440205 L 875.7418022311432 455.5071440205" stroke-miterlimit="10" stroke-width="1.3612669416666667" stroke-dasharray="6.53408132"/><g transform="translate(873.0192683478099,455.5071440205) translate(-873.0192683478099,-455.5071440205)"><path fill="black" stroke="none" paint-order="stroke fill markers" d=" M 886.6319377644766 448.70080931216665 L 873.0192683478099 455.5071440205 L 886.6319377644766 462.31347872883333 Z"/></g></g><g><g><rect fill="white" stroke="none" x="711.4585717747174" y="480.0099489705" width="48.901980057382815" height="21.23576429"/></g><text fill="black" stroke="none" font-family="sans-serif" font-size="11pt" font-style="normal" font-weight="normal" text-decoration="normal" x="713.9088522697174" y="494.71163194049996" text-anchor="start" dominant-baseline="alphabetic">Report</text></g><g><path fill="none" stroke="black" paint-order="fill stroke markers" d=" M 856.6840650478098 501.2457132605 L 617.8575924423411 501.2457132605" stroke-miterlimit="10" stroke-width="1.3612669416666667" stroke-dasharray="6.53408132"/><g transform="translate(615.1350585590078,501.2457132605) translate(-615.1350585590078,-501.2457132605)"><path fill="black" stroke="none" paint-order="stroke fill markers" d=" M 628.7477279756745 494.43937855216666 L 615.1350585590078 501.2457132605 L 628.7477279756745 508.05204796883334 Z"/></g></g><g><g><rect fill="white" stroke="none" x="436.0725843369895" y="525.7485182104999" width="122.22334541382813" height="21.23576429"/></g><text fill="black" stroke="none" font-family="sans-serif" font-size="11pt" font-style="normal" font-weight="normal" text-decoration="normal" x="438.5228648319895" y="540.4502011804999" text-anchor="start" dominant-baseline="alphabetic">XmlFile: response</text></g><g><path fill="none" stroke="black" paint-order="fill stroke markers" d=" M 598.7998552590077 546.9842825005 L 398.2911927121327 546.9842825005" stroke-miterlimit="10" stroke-width="1.3612669416666667" stroke-dasharray="6.53408132"/><g transform="translate(395.5686588287994,546.9842825005) translate(-395.5686588287994,-546.9842825005)"><path fill="black" stroke="none" paint-order="stroke fill markers" d=" M 409.1813282454661 540.1779477921666 L 395.5686588287994 546.9842825005 L 409.1813282454661 553.7906172088333 Z"/></g></g><g><g><rect fill="white" stroke="none" x="218.93639090560933" y="571.4870874504999" width="122.22334541382813" height="21.23576429"/></g><text fill="black" stroke="none" font-family="sans-serif" font-size="11pt" font-style="normal" font-weight="normal" text-decoration="normal" x="221.38667140060932" y="586.1887704204998" text-anchor="start" dominant-baseline="alphabetic">XmlFile: response</text></g><g><path fill="none" stroke="black" paint-order="fill stroke markers" d=" M 379.2334555287994 592.7228517404999 L 183.58520557958073 592.7228517404999" stroke-miterlimit="10" stroke-width="1.3612669416666667" stroke-dasharray="6.53408132"/><g transform="translate(180.8626716962474,592.7228517404999) translate(-180.8626716962474,-592.7228517404999)"><path fill="black" stroke="none" paint-order="stroke fill markers" d=" M 194.47534111291407 585.9165170321666 L 180.8626716962474 592.7228517404999 L 194.47534111291407 599.5291864488332 Z"/></g></g><g><g><rect fill="white" stroke="none" x="47.426540247666665" y="641.7284616404999" width="97.77093757691406" height="21.23576429"/></g><text fill="black" stroke="none" font-family="sans-serif" font-size="11pt" font-style="normal" font-weight="normal" text-decoration="normal" x="49.876820742666666" y="656.4301446104998" text-anchor="start" dominant-baseline="alphabetic">reply(Reports)</text></g><g><path fill="none" stroke="black" paint-order="fill stroke markers" d=" M 164.5274683962474 662.9642259304999 L 30.819083559333336 662.9642259304999" stroke-miterlimit="10" stroke-width="1.3612669416666667" stroke-dasharray="6.53408132"/><g transform="translate(28.096549676000002,662.9642259304999) translate(-28.096549676000002,-662.9642259304999)"><path fill="black" stroke="none" paint-order="stroke fill markers" d=" M 41.70921909266667 656.1578912221665 L 28.096549676000002 662.9642259304999 L 41.70921909266667 669.7705606388332 Z"/></g></g><g><g/><path fill="none" stroke="black" paint-order="fill stroke markers" d=" M 107.35425684624741 207.21205386049996 L 1137.5254057856353 207.21205386049996 L 1137.5254057856353 617.2256566904999 L 107.35425684624741 617.2256566904999 L 107.35425684624741 207.21205386049996 Z" stroke-miterlimit="10" stroke-width="2.3336004714285714" stroke-dasharray=""/><path fill="white" stroke="black" paint-order="fill stroke markers" d=" M 107.35425684624741 207.21205386049996 L 107.35425684624741 226.81429782049997 L 164.77905797749742 226.81429782049997 L 174.58017995749742 217.01317584049997 L 174.58017995749742 207.21205386049996 L 107.35425684624741 207.21205386049996" stroke-miterlimit="10" stroke-width="2.3336004714285714" stroke-dasharray=""/><text fill="black" stroke="none" font-family="sans-serif" font-size="8.8pt" font-style="normal" font-weight="bold" text-decoration="normal" x="123.68946014624741" y="220.28021650049996" text-anchor="start" dominant-baseline="alphabetic">loop</text><text fill="black" stroke="none" font-family="sans-serif" font-size="8.8pt" font-style="normal" font-weight="bold" text-decoration="normal" x="190.9153832574974" y="220.28021650049996" text-anchor="start" dominant-baseline="alphabetic">[ReportsIDNotFinished]</text></g></g><g/><g/><g/><g/><g/><g/></g></svg>