<svg version="1.1" xmlns="http://www.w3.org/2000/svg" xmlns:xlink="http://www.w3.org/1999/xlink" width="1455" height="651"><defs/><g><g/><g/><g/><g/><g/><g/><g/><g/><g/><g/><g><rect fill="white" stroke="none" x="0" y="0" width="1455" height="651"/></g><g><text fill="black" stroke="none" font-family="sans-serif" font-size="16.5pt" font-style="normal" font-weight="normal" text-decoration="normal" x="640.2347294366809" y="24.50280495" text-anchor="start" dominant-baseline="alphabetic">Get Unsafe Areas</text></g><g/><g><path fill="none" stroke="black" paint-order="fill stroke markers" d=" M 19.928948026 128.80307802049998 L 19.928948026 651.5295836204999" stroke-miterlimit="10" stroke-width="1.3612669416666667" stroke-dasharray="12.565541,5.445067766666667"/><path fill="none" stroke="black" paint-order="fill stroke markers" d=" M 246.6105821312083 128.80307802049998 L 246.6105821312083 651.5295836204999" stroke-miterlimit="10" stroke-width="1.3612669416666667" stroke-dasharray="12.565541,5.445067766666667"/><path fill="none" stroke="black" paint-order="fill stroke markers" d=" M 461.31656926376036 128.80307802049998 L 461.31656926376036 651.5295836204999" stroke-miterlimit="10" stroke-width="1.3612669416666667" stroke-dasharray="12.565541,5.445067766666667"/><path fill="none" stroke="black" paint-order="fill stroke markers" d=" M 680.8829689939687 128.80307802049998 L 680.8829689939687 651.5295836204999" stroke-miterlimit="10" stroke-width="1.3612669416666667" stroke-dasharray="12.565541,5.445067766666667"/><path fill="none" stroke="black" paint-order="fill stroke markers" d=" M 946.132947215388 128.80307802049998 L 946.132947215388 651.5295836204999" stroke-miterlimit="10" stroke-width="1.3612669416666667" stroke-dasharray="12.565541,5.445067766666667"/><path fill="none" stroke="black" paint-order="fill stroke markers" d=" M 1408.2619690159088 128.80307802049998 L 1408.2619690159088 651.5295836204999" stroke-miterlimit="10" stroke-width="1.3612669416666667" stroke-dasharray="12.565541,5.445067766666667"/></g><g><g><path fill="white" stroke="black" paint-order="fill stroke markers" d=" M 29.240013906999998 59.70516806150002 A 9.311065881 9.311065881 0 1 1 29.24000925146745 59.69585699717086 M 19.928948026 69.01623394250002 L 19.928948026 88.94518196850002 M 8.167601650000002 76.20372339450002 L 31.690294402 76.20372339450002 M 19.928948026 88.94518196850002 L 8.167601650000002 107.56731373050002 M 19.928948026 88.94518196850002 L 31.690294402 107.56731373050002" stroke-miterlimit="10" stroke-width="2.7769845610000004" stroke-dasharray=""/></g><g><g/><text fill="black" stroke="none" font-family="sans-serif" font-size="11pt" font-style="normal" font-weight="normal" text-decoration="normal" x="9.34197292834375" y="123.90251703050001" text-anchor="start" dominant-baseline="alphabetic">RU</text></g><path fill="none" stroke="none"/><g><path fill="white" stroke="black" paint-order="fill stroke markers" d=" M 178.77595515422394 84.69802911050002 L 314.44520910819267 84.69802911050002 L 314.44520910819267 128.8030780205 L 178.77595515422394 128.8030780205 L 178.77595515422394 84.69802911050002 Z" stroke-miterlimit="10" stroke-width="2.613632528" stroke-dasharray=""/></g><g><g/><text fill="black" stroke="none" font-family="sans-serif" font-size="11pt" font-style="normal" font-weight="normal" text-decoration="normal" x="196.49965073472393" y="112.46787472049999" text-anchor="start" dominant-baseline="alphabetic">UserMobileApp</text></g><path fill="none" stroke="none"/><g><path fill="white" stroke="black" paint-order="fill stroke markers" d=" M 407.0646220353111 84.69802911050002 L 515.5685164922096 84.69802911050002 L 515.5685164922096 128.8030780205 L 407.0646220353111 128.8030780205 L 407.0646220353111 84.69802911050002 Z" stroke-miterlimit="10" stroke-width="2.613632528" stroke-dasharray=""/></g><g><g/><text fill="black" stroke="none" font-family="sans-serif" font-size="11pt" font-style="normal" font-weight="normal" text-decoration="normal" x="424.78831761581114" y="112.46787472049999" text-anchor="start" dominant-baseline="alphabetic">WebServer</text></g><path fill="none" stroke="none"/><g><path fill="white" stroke="black" paint-order="fill stroke markers" d=" M 641.1585638797773 84.69802911050002 L 720.6073741081601 84.69802911050002 L 720.6073741081601 128.8030780205 L 641.1585638797773 128.8030780205 L 641.1585638797773 84.69802911050002 Z" stroke-miterlimit="10" stroke-width="2.613632528" stroke-dasharray=""/></g><g><g/><text fill="black" stroke="none" font-family="sans-serif" font-size="11pt" font-style="normal" font-weight="normal" text-decoration="normal" x="658.8822594602773" y="112.46787472049999" text-anchor="start" dominant-baseline="alphabetic">Router</text></g><path fill="none" stroke="none"/><g><path fill="white" stroke="black" paint-order="fill stroke markers" d=" M 888.0799898551028 84.69802911050002 L 1004.1859045756731 84.69802911050002 L 1004.1859045756731 128.8030780205 L 888.0799898551028 128.8030780205 L 888.0799898551028 84.69802911050002 Z" stroke-miterlimit="10" stroke-width="2.613632528" stroke-dasharray=""/></g><g><g/><text fill="black" stroke="none" font-family="sans-serif" font-size="11pt" font-style="normal" font-weight="normal" text-decoration="normal" x="905.8036854356028" y="112.46787472049999" text-anchor="start" dominant-baseline="alphabetic">ReportMiner</text></g><path fill="none" stroke="none"/><g><path fill="white" stroke="black" paint-order="fill stroke markers" d=" M 1369.3607526834558 84.69802911050002 L 1447.163185348362 84.69802911050002 L 1447.163185348362 128.8030780205 L 1369.3607526834558 128.8030780205 L 1369.3607526834558 84.69802911050002 Z" stroke-miterlimit="10" stroke-width="2.613632528" stroke-dasharray=""/></g><g><g/><text fill="black" stroke="none" font-family="sans-serif" font-size="11pt" font-style="normal" font-weight="normal" text-decoration="normal" x="1387.0844482639557" y="112.46787472049999" text-anchor="start" dominant-baseline="alphabetic">DBMS</text></g></g><g><path fill="white" stroke="black" paint-order="fill stroke markers" d=" M 11.761346376 136.97067967049998 L 28.096549676000002 136.97067967049998 L 28.096549676000002 635.1943803204999 L 11.761346376 635.1943803204999 L 11.761346376 136.97067967049998" stroke-miterlimit="10" stroke-width="1.3612669416666667" stroke-dasharray=""/><path fill="white" stroke="black" paint-order="fill stroke markers" d=" M 238.4429804812083 182.70924891049998 L 254.7781837812083 182.70924891049998 L 254.7781837812083 594.3563720704999 L 238.4429804812083 594.3563720704999 L 238.4429804812083 182.70924891049998" stroke-miterlimit="10" stroke-width="1.3612669416666667" stroke-dasharray=""/><path fill="white" stroke="black" paint-order="fill stroke markers" d=" M 453.14896761376036 228.44781815049998 L 469.48417091376035 228.44781815049998 L 469.48417091376035 548.6178028305 L 453.14896761376036 548.6178028305 L 453.14896761376036 228.44781815049998" stroke-miterlimit="10" stroke-width="1.3612669416666667" stroke-dasharray=""/><path fill="white" stroke="black" paint-order="fill stroke markers" d=" M 672.7153673439686 274.1863873905 L 689.0505706439687 274.1863873905 L 689.0505706439687 502.8792335905 L 672.7153673439686 502.8792335905 L 672.7153673439686 274.1863873905" stroke-miterlimit="10" stroke-width="1.3612669416666667" stroke-dasharray=""/><path fill="white" stroke="black" paint-order="fill stroke markers" d=" M 937.9653455653879 319.9249566305 L 954.300548865388 319.9249566305 L 954.300548865388 457.1406643505 L 937.9653455653879 457.1406643505 L 937.9653455653879 319.9249566305" stroke-miterlimit="10" stroke-width="1.3612669416666667" stroke-dasharray=""/><path fill="white" stroke="black" paint-order="fill stroke markers" d=" M 1400.0943673659087 365.6635258705 L 1416.4295706659088 365.6635258705 L 1416.4295706659088 411.4020951105 L 1400.0943673659087 411.4020951105 L 1400.0943673659087 365.6635258705" stroke-miterlimit="10" stroke-width="1.3612669416666667" stroke-dasharray=""/><g><g><rect fill="white" stroke="none" x="47.426540247666665" y="161.4734846205" width="171.686449661875" height="21.23576429"/></g><text fill="black" stroke="none" font-family="sans-serif" font-size="11pt" font-style="normal" font-weight="normal" text-decoration="normal" x="49.876820742666666" y="176.17516759049997" text-anchor="start" dominant-baseline="alphabetic">GetViolationsTypeByArea</text></g><g><path fill="none" stroke="black" paint-order="fill stroke markers" d=" M 28.096549676000002 182.70924891049998 L 235.72044659787497 182.70924891049998" stroke-miterlimit="10" stroke-width="1.3612669416666667" stroke-dasharray=""/><g transform="translate(238.4429804812083,182.70924891049998) translate(-238.4429804812083,-182.70924891049998)"><path fill="black" stroke="none" paint-order="stroke fill markers" d=" M 224.83031106454163 175.90291420216664 L 238.4429804812083 182.70924891049998 L 224.83031106454163 189.51558361883332 Z"/></g></g><g><g><rect fill="white" stroke="none" x="274.1081743528749" y="207.2120538605" width="159.71080268921875" height="21.23576429"/></g><text fill="black" stroke="none" font-family="sans-serif" font-size="11pt" font-style="normal" font-weight="normal" text-decoration="normal" x="276.55845484787494" y="221.91373683049997" text-anchor="start" dominant-baseline="alphabetic">handleRequest(xmlFile)</text></g><g><path fill="none" stroke="black" paint-order="fill stroke markers" d=" M 254.7781837812083 228.44781815049998 L 450.42643373042705 228.44781815049998" stroke-miterlimit="10" stroke-width="1.3612669416666667" stroke-dasharray=""/><g transform="translate(453.14896761376036,228.44781815049998) translate(-453.14896761376036,-228.44781815049998)"><path fill="black" stroke="none" paint-order="stroke fill markers" d=" M 439.5362981970937 221.64148344216665 L 453.14896761376036 228.44781815049998 L 439.5362981970937 235.25415285883332 Z"/></g></g><g><g><rect fill="white" stroke="none" x="488.814161485427" y="252.9506231005" width="164.571215286875" height="21.23576429"/></g><text fill="black" stroke="none" font-family="sans-serif" font-size="11pt" font-style="normal" font-weight="normal" text-decoration="normal" x="491.264441980427" y="267.6523060705" text-anchor="start" dominant-baseline="alphabetic">forwardRequest(xmlFile)</text></g><g><path fill="none" stroke="black" paint-order="fill stroke markers" d=" M 469.48417091376035 274.1863873905 L 669.9928334606353 274.1863873905" stroke-miterlimit="10" stroke-width="1.3612669416666667" stroke-dasharray=""/><g transform="translate(672.7153673439686,274.1863873905) translate(-672.7153673439686,-274.1863873905)"><path fill="black" stroke="none" paint-order="stroke fill markers" d=" M 659.102697927302 267.38005268216665 L 672.7153673439686 274.1863873905 L 659.102697927302 280.9927220988333 Z"/></g></g><g><g><rect fill="white" stroke="none" x="708.3805612156353" y="298.6891923405" width="210.25479377808594" height="21.23576429"/></g><text fill="black" stroke="none" font-family="sans-serif" font-size="11pt" font-style="normal" font-weight="normal" text-decoration="normal" x="710.8308417106354" y="313.39087531049995" text-anchor="start" dominant-baseline="alphabetic">getUnsafeAreas(position,token)</text></g><g><path fill="none" stroke="black" paint-order="fill stroke markers" d=" M 689.0505706439687 319.9249566305 L 935.2428116820546 319.9249566305" stroke-miterlimit="10" stroke-width="1.3612669416666667" stroke-dasharray=""/><g transform="translate(937.9653455653879,319.9249566305) translate(-937.9653455653879,-319.9249566305)"><path fill="black" stroke="none" paint-order="stroke fill markers" d=" M 924.3526761487212 313.11862192216665 L 937.9653455653879 319.9249566305 L 924.3526761487212 326.73129133883333 Z"/></g></g><g><g><rect fill="white" stroke="none" x="973.6305394370545" y="344.4277615805" width="407.1338373571875" height="21.23576429"/></g><text fill="black" stroke="none" font-family="sans-serif" font-size="11pt" font-style="normal" font-weight="normal" text-decoration="normal" x="976.0808199320545" y="359.12944455049995" text-anchor="start" dominant-baseline="alphabetic">retrieveValidReports(municipalityID,requestType,requestField)</text></g><g><path fill="none" stroke="black" paint-order="fill stroke markers" d=" M 954.300548865388 365.6635258705 L 1397.3718334825753 365.6635258705" stroke-miterlimit="10" stroke-width="1.3612669416666667" stroke-dasharray=""/><g transform="translate(1400.0943673659087,365.6635258705) translate(-1400.0943673659087,-365.6635258705)"><path fill="black" stroke="none" paint-order="stroke fill markers" d=" M 1386.481697949242 358.85719116216666 L 1400.0943673659087 365.6635258705 L 1386.481697949242 372.46986057883333 Z"/></g></g><g><g><rect fill="white" stroke="none" x="1132.7786870200623" y="390.1663308205" width="88.83754219117188" height="21.23576429"/></g><text fill="black" stroke="none" font-family="sans-serif" font-size="11pt" font-style="normal" font-weight="normal" text-decoration="normal" x="1135.2289675150623" y="404.86801379049996" text-anchor="start" dominant-baseline="alphabetic">List&lt;Report&gt;</text></g><g><path fill="none" stroke="black" paint-order="fill stroke markers" d=" M 1400.0943673659087 411.4020951105 L 957.0230827487213 411.4020951105" stroke-miterlimit="10" stroke-width="1.3612669416666667" stroke-dasharray="6.53408132"/><g transform="translate(954.300548865388,411.4020951105) translate(-954.300548865388,-411.4020951105)"><path fill="black" stroke="none" paint-order="stroke fill markers" d=" M 967.9132182820547 404.59576040216666 L 954.300548865388 411.4020951105 L 967.9132182820547 418.20842981883334 Z"/></g></g><g><g><rect fill="white" stroke="none" x="744.2287820408307" y="435.9049000605" width="138.55835212769531" height="21.23576429"/></g><text fill="black" stroke="none" font-family="sans-serif" font-size="11pt" font-style="normal" font-weight="normal" text-decoration="normal" x="746.6790625358307" y="450.60658303049996" text-anchor="start" dominant-baseline="alphabetic">List&lt;PseudoReport&gt;</text></g><g><path fill="none" stroke="black" paint-order="fill stroke markers" d=" M 937.9653455653879 457.1406643505 L 691.773104527302 457.1406643505" stroke-miterlimit="10" stroke-width="1.3612669416666667" stroke-dasharray="6.53408132"/><g transform="translate(689.0505706439687,457.1406643505) translate(-689.0505706439687,-457.1406643505)"><path fill="black" stroke="none" paint-order="stroke fill markers" d=" M 702.6632400606354 450.33432964216667 L 689.0505706439687 457.1406643505 L 702.6632400606354 463.94699905883334 Z"/></g></g><g><g><rect fill="white" stroke="none" x="509.98809642195044" y="481.6434693005" width="122.22334541382813" height="21.23576429"/></g><text fill="black" stroke="none" font-family="sans-serif" font-size="11pt" font-style="normal" font-weight="normal" text-decoration="normal" x="512.4383769169505" y="496.34515227049997" text-anchor="start" dominant-baseline="alphabetic">XmlFile: response</text></g><g><path fill="none" stroke="black" paint-order="fill stroke markers" d=" M 672.7153673439686 502.8792335905 L 472.20670479709366 502.8792335905" stroke-miterlimit="10" stroke-width="1.3612669416666667" stroke-dasharray="6.53408132"/><g transform="translate(469.48417091376035,502.8792335905) translate(-469.48417091376035,-502.8792335905)"><path fill="black" stroke="none" paint-order="stroke fill markers" d=" M 483.096840330427 496.07289888216667 L 469.48417091376035 502.8792335905 L 483.096840330427 509.68556829883335 Z"/></g></g><g><g><rect fill="white" stroke="none" x="292.85190299057024" y="527.3820385404999" width="122.22334541382813" height="21.23576429"/></g><text fill="black" stroke="none" font-family="sans-serif" font-size="11pt" font-style="normal" font-weight="normal" text-decoration="normal" x="295.30218348557025" y="542.0837215104999" text-anchor="start" dominant-baseline="alphabetic">XmlFile: response</text></g><g><path fill="none" stroke="black" paint-order="fill stroke markers" d=" M 453.14896761376036 548.6178028305 L 257.50071766454164 548.6178028305" stroke-miterlimit="10" stroke-width="1.3612669416666667" stroke-dasharray="6.53408132"/><g transform="translate(254.7781837812083,548.6178028305) translate(-254.7781837812083,-548.6178028305)"><path fill="black" stroke="none" paint-order="stroke fill markers" d=" M 268.39085319787495 541.8114681221666 L 254.7781837812083 548.6178028305 L 268.39085319787495 555.4241375388333 Z"/></g></g><g><g><rect fill="white" stroke="none" x="84.38429629014713" y="573.1206077804999" width="97.77093757691406" height="21.23576429"/></g><text fill="black" stroke="none" font-family="sans-serif" font-size="11pt" font-style="normal" font-weight="normal" text-decoration="normal" x="86.83457678514714" y="587.8222907504999" text-anchor="start" dominant-baseline="alphabetic">reply(Reports)</text></g><g><path fill="none" stroke="black" paint-order="fill stroke markers" d=" M 238.4429804812083 594.3563720704999 L 30.819083559333336 594.3563720704999" stroke-miterlimit="10" stroke-width="1.3612669416666667" stroke-dasharray="6.53408132"/><g transform="translate(28.096549676000002,594.3563720704999) translate(-28.096549676000002,-594.3563720704999)"><path fill="black" stroke="none" paint-order="stroke fill markers" d=" M 41.70921909266667 587.5500373621666 L 28.096549676000002 594.3563720704999 L 41.70921909266667 601.1627067788332 Z"/></g></g></g><g/><g/><g/><g/><g/><g/></g></svg>