<svg version="1.1" xmlns="http://www.w3.org/2000/svg" xmlns:xlink="http://www.w3.org/1999/xlink" width="647" height="1115"><defs/><g><g/><g/><g/><g/><g/><g/><g/><g/><g/><g/><g/><g><rect fill="white" stroke="none" x="0" y="0" width="647" height="1115"/></g><g><text fill="black" stroke="none" font-family="sans-serif" font-size="16.5pt" font-style="normal" font-weight="normal" text-decoration="normal" x="287.45981879091795" y="24.50280495" text-anchor="start" dominant-baseline="alphabetic">SignUp</text></g><g/><g><path fill="none" stroke="black" paint-order="fill stroke markers" d=" M 98.01121979999999 128.80307802049998 L 98.01121979999999 1115.4493573405" stroke-miterlimit="10" stroke-width="1.3612669416666667" stroke-dasharray="12.565541,5.445067766666667"/><path fill="none" stroke="black" paint-order="fill stroke markers" d=" M 423.9699526255208 128.80307802049998 L 423.9699526255208 1115.4493573405" stroke-miterlimit="10" stroke-width="1.3612669416666667" stroke-dasharray="12.565541,5.445067766666667"/></g><g><g><path fill="white" stroke="black" paint-order="fill stroke markers" d=" M 107.322285681 59.70516806150002 A 9.311065881 9.311065881 0 1 1 107.32228102546743 59.69585699717086 M 98.01121979999999 69.01623394250002 L 98.01121979999999 88.94518196850002 M 86.24987342399999 76.20372339450002 L 109.772566176 76.20372339450002 M 98.01121979999999 88.94518196850002 L 86.24987342399999 107.56731373050002 M 98.01121979999999 88.94518196850002 L 109.772566176 107.56731373050002" stroke-miterlimit="10" stroke-width="2.7769845610000004" stroke-dasharray=""/></g><g><g/><text fill="black" stroke="none" font-family="sans-serif" font-size="11pt" font-style="normal" font-weight="normal" text-decoration="normal" x="87.42424470234374" y="123.90251703050001" text-anchor="start" dominant-baseline="alphabetic">UU</text></g><path fill="none" stroke="none"/><g><path fill="white" stroke="black" paint-order="fill stroke markers" d=" M 367.94634554599736 84.69802911050002 L 479.9935597050443 84.69802911050002 L 479.9935597050443 128.8030780205 L 367.94634554599736 128.8030780205 L 367.94634554599736 84.69802911050002 Z" stroke-miterlimit="10" stroke-width="2.613632528" stroke-dasharray=""/></g><g><g/><text fill="black" stroke="none" font-family="sans-serif" font-size="11pt" font-style="normal" font-weight="normal" text-decoration="normal" x="385.6700411264974" y="112.46787472049999" text-anchor="start" dominant-baseline="alphabetic">SafeStreets</text></g></g><g><path fill="white" stroke="black" paint-order="fill stroke markers" d=" M 89.84361815 136.97067967049998 L 106.17882144999999 136.97067967049998 L 106.17882144999999 1058.2761457905 L 89.84361815 1058.2761457905 L 89.84361815 136.97067967049998" stroke-miterlimit="10" stroke-width="1.3612669416666667" stroke-dasharray=""/><path fill="white" stroke="black" paint-order="fill stroke markers" d=" M 415.8023509755208 182.70924891049998 L 432.1375542755208 182.70924891049998 L 432.1375542755208 228.44781815049998 L 415.8023509755208 228.44781815049998 L 415.8023509755208 182.70924891049998" stroke-miterlimit="10" stroke-width="1.3612669416666667" stroke-dasharray=""/><path fill="white" stroke="black" paint-order="fill stroke markers" d=" M 415.8023509755208 274.1863873905 L 432.1375542755208 274.1863873905 L 432.1375542755208 319.9249566305 L 415.8023509755208 319.9249566305 L 415.8023509755208 274.1863873905" stroke-miterlimit="10" stroke-width="1.3612669416666667" stroke-dasharray=""/><path fill="white" stroke="black" paint-order="fill stroke markers" d=" M 98.01121979999999 381.9987291705 L 114.34642309999998 381.9987291705 L 114.34642309999998 422.83673742049996 L 98.01121979999999 422.83673742049996 L 98.01121979999999 381.9987291705" stroke-miterlimit="10" stroke-width="1.3612669416666667" stroke-dasharray=""/><path fill="white" stroke="black" paint-order="fill stroke markers" d=" M 415.8023509755208 468.57530666049996 L 432.1375542755208 468.57530666049996 L 432.1375542755208 705.4357545105 L 415.8023509755208 705.4357545105 L 415.8023509755208 468.57530666049996" stroke-miterlimit="10" stroke-width="1.3612669416666667" stroke-dasharray=""/><path fill="white" stroke="black" paint-order="fill stroke markers" d=" M 423.9699526255208 574.7541281105 L 440.3051559255208 574.7541281105 L 440.3051559255208 615.5921363605 L 423.9699526255208 615.5921363605 L 423.9699526255208 574.7541281105" stroke-miterlimit="10" stroke-width="1.3612669416666667" stroke-dasharray=""/><path fill="white" stroke="black" paint-order="fill stroke markers" d=" M 98.01121979999999 767.5095270505001 L 114.34642309999998 767.5095270505001 L 114.34642309999998 808.3475353005001 L 98.01121979999999 808.3475353005001 L 98.01121979999999 767.5095270505001" stroke-miterlimit="10" stroke-width="1.3612669416666667" stroke-dasharray=""/><path fill="white" stroke="black" paint-order="fill stroke markers" d=" M 415.8023509755208 854.0861045405001 L 432.1375542755208 854.0861045405001 L 432.1375542755208 968.4325276405001 L 415.8023509755208 968.4325276405001 L 415.8023509755208 854.0861045405001" stroke-miterlimit="10" stroke-width="1.3612669416666667" stroke-dasharray=""/><g><g><rect fill="white" stroke="none" x="208.4150615771354" y="161.4734846205" width="105.15104927125" height="21.23576429"/></g><text fill="black" stroke="none" font-family="sans-serif" font-size="11pt" font-style="normal" font-weight="normal" text-decoration="normal" x="210.86534207213538" y="176.17516759049997" text-anchor="start" dominant-baseline="alphabetic">get(LoginPage)</text></g><g><path fill="none" stroke="black" paint-order="fill stroke markers" d=" M 106.17882144999999 182.70924891049998 L 413.0798170921875 182.70924891049998" stroke-miterlimit="10" stroke-width="1.3612669416666667" stroke-dasharray=""/><g transform="translate(415.8023509755208,182.70924891049998) translate(-415.8023509755208,-182.70924891049998)"><path fill="black" stroke="none" paint-order="stroke fill markers" d=" M 402.18968155885415 175.90291420216664 L 415.8023509755208 182.70924891049998 L 402.18968155885415 189.51558361883332 Z"/></g></g><g><g><rect fill="white" stroke="none" x="201.49308739500648" y="207.2120538605" width="118.99499763550781" height="21.23576429"/></g><text fill="black" stroke="none" font-family="sans-serif" font-size="11pt" font-style="normal" font-weight="normal" text-decoration="normal" x="203.94336789000647" y="221.91373683049997" text-anchor="start" dominant-baseline="alphabetic">show(LoginPage)</text></g><g><path fill="none" stroke="black" paint-order="fill stroke markers" d=" M 415.8023509755208 228.44781815049998 L 108.90135533333333 228.44781815049998" stroke-miterlimit="10" stroke-width="1.3612669416666667" stroke-dasharray="6.53408132"/><g transform="translate(106.17882144999999,228.44781815049998) translate(-106.17882144999999,-228.44781815049998)"><path fill="black" stroke="none" paint-order="stroke fill markers" d=" M 119.79149086666665 221.64148344216665 L 106.17882144999999 228.44781815049998 L 119.79149086666665 235.25415285883332 Z"/></g></g><g><g><rect fill="white" stroke="none" x="202.30911980467445" y="252.9506231005" width="117.36293281617188" height="21.23576429"/></g><text fill="black" stroke="none" font-family="sans-serif" font-size="11pt" font-style="normal" font-weight="normal" text-decoration="normal" x="204.75940029967444" y="267.6523060705" text-anchor="start" dominant-baseline="alphabetic">get(SignUpPage)</text></g><g><path fill="none" stroke="black" paint-order="fill stroke markers" d=" M 106.17882144999999 274.1863873905 L 413.0798170921875 274.1863873905" stroke-miterlimit="10" stroke-width="1.3612669416666667" stroke-dasharray=""/><g transform="translate(415.8023509755208,274.1863873905) translate(-415.8023509755208,-274.1863873905)"><path fill="black" stroke="none" paint-order="stroke fill markers" d=" M 402.18968155885415 267.38005268216665 L 415.8023509755208 274.1863873905 L 402.18968155885415 280.9927220988333 Z"/></g></g><g><g><rect fill="white" stroke="none" x="195.38714562254555" y="298.6891923405" width="131.2068811804297" height="21.23576429"/></g><text fill="black" stroke="none" font-family="sans-serif" font-size="11pt" font-style="normal" font-weight="normal" text-decoration="normal" x="197.83742611754553" y="313.39087531049995" text-anchor="start" dominant-baseline="alphabetic">show(SignUpPage)</text></g><g><path fill="none" stroke="black" paint-order="fill stroke markers" d=" M 415.8023509755208 319.9249566305 L 108.90135533333333 319.9249566305" stroke-miterlimit="10" stroke-width="1.3612669416666667" stroke-dasharray="6.53408132"/><g transform="translate(106.17882144999999,319.9249566305) translate(-106.17882144999999,-319.9249566305)"><path fill="black" stroke="none" paint-order="stroke fill markers" d=" M 119.79149086666665 313.11862192216665 L 106.17882144999999 319.9249566305 L 119.79149086666665 326.73129133883333 Z"/></g></g><g><g><rect fill="white" stroke="none" x="133.67641367166667" y="344.4277615805" width="140.93484748902344" height="21.23576429"/></g><text fill="black" stroke="none" font-family="sans-serif" font-size="11pt" font-style="normal" font-weight="normal" text-decoration="normal" x="136.12669416666665" y="359.12944455049995" text-anchor="start" dominant-baseline="alphabetic">fill(RegistrationForm)</text></g><g><path fill="none" stroke="black" paint-order="fill stroke markers" d=" M 106.17882144999999 365.6635258705 L 179.6872363 365.6635258705 L 179.6872363 381.9987291705 L 117.06895698333332 381.9987291705" stroke-miterlimit="10" stroke-width="1.3612669416666667" stroke-dasharray=""/><g transform="translate(114.3464231,381.9987291705) translate(-114.3464231,-381.9987291705)"><path fill="black" stroke="none" paint-order="stroke fill markers" d=" M 127.95909251666666 375.19239446216665 L 114.3464231 381.9987291705 L 127.95909251666666 388.8050638788333 Z"/></g></g><g><g><rect fill="white" stroke="none" x="181.55036125975258" y="447.33954237049994" width="158.88044990601563" height="21.23576429"/></g><text fill="black" stroke="none" font-family="sans-serif" font-size="11pt" font-style="normal" font-weight="normal" text-decoration="normal" x="184.00064175475256" y="462.0412253404999" text-anchor="start" dominant-baseline="alphabetic">send(RegistrationForm)</text></g><g><path fill="none" stroke="black" paint-order="fill stroke markers" d=" M 106.17882144999999 468.57530666049996 L 413.0798170921875 468.57530666049996" stroke-miterlimit="10" stroke-width="1.3612669416666667" stroke-dasharray=""/><g transform="translate(415.8023509755208,468.57530666049996) translate(-415.8023509755208,-468.57530666049996)"><path fill="black" stroke="none" paint-order="stroke fill markers" d=" M 402.18968155885415 461.7689719521666 L 415.8023509755208 468.57530666049996 L 402.18968155885415 475.3816413688333 Z"/></g></g><g><g><rect fill="white" stroke="none" x="459.63514649718746" y="537.1831605205" width="165.38724006714844" height="21.23576429"/></g><text fill="black" stroke="none" font-family="sans-serif" font-size="11pt" font-style="normal" font-weight="normal" text-decoration="normal" x="462.0854269921875" y="551.8848434905" text-anchor="start" dominant-baseline="alphabetic">check(RegistrationForm)</text></g><g><path fill="none" stroke="black" paint-order="fill stroke markers" d=" M 432.1375542755208 558.4189248105 L 505.6459691255208 558.4189248105 L 505.6459691255208 574.7541281105 L 443.0276898088541 574.7541281105" stroke-miterlimit="10" stroke-width="1.3612669416666667" stroke-dasharray=""/><g transform="translate(440.3051559255208,574.7541281105) translate(-440.3051559255208,-574.7541281105)"><path fill="black" stroke="none" paint-order="stroke fill markers" d=" M 453.9178253421875 567.9477934021667 L 440.3051559255208 574.7541281105 L 453.9178253421875 581.5604628188333 Z"/></g></g><g><g><rect fill="white" stroke="none" x="129.59261284666664" y="684.1999902205" width="262.7959467321875" height="21.23576429"/></g><text fill="black" stroke="none" font-family="sans-serif" font-size="11pt" font-style="normal" font-weight="normal" text-decoration="normal" x="132.04289334166663" y="698.9016731905" text-anchor="start" dominant-baseline="alphabetic">send(RegistrationKO) [registered=false]</text></g><g><path fill="none" stroke="black" paint-order="fill stroke markers" d=" M 415.8023509755208 705.4357545105 L 108.90135533333333 705.4357545105" stroke-miterlimit="10" stroke-width="1.3612669416666667" stroke-dasharray="6.53408132"/><g transform="translate(106.17882144999999,705.4357545105) translate(-106.17882144999999,-705.4357545105)"><path fill="black" stroke="none" paint-order="stroke fill markers" d=" M 119.79149086666665 698.6294198021667 L 106.17882144999999 705.4357545105 L 119.79149086666665 712.2420892188334 Z"/></g></g><g><g><rect fill="white" stroke="none" x="133.67641367166667" y="729.9385594605001" width="140.93484748902344" height="21.23576429"/></g><text fill="black" stroke="none" font-family="sans-serif" font-size="11pt" font-style="normal" font-weight="normal" text-decoration="normal" x="136.12669416666665" y="744.6402424305" text-anchor="start" dominant-baseline="alphabetic">fill(RegistrationForm)</text></g><g><path fill="none" stroke="black" paint-order="fill stroke markers" d=" M 106.17882144999999 751.1743237505001 L 179.6872363 751.1743237505001 L 179.6872363 767.5095270505001 L 117.06895698333332 767.5095270505001" stroke-miterlimit="10" stroke-width="1.3612669416666667" stroke-dasharray=""/><g transform="translate(114.3464231,767.5095270505001) translate(-114.3464231,-767.5095270505001)"><path fill="black" stroke="none" paint-order="stroke fill markers" d=" M 127.95909251666666 760.7031923421667 L 114.3464231 767.5095270505001 L 127.95909251666666 774.3158617588334 Z"/></g></g><g><g><rect fill="white" stroke="none" x="168.10369072752601" y="832.8503402505" width="185.77379097046875" height="21.23576429"/></g><text fill="black" stroke="none" font-family="sans-serif" font-size="11pt" font-style="normal" font-weight="normal" text-decoration="normal" x="170.553971222526" y="847.5520232205" text-anchor="start" dominant-baseline="alphabetic">send(newRegistrationForm)</text></g><g><path fill="none" stroke="black" paint-order="fill stroke markers" d=" M 106.17882144999999 854.0861045405001 L 413.0798170921875 854.0861045405001" stroke-miterlimit="10" stroke-width="1.3612669416666667" stroke-dasharray=""/><g transform="translate(415.8023509755208,854.0861045405001) translate(-415.8023509755208,-854.0861045405001)"><path fill="black" stroke="none" paint-order="stroke fill markers" d=" M 402.18968155885415 847.2797698321667 L 415.8023509755208 854.0861045405001 L 402.18968155885415 860.8924392488334 Z"/></g></g><g><g><rect fill="white" stroke="none" x="132.44515953856117" y="947.1967633505001" width="257.0908533483984" height="21.23576429"/></g><text fill="black" stroke="none" font-family="sans-serif" font-size="11pt" font-style="normal" font-weight="normal" text-decoration="normal" x="134.89544003356116" y="961.8984463205" text-anchor="start" dominant-baseline="alphabetic">send(RegistrationOK) [registered=true]</text></g><g><path fill="none" stroke="black" paint-order="fill stroke markers" d=" M 415.8023509755208 968.4325276405001 L 108.90135533333333 968.4325276405001" stroke-miterlimit="10" stroke-width="1.3612669416666667" stroke-dasharray="6.53408132"/><g transform="translate(106.17882144999999,968.4325276405001) translate(-106.17882144999999,-968.4325276405001)"><path fill="black" stroke="none" paint-order="stroke fill markers" d=" M 119.79149086666665 961.6261929321668 L 106.17882144999999 968.4325276405001 L 119.79149086666665 975.2388623488334 Z"/></g></g><g><g/><path fill="none" stroke="black" paint-order="fill stroke markers" d=" M 16.335203299999996 493.07811161049995 L 630.7397077193359 493.07811161049995 L 630.7397077193359 1017.4381375405002 L 16.335203299999996 1017.4381375405002 L 16.335203299999996 493.07811161049995 Z" stroke-miterlimit="10" stroke-width="2.3336004714285714" stroke-dasharray=""/><path fill="white" stroke="black" paint-order="fill stroke markers" d=" M 16.335203299999996 493.07811161049995 L 16.335203299999996 512.6803555705 L 73.76000443125 512.6803555705 L 83.56112641125 502.87923359049995 L 83.56112641125 493.07811161049995 L 16.335203299999996 493.07811161049995" stroke-miterlimit="10" stroke-width="2.3336004714285714" stroke-dasharray=""/><text fill="black" stroke="none" font-family="sans-serif" font-size="8.8pt" font-style="normal" font-weight="bold" text-decoration="normal" x="32.67040659999999" y="506.14627425049997" text-anchor="start" dominant-baseline="alphabetic">loop</text><text fill="black" stroke="none" font-family="sans-serif" font-size="8.8pt" font-style="normal" font-weight="bold" text-decoration="normal" x="99.89632971125" y="506.14627425049997" text-anchor="start" dominant-baseline="alphabetic">[registered == false]</text></g><g><g/><path fill="none" stroke="black" paint-order="fill stroke markers" d=" M 32.67040659999999 640.0949413105001 L 481.14316417552084 640.0949413105001 L 481.14316417552084 878.5889094905001 L 32.67040659999999 878.5889094905001 L 32.67040659999999 640.0949413105001 Z" stroke-miterlimit="10" stroke-width="2.3336004714285714" stroke-dasharray=""/><path fill="white" stroke="black" paint-order="fill stroke markers" d=" M 32.67040659999999 640.0949413105001 L 32.67040659999999 659.6971852705001 L 79.0296101970703 659.6971852705001 L 88.8307321770703 649.8960632905 L 88.8307321770703 640.0949413105001 L 32.67040659999999 640.0949413105001" stroke-miterlimit="10" stroke-width="2.3336004714285714" stroke-dasharray=""/><text fill="black" stroke="none" font-family="sans-serif" font-size="8.8pt" font-style="normal" font-weight="bold" text-decoration="normal" x="49.005609899999996" y="653.1631039505" text-anchor="start" dominant-baseline="alphabetic">alt</text><text fill="black" stroke="none" font-family="sans-serif" font-size="8.8pt" font-style="normal" font-weight="bold" text-decoration="normal" x="105.1659354770703" y="653.1631039505" text-anchor="start" dominant-baseline="alphabetic">[InvalidRegistrationForm]</text></g><g><g/><path fill="none" stroke="black" paint-order="fill stroke markers" d=" M 32.67040659999999 903.0917144405001 L 481.14316417552084 903.0917144405001 L 481.14316417552084 992.9353325905001 L 32.67040659999999 992.9353325905001 L 32.67040659999999 903.0917144405001 Z" stroke-miterlimit="10" stroke-width="2.3336004714285714" stroke-dasharray=""/><path fill="white" stroke="black" paint-order="fill stroke markers" d=" M 32.67040659999999 903.0917144405001 L 32.67040659999999 922.6939584005002 L 79.0296101970703 922.6939584005002 L 88.8307321770703 912.8928364205001 L 88.8307321770703 903.0917144405001 L 32.67040659999999 903.0917144405001" stroke-miterlimit="10" stroke-width="2.3336004714285714" stroke-dasharray=""/><text fill="black" stroke="none" font-family="sans-serif" font-size="8.8pt" font-style="normal" font-weight="bold" text-decoration="normal" x="49.005609899999996" y="916.1598770805001" text-anchor="start" dominant-baseline="alphabetic">alt</text><text fill="black" stroke="none" font-family="sans-serif" font-size="8.8pt" font-style="normal" font-weight="bold" text-decoration="normal" x="105.1659354770703" y="916.1598770805001" text-anchor="start" dominant-baseline="alphabetic">[ValidRegistrationForm]</text></g></g><g/><g/></g></svg>